<?xml version="1.0" encoding="utf-8" standalone="no"?>
<!DOCTYPE svg PUBLIC "-//W3C//DTD SVG 1.1//EN"
  "http://www.w3.org/Graphics/SVG/1.1/DTD/svg11.dtd">
<svg xmlns:xlink="http://www.w3.org/1999/xlink" width="423.3925pt" height="283.416156pt" viewBox="0 0 423.3925 283.416156" xmlns="http://www.w3.org/2000/svg" version="1.1">
 <metadata>
  <rdf:RDF xmlns:dc="http://purl.org/dc/elements/1.1/" xmlns:cc="http://creativecommons.org/ns#" xmlns:rdf="http://www.w3.org/1999/02/22-rdf-syntax-ns#">
   <cc:Work>
    <dc:type rdf:resource="http://purl.org/dc/dcmitype/StillImage"/>
    <dc:date>2026-07-13T09:20:39.682024</dc:date>
    <dc:format>image/svg+xml</dc:format>
    <dc:creator>
     <cc:Agent>
      <dc:title>Matplotlib v3.10.3, https://matplotlib.org/</dc:title>
     </cc:Agent>
    </dc:creator>
   </cc:Work>
  </rdf:RDF>
 </metadata>
 <defs>
  <style type="text/css">*{stroke-linejoin: round; stroke-linecap: butt}</style>
 </defs>
 <g id="figure_1">
  <g id="patch_1">
   <path d="M 0 283.416156 
L 423.3925 283.416156 
L 423.3925 0 
L 0 0 
z
" style="fill: #ffffff"/>
  </g>
  <g id="axes_1">
   <g id="patch_2">
    <path d="M 19.405937 76.065882 
L 410.005938 76.065882 
L 410.005938 4.32 
L 19.405937 4.32 
z
" style="fill: #ffffff"/>
   </g>
   <g id="matplotlib.axis_1">
    <g id="xtick_1">
     <g id="line2d_1">
      <defs>
       <path id="m4ea25c4c13" d="M 0 0 
L 0 3.5 
" style="stroke: #1a1a1a; stroke-width: 0.8"/>
      </defs>
      <g>
       <use xlink:href="#m4ea25c4c13" x="19.405937" y="76.065882" style="fill: #1a1a1a; stroke: #1a1a1a; stroke-width: 0.8"/>
      </g>
     </g>
    </g>
    <g id="xtick_2">
     <g id="line2d_2">
      <g>
       <use xlink:href="#m4ea25c4c13" x="75.205938" y="76.065882" style="fill: #1a1a1a; stroke: #1a1a1a; stroke-width: 0.8"/>
      </g>
     </g>
    </g>
    <g id="xtick_3">
     <g id="line2d_3">
      <g>
       <use xlink:href="#m4ea25c4c13" x="131.005938" y="76.065882" style="fill: #1a1a1a; stroke: #1a1a1a; stroke-width: 0.8"/>
      </g>
     </g>
    </g>
    <g id="xtick_4">
     <g id="line2d_4">
      <g>
       <use xlink:href="#m4ea25c4c13" x="186.805937" y="76.065882" style="fill: #1a1a1a; stroke: #1a1a1a; stroke-width: 0.8"/>
      </g>
     </g>
    </g>
    <g id="xtick_5">
     <g id="line2d_5">
      <g>
       <use xlink:href="#m4ea25c4c13" x="242.605938" y="76.065882" style="fill: #1a1a1a; stroke: #1a1a1a; stroke-width: 0.8"/>
      </g>
     </g>
    </g>
    <g id="xtick_6">
     <g id="line2d_6">
      <g>
       <use xlink:href="#m4ea25c4c13" x="298.405937" y="76.065882" style="fill: #1a1a1a; stroke: #1a1a1a; stroke-width: 0.8"/>
      </g>
     </g>
    </g>
    <g id="xtick_7">
     <g id="line2d_7">
      <g>
       <use xlink:href="#m4ea25c4c13" x="354.205938" y="76.065882" style="fill: #1a1a1a; stroke: #1a1a1a; stroke-width: 0.8"/>
      </g>
     </g>
    </g>
    <g id="xtick_8">
     <g id="line2d_8">
      <g>
       <use xlink:href="#m4ea25c4c13" x="410.005938" y="76.065882" style="fill: #1a1a1a; stroke: #1a1a1a; stroke-width: 0.8"/>
      </g>
     </g>
    </g>
   </g>
   <g id="matplotlib.axis_2"/>
   <g id="line2d_9">
    <path d="M 19.405937 40.192941 
L 19.796586 12.50126 
L 19.845417 11.739389 
L 19.894249 11.754178 
L 19.991911 14.083631 
L 20.187235 26.585719 
L 20.724377 66.752803 
L 20.773208 67.4562 
L 20.82204 67.413713 
L 20.919702 65.136353 
L 21.115026 53.207795 
L 21.652168 15.797073 
L 21.700999 15.175983 
L 21.74983 15.240921 
L 21.847493 17.372311 
L 22.042817 28.273733 
L 22.579959 61.652491 
L 22.62879 62.176938 
L 22.677621 62.097099 
L 22.775284 60.187457 
L 23.019439 47.473616 
L 23.458919 23.047198 
L 23.556581 21.691984 
L 23.605412 21.778311 
L 23.703075 23.416268 
L 23.94723 34.051848 
L 24.38671 54.036882 
L 24.484372 55.103608 
L 24.533203 55.018636 
L 24.679697 52.46971 
L 25.021514 38.633339 
L 25.363332 28.925747 
L 25.412163 28.684533 
L 25.460994 28.76198 
L 25.607488 30.752823 
L 25.949305 41.295424 
L 26.242292 48.119709 
L 26.339954 48.699397 
L 26.388785 48.6334 
L 26.535279 47.144435 
L 26.925927 38.33926 
L 27.218914 34.286219 
L 27.267745 34.171544 
L 27.316576 34.224443 
L 27.46307 35.290791 
L 27.853718 41.436671 
L 28.146705 44.200978 
L 28.195536 44.274829 
L 28.244367 44.234786 
L 28.390861 43.503513 
L 29.123327 37.542977 
L 29.172158 37.571682 
L 29.318652 38.051887 
L 30.051118 41.840473 
L 30.099949 41.820947 
L 30.246443 41.518994 
L 31.02774 39.224624 
L 31.223065 39.50518 
L 31.857869 40.744258 
L 32.053193 40.686583 
L 32.443842 40.16857 
L 32.78566 39.891605 
L 33.029815 39.949937 
L 33.859944 40.343428 
L 35.129553 40.176242 
L 35.86202 40.219246 
L 37.326953 40.199752 
L 46.360707 40.192941 
L 116.38451 40.089954 
L 116.775159 40.048098 
L 117.165807 40.278071 
L 117.605287 40.497122 
L 117.849443 40.358879 
L 118.581909 39.653593 
L 118.777234 39.888813 
L 119.460869 41.168799 
L 119.5097 41.137494 
L 119.705025 40.72663 
L 120.38866 38.554864 
L 120.437491 38.608799 
L 120.583985 39.057281 
L 120.925802 41.280067 
L 121.218789 42.780188 
L 121.316451 42.826216 
L 121.462945 42.330062 
L 121.7071 40.180067 
L 122.14658 36.201763 
L 122.244242 36.139052 
L 122.341904 36.536857 
L 122.537229 38.639551 
L 123.123202 46.211833 
L 123.172033 46.169646 
L 123.269695 45.574642 
L 123.46502 42.496423 
L 124.050993 31.686278 
L 124.099824 31.754428 
L 124.197486 32.606665 
L 124.392811 36.923207 
L 124.978784 51.706709 
L 125.027615 51.602907 
L 125.174109 49.382919 
L 125.467095 38.351031 
L 125.857744 25.527041 
L 125.906575 25.268733 
L 125.955406 25.418292 
L 126.101899 28.316755 
L 126.394886 42.401317 
L 126.785535 58.417169 
L 126.834366 58.718902 
L 126.883197 58.514587 
L 127.02969 54.890227 
L 127.322677 37.665332 
L 127.713326 18.505672 
L 127.762157 18.169469 
L 127.810988 18.434571 
L 127.957481 22.775055 
L 128.250468 42.953556 
L 128.592286 63.884942 
L 128.689948 65.265952 
L 128.738779 64.93882 
L 128.885272 59.960471 
L 129.178259 37.317183 
L 129.520077 14.310074 
L 129.617739 12.856446 
L 129.66657 13.240747 
L 129.813063 18.709267 
L 130.10605 43.048541 
L 130.447868 67.272168 
L 130.54553 68.735626 
L 130.594361 68.305486 
L 130.740854 62.552559 
L 131.082672 32.838046 
L 131.375659 13.061476 
L 131.473321 11.652382 
L 131.522152 12.111391 
L 131.668645 17.907546 
L 132.010463 47.162995 
L 132.30345 66.225881 
L 132.401112 67.52333 
L 132.449943 67.05609 
L 132.596436 61.463404 
L 132.938254 33.872525 
L 133.231241 16.271572 
L 133.328903 15.129263 
L 133.377734 15.58316 
L 133.524227 20.751224 
L 133.914876 49.268833 
L 134.207863 62.026261 
L 134.256694 62.20494 
L 134.354356 60.784415 
L 134.54968 51.93798 
L 135.135654 21.810796 
L 135.184485 21.679387 
L 135.282147 22.908861 
L 135.477471 30.34002 
L 136.014614 54.509879 
L 136.112276 55.104938 
L 136.209938 54.086655 
L 136.405262 48.107746 
L 136.942405 29.127649 
L 137.040067 28.690304 
L 137.137729 29.497376 
L 137.333053 34.104844 
L 137.870196 48.383014 
L 137.967858 48.690119 
L 138.06552 48.077958 
L 138.260844 44.677201 
L 138.797987 34.387643 
L 138.895649 34.181652 
L 138.993311 34.62602 
L 139.188635 37.03016 
L 139.725777 44.133639 
L 139.82344 44.265582 
L 139.921102 43.956869 
L 140.165257 41.79288 
L 140.604737 37.785996 
L 140.751231 37.550531 
L 140.848893 37.755797 
L 141.093048 39.155984 
L 141.532528 41.692422 
L 141.679022 41.834815 
L 141.825515 41.58153 
L 142.216164 39.985948 
L 142.50915 39.242144 
L 142.655644 39.243534 
L 142.850968 39.567785 
L 143.436941 40.735794 
L 143.632266 40.703311 
L 143.974084 40.266479 
L 144.364732 39.896126 
L 144.608888 39.938228 
L 145.487848 40.337916 
L 146.610963 40.152264 
L 147.489923 40.216835 
L 148.857194 40.198498 
L 154.375109 40.192954 
L 227.963582 40.097779 
L 228.403062 40.055819 
L 228.793711 40.30034 
L 229.18436 40.498324 
L 229.428515 40.379461 
L 230.209813 39.671046 
L 230.405137 39.94247 
L 231.088773 41.154446 
L 231.235266 40.923975 
L 231.528253 39.830556 
L 231.918902 38.559414 
L 232.016564 38.579797 
L 232.163057 38.967748 
L 232.456044 40.771393 
L 232.846693 42.8227 
L 232.944355 42.784774 
L 233.090848 42.159269 
L 233.383835 39.309322 
L 233.725652 36.271679 
L 233.823315 36.11453 
L 233.920977 36.412299 
L 234.116301 38.343197 
L 234.751106 46.208343 
L 234.848768 45.759426 
L 235.044092 42.927545 
L 235.678897 31.696185 
L 235.776559 32.344111 
L 235.971883 36.322453 
L 236.557856 51.654137 
L 236.606688 51.686558 
L 236.70435 50.791273 
L 236.899674 45.437766 
L 237.485647 25.330245 
L 237.534479 25.303604 
L 237.632141 26.48794 
L 237.827465 33.388466 
L 238.413438 58.650785 
L 238.46227 58.664737 
L 238.559932 57.164818 
L 238.755256 48.644979 
L 239.341229 18.240645 
L 239.390061 18.246803 
L 239.487723 20.065429 
L 239.683047 30.141333 
L 240.26902 65.196085 
L 240.317851 65.163158 
L 240.415514 63.052087 
L 240.610838 51.638081 
L 241.196811 12.920445 
L 241.245642 12.984615 
L 241.343305 15.330728 
L 241.538629 27.715603 
L 242.075771 68.001925 
L 242.124602 68.68152 
L 242.173433 68.584985 
L 242.271096 66.088762 
L 242.46642 53.216865 
L 243.003562 12.345374 
L 243.052393 11.693767 
L 243.101224 11.819836 
L 243.198887 14.362615 
L 243.394211 27.17674 
L 243.931353 66.898629 
L 243.980184 67.495876 
L 244.029015 67.346859 
L 244.126678 64.867002 
L 244.370833 48.573737 
L 244.810313 16.868733 
L 244.907975 15.143274 
L 244.956806 15.305882 
L 245.1033 19.695505 
L 245.396286 40.220754 
L 245.738104 60.725385 
L 245.835766 62.202437 
L 245.884597 62.03684 
L 246.031091 58.137742 
L 246.372908 37.0168 
L 246.714726 22.023624 
L 246.763557 21.673251 
L 246.812388 21.831692 
L 246.958882 25.148249 
L 247.300699 42.679494 
L 247.593686 54.167588 
L 247.691348 55.116514 
L 247.740179 54.973466 
L 247.886673 52.272019 
L 248.22849 38.333132 
L 248.521477 29.388385 
L 248.619139 28.67626 
L 248.66797 28.7985 
L 248.814464 30.905621 
L 249.205112 43.048063 
L 249.498099 48.568222 
L 249.54693 48.704268 
L 249.595761 48.605184 
L 249.742255 47.031327 
L 250.474721 34.168975 
L 250.523552 34.24528 
L 250.670046 35.370982 
L 251.402512 44.275976 
L 251.451343 44.220076 
L 251.597836 43.449062 
L 252.330303 37.542618 
L 252.379134 37.581611 
L 252.525627 38.087298 
L 253.258094 41.840458 
L 253.404587 41.638275 
L 253.697574 40.49278 
L 254.088223 39.262661 
L 254.234716 39.228579 
L 254.430041 39.520454 
L 255.064845 40.746402 
L 255.260169 40.680535 
L 256.139129 39.906968 
L 256.578609 40.209313 
L 256.969258 40.352568 
L 257.408738 40.22324 
L 257.94588 40.114673 
L 260.533928 40.199848 
L 270.202487 40.192941 
L 339.591486 40.087411 
L 339.982135 40.049876 
L 340.372783 40.283639 
L 340.812263 40.496358 
L 341.056419 40.351692 
L 341.788885 39.65744 
L 341.98421 39.901813 
L 342.667845 41.166088 
L 342.716676 41.130656 
L 342.912001 40.704107 
L 343.595636 38.559635 
L 343.74213 38.886383 
L 343.986285 40.265917 
L 344.425765 42.792929 
L 344.523427 42.818191 
L 344.66992 42.289551 
L 344.914076 40.102538 
L 345.353556 36.182703 
L 345.402387 36.111076 
L 345.451218 36.151956 
L 345.597711 36.971136 
L 345.841867 40.292295 
L 346.281347 46.116527 
L 346.330178 46.216065 
L 346.379009 46.149805 
L 346.525502 44.933987 
L 346.769658 40.102882 
L 347.209138 31.813507 
L 347.257969 31.681554 
L 347.3068 31.783599 
L 347.453293 33.511919 
L 347.74628 41.897703 
L 348.136929 51.544625 
L 348.18576 51.7114 
L 348.234591 51.561892 
L 348.381084 49.208783 
L 348.674071 38.037224 
L 349.06472 25.465701 
L 349.113551 25.264863 
L 349.162382 25.473448 
L 349.308875 28.541896 
L 349.601862 42.798111 
L 349.94368 57.769433 
L 350.041342 58.720958 
L 350.090173 58.44364 
L 350.236666 54.611414 
L 350.529653 37.184746 
L 350.871471 19.258689 
L 350.969133 18.170294 
L 351.017964 18.521866 
L 351.164457 23.105774 
L 351.457444 43.511101 
L 351.799262 64.070865 
L 351.896924 65.261288 
L 351.945755 64.836068 
L 352.092248 59.584728 
L 352.434066 32.412667 
L 352.727053 14.110431 
L 352.824715 12.865594 
L 352.873546 13.356456 
L 353.020039 19.118158 
L 353.361857 48.260406 
L 353.654844 67.477431 
L 353.752506 68.72183 
L 353.850168 66.874828 
L 354.045492 54.987254 
L 354.631466 11.878262 
L 354.680297 11.670422 
L 354.777959 13.569172 
L 354.973283 25.425814 
L 355.559257 67.331094 
L 355.608088 67.501988 
L 355.70575 65.633975 
L 355.901074 54.306885 
L 356.487048 15.283494 
L 356.535879 15.152564 
L 356.633541 16.911367 
L 356.828865 27.276167 
L 357.366008 61.391944 
L 357.46367 62.181201 
L 357.561332 60.596336 
L 357.756656 51.512124 
L 358.293798 22.330197 
L 358.391461 21.702107 
L 358.489123 23.068942 
L 358.684447 30.694916 
L 359.221589 54.607248 
L 359.319252 55.08442 
L 359.416914 53.956183 
L 359.612238 47.824456 
L 360.14938 29.05379 
L 360.247043 28.70784 
L 360.344705 29.599203 
L 360.540029 34.32144 
L 361.077171 48.436657 
L 361.174834 48.675902 
L 361.272496 48.001858 
L 361.516651 43.368173 
L 361.956131 34.684619 
L 362.102625 34.192602 
L 362.200287 34.68048 
L 362.444442 37.94675 
L 362.883922 43.934427 
L 363.030416 44.257559 
L 363.128078 43.919549 
L 363.372233 41.714284 
L 363.811713 37.759189 
L 363.958207 37.556128 
L 364.1047 37.984025 
L 364.495349 40.594536 
L 364.788335 41.797403 
L 364.934829 41.780258 
L 365.130153 41.220198 
L 365.716126 39.236494 
L 365.86262 39.249525 
L 366.057944 39.584029 
L 366.643917 40.738956 
L 366.839242 40.697976 
L 367.181059 40.256379 
L 367.571708 39.894431 
L 367.815864 39.942023 
L 368.645993 40.345738 
L 370.013263 40.19245 
L 370.74573 40.211706 
L 372.015339 40.197495 
L 376.5078 40.192948 
L 410.005938 40.192941 
L 410.005938 40.192941 
" clip-path="url(#p35a5be477b)" style="fill: none; stroke: #7a2e2e; stroke-linecap: square"/>
   </g>
   <g id="patch_3">
    <path d="M 19.405937 76.065882 
L 19.405937 4.32 
" style="fill: none; stroke: #1a1a1a; stroke-width: 0.9; stroke-linejoin: miter; stroke-linecap: square"/>
   </g>
   <g id="patch_4">
    <path d="M 19.405937 76.065882 
L 410.005938 76.065882 
" style="fill: none; stroke: #1a1a1a; stroke-width: 0.9; stroke-linejoin: miter; stroke-linecap: square"/>
   </g>
   <g id="text_1">
    <text style="font-style: italic; font-size: 9.5px; font-family: 'DejaVu Serif', serif; text-anchor: start; fill: #1a1a1a" x="24.093137" y="18.713104" transform="rotate(-0 24.093137 18.713104)">10 pulsos/s — se oyen golpes separados (ritmo)</text>
   </g>
  </g>
  <g id="axes_2">
   <g id="patch_5">
    <path d="M 19.405937 162.160941 
L 410.005938 162.160941 
L 410.005938 90.415059 
L 19.405937 90.415059 
z
" style="fill: #ffffff"/>
   </g>
   <g id="matplotlib.axis_3">
    <g id="xtick_9">
     <g id="line2d_10">
      <g>
       <use xlink:href="#m4ea25c4c13" x="19.405937" y="162.160941" style="fill: #1a1a1a; stroke: #1a1a1a; stroke-width: 0.8"/>
      </g>
     </g>
    </g>
    <g id="xtick_10">
     <g id="line2d_11">
      <g>
       <use xlink:href="#m4ea25c4c13" x="75.205938" y="162.160941" style="fill: #1a1a1a; stroke: #1a1a1a; stroke-width: 0.8"/>
      </g>
     </g>
    </g>
    <g id="xtick_11">
     <g id="line2d_12">
      <g>
       <use xlink:href="#m4ea25c4c13" x="131.005938" y="162.160941" style="fill: #1a1a1a; stroke: #1a1a1a; stroke-width: 0.8"/>
      </g>
     </g>
    </g>
    <g id="xtick_12">
     <g id="line2d_13">
      <g>
       <use xlink:href="#m4ea25c4c13" x="186.805937" y="162.160941" style="fill: #1a1a1a; stroke: #1a1a1a; stroke-width: 0.8"/>
      </g>
     </g>
    </g>
    <g id="xtick_13">
     <g id="line2d_14">
      <g>
       <use xlink:href="#m4ea25c4c13" x="242.605938" y="162.160941" style="fill: #1a1a1a; stroke: #1a1a1a; stroke-width: 0.8"/>
      </g>
     </g>
    </g>
    <g id="xtick_14">
     <g id="line2d_15">
      <g>
       <use xlink:href="#m4ea25c4c13" x="298.405937" y="162.160941" style="fill: #1a1a1a; stroke: #1a1a1a; stroke-width: 0.8"/>
      </g>
     </g>
    </g>
    <g id="xtick_15">
     <g id="line2d_16">
      <g>
       <use xlink:href="#m4ea25c4c13" x="354.205938" y="162.160941" style="fill: #1a1a1a; stroke: #1a1a1a; stroke-width: 0.8"/>
      </g>
     </g>
    </g>
    <g id="xtick_16">
     <g id="line2d_17">
      <g>
       <use xlink:href="#m4ea25c4c13" x="410.005938" y="162.160941" style="fill: #1a1a1a; stroke: #1a1a1a; stroke-width: 0.8"/>
      </g>
     </g>
    </g>
   </g>
   <g id="matplotlib.axis_4">
    <g id="text_2">
     <text style="font-size: 11px; font-family: 'DejaVu Serif', serif; text-anchor: middle; fill: #1a1a1a" x="13.118281" y="126.288" transform="rotate(-90 13.118281 126.288)">presión (u.a.)</text>
    </g>
   </g>
   <g id="line2d_18">
    <path d="M 19.405937 126.288 
L 19.796586 98.596319 
L 19.845417 97.834448 
L 19.894249 97.849237 
L 19.991911 100.17869 
L 20.187235 112.680777 
L 20.724377 152.847862 
L 20.773208 153.551259 
L 20.82204 153.508772 
L 20.919702 151.231412 
L 21.115026 139.302854 
L 21.652168 101.892132 
L 21.700999 101.271042 
L 21.74983 101.33598 
L 21.847493 103.46737 
L 22.042817 114.368792 
L 22.579959 147.74755 
L 22.62879 148.271997 
L 22.677621 148.192158 
L 22.775284 146.282516 
L 23.019439 133.568675 
L 23.458919 109.142257 
L 23.556581 107.787043 
L 23.605412 107.87337 
L 23.703075 109.511327 
L 23.94723 120.146906 
L 24.38671 140.131941 
L 24.484372 141.198667 
L 24.533203 141.113695 
L 24.679697 138.564768 
L 25.021514 124.728398 
L 25.363332 115.020806 
L 25.412163 114.779592 
L 25.460994 114.857039 
L 25.607488 116.847882 
L 25.949305 127.390483 
L 26.242292 134.214768 
L 26.339954 134.794456 
L 26.388785 134.728459 
L 26.535279 133.239494 
L 26.925927 124.434319 
L 27.218914 120.381278 
L 27.267745 120.266603 
L 27.316576 120.319502 
L 27.46307 121.38585 
L 27.853718 127.53173 
L 28.146705 130.296037 
L 28.195536 130.369888 
L 28.244367 130.329845 
L 28.390861 129.598572 
L 29.123327 123.638036 
L 29.172158 123.666741 
L 29.318652 124.146946 
L 30.051118 127.935532 
L 30.099949 127.916006 
L 30.246443 127.614053 
L 31.02774 125.319683 
L 31.223065 125.600239 
L 31.857869 126.839317 
L 32.053193 126.781641 
L 32.443842 126.263629 
L 32.78566 125.986665 
L 33.029815 126.044996 
L 33.859944 126.438485 
L 35.129553 126.271299 
L 35.86202 126.31429 
L 37.326953 126.294653 
L 44.407463 126.278703 
L 45.042267 126.14573 
L 45.432916 126.381085 
L 45.872396 126.591033 
L 46.116551 126.443622 
L 46.849018 125.754253 
L 47.044342 126.002529 
L 47.727978 127.259806 
L 47.874471 127.061065 
L 48.118627 126.221234 
L 48.558107 124.670458 
L 48.655769 124.657036 
L 48.802262 124.992556 
L 49.046418 126.382192 
L 49.485897 128.893021 
L 49.58356 128.909335 
L 49.730053 128.366798 
L 49.974209 126.164229 
L 50.413688 122.270254 
L 50.46252 122.205351 
L 50.511351 122.253273 
L 50.657844 123.093539 
L 50.902 126.437623 
L 51.341479 132.222298 
L 51.390311 132.311901 
L 51.439142 132.235295 
L 51.585635 130.988836 
L 51.878622 124.925383 
L 52.26927 117.893945 
L 52.318102 117.776051 
L 52.366933 117.892656 
L 52.513426 119.663612 
L 52.806413 128.094685 
L 53.197061 137.658769 
L 53.245892 137.806491 
L 53.294724 137.63736 
L 53.441217 135.227436 
L 53.734204 123.997782 
L 54.076021 112.108146 
L 54.173683 111.360826 
L 54.222515 111.594737 
L 54.369008 114.73569 
L 54.661995 129.063182 
L 55.003812 143.922271 
L 55.101474 144.813721 
L 55.150306 144.505098 
L 55.296799 140.584263 
L 55.589785 123.07396 
L 55.931603 105.286159 
L 56.029265 104.269478 
L 56.078097 104.65811 
L 56.22459 109.345721 
L 56.517576 129.844887 
L 56.859394 150.241622 
L 56.957056 151.350058 
L 57.054719 149.735304 
L 57.250043 139.100778 
L 57.836016 99.179057 
L 57.884847 98.969246 
L 57.98251 100.778636 
L 58.177834 112.336581 
L 58.763807 154.61649 
L 58.812638 154.806103 
L 58.910301 152.865738 
L 59.105625 140.833776 
L 59.691598 97.938225 
L 59.740429 97.778081 
L 59.838092 99.769544 
L 60.033416 111.766843 
L 60.619389 153.458092 
L 60.66822 153.583243 
L 60.765882 151.627057 
L 60.961207 140.168774 
L 61.54718 101.350791 
L 61.596011 101.261876 
L 61.693673 103.100986 
L 61.888998 113.582944 
L 62.42614 147.546945 
L 62.523802 148.262341 
L 62.621464 146.607429 
L 62.816789 137.423046 
L 63.353931 108.375744 
L 63.451593 107.81005 
L 63.549255 109.235399 
L 63.74458 116.943371 
L 64.281722 140.741463 
L 64.379384 141.168153 
L 64.477046 139.993106 
L 64.672371 133.797114 
L 65.209513 115.119201 
L 65.307175 114.812367 
L 65.404837 115.739593 
L 65.648993 122.089626 
L 66.088473 134.090134 
L 66.186135 134.777038 
L 66.234966 134.763427 
L 66.332628 134.06307 
L 66.576784 129.390969 
L 67.016264 120.754329 
L 67.113926 120.27757 
L 67.162757 120.293372 
L 67.260419 120.79974 
L 67.504575 124.092304 
L 67.944055 130.046558 
L 68.041717 130.363374 
L 68.090548 130.34849 
L 68.237041 129.681008 
L 68.578859 126.114735 
L 68.871846 123.843236 
L 69.018339 123.654033 
L 69.164832 124.093286 
L 69.555481 126.708861 
L 69.848468 127.896303 
L 69.994961 127.870842 
L 70.190286 127.303392 
L 70.776259 125.329313 
L 70.922752 125.347302 
L 71.118077 125.686115 
L 71.70405 126.835265 
L 71.899374 126.790674 
L 72.241192 126.347126 
L 72.631841 125.988822 
L 72.875996 126.038743 
L 73.706125 126.440326 
L 75.024565 126.278805 
L 75.757031 126.310992 
L 77.124302 126.293632 
L 82.446893 126.282001 
L 83.374684 126.300328 
L 84.058319 126.343789 
L 85.034941 126.200778 
L 85.816239 126.564893 
L 86.109225 126.275523 
L 86.597536 125.730267 
L 86.792861 125.832579 
L 87.037016 126.304887 
L 87.525327 127.26659 
L 87.671821 127.173696 
L 87.867145 126.658074 
L 88.50195 124.64932 
L 88.648443 124.952646 
L 88.892598 126.304685 
L 89.332078 128.873314 
L 89.42974 128.922294 
L 89.527403 128.670729 
L 89.722727 127.300249 
L 90.3087 122.210287 
L 90.406363 122.370498 
L 90.552856 123.474169 
L 90.894674 128.751674 
L 91.18766 132.180146 
L 91.236491 132.306011 
L 91.285322 132.267255 
L 91.382985 131.679198 
L 91.578309 128.61245 
L 92.164282 117.782401 
L 92.213113 117.845719 
L 92.310776 118.688251 
L 92.5061 122.989068 
L 93.092073 137.800571 
L 93.140904 137.703288 
L 93.287398 135.502377 
L 93.580384 124.490908 
L 93.971033 111.631516 
L 94.019864 111.365026 
L 94.068695 111.506163 
L 94.215189 114.380254 
L 94.508175 128.439689 
L 94.898824 144.500908 
L 94.947655 144.812821 
L 94.996486 144.618928 
L 95.14298 141.024386 
L 95.435966 123.829066 
L 95.826615 104.613749 
L 95.875446 104.265414 
L 95.924277 104.518167 
L 96.070771 108.823716 
L 96.363757 128.96892 
L 96.705575 149.952384 
L 96.803237 151.360534 
L 96.852068 151.047418 
L 96.998562 146.108267 
L 97.291548 123.500827 
L 97.633366 100.434818 
L 97.731028 98.951444 
L 97.779859 99.320511 
L 97.926353 104.746914 
L 98.219339 129.049282 
L 98.561157 153.336674 
L 98.658819 154.831356 
L 98.70765 154.417073 
L 98.854144 148.707483 
L 99.195961 119.026488 
L 99.488948 99.186644 
L 99.58661 97.746162 
L 99.635441 98.189365 
L 99.781934 103.942814 
L 100.123752 133.167134 
L 100.416739 152.292528 
L 100.514401 153.620194 
L 100.563232 153.168045 
L 100.709725 147.615658 
L 101.051543 120.052376 
L 101.34453 102.392303 
L 101.442192 101.222133 
L 101.491023 101.662232 
L 101.637516 106.79388 
L 102.028165 135.293243 
L 102.321152 148.111369 
L 102.369983 148.302389 
L 102.467645 146.905441 
L 102.66297 138.093431 
L 103.248943 107.913858 
L 103.297774 107.772041 
L 103.395436 108.9818 
L 103.590761 116.384735 
L 104.127903 140.590342 
L 104.225565 141.20225 
L 104.323227 140.199756 
L 104.518552 134.243003 
L 105.055694 115.233793 
L 105.153356 114.783379 
L 105.251018 115.578342 
L 105.446343 120.169159 
L 105.983485 134.47001 
L 106.081147 134.786823 
L 106.178809 134.183557 
L 106.374134 130.794781 
L 106.911276 120.488316 
L 107.008938 120.275419 
L 107.1066 120.71353 
L 107.301924 123.109416 
L 107.839067 130.224954 
L 107.936729 130.361602 
L 108.034391 130.057104 
L 108.278547 127.899135 
L 108.718027 123.885012 
L 108.86452 123.64491 
L 108.962182 123.847457 
L 109.206338 125.243861 
L 109.645817 127.785032 
L 109.792311 127.930331 
L 109.938804 127.679426 
L 110.329453 126.084962 
L 110.62244 125.338059 
L 110.768933 125.337777 
L 110.964257 125.660542 
L 111.550231 126.830373 
L 111.745555 126.799112 
L 112.087373 126.362984 
L 112.478022 125.991443 
L 112.722177 126.032754 
L 113.601137 126.433189 
L 114.724252 126.247129 
L 115.603212 126.311969 
L 116.970483 126.293403 
L 122.293073 126.283018 
L 123.220864 126.298169 
L 123.953331 126.334558 
L 124.832291 126.171984 
L 125.760082 126.509469 
L 126.101899 126.077804 
L 126.443717 125.73223 
L 126.639042 125.819763 
L 126.883197 126.277705 
L 127.371508 127.263372 
L 127.518002 127.189658 
L 127.713326 126.697406 
L 128.34813 124.643994 
L 128.494624 124.915066 
L 128.738779 126.228023 
L 129.22709 128.926562 
L 129.324752 128.861201 
L 129.471246 128.194549 
L 129.764232 125.301337 
L 130.10605 122.33446 
L 130.203712 122.2175 
L 130.301374 122.558136 
L 130.496699 124.563551 
L 131.082672 132.291808 
L 131.131503 132.290632 
L 131.229165 131.779072 
L 131.42449 128.840249 
L 132.010463 117.800496 
L 132.059294 117.81084 
L 132.156956 118.546436 
L 132.352281 122.671729 
L 132.938254 137.778763 
L 132.987085 137.752992 
L 133.084747 136.740206 
L 133.280072 131.193354 
L 133.866045 111.389814 
L 133.914876 111.438494 
L 134.012538 112.773652 
L 134.207863 119.917739 
L 134.793836 144.786376 
L 134.842667 144.706962 
L 134.940329 143.021642 
L 135.135654 134.208037 
L 135.721627 104.291709 
L 135.770458 104.40871 
L 135.86812 106.445596 
L 136.063445 116.860738 
L 136.600587 150.813699 
L 136.649418 151.336458 
L 136.698249 151.17751 
L 136.795911 148.820367 
L 136.991236 137.031294 
L 137.528378 99.513883 
L 137.577209 98.971302 
L 137.62604 99.172693 
L 137.772533 104.132156 
L 138.06552 128.010505 
L 138.407338 152.980474 
L 138.505 154.817297 
L 138.553831 154.577668 
L 138.700324 149.34891 
L 138.993311 124.742989 
L 139.335129 99.538205 
L 139.432791 97.753545 
L 139.481622 98.02252 
L 139.628115 103.301804 
L 139.921102 127.58972 
L 140.26292 151.960272 
L 140.360582 153.619518 
L 140.409413 153.333818 
L 140.555906 148.229218 
L 140.897724 120.990644 
L 141.239542 101.614092 
L 141.288373 101.216891 
L 141.337204 101.504699 
L 141.483697 106.231382 
L 141.825515 130.857546 
L 142.118502 147.055677 
L 142.216164 148.31214 
L 142.264995 148.036711 
L 142.411488 143.845328 
L 142.753306 122.518434 
L 143.046293 108.782788 
L 143.143955 107.759513 
L 143.192786 108.010227 
L 143.339279 111.569512 
L 143.729928 131.81715 
L 144.022915 141.024116 
L 144.071746 141.215825 
L 144.120577 140.998534 
L 144.26707 138.104054 
L 144.999537 114.770222 
L 145.048368 114.949671 
L 145.194861 117.203803 
L 145.927328 134.798525 
L 145.976159 134.657223 
L 146.122652 132.976147 
L 146.855119 120.26574 
L 146.90395 120.371883 
L 147.050443 121.572469 
L 147.78291 130.369108 
L 147.880572 130.111445 
L 148.075896 128.550492 
L 148.613038 123.757071 
L 148.710701 123.639426 
L 148.759532 123.69151 
L 148.906025 124.229277 
L 149.638492 127.93412 
L 149.784985 127.709752 
L 150.126803 126.333252 
L 150.46862 125.348271 
L 150.615114 125.329485 
L 150.810438 125.63553 
L 151.396411 126.824635 
L 151.591736 126.806933 
L 151.884722 126.451029 
L 152.324202 125.994529 
L 152.568358 126.027044 
L 153.496149 126.424009 
L 154.521602 126.235757 
L 155.498224 126.308532 
L 156.816664 126.293161 
L 162.090423 126.28833 
L 163.115876 126.305704 
L 163.799512 126.337375 
L 164.727303 126.189432 
L 165.557431 126.550803 
L 165.850418 126.237466 
L 166.289898 125.734953 
L 166.485222 125.807782 
L 166.729378 126.250896 
L 167.217689 127.25882 
L 167.364182 127.20415 
L 167.559507 126.735678 
L 168.194311 124.641036 
L 168.291973 124.752078 
L 168.487298 125.533944 
L 169.122102 128.936779 
L 169.219764 128.753926 
L 169.415089 127.503958 
L 170.049893 122.208357 
L 170.147555 122.496606 
L 170.34288 124.410773 
L 170.977684 132.305465 
L 171.075346 131.870469 
L 171.270671 129.062618 
L 171.905475 117.787979 
L 172.003137 118.416411 
L 172.198462 122.361705 
L 172.833266 137.786509 
L 172.930928 136.917368 
L 173.126253 131.607376 
L 173.712226 111.435039 
L 173.761057 111.391708 
L 173.858719 112.542464 
L 174.054044 119.388127 
L 174.640017 144.734538 
L 174.688848 144.769193 
L 174.78651 143.310577 
L 174.981834 134.856966 
L 175.567808 104.348217 
L 175.616639 104.329783 
L 175.714301 106.099754 
L 175.909625 116.099111 
L 176.495599 151.277952 
L 176.54443 151.273003 
L 176.642092 149.216822 
L 176.837416 137.887523 
L 177.42339 99.028736 
L 177.472221 99.062423 
L 177.569883 101.349232 
L 177.765207 113.64436 
L 178.30235 154.052984 
L 178.351181 154.763964 
L 178.400012 154.699237 
L 178.497674 152.264374 
L 178.692998 139.483514 
L 179.230141 98.483386 
L 179.278972 97.800238 
L 179.327803 97.894521 
L 179.425465 100.376498 
L 179.620789 113.102213 
L 180.157931 152.953554 
L 180.206763 153.581156 
L 180.255594 153.46256 
L 180.353256 151.040401 
L 180.597411 134.839665 
L 181.085722 101.79745 
L 181.134554 101.246247 
L 181.183385 101.380972 
L 181.281047 103.644009 
L 181.525202 118.40969 
L 181.964682 146.765493 
L 182.062345 148.291471 
L 182.111176 148.150349 
L 182.257669 144.316827 
L 182.550656 126.552158 
L 182.892473 109.024232 
L 182.990136 107.772599 
L 183.038967 107.910465 
L 183.18546 111.172528 
L 183.527278 128.66574 
L 183.869095 140.924141 
L 183.917926 141.208744 
L 183.966758 141.082261 
L 184.113251 138.424183 
L 184.455069 124.513745 
L 184.748055 115.511325 
L 184.845717 114.773019 
L 184.894549 114.882486 
L 185.041042 116.956554 
L 185.431691 129.08303 
L 185.724677 134.652649 
L 185.773508 134.798427 
L 185.82234 134.708775 
L 185.968833 133.159041 
L 186.408313 123.316163 
L 186.652468 120.361767 
L 186.701299 120.264419 
L 186.750131 120.334054 
L 186.896624 121.442895 
L 187.62909 130.370944 
L 187.677921 130.319562 
L 187.824415 129.559833 
L 188.556881 123.637625 
L 188.605712 123.673688 
L 188.752206 124.172141 
L 189.484672 127.935617 
L 189.533503 127.911519 
L 189.679997 127.598359 
L 190.412463 125.30711 
L 190.558957 125.427109 
L 190.900774 126.228448 
L 191.242592 126.818049 
L 191.437916 126.81412 
L 191.730903 126.467274 
L 192.170383 125.998085 
L 192.414539 126.021625 
L 193.34233 126.426861 
L 194.367783 126.23379 
L 195.344405 126.309544 
L 196.662845 126.292907 
L 201.887773 126.293118 
L 203.010888 126.313387 
L 203.645692 126.340075 
L 204.573483 126.184096 
L 205.452443 126.526206 
L 205.794261 126.110202 
L 206.18491 125.728795 
L 206.380234 125.852695 
L 206.673221 126.471241 
L 207.06387 127.252959 
L 207.210363 127.21717 
L 207.405687 126.772848 
L 208.040492 124.640423 
L 208.089323 124.661337 
L 208.235816 125.011458 
L 208.479972 126.417674 
L 208.919452 128.900836 
L 209.017114 128.902176 
L 209.163607 128.336515 
L 209.407763 126.108438 
L 209.847243 122.258629 
L 209.896074 122.204987 
L 209.944905 122.264675 
L 210.091398 123.140009 
L 210.384385 127.356457 
L 210.775034 132.238837 
L 210.823865 132.311808 
L 210.872696 132.217921 
L 211.019189 130.920532 
L 211.312176 124.802035 
L 211.702825 117.871444 
L 211.751656 117.777074 
L 211.800487 117.917985 
L 211.94698 119.759779 
L 212.239967 128.264574 
L 212.581784 137.266845 
L 212.679447 137.803897 
L 212.728278 137.602025 
L 212.874771 135.097747 
L 213.167758 123.77365 
L 213.509575 112.032415 
L 213.607238 111.365756 
L 213.656069 111.641907 
L 213.802562 114.903213 
L 214.095549 129.346414 
L 214.437366 144.014698 
L 214.535029 144.805652 
L 214.632691 143.574754 
L 214.828015 135.491337 
L 215.413989 104.434753 
L 215.46282 104.281391 
L 215.560482 105.78291 
L 215.755806 115.353967 
L 216.341779 151.185185 
L 216.390611 151.333853 
L 216.488273 149.580752 
L 216.683597 138.725902 
L 217.26957 99.123607 
L 217.318402 98.989798 
L 217.416064 100.948911 
L 217.611388 112.740829 
L 218.197361 154.671454 
L 218.246193 154.78163 
L 218.343855 152.686087 
L 218.539179 140.416223 
L 219.125152 97.886197 
L 219.173984 97.805567 
L 219.271646 99.951057 
L 219.46697 112.17996 
L 220.052943 153.505107 
L 220.101774 153.554035 
L 220.199437 151.451433 
L 220.394761 139.777273 
L 220.931903 102.015068 
L 221.029565 101.291311 
L 221.127228 103.263712 
L 221.322552 113.938322 
L 221.859694 147.641871 
L 221.908525 148.240303 
L 221.957356 148.234164 
L 222.055019 146.463044 
L 222.250343 137.114057 
L 222.787485 108.29745 
L 222.836316 107.811399 
L 222.885147 107.835705 
L 222.98281 109.358081 
L 223.178134 117.200702 
L 223.715276 140.803286 
L 223.764107 141.1809 
L 223.812938 141.145913 
L 223.910601 139.893282 
L 224.154756 131.508965 
L 224.594236 115.674085 
L 224.691898 114.791871 
L 224.740729 114.830737 
L 224.838392 115.817375 
L 225.082547 122.255256 
L 225.522027 134.148259 
L 225.619689 134.786438 
L 225.66852 134.748959 
L 225.766183 134.005032 
L 226.010338 129.270172 
L 226.449818 120.713488 
L 226.54748 120.271532 
L 226.596311 120.304242 
L 226.742805 121.318964 
L 227.084622 126.667888 
L 227.377609 130.074043 
L 227.475271 130.367051 
L 227.524102 130.340697 
L 227.670596 129.644019 
L 228.061244 125.549344 
L 228.354231 123.694257 
L 228.451893 123.659368 
L 228.598387 124.117371 
L 229.330853 127.934793 
L 229.379684 127.920793 
L 229.526178 127.632485 
L 230.307475 125.316711 
L 230.5028 125.587362 
L 231.137604 126.837211 
L 231.332928 126.786641 
L 231.723577 126.271698 
L 232.065395 125.987784 
L 232.30955 126.041553 
L 233.139679 126.439512 
L 234.458119 126.279774 
L 235.190586 126.310543 
L 236.557856 126.293732 
L 241.929278 126.276892 
L 242.808238 126.301316 
L 243.491873 126.342655 
L 244.468495 126.203479 
L 245.249793 126.562498 
L 245.54278 126.268558 
L 246.031091 125.72963 
L 246.226415 125.838679 
L 246.470571 126.317357 
L 246.958882 127.267606 
L 247.105375 127.165957 
L 247.300699 126.639857 
L 247.886673 124.64213 
L 247.984335 124.710389 
L 248.130828 125.170297 
L 248.472646 127.403676 
L 248.765632 128.882698 
L 248.863295 128.916879 
L 249.009788 128.402153 
L 249.253944 126.230881 
L 249.693423 122.285667 
L 249.742255 122.207341 
L 249.791086 122.241194 
L 249.937579 123.039256 
L 250.181734 126.3372 
L 250.621214 132.200284 
L 250.670046 132.309724 
L 250.718877 132.253794 
L 250.86537 131.06867 
L 251.109525 126.270329 
L 251.549005 117.924022 
L 251.597836 117.778053 
L 251.646668 117.865557 
L 251.793161 119.551149 
L 252.086148 127.89086 
L 252.476796 137.619462 
L 252.525627 137.805239 
L 252.574459 137.675334 
L 252.720952 135.379185 
L 253.013939 124.266782 
L 253.404587 111.586065 
L 253.453418 111.360557 
L 253.50225 111.543832 
L 253.648743 114.539564 
L 253.941729 128.723124 
L 254.332378 144.555472 
L 254.381209 144.816405 
L 254.430041 144.570383 
L 254.576534 140.827057 
L 254.86952 123.485731 
L 255.211338 105.423417 
L 255.309 104.263491 
L 255.357831 104.578002 
L 255.504325 109.05783 
L 255.797311 129.367289 
L 256.139129 150.087831 
L 256.236791 151.360061 
L 256.285622 150.976872 
L 256.432116 145.842226 
L 256.725102 123.058077 
L 257.06692 100.289301 
L 257.164582 98.954864 
L 257.213413 99.400075 
L 257.359907 105.036483 
L 257.701724 134.081281 
L 257.994711 153.486367 
L 258.092373 154.824751 
L 258.141204 154.331228 
L 258.287698 148.405601 
L 258.629515 118.560428 
L 258.922502 99.0392 
L 259.020164 97.755801 
L 259.068995 98.277978 
L 259.215489 104.244255 
L 259.557306 133.620837 
L 259.850293 152.431585 
L 259.947955 153.608058 
L 260.045617 151.828449 
L 260.240942 140.633785 
L 260.826915 101.408888 
L 260.875746 101.235928 
L 260.973408 102.914185 
L 261.168733 113.160667 
L 261.754706 148.158601 
L 261.803537 148.287933 
L 261.901199 146.773349 
L 262.096524 137.790352 
L 262.633666 108.476667 
L 262.731328 107.786168 
L 262.82899 109.094274 
L 263.024315 116.637349 
L 263.561457 140.661606 
L 263.659119 141.189287 
L 263.756781 140.10805 
L 263.952106 134.041327 
L 264.489248 115.179701 
L 264.58691 114.794601 
L 264.684572 115.649942 
L 264.879897 120.323378 
L 265.417039 134.509324 
L 265.514701 134.777631 
L 265.612363 134.130027 
L 265.807688 130.681824 
L 266.34483 120.460957 
L 266.442492 120.28256 
L 266.540154 120.751852 
L 266.78431 123.991422 
L 267.22379 130.01198 
L 267.370283 130.356333 
L 267.467945 130.030833 
L 267.712101 127.843073 
L 268.151581 123.865546 
L 268.298074 123.648609 
L 268.444567 124.065071 
L 268.786385 126.341046 
L 269.128203 127.88844 
L 269.274696 127.879639 
L 269.470021 127.327052 
L 270.055994 125.333902 
L 270.202487 125.341956 
L 270.397811 125.672099 
L 270.983785 126.832701 
L 271.179109 126.795351 
L 271.520927 126.35576 
L 271.911576 125.990194 
L 272.155731 126.035442 
L 273.034691 126.432092 
L 274.157806 126.248114 
L 274.987935 126.315686 
L 276.501699 126.29504 
L 283.631041 126.246294 
L 284.168183 126.141483 
L 284.558832 126.367565 
L 284.998312 126.592762 
L 285.242467 126.460963 
L 286.023765 125.776898 
L 286.26792 126.17304 
L 286.805062 127.265001 
L 286.951556 127.182585 
L 287.14688 126.679657 
L 287.781684 124.64612 
L 287.928178 124.931858 
L 288.172333 126.262758 
L 288.611813 128.861125 
L 288.709475 128.927751 
L 288.807138 128.694945 
L 289.002462 127.356839 
L 289.588435 122.215359 
L 289.637266 122.223577 
L 289.734929 122.588036 
L 289.930253 124.634282 
L 290.516226 132.299289 
L 290.565057 132.281068 
L 290.66272 131.734722 
L 290.858044 128.737361 
L 291.444017 117.790822 
L 291.492848 117.825202 
L 291.590511 118.609442 
L 291.785835 122.815091 
L 292.371808 137.790637 
L 292.420639 137.732409 
L 292.518302 136.654477 
L 292.713626 131.002014 
L 293.299599 111.376004 
L 293.34843 111.466662 
L 293.446093 112.885372 
L 293.641417 120.162357 
L 294.22739 144.801554 
L 294.276221 144.670145 
L 294.373883 142.882201 
L 294.569208 133.908484 
L 295.10635 104.696957 
L 295.155181 104.276002 
L 295.204012 104.45468 
L 295.350506 108.549824 
L 295.643492 128.490603 
L 296.034141 150.897781 
L 296.082972 151.351678 
L 296.131803 151.122661 
L 296.278297 146.419689 
L 296.571283 124.032628 
L 296.913101 100.619003 
L 297.010763 98.957611 
L 297.059594 99.235236 
L 297.206088 104.407757 
L 297.499074 128.482928 
L 297.840892 153.146943 
L 297.938554 154.828559 
L 297.987385 154.509497 
L 298.133878 149.061261 
L 298.426865 124.260891 
L 298.768683 99.37379 
L 298.866345 97.745315 
L 298.915176 98.093557 
L 299.061669 103.589357 
L 299.403487 132.619815 
L 299.745305 153.240194 
L 299.794136 153.624495 
L 299.842967 153.263041 
L 299.98946 147.953893 
L 300.331278 120.562929 
L 300.624265 102.552164 
L 300.721927 101.214989 
L 300.770758 101.572131 
L 300.917251 106.483872 
L 301.259069 131.239863 
L 301.552056 147.177806 
L 301.649718 148.311472 
L 301.698549 147.97527 
L 301.845042 143.623553 
L 302.235691 119.091497 
L 302.528678 107.966355 
L 302.577509 107.762039 
L 302.675171 108.853051 
L 302.870496 116.084598 
L 303.456469 141.062649 
L 303.5053 141.212208 
L 303.602962 140.304852 
L 303.798287 134.482716 
L 304.335429 115.303106 
L 304.433091 114.774232 
L 304.481922 114.985261 
L 304.628415 117.319813 
L 305.360882 134.794663 
L 305.409713 134.630074 
L 305.556206 132.890401 
L 306.288673 120.269108 
L 306.386335 120.669471 
L 306.581659 123.015109 
L 307.118802 130.201465 
L 307.216464 130.366396 
L 307.314126 130.087338 
L 307.50945 128.498101 
L 308.046593 123.743676 
L 308.144255 123.641465 
L 308.193086 123.700753 
L 308.339579 124.256002 
L 309.072046 127.93268 
L 309.218539 127.696169 
L 309.560357 126.311844 
L 309.902175 125.343447 
L 310.048668 125.3331 
L 310.243992 125.646826 
L 310.829966 126.827348 
L 311.02529 126.803456 
L 311.318277 126.443643 
L 311.757756 125.993068 
L 312.001912 126.029604 
L 312.880872 126.434458 
L 314.052818 126.255718 
L 314.882947 126.312495 
L 316.299049 126.294224 
L 321.768133 126.265097 
L 322.54943 126.306709 
L 323.233066 126.336109 
L 324.160857 126.191932 
L 324.990986 126.547883 
L 325.283972 126.230309 
L 325.723452 125.733622 
L 325.918777 125.813124 
L 326.162932 126.263033 
L 326.651243 127.261053 
L 326.797736 127.197745 
L 326.993061 126.718416 
L 327.627865 124.642088 
L 327.725527 124.762913 
L 327.920852 125.562538 
L 328.555656 128.934817 
L 328.653318 128.73637 
L 328.848643 127.458589 
L 329.483447 122.211795 
L 329.581109 122.523848 
L 329.776434 124.479728 
L 330.411238 132.299779 
L 330.5089 131.82998 
L 330.704225 128.962232 
L 331.339029 117.796884 
L 331.436691 118.474045 
L 331.632016 122.501694 
L 332.217989 137.760218 
L 332.26682 137.773278 
L 332.364482 136.838796 
L 332.559807 131.420387 
L 333.14578 111.411959 
L 333.194611 111.410388 
L 333.292273 112.645052 
L 333.487598 119.627375 
L 334.073571 144.761237 
L 334.122402 144.744103 
L 334.220064 143.182295 
L 334.415389 134.563753 
L 335.001362 104.318797 
L 335.050193 104.361873 
L 335.147855 106.253382 
L 335.34318 116.443322 
L 335.929153 151.308804 
L 335.977984 151.23389 
L 336.075646 149.04062 
L 336.270971 137.500472 
L 336.808113 99.63069 
L 336.856944 98.997979 
L 336.905775 99.107883 
L 337.003437 101.542778 
L 337.198762 114.061243 
L 337.735904 154.160619 
L 337.784735 154.79307 
L 337.833566 154.648827 
L 337.931228 152.060771 
L 338.126553 139.05342 
L 338.663695 98.378387 
L 338.712526 97.774142 
L 338.761357 97.947873 
L 338.859019 100.581622 
L 339.103175 117.856138 
L 339.591486 153.051587 
L 339.640317 153.603267 
L 339.689148 153.408648 
L 339.835641 148.55164 
L 340.128628 125.795201 
L 340.470446 102.87106 
L 340.568108 101.22861 
L 340.616939 101.433003 
L 340.763432 105.93553 
L 341.056419 126.554093 
L 341.398237 146.901048 
L 341.495899 148.304643 
L 341.54473 148.102377 
L 341.691223 144.105336 
L 342.033041 122.913473 
L 342.326028 108.911372 
L 342.42369 107.763468 
L 342.472521 107.952726 
L 342.619014 111.350652 
L 342.960832 128.937366 
L 343.253818 140.316132 
L 343.351481 141.214531 
L 343.400312 141.046679 
L 343.546805 138.280498 
L 343.937454 122.278166 
L 344.230441 114.945438 
L 344.279272 114.769763 
L 344.328103 114.911122 
L 344.474596 117.067563 
L 344.914076 130.624583 
L 345.158232 134.678478 
L 345.207063 134.79994 
L 345.255894 134.686742 
L 345.402387 133.0769 
L 346.134854 120.263978 
L 346.183685 120.350262 
L 346.330178 121.501107 
L 347.062645 130.370816 
L 347.111476 130.30816 
L 347.257969 129.520323 
L 347.990436 123.637984 
L 348.039267 123.681358 
L 348.18576 124.197825 
L 348.918227 127.935223 
L 349.06472 127.725598 
L 349.357706 126.574468 
L 349.699524 125.421387 
L 349.894849 125.325492 
L 350.090173 125.622139 
L 350.724977 126.842276 
L 350.920302 126.772931 
L 351.799262 126.003096 
L 352.238742 126.306486 
L 352.62939 126.447556 
L 353.06887 126.317087 
L 353.606013 126.20991 
L 356.047568 126.291766 
L 359.905225 126.281466 
L 362.688598 126.357823 
L 363.176909 126.310456 
L 363.909375 126.148508 
L 364.300024 126.389041 
L 364.690673 126.593416 
L 364.934829 126.481964 
L 365.764957 125.801601 
L 366.009113 126.236442 
L 366.497424 127.255784 
L 366.643917 127.211434 
L 366.839242 126.756091 
L 367.474046 124.640413 
L 367.522877 124.666137 
L 367.66937 125.030833 
L 367.962357 126.807975 
L 368.353006 128.907928 
L 368.450668 128.89422 
L 368.597161 128.305492 
L 368.890148 125.495956 
L 369.280797 122.248121 
L 369.329628 122.205806 
L 369.378459 122.277293 
L 369.524952 123.187592 
L 369.817939 127.442287 
L 370.208588 132.253721 
L 370.257419 132.309974 
L 370.30625 132.198767 
L 370.452743 130.850626 
L 370.74573 124.678659 
L 371.087548 118.148209 
L 371.18521 117.780553 
L 371.282872 118.350492 
L 371.478197 122.19582 
L 372.113001 137.797988 
L 372.210663 137.00733 
L 372.405988 131.829047 
L 373.040792 111.374974 
L 373.138454 112.424882 
L 373.333778 119.104391 
L 373.919752 144.695626 
L 373.968583 144.792271 
L 374.066245 143.45776 
L 374.261569 135.204845 
L 374.847543 104.39171 
L 374.896374 104.299604 
L 374.994036 105.923312 
L 375.18936 115.690563 
L 375.775334 151.231586 
L 375.824165 151.31049 
L 375.921827 149.41939 
L 376.117151 138.347106 
L 376.703125 99.075853 
L 376.751956 99.018139 
L 376.849618 101.126511 
L 377.044942 113.149154 
L 377.630916 154.718353 
L 377.679747 154.749043 
L 377.777409 152.498892 
L 377.972733 139.994618 
L 378.558707 97.842263 
L 378.607538 97.84115 
L 378.7052 100.140011 
L 378.900524 112.596931 
L 379.437666 152.825807 
L 379.486498 153.544345 
L 379.535329 153.517088 
L 379.632991 151.268781 
L 379.828315 139.382266 
L 380.365457 101.911916 
L 380.414289 101.27686 
L 380.46312 101.327828 
L 380.560782 103.432795 
L 380.756106 114.29675 
L 381.293248 147.730562 
L 381.34208 148.267345 
L 381.390911 148.199778 
L 381.488573 146.313151 
L 381.732728 133.635125 
L 382.172208 109.16648 
L 382.26987 107.79057 
L 382.318702 107.866572 
L 382.416364 109.485333 
L 382.660519 120.091791 
L 383.099999 140.112595 
L 383.197661 141.196136 
L 383.246493 141.119482 
L 383.344155 139.789828 
L 383.58831 131.290535 
L 384.02779 115.598132 
L 384.125452 114.781306 
L 384.174284 114.852334 
L 384.320777 116.826432 
L 384.662595 127.35804 
L 384.955581 134.203929 
L 385.053243 134.793367 
L 385.102075 134.732113 
L 385.248568 133.25538 
L 385.590386 125.568303 
L 385.883372 120.674409 
L 385.981034 120.267249 
L 386.029865 120.316792 
L 386.176359 121.374582 
L 386.567008 127.516675 
L 386.859994 130.293318 
L 386.908825 130.369534 
L 386.957656 130.331767 
L 387.10415 129.606226 
L 387.836616 123.638211 
L 387.885447 123.665439 
L 388.031941 124.141966 
L 388.764407 127.935457 
L 388.813238 127.916849 
L 388.959732 127.617155 
L 389.741029 125.319161 
L 389.936354 125.598079 
L 390.571158 126.838983 
L 390.766483 126.782487 
L 391.157131 126.264969 
L 391.498949 125.986842 
L 391.743105 126.044417 
L 392.573233 126.43866 
L 393.842842 126.271098 
L 394.575309 126.314373 
L 396.040242 126.294639 
L 403.120752 126.279089 
L 403.755556 126.145464 
L 404.146205 126.38029 
L 404.585685 126.591164 
L 404.82984 126.444668 
L 405.562307 125.753661 
L 405.757631 126.000637 
L 406.441267 127.260265 
L 406.58776 127.063291 
L 406.831916 126.225545 
L 407.271396 124.671516 
L 407.369058 124.656235 
L 407.515551 124.988832 
L 407.759707 126.375114 
L 408.199187 128.891372 
L 408.296849 128.910672 
L 408.443342 128.372765 
L 408.687498 126.17536 
L 409.126978 122.272712 
L 409.175809 122.205565 
L 409.22464 122.251138 
L 409.371133 123.08438 
L 409.615289 126.420854 
L 410.005938 131.968619 
L 410.005938 131.968619 
" clip-path="url(#pb0efc36e9f)" style="fill: none; stroke: #7a2e2e; stroke-linecap: square"/>
   </g>
   <g id="patch_6">
    <path d="M 19.405937 162.160941 
L 19.405937 90.415059 
" style="fill: none; stroke: #1a1a1a; stroke-width: 0.9; stroke-linejoin: miter; stroke-linecap: square"/>
   </g>
   <g id="patch_7">
    <path d="M 19.405937 162.160941 
L 410.005938 162.160941 
" style="fill: none; stroke: #1a1a1a; stroke-width: 0.9; stroke-linejoin: miter; stroke-linecap: square"/>
   </g>
   <g id="text_3">
    <text style="font-style: italic; font-size: 9.5px; font-family: 'DejaVu Serif', serif; text-anchor: start; fill: #1a1a1a" x="24.093137" y="105.188163" transform="rotate(-0 24.093137 105.188163)">≈ 28 pulsos/s — zona de transición (ni ritmo ni tono claro)</text>
   </g>
  </g>
  <g id="axes_3">
   <g id="patch_8">
    <path d="M 19.405937 248.256 
L 410.005938 248.256 
L 410.005938 176.510118 
L 19.405937 176.510118 
z
" style="fill: #ffffff"/>
   </g>
   <g id="matplotlib.axis_5">
    <g id="xtick_17">
     <g id="line2d_19">
      <g>
       <use xlink:href="#m4ea25c4c13" x="19.405937" y="248.256" style="fill: #1a1a1a; stroke: #1a1a1a; stroke-width: 0.8"/>
      </g>
     </g>
     <g id="text_4">
      <text style="font-size: 9.5px; font-family: 'DejaVu Serif', serif; text-anchor: middle; fill: #1a1a1a" x="19.405937" y="262.474516" transform="rotate(-0 19.405937 262.474516)">0</text>
     </g>
    </g>
    <g id="xtick_18">
     <g id="line2d_20">
      <g>
       <use xlink:href="#m4ea25c4c13" x="75.205938" y="248.256" style="fill: #1a1a1a; stroke: #1a1a1a; stroke-width: 0.8"/>
      </g>
     </g>
     <g id="text_5">
      <text style="font-size: 9.5px; font-family: 'DejaVu Serif', serif; text-anchor: middle; fill: #1a1a1a" x="75.205938" y="262.474516" transform="rotate(-0 75.205938 262.474516)">50</text>
     </g>
    </g>
    <g id="xtick_19">
     <g id="line2d_21">
      <g>
       <use xlink:href="#m4ea25c4c13" x="131.005938" y="248.256" style="fill: #1a1a1a; stroke: #1a1a1a; stroke-width: 0.8"/>
      </g>
     </g>
     <g id="text_6">
      <text style="font-size: 9.5px; font-family: 'DejaVu Serif', serif; text-anchor: middle; fill: #1a1a1a" x="131.005938" y="262.474516" transform="rotate(-0 131.005938 262.474516)">100</text>
     </g>
    </g>
    <g id="xtick_20">
     <g id="line2d_22">
      <g>
       <use xlink:href="#m4ea25c4c13" x="186.805937" y="248.256" style="fill: #1a1a1a; stroke: #1a1a1a; stroke-width: 0.8"/>
      </g>
     </g>
     <g id="text_7">
      <text style="font-size: 9.5px; font-family: 'DejaVu Serif', serif; text-anchor: middle; fill: #1a1a1a" x="186.805937" y="262.474516" transform="rotate(-0 186.805937 262.474516)">150</text>
     </g>
    </g>
    <g id="xtick_21">
     <g id="line2d_23">
      <g>
       <use xlink:href="#m4ea25c4c13" x="242.605938" y="248.256" style="fill: #1a1a1a; stroke: #1a1a1a; stroke-width: 0.8"/>
      </g>
     </g>
     <g id="text_8">
      <text style="font-size: 9.5px; font-family: 'DejaVu Serif', serif; text-anchor: middle; fill: #1a1a1a" x="242.605938" y="262.474516" transform="rotate(-0 242.605938 262.474516)">200</text>
     </g>
    </g>
    <g id="xtick_22">
     <g id="line2d_24">
      <g>
       <use xlink:href="#m4ea25c4c13" x="298.405937" y="248.256" style="fill: #1a1a1a; stroke: #1a1a1a; stroke-width: 0.8"/>
      </g>
     </g>
     <g id="text_9">
      <text style="font-size: 9.5px; font-family: 'DejaVu Serif', serif; text-anchor: middle; fill: #1a1a1a" x="298.405937" y="262.474516" transform="rotate(-0 298.405937 262.474516)">250</text>
     </g>
    </g>
    <g id="xtick_23">
     <g id="line2d_25">
      <g>
       <use xlink:href="#m4ea25c4c13" x="354.205938" y="248.256" style="fill: #1a1a1a; stroke: #1a1a1a; stroke-width: 0.8"/>
      </g>
     </g>
     <g id="text_10">
      <text style="font-size: 9.5px; font-family: 'DejaVu Serif', serif; text-anchor: middle; fill: #1a1a1a" x="354.205938" y="262.474516" transform="rotate(-0 354.205938 262.474516)">300</text>
     </g>
    </g>
    <g id="xtick_24">
     <g id="line2d_26">
      <g>
       <use xlink:href="#m4ea25c4c13" x="410.005938" y="248.256" style="fill: #1a1a1a; stroke: #1a1a1a; stroke-width: 0.8"/>
      </g>
     </g>
     <g id="text_11">
      <text style="font-size: 9.5px; font-family: 'DejaVu Serif', serif; text-anchor: middle; fill: #1a1a1a" x="410.005938" y="262.474516" transform="rotate(-0 410.005938 262.474516)">350</text>
     </g>
    </g>
    <g id="text_12">
     <text style="font-size: 11px; font-family: 'DejaVu Serif', serif; text-anchor: middle; fill: #1a1a1a" x="214.705938" y="276.8085" transform="rotate(-0 214.705938 276.8085)">tiempo (ms)</text>
    </g>
   </g>
   <g id="matplotlib.axis_6"/>
   <g id="line2d_27">
    <path d="M 19.405937 212.383059 
L 19.796586 180.891034 
L 19.894249 179.859081 
L 19.991911 182.347915 
L 20.187235 196.534144 
L 20.773208 245.554358 
L 20.82204 245.639028 
L 20.919702 243.115419 
L 21.115026 228.707675 
L 21.700999 178.994495 
L 21.74983 178.887839 
L 21.847493 181.382932 
L 22.042817 195.781895 
L 22.62879 245.736664 
L 22.677621 245.878441 
L 22.775284 243.455182 
L 22.970608 229.182676 
L 23.556581 179.075892 
L 23.605412 178.888048 
L 23.703075 181.219681 
L 23.898399 195.354692 
L 24.484372 245.794663 
L 24.533203 246.035093 
L 24.630866 243.793856 
L 24.82619 229.734844 
L 25.412163 178.670528 
L 25.460994 178.37655 
L 25.558657 180.542105 
L 25.753981 194.608928 
L 26.339954 246.523773 
L 26.388785 246.867096 
L 26.486448 244.759062 
L 26.681772 230.627561 
L 27.267745 177.830138 
L 27.316576 177.444969 
L 27.414239 179.507767 
L 27.609563 193.701844 
L 28.195536 247.179535 
L 28.244367 247.598577 
L 28.293198 247.060788 
L 28.439692 239.976219 
L 28.781509 203.48035 
L 29.074496 179.001789 
L 29.172158 177.161863 
L 29.220989 177.671408 
L 29.367483 184.671483 
L 29.7093 220.992197 
L 30.051118 246.866407 
L 30.099949 247.34116 
L 30.14878 246.866376 
L 30.295274 240.010727 
L 30.637091 204.117607 
L 30.978909 178.360861 
L 31.02774 177.854652 
L 31.076571 178.285917 
L 31.223065 184.950005 
L 31.516051 214.711362 
L 31.857869 244.476006 
L 31.955531 246.478849 
L 32.004362 246.099172 
L 32.150856 239.6445 
L 32.443842 210.331966 
L 32.78566 180.649697 
L 32.883322 178.559305 
L 32.932153 178.882643 
L 33.078647 185.144745 
L 33.371633 214.174226 
L 33.713451 243.997358 
L 33.811113 246.196764 
L 33.859944 245.929725 
L 34.006438 239.816042 
L 34.299424 210.837254 
L 34.690073 179.025232 
L 34.738904 178.316533 
L 34.787735 178.531956 
L 34.885397 181.691217 
L 35.080722 197.281202 
L 35.617864 246.101132 
L 35.666695 246.865401 
L 35.715526 246.693924 
L 35.813188 243.582372 
L 36.008513 227.914848 
L 36.545655 178.296394 
L 36.594486 177.484457 
L 36.643317 177.620051 
L 36.740979 180.697632 
L 36.936304 196.443944 
L 37.473446 246.685613 
L 37.522277 247.535019 
L 37.571108 247.429529 
L 37.66877 244.389686 
L 37.864095 228.637624 
L 38.401237 178.120537 
L 38.450068 177.242628 
L 38.498899 177.319632 
L 38.596561 180.302398 
L 38.791886 195.940999 
L 39.329028 246.343254 
L 39.377859 247.245184 
L 39.42669 247.199705 
L 39.524352 244.301474 
L 39.719677 228.896715 
L 40.256819 178.894924 
L 40.30565 177.967187 
L 40.354481 177.974471 
L 40.452143 180.762662 
L 40.647468 195.856803 
L 41.233441 246.346575 
L 41.282272 246.385573 
L 41.379934 243.722 
L 41.575259 228.943877 
L 42.161232 178.71477 
L 42.210063 178.622662 
L 42.307725 181.162682 
L 42.50305 195.691377 
L 43.089023 246.015784 
L 43.137854 246.164295 
L 43.235516 243.732164 
L 43.430841 229.340664 
L 44.016814 178.523298 
L 44.065645 178.31975 
L 44.163307 180.668069 
L 44.358632 195.037237 
L 44.944605 246.634832 
L 44.993436 246.887786 
L 45.091098 244.599695 
L 45.286423 230.178674 
L 45.872396 177.735189 
L 45.921227 177.440909 
L 46.018889 179.683506 
L 46.214214 194.1625 
L 46.800187 247.268231 
L 46.849018 247.59598 
L 46.94668 245.397866 
L 47.142005 230.924318 
L 47.727978 177.522306 
L 47.776809 177.166069 
L 47.874471 179.307148 
L 48.069795 193.666853 
L 48.655769 246.953707 
L 48.7046 247.338084 
L 48.802262 245.275239 
L 48.997586 231.141786 
L 49.58356 178.271906 
L 49.632391 177.854864 
L 49.681222 178.375163 
L 49.827715 185.281815 
L 50.169533 220.815186 
L 50.511351 246.025054 
L 50.560182 246.482743 
L 50.609013 246.01513 
L 50.755506 239.320038 
L 51.097324 204.282942 
L 51.439142 179.057593 
L 51.487973 178.550461 
L 51.536804 178.961104 
L 51.683297 185.463077 
L 51.976284 214.704206 
L 52.318102 244.182693 
L 52.415764 246.210947 
L 52.464595 245.856523 
L 52.611088 239.501461 
L 52.904075 210.304714 
L 53.245892 180.446311 
L 53.343555 178.297115 
L 53.392386 178.600696 
L 53.538879 184.864936 
L 53.831866 214.228315 
L 54.173683 244.621254 
L 54.271346 246.889527 
L 54.320177 246.628703 
L 54.46667 240.410287 
L 54.759657 210.772627 
L 55.150306 178.178685 
L 55.199137 177.456394 
L 55.247968 177.6825 
L 55.34563 180.933888 
L 55.589785 202.31307 
L 56.078097 246.807198 
L 56.126928 247.566271 
L 56.175759 247.369556 
L 56.273421 244.154494 
L 56.468745 228.144222 
L 57.005887 177.996236 
L 57.054719 177.208663 
L 57.10355 177.376893 
L 57.201212 180.534867 
L 57.396536 196.43178 
L 57.933678 246.469519 
L 57.98251 247.281828 
L 58.031341 247.145833 
L 58.129003 244.073692 
L 58.324327 228.412089 
L 58.861469 178.766748 
L 58.910301 177.92743 
L 58.959132 178.024084 
L 59.056794 180.984215 
L 59.252118 196.33338 
L 59.78926 245.51615 
L 59.838092 246.390209 
L 59.886923 246.340985 
L 59.984585 243.507246 
L 60.179909 228.474916 
L 60.717051 179.585848 
L 60.814714 178.661816 
L 60.912376 181.371218 
L 61.1077 196.155294 
L 61.693673 246.069479 
L 61.742505 246.130505 
L 61.840167 243.528366 
L 62.035491 228.878077 
L 62.621464 178.464069 
L 62.670296 178.34869 
L 62.767958 180.868935 
L 62.963282 195.501933 
L 63.549255 246.699263 
L 63.598087 246.862923 
L 63.695749 244.400302 
L 63.891073 229.710013 
L 64.477046 177.666318 
L 64.525877 177.462463 
L 64.62354 179.882008 
L 64.818864 194.63471 
L 65.404837 247.340607 
L 65.453668 247.577225 
L 65.551331 245.20074 
L 65.746655 230.451086 
L 66.332628 177.447216 
L 66.381459 177.18211 
L 66.479122 179.501553 
L 66.674446 194.137432 
L 67.260419 247.031152 
L 67.30925 247.325113 
L 67.406913 245.085248 
L 67.602237 230.677302 
L 68.18821 178.191886 
L 68.237041 177.864085 
L 68.334704 180.001513 
L 68.530028 194.106361 
L 69.116001 246.108386 
L 69.164832 246.478045 
L 69.262495 244.458259 
L 69.457819 230.665544 
L 70.043792 178.969932 
L 70.092623 178.550024 
L 70.141454 179.047863 
L 70.287948 185.788081 
L 70.629765 220.725244 
L 70.971583 245.740715 
L 71.020414 246.216767 
L 71.069245 245.775043 
L 71.215739 239.18016 
L 71.508725 209.772645 
L 71.850543 180.262694 
L 71.948205 178.28611 
L 71.997036 178.677784 
L 72.14353 185.185157 
L 72.436516 214.766458 
L 72.778334 244.811394 
L 72.875996 246.905136 
L 72.924827 246.555018 
L 73.071321 240.089372 
L 73.364307 210.227195 
L 73.706125 179.632615 
L 73.803787 177.436953 
L 73.852618 177.753525 
L 73.999112 184.194609 
L 74.292098 214.299683 
L 74.633916 245.313928 
L 74.731578 247.588833 
L 74.780409 247.300938 
L 74.926903 240.901452 
L 75.219889 210.721851 
L 75.561707 179.515334 
L 75.659369 177.183388 
L 75.7082 177.442797 
L 75.854694 183.756576 
L 76.14768 213.77572 
L 76.489498 244.934491 
L 76.58716 247.309852 
L 76.635991 247.083384 
L 76.733653 243.838112 
L 76.977809 222.589686 
L 77.46612 178.646886 
L 77.514951 177.896181 
L 77.563782 178.08217 
L 77.661444 181.213487 
L 77.856769 196.813854 
L 78.393911 245.63874 
L 78.442742 246.42545 
L 78.491573 246.288025 
L 78.589235 243.284837 
L 78.78456 228.002028 
L 79.321702 179.459354 
L 79.370533 178.626385 
L 79.419364 178.709284 
L 79.517026 181.587395 
L 79.712351 196.623207 
L 80.249493 245.226515 
L 80.298324 246.11487 
L 80.347155 246.08839 
L 80.444817 243.316878 
L 80.640142 228.41139 
L 81.226115 178.4132 
L 81.274946 178.38603 
L 81.372608 181.077599 
L 81.567933 195.97085 
L 82.153906 246.755232 
L 82.202737 246.829546 
L 82.300399 244.19298 
L 82.495724 229.237013 
L 83.081697 177.606012 
L 83.130528 177.492642 
L 83.22819 180.088556 
L 83.423515 195.111345 
L 84.009488 247.404351 
L 84.058319 247.549777 
L 84.155981 244.995501 
L 84.351306 229.973383 
L 84.937279 177.380758 
L 84.98611 177.206846 
L 85.083772 179.70407 
L 85.279097 194.612487 
L 85.86507 247.100035 
L 85.913901 247.303516 
L 86.011563 244.887204 
L 86.206888 230.208358 
L 86.792861 178.120315 
L 86.841692 177.881824 
L 86.939354 180.193639 
L 87.134679 194.567277 
L 87.720652 246.183391 
L 87.769483 246.464938 
L 87.867145 244.272673 
L 88.06247 230.212331 
L 88.648443 178.890514 
L 88.697274 178.55793 
L 88.794936 180.62902 
L 88.990261 194.437133 
L 89.576234 245.825417 
L 89.625065 246.214244 
L 89.722727 244.252549 
L 89.918052 230.590718 
L 90.504025 178.729157 
L 90.552856 178.283515 
L 90.601687 178.763196 
L 90.74818 185.512126 
L 91.089998 220.884528 
L 91.431816 246.414167 
L 91.480647 246.912227 
L 91.529478 246.472889 
L 91.675971 239.761575 
L 91.968958 209.682227 
L 92.310776 179.444645 
L 92.408438 177.42614 
L 92.457269 177.833108 
L 92.603762 184.523482 
L 92.896749 214.850516 
L 93.238567 245.506298 
L 93.336229 247.6027 
L 93.38506 247.223693 
L 93.531553 240.572861 
L 93.82454 210.168754 
L 94.166358 179.320243 
L 94.26402 177.166808 
L 94.312851 177.517327 
L 94.459344 184.082443 
L 94.752331 214.326709 
L 95.094149 245.130974 
L 95.191811 247.329249 
L 95.240642 247.012374 
L 95.387135 240.589123 
L 95.680122 210.718706 
L 96.02194 180.117819 
L 96.119602 177.873447 
L 96.168433 178.148713 
L 96.314926 184.384702 
L 96.607913 213.770129 
L 96.94973 244.147041 
L 97.047393 246.45229 
L 97.096224 246.226707 
L 97.242717 240.196477 
L 97.535704 211.263721 
L 97.926353 179.340986 
L 97.975184 178.594676 
L 98.024015 178.765054 
L 98.121677 181.811158 
L 98.317001 197.095 
L 98.854144 245.35005 
L 98.902975 246.151944 
L 98.951806 246.037962 
L 99.049468 243.09775 
L 99.244792 227.940718 
L 99.781934 179.232127 
L 99.830766 178.370706 
L 99.879597 178.431761 
L 99.977259 181.29401 
L 100.172583 196.443874 
L 100.709725 245.883963 
L 100.758557 246.802725 
L 100.807388 246.787662 
L 100.90505 243.977779 
L 101.100374 228.759792 
L 101.686348 177.554287 
L 101.735179 177.531441 
L 101.832841 180.303099 
L 102.028165 195.592287 
L 102.614139 247.459448 
L 102.66297 247.513642 
L 102.760632 244.782201 
L 102.955956 229.49133 
L 103.541929 177.322947 
L 103.590761 177.240268 
L 103.688423 179.914648 
L 103.883747 195.091899 
L 104.46972 247.160338 
L 104.518552 247.273299 
L 104.616214 244.681157 
L 104.811538 229.735069 
L 105.397511 178.05721 
L 105.446343 177.908074 
L 105.544005 180.393684 
L 105.739329 195.032528 
L 106.325302 246.25005 
L 106.374134 246.443426 
L 106.471796 244.079241 
L 106.66712 229.754763 
L 107.253093 178.819359 
L 107.301924 178.574176 
L 107.399587 180.816284 
L 107.594911 194.889478 
L 108.180884 245.901875 
L 108.229715 246.203378 
L 108.327378 244.070153 
L 108.522702 230.139987 
L 109.108675 178.647021 
L 109.157506 178.289332 
L 109.255169 180.335463 
L 109.450493 194.234523 
L 110.036466 246.501771 
L 110.085297 246.910796 
L 110.18296 244.929408 
L 110.378284 230.988047 
L 110.964257 177.876269 
L 111.013088 177.423957 
L 111.061919 177.921232 
L 111.208413 184.859267 
L 111.550231 221.110162 
L 111.892048 247.12086 
L 111.940879 247.607869 
L 111.98971 247.137839 
L 112.136204 240.2373 
L 112.478022 203.881772 
L 112.819839 177.674427 
L 112.86867 177.158927 
L 112.917501 177.600466 
L 113.063995 184.415281 
L 113.356981 214.877176 
L 113.698799 245.319351 
L 113.796461 247.340015 
L 113.845292 246.932822 
L 113.991786 240.26165 
L 114.284772 210.173801 
L 114.62659 179.928406 
L 114.724252 177.859233 
L 114.773083 178.223696 
L 114.919577 184.705004 
L 115.212563 214.308187 
L 115.554381 244.338091 
L 115.652043 246.470723 
L 115.700874 246.157048 
L 115.847368 239.883662 
L 116.140354 210.731122 
L 116.482172 180.790099 
L 116.579834 178.571301 
L 116.628665 178.829111 
L 116.775159 184.910322 
L 117.068145 213.776448 
L 117.458794 245.46546 
L 117.507625 246.180692 
L 117.556456 245.979232 
L 117.654119 242.871035 
L 117.849443 227.466176 
L 118.386585 179.110825 
L 118.435416 178.336598 
L 118.484247 178.485873 
L 118.581909 181.518116 
L 118.777234 196.92089 
L 119.314376 246.011166 
L 119.363207 246.841728 
L 119.412038 246.737281 
L 119.5097 243.75475 
L 119.705025 228.278466 
L 120.242167 178.390191 
L 120.290998 177.511157 
L 120.339829 177.57885 
L 120.437491 180.525586 
L 120.632816 196.077418 
L 121.169958 246.588866 
L 121.218789 247.505884 
L 121.26762 247.468829 
L 121.365282 244.560892 
L 121.560607 229.005044 
L 122.097749 178.219322 
L 122.14658 177.273798 
L 122.195411 177.282368 
L 122.293073 180.133235 
L 122.488398 195.575551 
L 123.074371 247.212048 
L 123.123202 247.234471 
L 123.220864 244.467159 
L 123.416189 229.257554 
L 124.002162 178.002584 
L 124.050993 177.942829 
L 124.148655 180.601596 
L 124.34398 195.502 
L 124.929953 246.308347 
L 124.978784 246.413514 
L 125.076446 243.87801 
L 125.271771 229.292952 
L 125.857744 178.756484 
L 125.906575 178.598758 
L 126.004237 181.011326 
L 126.199562 195.346129 
L 126.785535 245.97007 
L 126.834366 246.184171 
L 126.932028 243.879934 
L 127.127353 229.684846 
L 127.713326 178.573198 
L 127.762157 178.30356 
L 127.859819 180.522567 
L 128.055144 194.691555 
L 128.641117 246.580967 
L 128.689948 246.900843 
L 128.78761 244.744007 
L 128.982935 230.527254 
L 129.568908 177.792453 
L 129.617739 177.430407 
L 129.715401 179.539939 
L 129.910726 193.811316 
L 130.496699 247.208296 
L 130.54553 247.604338 
L 130.643192 245.540358 
L 130.838517 231.27624 
L 131.42449 177.584277 
L 131.473321 177.159746 
L 131.522152 177.692192 
L 131.668645 184.755008 
L 132.010463 221.126136 
L 132.30345 245.499576 
L 132.401112 247.342148 
L 132.449943 246.844747 
L 132.596436 239.927333 
L 132.938254 203.985183 
L 133.280072 178.337454 
L 133.328903 177.853541 
L 133.377734 178.307099 
L 133.524227 185.032093 
L 133.866045 220.423628 
L 134.207863 245.9571 
L 134.256694 246.480746 
L 134.305525 246.079066 
L 134.452018 239.564096 
L 134.745005 210.198971 
L 135.086823 180.603786 
L 135.184485 178.556264 
L 135.233316 178.90144 
L 135.379809 185.223671 
L 135.672796 214.306769 
L 136.014614 244.044441 
L 136.112276 246.201107 
L 136.161107 245.912215 
L 136.3076 239.73804 
L 136.600587 210.704082 
L 136.942405 180.589183 
L 137.040067 178.310885 
L 137.088898 178.548353 
L 137.235391 184.629246 
L 137.528378 213.824446 
L 137.919027 246.130086 
L 137.967858 246.872232 
L 138.016689 246.678414 
L 138.114351 243.523947 
L 138.309675 227.793154 
L 138.846818 178.266178 
L 138.895649 177.476633 
L 138.94448 177.634858 
L 139.042142 180.755963 
L 139.237466 196.566618 
L 139.774609 246.716804 
L 139.82344 247.543646 
L 139.872271 247.415347 
L 139.969933 244.331628 
L 140.165257 228.514646 
L 140.7024 178.088667 
L 140.751231 177.233322 
L 140.800062 177.333136 
L 140.897724 180.359775 
L 141.093048 196.063321 
L 141.630191 246.375609 
L 141.679022 247.255153 
L 141.727853 247.187042 
L 141.825515 244.245263 
L 142.020839 228.775931 
L 142.557982 178.862102 
L 142.606813 177.956451 
L 142.655644 177.986079 
L 142.753306 180.817323 
L 142.94863 195.975575 
L 143.485772 245.418832 
L 143.583435 246.375212 
L 143.681097 243.669032 
L 143.876421 228.827011 
L 144.462395 178.701903 
L 144.511226 178.631671 
L 144.608888 181.214097 
L 144.804212 195.806975 
L 145.390186 246.029985 
L 145.439017 246.156628 
L 145.536679 243.681938 
L 145.732003 229.225408 
L 146.317977 178.507708 
L 146.366808 178.326197 
L 146.46447 180.717552 
L 146.659794 195.153009 
L 147.245767 246.651732 
L 147.294599 246.882369 
L 147.392261 244.550593 
L 147.587585 230.061922 
L 148.173558 177.717169 
L 148.22239 177.445489 
L 148.320052 179.732375 
L 148.515376 194.280131 
L 149.101349 247.287133 
L 149.150181 247.592106 
L 149.247843 245.349348 
L 149.443167 230.806436 
L 150.02914 177.502725 
L 150.077972 177.169264 
L 150.175634 179.354986 
L 150.370958 193.784072 
L 150.956931 246.97387 
L 151.005762 247.33565 
L 151.103425 245.228498 
L 151.298749 231.026089 
L 151.884722 178.25111 
L 151.933553 177.856371 
L 152.031216 179.862643 
L 152.22654 193.763588 
L 152.812513 246.046667 
L 152.861344 246.482357 
L 152.910176 245.992781 
L 153.056669 239.237857 
L 153.398487 204.153725 
L 153.740304 179.034906 
L 153.789135 178.54957 
L 153.837967 178.982022 
L 153.98446 185.54371 
L 154.277446 214.836617 
L 154.619264 244.227799 
L 154.716926 246.213184 
L 154.765757 245.836927 
L 154.912251 239.421762 
L 155.205237 210.171648 
L 155.547055 180.399668 
L 155.644717 178.293575 
L 155.693548 178.619187 
L 155.840042 184.944354 
L 156.133028 214.362892 
L 156.474846 244.669534 
L 156.572508 246.894228 
L 156.621339 246.611074 
L 156.767833 240.330707 
L 157.060819 210.636233 
L 157.402637 179.778888 
L 157.500299 177.450725 
L 157.54913 177.699453 
L 157.695624 183.952537 
L 157.98861 213.886268 
L 158.379259 246.836268 
L 158.42809 247.572726 
L 158.476921 247.353211 
L 158.574584 244.094466 
L 158.769908 228.020258 
L 159.30705 177.966487 
L 159.355881 177.20153 
L 159.404712 177.392559 
L 159.502375 180.594214 
L 159.697699 196.55509 
L 160.234841 246.49977 
L 160.283672 247.289643 
L 160.332503 247.131024 
L 160.430166 244.015526 
L 160.62549 228.290319 
L 161.162632 178.736002 
L 161.211463 177.918819 
L 161.260294 178.037812 
L 161.357957 181.040811 
L 161.553281 196.453138 
L 162.090423 245.547566 
L 162.139254 246.399807 
L 162.188085 246.328529 
L 162.285747 243.452359 
L 162.481072 228.357058 
L 163.018214 179.553464 
L 163.067045 178.65563 
L 163.115876 178.672904 
L 163.213538 181.424548 
L 163.408863 196.271903 
L 163.994836 246.081606 
L 164.043667 246.120756 
L 164.141329 243.476213 
L 164.336654 228.761785 
L 164.922627 178.450567 
L 164.971458 178.357238 
L 165.06912 180.920372 
L 165.264445 195.61877 
L 165.850418 246.714049 
L 165.899249 246.855377 
L 165.996911 244.349213 
L 166.192236 229.592165 
L 166.778209 177.650438 
L 166.82704 177.4692 
L 166.924702 179.932893 
L 167.120027 194.753459 
L 167.706 247.357353 
L 167.754831 247.571178 
L 167.852493 245.150189 
L 168.047818 230.332074 
L 168.633791 177.429791 
L 168.682622 177.187479 
L 168.780284 179.551424 
L 168.975609 194.255781 
L 169.561582 247.049176 
L 169.610413 247.320522 
L 169.708075 245.03649 
L 169.9034 230.56048 
L 170.489373 178.173201 
L 170.538204 177.867721 
L 170.635866 180.048799 
L 170.831191 194.221177 
L 171.417164 246.127919 
L 171.465995 246.475557 
L 171.563657 244.4126 
L 171.758982 230.552655 
L 172.344955 178.949304 
L 172.393786 178.551218 
L 172.491448 180.493704 
L 172.686773 194.100768 
L 173.272746 245.762662 
L 173.321577 246.216918 
L 173.370408 245.753385 
L 173.516901 239.098797 
L 173.858719 204.117613 
L 174.200537 178.796203 
L 174.249368 178.284672 
L 174.298199 178.698358 
L 174.444692 185.26627 
L 174.737679 214.900918 
L 175.079497 244.857684 
L 175.177159 246.907708 
L 175.22599 246.535276 
L 175.372483 240.008065 
L 175.66547 210.090905 
L 176.007288 179.584865 
L 176.10495 177.433441 
L 176.153781 177.772619 
L 176.300274 184.276175 
L 176.593261 214.437437 
L 176.935079 245.362784 
L 177.032741 247.593115 
L 177.081572 247.282435 
L 177.228065 240.819962 
L 177.521052 210.583533 
L 177.86287 179.465798 
L 177.960532 177.178428 
L 178.009363 177.460621 
L 178.155856 183.837385 
L 178.448843 213.913509 
L 178.790661 244.984369 
L 178.888323 247.31551 
L 178.937154 247.066434 
L 179.083647 240.830186 
L 179.376634 211.127706 
L 179.718452 180.265125 
L 179.816114 177.889699 
L 179.864945 178.098014 
L 179.962607 181.272004 
L 180.206763 202.192621 
L 180.695074 245.668104 
L 180.743905 246.432948 
L 180.792736 246.273478 
L 180.890398 243.228045 
L 181.085722 227.883206 
L 181.622865 179.428999 
L 181.671696 178.617677 
L 181.720527 178.722449 
L 181.818189 181.642627 
L 182.013513 196.740796 
L 182.550656 245.258159 
L 182.599487 246.124918 
L 182.648318 246.076562 
L 182.74598 243.26281 
L 182.941304 228.294091 
L 183.527278 178.401791 
L 183.576109 178.396677 
L 183.673771 181.130977 
L 183.869095 196.088725 
L 184.455069 246.7679 
L 184.5039 246.819872 
L 184.601562 244.139916 
L 184.796886 229.118099 
L 185.38286 177.592275 
L 185.431691 177.501534 
L 185.529353 180.141444 
L 185.724677 195.231181 
L 186.310651 247.418937 
L 186.359482 247.541558 
L 186.457144 244.94293 
L 186.652468 229.853273 
L 187.238442 177.365494 
L 187.287273 177.214387 
L 187.384935 179.755961 
L 187.580259 194.731936 
L 188.166233 247.115916 
L 188.215064 247.29677 
L 188.312726 244.83644 
L 188.50805 230.090438 
L 189.094024 178.103745 
L 189.142855 177.887589 
L 189.240517 180.24291 
L 189.435841 194.683188 
L 190.021814 246.200839 
L 190.070646 246.460348 
L 190.168308 244.225049 
L 190.363632 230.098343 
L 190.949605 178.87195 
L 190.998437 178.561209 
L 191.096099 180.675104 
L 191.291423 194.549809 
L 191.877396 245.845305 
L 191.926228 246.212309 
L 192.02389 244.207686 
L 192.219214 230.478455 
L 192.805187 178.707845 
L 192.854019 178.28418 
L 192.90285 178.785848 
L 193.049343 185.594913 
L 193.391161 221.015266 
L 193.732978 246.436855 
L 193.781809 246.912668 
L 193.830641 246.451039 
L 193.977134 239.67856 
L 194.270121 209.546074 
L 194.611938 179.398918 
L 194.7096 177.424785 
L 194.758432 177.85434 
L 194.904925 184.606784 
L 195.197911 214.988141 
L 195.539729 245.553115 
L 195.637391 247.604808 
L 195.686223 247.203036 
L 195.832716 240.489621 
L 196.125702 210.03056 
L 196.46752 179.272745 
L 196.565182 177.164022 
L 196.614014 177.537306 
L 196.760507 184.165002 
L 197.053493 214.46438 
L 197.395311 245.17883 
L 197.492973 247.332749 
L 197.541804 246.993286 
L 197.688298 240.507901 
L 197.981284 210.582429 
L 198.323102 180.069715 
L 198.420764 177.869094 
L 198.469595 178.166668 
L 198.616089 184.464137 
L 198.909075 213.904687 
L 199.250893 244.195542 
L 199.348555 246.457686 
L 199.397386 246.210074 
L 199.54388 240.11891 
L 199.836866 211.130536 
L 200.227515 179.312666 
L 200.276346 178.588051 
L 200.325177 178.780292 
L 200.42284 181.868278 
L 200.618164 197.213541 
L 201.155306 245.379666 
L 201.204137 246.159912 
L 201.252968 246.024057 
L 201.350631 243.04178 
L 201.545955 227.82244 
L 202.083097 179.201035 
L 202.131928 178.361393 
L 202.180759 178.444504 
L 202.278422 181.349317 
L 202.473746 196.562758 
L 203.010888 245.916538 
L 203.059719 246.813272 
L 203.10855 246.775863 
L 203.206213 243.922753 
L 203.401537 228.639841 
L 203.98751 177.542698 
L 204.036341 177.542486 
L 204.134004 180.357978 
L 204.329328 195.713182 
L 204.915301 247.47187 
L 204.964132 247.503252 
L 205.061794 244.727622 
L 205.257119 229.37015 
L 205.843092 177.309847 
L 205.891923 177.249979 
L 205.989585 179.968546 
L 206.18491 195.21242 
L 206.770883 247.174072 
L 206.819714 247.264399 
L 206.917376 244.628401 
L 207.112701 229.616082 
L 207.698674 178.042758 
L 207.747505 177.915966 
L 207.845167 180.444926 
L 208.040492 195.149505 
L 208.626465 246.265409 
L 208.675296 246.436735 
L 208.772958 244.029662 
L 208.968283 229.639703 
L 209.554256 178.802863 
L 209.603087 178.57954 
L 209.700749 180.864317 
L 209.896074 195.003241 
L 210.482047 245.919699 
L 210.530878 246.199358 
L 210.62854 244.02333 
L 210.823865 230.026611 
L 211.409838 178.627785 
L 211.458669 178.2921 
L 211.556331 180.381497 
L 211.751656 194.34836 
L 212.337629 246.52236 
L 212.38646 246.909107 
L 212.484122 244.883812 
L 212.679447 230.87328 
L 213.26542 177.854516 
L 213.314251 177.42476 
L 213.363082 177.944595 
L 213.509575 184.944284 
L 213.851393 221.243868 
L 214.193211 247.143524 
L 214.242042 247.607802 
L 214.290873 247.115033 
L 214.437366 240.15233 
L 214.779184 203.747448 
L 215.121002 177.651084 
L 215.169833 177.158316 
L 215.218664 177.622594 
L 215.365157 184.49957 
L 215.706975 220.725284 
L 216.048793 246.821522 
L 216.097624 247.341357 
L 216.146455 246.911601 
L 216.292948 240.178709 
L 216.585935 210.037665 
L 216.927753 179.882306 
L 217.025415 177.857011 
L 217.074246 178.243758 
L 217.220739 184.786143 
L 217.513726 214.442622 
L 217.855544 244.38462 
L 217.953206 246.474017 
L 218.002037 246.138332 
L 218.14853 239.804401 
L 218.441517 210.598037 
L 218.783335 180.742787 
L 218.880997 178.56676 
L 218.929828 178.846419 
L 219.076321 184.988028 
L 219.369308 213.909065 
L 219.711126 243.901801 
L 219.808788 246.186578 
L 219.857619 245.963254 
L 219.955281 242.813178 
L 220.199437 222.152354 
L 220.687748 179.081779 
L 220.736579 178.329383 
L 220.78541 178.500709 
L 220.883072 181.575338 
L 221.078397 197.040753 
L 221.615539 246.041674 
L 221.66437 246.850152 
L 221.713201 246.72336 
L 221.810863 243.697776 
L 222.006188 228.157507 
L 222.54333 178.358401 
L 222.592161 177.501718 
L 222.640992 177.592046 
L 222.738654 180.582443 
L 222.933979 196.199342 
L 223.471121 246.621644 
L 223.519952 247.516138 
L 223.568783 247.456271 
L 223.666445 244.504319 
L 223.861769 228.882825 
L 224.398912 178.185865 
L 224.447743 177.262865 
L 224.496574 177.294248 
L 224.594236 180.189126 
L 224.78956 195.697112 
L 225.326703 246.276969 
L 225.424365 247.22342 
L 225.522027 244.412423 
L 225.717351 229.137529 
L 226.303325 177.990254 
L 226.352156 177.952846 
L 226.449818 180.654797 
L 226.645142 195.620013 
L 227.231116 246.321614 
L 227.279947 246.404725 
L 227.377609 243.82649 
L 227.572933 229.176849 
L 228.158907 178.74206 
L 228.207738 178.606206 
L 228.3054 181.061296 
L 228.500724 195.460952 
L 229.086698 245.985826 
L 229.135529 246.178067 
L 229.233191 243.831163 
L 229.428515 229.570385 
L 230.014489 178.556044 
L 230.06332 178.308431 
L 230.160982 180.570576 
L 230.356306 194.806509 
L 230.94228 246.599449 
L 230.991111 246.897023 
L 231.088773 244.696403 
L 231.284097 230.411342 
L 231.870071 177.772831 
L 231.918902 177.433368 
L 232.016564 179.587287 
L 232.211888 193.92809 
L 232.797861 247.228812 
L 232.846693 247.602095 
L 232.944355 245.493372 
L 233.139679 231.159222 
L 233.725652 177.563082 
L 233.774484 177.16131 
L 233.872146 179.213002 
L 234.06747 193.433279 
L 234.653443 246.911778 
L 234.702275 247.341333 
L 234.751106 246.8214 
L 234.897599 239.842693 
L 235.239417 203.853067 
L 235.581234 178.315079 
L 235.630066 177.853449 
L 235.678897 178.329263 
L 235.82539 185.114916 
L 236.167208 220.554278 
L 236.509025 245.98027 
L 236.557856 246.481937 
L 236.606688 246.058273 
L 236.753181 239.483158 
L 237.046168 210.066019 
L 237.387985 180.558432 
L 237.485647 178.553808 
L 237.534479 178.920813 
L 237.680972 185.303057 
L 237.973959 214.43928 
L 238.315776 244.091014 
L 238.413438 246.204908 
L 238.46227 245.894168 
L 238.608763 239.659602 
L 238.901749 210.570933 
L 239.243567 180.541069 
L 239.341229 178.30577 
L 239.390061 178.565279 
L 239.536554 184.707381 
L 239.82954 213.95909 
L 240.220189 246.158519 
L 240.26902 246.878529 
L 240.317851 246.662373 
L 240.415514 243.465039 
L 240.610838 227.671217 
L 241.14798 178.236487 
L 241.196811 177.469348 
L 241.245642 177.650202 
L 241.343305 180.814783 
L 241.538629 196.68954 
L 242.075771 246.747466 
L 242.124602 247.551731 
L 242.173433 247.400624 
L 242.271096 244.273076 
L 242.46642 228.391418 
L 243.003562 178.057326 
L 243.052393 177.22456 
L 243.101224 177.347181 
L 243.198887 180.417647 
L 243.394211 196.185893 
L 243.931353 246.407438 
L 243.980184 247.264583 
L 244.029015 247.173842 
L 244.126678 244.188562 
L 244.322002 228.654897 
L 244.859144 178.829798 
L 244.907975 177.946245 
L 244.956806 177.998218 
L 245.054469 180.87247 
L 245.249793 196.094597 
L 245.786935 245.451782 
L 245.835766 246.369441 
L 245.884597 246.364326 
L 245.98226 243.615584 
L 246.177584 228.709895 
L 246.763557 178.689556 
L 246.812388 178.641199 
L 246.910051 181.265992 
L 247.105375 195.922829 
L 247.691348 246.043669 
L 247.740179 246.148441 
L 247.837841 243.63123 
L 248.033166 229.10989 
L 248.619139 178.49264 
L 248.66797 178.33317 
L 248.765632 180.767524 
L 248.960957 195.26905 
L 249.54693 246.668104 
L 249.595761 246.876419 
L 249.693423 244.500993 
L 249.888748 229.944893 
L 250.474721 177.699684 
L 250.523552 177.450608 
L 250.621214 179.781748 
L 250.816539 194.398044 
L 251.402512 247.305496 
L 251.451343 247.58769 
L 251.549005 245.30032 
L 251.74433 230.688268 
L 252.330303 177.483683 
L 252.379134 177.173003 
L 252.476796 179.403334 
L 252.672121 193.901576 
L 253.258094 246.993499 
L 253.306925 247.332677 
L 253.404587 245.181253 
L 253.599912 230.910109 
L 254.185885 178.230841 
L 254.234716 177.85841 
L 254.332378 179.908434 
L 254.527703 193.877565 
L 255.113676 246.06776 
L 255.162507 246.481445 
L 255.211338 245.969915 
L 255.357831 239.155264 
L 255.699649 204.024637 
L 256.041467 179.012733 
L 256.090298 178.5492 
L 256.139129 179.003455 
L 256.285622 185.624755 
L 256.62744 220.4677 
L 256.969258 245.69528 
L 257.018089 246.214899 
L 257.06692 245.816814 
L 257.213413 239.341644 
L 257.5064 210.038613 
L 257.848218 180.353517 
L 257.94588 178.290561 
L 257.994711 178.638198 
L 258.141204 185.024198 
L 258.434191 214.497443 
L 258.776009 244.717318 
L 258.873671 246.898396 
L 258.922502 246.592917 
L 259.068995 240.250694 
L 259.361982 210.499862 
L 259.7038 179.729628 
L 259.801462 177.445595 
L 259.850293 177.716941 
L 259.996786 184.032789 
L 260.289773 214.024097 
L 260.631591 245.214694 
L 260.729253 247.578638 
L 260.778084 247.336326 
L 260.924577 241.063107 
L 261.217564 210.998562 
L 261.608213 177.937269 
L 261.657044 177.194939 
L 261.705875 177.408765 
L 261.803537 180.65405 
L 262.047693 202.060802 
L 262.536004 246.529493 
L 262.584835 247.296918 
L 262.633666 247.11568 
L 262.731328 243.956873 
L 262.926653 228.168307 
L 263.463795 178.705776 
L 263.512626 177.910741 
L 263.561457 178.052069 
L 263.659119 181.097889 
L 263.854444 196.573137 
L 264.391586 245.57847 
L 264.440417 246.408879 
L 264.489248 246.31555 
L 264.58691 243.396995 
L 264.782235 228.238956 
L 265.319377 179.521587 
L 265.368208 178.645362 
L 265.417039 178.684512 
L 265.514701 181.478355 
L 265.710026 196.388759 
L 266.295999 246.093213 
L 266.34483 246.110487 
L 266.442492 243.42358 
L 266.637816 228.645239 
L 267.22379 178.437589 
L 267.272621 178.366311 
L 267.370283 180.972295 
L 267.565607 195.735871 
L 268.151581 246.728306 
L 268.200412 246.847298 
L 268.298074 244.297629 
L 268.493398 229.474048 
L 269.079372 177.635093 
L 269.128203 177.476475 
L 269.225865 179.984279 
L 269.421189 194.872482 
L 270.007163 247.373559 
L 270.055994 247.564588 
L 270.153656 245.099131 
L 270.34898 230.212786 
L 270.934954 177.412907 
L 270.983785 177.193392 
L 271.081447 179.601801 
L 271.276771 194.374408 
L 271.862745 247.066665 
L 271.911576 247.315392 
L 272.009238 244.987229 
L 272.204562 230.44338 
L 272.790536 178.155044 
L 272.839367 177.87189 
L 272.937029 180.096583 
L 273.132353 194.33627 
L 273.718327 246.146931 
L 273.767158 246.472543 
L 273.86482 244.36645 
L 274.060144 230.439489 
L 274.646118 178.929191 
L 274.694949 178.552934 
L 274.792611 180.538319 
L 274.987935 194.212611 
L 275.573908 245.784095 
L 275.62274 246.216548 
L 275.671571 245.731212 
L 275.818064 239.01702 
L 276.159882 203.988223 
L 276.501699 178.773336 
L 276.550531 178.283761 
L 276.599362 178.719451 
L 276.745855 185.347803 
L 277.038842 215.035343 
L 277.380659 244.903474 
L 277.478322 246.909747 
L 277.527153 246.515008 
L 277.673646 239.926329 
L 277.966633 209.954645 
L 278.30845 179.537619 
L 278.406113 177.430468 
L 278.454944 177.792248 
L 278.601437 184.358176 
L 278.894424 214.575162 
L 279.236241 245.411132 
L 279.333903 247.596854 
L 279.382735 247.263393 
L 279.529228 240.738033 
L 279.822215 210.445242 
L 280.164032 179.41677 
L 280.261694 177.174011 
L 280.310526 177.478985 
L 280.457019 183.918633 
L 280.750006 214.051272 
L 281.091823 245.033743 
L 281.189485 247.320629 
L 281.238317 247.048948 
L 281.38481 240.750266 
L 281.677796 210.991346 
L 282.019614 180.215525 
L 282.117276 177.883749 
L 282.166108 178.114386 
L 282.312601 184.227122 
L 282.605587 213.500937 
L 282.996236 245.696955 
L 283.045067 246.439921 
L 283.093898 246.25841 
L 283.191561 243.170779 
L 283.386885 227.764148 
L 283.924027 179.399152 
L 283.972858 178.609489 
L 284.021689 178.736132 
L 284.119352 181.698332 
L 284.314676 196.858626 
L 284.851818 245.289297 
L 284.900649 246.134447 
L 284.94948 246.064215 
L 285.047143 243.208265 
L 285.242467 228.176544 
L 285.779609 179.295841 
L 285.82844 178.390906 
L 285.877271 178.407848 
L 285.974934 181.184839 
L 286.170258 196.206856 
L 286.756231 246.780038 
L 286.805062 246.809667 
L 286.902725 244.086361 
L 287.098049 228.998923 
L 287.684022 177.579076 
L 287.732853 177.510965 
L 287.830516 180.194831 
L 288.02584 195.351285 
L 288.611813 247.432982 
L 288.660644 247.532795 
L 288.758307 244.889855 
L 288.953631 229.732893 
L 289.539604 177.35077 
L 289.588435 177.222471 
L 289.686098 179.808355 
L 289.881422 194.851656 
L 290.467395 247.13126 
L 290.516226 247.289485 
L 290.613888 244.785177 
L 290.809213 229.972249 
L 291.395186 178.087704 
L 291.444017 177.893885 
L 291.541679 180.292675 
L 291.737004 194.799368 
L 292.322977 246.217765 
L 292.371808 246.455232 
L 292.46947 244.176935 
L 292.664795 229.984085 
L 293.250768 178.853902 
L 293.299599 178.56501 
L 293.397261 180.721677 
L 293.592586 194.66276 
L 294.178559 245.864677 
L 294.22739 246.209853 
L 294.325052 244.162332 
L 294.520377 230.365911 
L 295.10635 178.687051 
L 295.155181 178.285372 
L 295.252843 180.244881 
L 295.448168 194.0077 
L 296.034141 246.459019 
L 296.082972 246.912577 
L 296.131803 246.428663 
L 296.278297 239.595121 
L 296.620114 203.756584 
L 296.961932 177.92137 
L 297.010763 177.423969 
L 297.059594 177.876104 
L 297.206088 184.690516 
L 297.499074 215.125728 
L 297.840892 245.599421 
L 297.938554 247.606372 
L 297.987385 247.181841 
L 298.133878 240.405947 
L 298.426865 209.892402 
L 298.768683 179.225759 
L 298.866345 177.16178 
L 298.915176 177.557822 
L 299.061669 184.247996 
L 299.354656 214.602017 
L 299.696474 245.226179 
L 299.794136 247.335711 
L 299.842967 246.973665 
L 299.98946 240.426247 
L 300.282447 210.446185 
L 300.624265 180.022111 
L 300.721927 177.865275 
L 300.770758 178.185151 
L 300.917251 184.544 
L 301.210238 214.039218 
L 301.552056 244.243551 
L 301.649718 246.462558 
L 301.698549 246.192919 
L 301.845042 240.040918 
L 302.138029 210.997374 
L 302.479847 180.886183 
L 302.577509 178.581946 
L 302.62634 178.796048 
L 302.724002 181.925868 
L 302.968158 202.506943 
L 303.456469 245.408773 
L 303.5053 246.167359 
L 303.554131 246.009634 
L 303.651793 242.985337 
L 303.847118 227.703923 
L 304.38426 179.170453 
L 304.433091 178.352604 
L 304.481922 178.45777 
L 304.579584 181.405104 
L 304.774909 196.68189 
L 305.312051 245.948598 
L 305.360882 246.823288 
L 305.409713 246.763533 
L 305.507375 243.867239 
L 305.7027 228.519635 
L 306.239842 178.455342 
L 306.288673 177.531647 
L 306.337504 177.55407 
L 306.435166 180.413353 
L 306.630491 195.834337 
L 307.216464 247.48375 
L 307.265295 247.49232 
L 307.362957 244.672544 
L 307.558282 229.248708 
L 308.144255 177.297289 
L 308.193086 177.260234 
L 308.290748 180.022944 
L 308.486073 195.333203 
L 309.072046 247.187268 
L 309.120877 247.254961 
L 309.218539 244.575148 
L 309.413863 229.496833 
L 309.999837 178.028836 
L 310.048668 177.924389 
L 310.14633 180.49666 
L 310.341654 195.266744 
L 310.927628 246.280245 
L 310.976459 246.429519 
L 311.074121 243.979597 
L 311.269445 229.524381 
L 311.855419 178.786885 
L 311.90425 178.585425 
L 312.001912 180.912836 
L 312.197236 195.117272 
L 312.78321 245.937006 
L 312.832041 246.194817 
L 312.929703 243.976019 
L 313.125027 229.912961 
L 313.711001 178.609069 
L 313.759832 178.295395 
L 313.857494 180.428027 
L 314.052818 194.46248 
L 314.638792 246.542422 
L 314.687623 246.906885 
L 314.785285 244.837712 
L 314.980609 230.758225 
L 315.566583 177.833296 
L 315.615414 177.426103 
L 315.713076 179.446767 
L 315.9084 193.578636 
L 316.494374 247.165651 
L 316.543205 247.607191 
L 316.592036 247.091691 
L 316.738529 240.066931 
L 317.080347 203.613258 
L 317.422165 177.628278 
L 317.470996 177.158249 
L 317.519827 177.645257 
L 317.66632 184.584289 
L 318.008138 220.859036 
L 318.349956 246.844885 
L 318.398787 247.342161 
L 318.447618 246.889848 
L 318.594111 240.095342 
L 318.935929 204.249815 
L 319.277746 178.383783 
L 319.326578 177.855321 
L 319.375409 178.264346 
L 319.521902 184.867705 
L 319.814889 214.577021 
L 320.156706 244.430655 
L 320.254369 246.476786 
L 320.3032 246.119097 
L 320.449693 239.724718 
L 320.74268 210.464982 
L 321.084497 180.695964 
L 321.18216 178.56274 
L 321.230991 178.864243 
L 321.377484 185.066156 
L 321.670471 214.041659 
L 322.012288 243.949834 
L 322.109951 246.191942 
L 322.158782 245.946759 
L 322.305275 239.893648 
L 322.598262 210.970446 
L 322.98891 179.053245 
L 323.037741 178.322692 
L 323.086573 178.516068 
L 323.184235 181.633037 
L 323.379559 197.160857 
L 323.916701 246.071663 
L 323.965532 246.858043 
L 324.014364 246.708908 
L 324.112026 243.640317 
L 324.30735 228.036301 
L 324.844492 178.327135 
L 324.893323 177.492818 
L 324.942155 177.605779 
L 325.039817 180.639792 
L 325.235141 196.321517 
L 325.772283 246.653893 
L 325.821114 247.52585 
L 325.869946 247.443171 
L 325.967608 244.447251 
L 326.162932 228.760351 
L 326.700074 178.152937 
L 326.748905 177.252475 
L 326.797736 177.306669 
L 326.895399 180.245514 
L 327.090723 195.818929 
L 327.627865 246.310374 
L 327.676696 247.234677 
L 327.725527 247.211831 
L 327.82319 244.357195 
L 328.018514 229.017249 
L 328.555656 178.928263 
L 328.653318 177.963393 
L 328.750981 180.708486 
L 328.946305 195.738282 
L 329.532278 246.334356 
L 329.581109 246.395411 
L 329.678772 243.774487 
L 329.874096 229.06049 
L 330.460069 178.728156 
L 330.5089 178.614174 
L 330.606563 181.111748 
L 330.801887 195.576035 
L 331.38786 246.001064 
L 331.436691 246.171441 
L 331.534354 243.781906 
L 331.729678 229.455657 
L 332.315651 178.539411 
L 332.364482 178.313828 
L 332.462145 180.619077 
L 332.657469 194.921737 
L 333.243442 246.617404 
L 333.292273 246.892671 
L 333.389935 244.648299 
L 333.58526 230.295148 
L 334.171233 177.753743 
L 334.220064 177.436869 
L 334.317726 179.635143 
L 334.513051 194.045152 
L 335.099024 247.24879 
L 335.147855 247.599309 
L 335.245517 245.445875 
L 335.440842 231.041915 
L 336.026815 177.542425 
L 336.075646 177.163417 
L 336.173308 179.25982 
L 336.368633 193.549922 
L 336.954606 246.933009 
L 337.003437 247.339978 
L 337.101099 245.321472 
L 337.296424 231.257196 
L 337.882397 178.293229 
L 337.931228 177.853891 
L 337.980059 178.351951 
L 338.126553 185.198158 
L 338.46837 220.684798 
L 338.810188 246.002921 
L 338.859019 246.482603 
L 338.90785 246.03696 
L 339.054344 239.401805 
L 339.396161 204.412287 
L 339.737979 179.080793 
L 339.78681 178.551874 
L 339.835641 178.940701 
L 339.982135 185.382859 
L 340.275121 214.57176 
L 340.616939 244.137098 
L 340.714601 246.208188 
L 340.763432 245.875604 
L 340.909925 239.580742 
L 341.202912 210.43781 
L 341.54473 180.493445 
L 341.642392 178.30118 
L 341.691223 178.582727 
L 341.837716 184.785945 
L 342.130703 214.093713 
L 342.472521 244.572478 
L 342.570183 246.884294 
L 342.619014 246.645802 
L 342.765507 240.489431 
L 343.058494 210.909042 
L 343.449143 178.207323 
L 343.497974 177.462602 
L 343.546805 177.666083 
L 343.644467 180.874092 
L 343.839792 196.812707 
L 344.376934 246.777598 
L 344.425765 247.559272 
L 344.474596 247.38536 
L 344.572258 244.214031 
L 344.767583 228.267943 
L 345.304725 178.026515 
L 345.353556 177.21634 
L 345.402387 177.361767 
L 345.500049 180.476011 
L 345.695374 196.308713 
L 346.232516 246.438742 
L 346.281347 247.273475 
L 346.330178 247.160106 
L 346.42784 244.131371 
L 346.623165 228.533616 
L 347.160307 178.798014 
L 347.209138 177.936572 
L 347.257969 178.010886 
L 347.355631 180.928101 
L 347.550956 196.213865 
L 348.088098 245.484222 
L 348.136929 246.380087 
L 348.18576 246.352917 
L 348.283422 243.561654 
L 348.478747 228.592529 
L 349.06472 178.677727 
L 349.113551 178.651248 
L 349.211213 181.318366 
L 349.406538 196.038936 
L 349.992511 246.056833 
L 350.041342 246.139733 
L 350.139004 243.580039 
L 350.334329 228.994113 
L 350.920302 178.478093 
L 350.969133 178.340668 
L 351.066795 180.817986 
L 351.26212 195.385358 
L 351.848093 246.683948 
L 351.896924 246.869937 
L 351.994586 244.450896 
L 352.18991 229.827589 
L 352.775884 177.682733 
L 352.824715 177.456266 
L 352.922377 179.831626 
L 353.117701 194.516238 
L 353.703675 247.323321 
L 353.752506 247.582729 
L 353.850168 245.250784 
L 354.045492 230.569817 
L 354.631466 177.46518 
L 354.680297 177.177285 
L 354.777959 179.45219 
L 354.973283 194.019363 
L 355.559257 247.012593 
L 355.608088 247.329165 
L 355.70575 245.133502 
L 355.901074 230.793846 
L 356.487048 178.2111 
L 356.535879 177.860981 
L 356.633541 179.954724 
L 356.828865 193.991823 
L 357.414839 246.088333 
L 357.46367 246.480008 
L 357.561332 244.503424 
L 357.756656 230.778153 
L 358.34263 178.991075 
L 358.391461 178.549351 
L 358.440292 179.025402 
L 358.586785 185.706213 
L 358.928603 220.596535 
L 359.270421 245.718254 
L 359.319252 246.216094 
L 359.368083 245.796186 
L 359.514576 239.26111 
L 359.807563 209.905611 
L 360.14938 180.307859 
L 360.247043 178.288072 
L 360.295874 178.657731 
L 360.442367 185.104466 
L 360.735354 214.631966 
L 361.077171 244.764605 
L 361.174834 246.902032 
L 361.223665 246.574231 
L 361.370158 240.170249 
L 361.663145 210.363515 
L 362.004962 179.68087 
L 362.102625 177.441005 
L 362.151456 177.734965 
L 362.297949 184.113479 
L 362.590936 214.161903 
L 362.932753 245.264564 
L 363.030416 247.584007 
L 363.079247 247.318902 
L 363.22574 240.982501 
L 363.518727 210.860194 
L 363.860544 179.565378 
L 363.958207 177.188892 
L 364.007038 177.425511 
L 364.153531 183.676208 
L 364.446518 213.637907 
L 364.837166 246.558688 
L 364.885998 247.303655 
L 364.934829 247.0998 
L 365.032491 243.897735 
L 365.227815 228.046055 
L 365.764957 178.67607 
L 365.813788 177.903195 
L 365.86262 178.066855 
L 365.960282 181.155448 
L 366.155606 196.693377 
L 366.692748 245.608861 
L 366.741579 246.417427 
L 366.790411 246.302049 
L 366.888073 243.341154 
L 367.083397 228.120612 
L 367.620539 179.490217 
L 367.66937 178.635613 
L 367.718202 178.696639 
L 367.815864 181.532637 
L 368.011188 196.505861 
L 368.54833 245.194366 
L 368.597161 246.104301 
L 368.645993 246.099699 
L 368.743655 243.370468 
L 368.938979 228.52844 
L 369.524952 178.425133 
L 369.573783 178.375908 
L 369.671446 181.024705 
L 369.86677 195.853231 
L 370.452743 246.742033 
L 370.501574 246.838688 
L 370.599237 244.245551 
L 370.794561 229.355664 
L 371.380534 177.620284 
L 371.429365 177.484289 
L 371.527028 180.036167 
L 371.722352 194.991778 
L 372.308325 247.389225 
L 372.357156 247.557454 
L 372.454819 245.047568 
L 372.650143 230.093221 
L 373.236116 177.396562 
L 373.284947 177.199847 
L 373.38261 179.652683 
L 373.577934 194.49331 
L 374.163907 247.083618 
L 374.212738 247.309724 
L 374.310401 244.937467 
L 374.505725 230.326006 
L 375.091698 178.137415 
L 375.140529 177.876591 
L 375.238192 180.144863 
L 375.433516 194.451637 
L 376.019489 246.165422 
L 376.06832 246.469003 
L 376.165983 244.319807 
L 376.361307 230.326047 
L 376.94728 178.909594 
L 376.996111 178.555171 
L 377.093773 180.583425 
L 377.289098 194.324733 
L 377.875071 245.805013 
L 377.923902 246.215657 
L 377.972733 245.708525 
L 378.119227 238.934831 
L 378.461044 203.85896 
L 378.802862 178.750988 
L 378.851693 178.283375 
L 378.900524 178.741064 
L 379.047018 185.429755 
L 379.340004 215.169732 
L 379.681822 244.948765 
L 379.779484 246.911253 
L 379.828315 246.494212 
L 379.974809 239.844165 
L 380.267795 209.818418 
L 380.609613 179.490879 
L 380.707275 177.428034 
L 380.756106 177.812411 
L 380.9026 184.440613 
L 381.195586 214.712856 
L 381.537404 245.45897 
L 381.635066 247.600049 
L 381.683897 247.243812 
L 381.830391 240.655665 
L 382.123377 210.306982 
L 382.465195 179.368251 
L 382.562857 177.170138 
L 382.611688 177.497887 
L 382.758182 184.00032 
L 383.051168 214.189006 
L 383.392986 245.082612 
L 383.490648 247.325208 
L 383.539479 247.030928 
L 383.685973 240.669912 
L 383.978959 210.855012 
L 384.320777 180.166422 
L 384.418439 177.878332 
L 384.46727 178.131286 
L 384.613763 184.305697 
L 384.90675 213.635545 
L 385.248568 244.098048 
L 385.34623 246.446368 
L 385.395061 246.242819 
L 385.492723 243.11304 
L 385.688048 227.644856 
L 386.22519 179.369814 
L 386.274021 178.601822 
L 386.322852 178.750334 
L 386.420514 181.754509 
L 386.615839 196.976694 
L 387.152981 245.319927 
L 387.201812 246.143456 
L 387.250643 246.051348 
L 387.348305 243.153245 
L 387.54363 228.058753 
L 388.080772 179.263729 
L 388.129603 178.380544 
L 388.178434 178.419542 
L 388.276096 181.239184 
L 388.471421 196.325239 
L 389.057394 246.791647 
L 389.106225 246.79893 
L 389.203887 244.032315 
L 389.399212 228.879487 
L 389.985185 177.566413 
L 390.034016 177.520934 
L 390.131678 180.248717 
L 390.327003 195.471654 
L 390.912976 247.446485 
L 390.961807 247.52349 
L 391.059469 244.836279 
L 391.254794 229.612244 
L 391.840767 177.336588 
L 391.889598 177.231098 
L 391.98726 179.861251 
L 392.182585 194.971644 
L 392.768558 247.146067 
L 392.817389 247.281661 
L 392.915051 244.733416 
L 393.110376 229.853792 
L 393.696349 178.072192 
L 393.74518 177.900714 
L 393.842842 180.342933 
L 394.038167 194.915815 
L 394.62414 246.234169 
L 394.672971 246.449591 
L 394.770633 244.128332 
L 394.965958 229.869557 
L 395.551931 178.836372 
L 395.600762 178.569333 
L 395.698424 180.768737 
L 395.893748 194.775983 
L 396.479722 245.883534 
L 396.528553 246.206876 
L 396.626215 244.116487 
L 396.821539 230.253087 
L 397.407513 178.666777 
L 397.456344 178.287089 
L 397.554006 180.289924 
L 397.74933 194.120969 
L 398.335304 246.480658 
L 398.384135 246.911953 
L 398.432966 246.405762 
L 398.579459 239.51126 
L 398.921277 203.624147 
L 399.263095 177.898554 
L 399.311926 177.423693 
L 399.360757 177.898402 
L 399.50725 184.774678 
L 399.849068 220.976323 
L 400.190886 247.097661 
L 400.239717 247.607392 
L 400.288548 247.160108 
L 400.435041 240.321839 
L 400.728028 209.754283 
L 401.069845 179.179286 
L 401.167508 177.160082 
L 401.216339 177.578876 
L 401.362832 184.331423 
L 401.655819 214.739616 
L 401.997636 245.273019 
L 402.095299 247.338132 
L 402.14413 246.953509 
L 402.290623 240.344163 
L 402.58361 210.309975 
L 402.925427 179.975009 
L 403.02309 177.861989 
L 403.071921 178.204162 
L 403.218414 184.624291 
L 403.511401 214.173718 
L 403.853218 244.291062 
L 403.950881 246.466896 
L 403.999712 246.175237 
L 404.146205 239.962495 
L 404.439192 210.864235 
L 404.781009 180.837915 
L 404.878672 178.576384 
L 404.927503 178.812343 
L 405.073996 184.833061 
L 405.366983 213.643807 
L 405.757631 245.437314 
L 405.806463 246.174224 
L 405.855294 245.994627 
L 405.952956 242.928356 
L 406.14828 227.585127 
L 406.685422 179.140546 
L 406.734254 178.344514 
L 406.783085 178.471744 
L 406.880747 181.461558 
L 407.076071 196.801384 
L 407.613213 245.9797 
L 407.662045 246.832298 
L 407.710876 246.750174 
L 407.808538 243.810733 
L 408.003862 228.398862 
L 408.541004 178.423649 
L 408.589835 177.522366 
L 408.638667 177.567483 
L 408.736329 180.470528 
L 408.931653 195.956563 
L 409.468795 246.552717 
L 409.517626 247.492025 
L 409.566458 247.477638 
L 409.66412 244.613736 
L 409.859444 229.124987 
L 410.005938 212.383059 
L 410.005938 212.383059 
" clip-path="url(#p26ab44b116)" style="fill: none; stroke: #7a2e2e; stroke-linecap: square"/>
   </g>
   <g id="patch_9">
    <path d="M 19.405937 248.256 
L 19.405937 176.510118 
" style="fill: none; stroke: #1a1a1a; stroke-width: 0.9; stroke-linejoin: miter; stroke-linecap: square"/>
   </g>
   <g id="patch_10">
    <path d="M 19.405937 248.256 
L 410.005938 248.256 
" style="fill: none; stroke: #1a1a1a; stroke-width: 0.9; stroke-linejoin: miter; stroke-linecap: square"/>
   </g>
   <g id="text_13">
    <text style="font-style: italic; font-size: 9.5px; font-family: 'DejaVu Serif', serif; text-anchor: start; fill: #1a1a1a" x="24.093137" y="191.283222" transform="rotate(-0 24.093137 191.283222)">120 pulsos/s — el oído funde los golpes en un tono</text>
   </g>
  </g>
 </g>
 <defs>
  <clipPath id="p35a5be477b">
   <rect x="19.405937" y="4.32" width="390.6" height="71.745882"/>
  </clipPath>
  <clipPath id="pb0efc36e9f">
   <rect x="19.405937" y="90.415059" width="390.6" height="71.745882"/>
  </clipPath>
  <clipPath id="p26ab44b116">
   <rect x="19.405937" y="176.510118" width="390.6" height="71.745882"/>
  </clipPath>
 </defs>
</svg>
