<?xml version="1.0" encoding="utf-8" standalone="no"?>
<!DOCTYPE svg PUBLIC "-//W3C//DTD SVG 1.1//EN"
  "http://www.w3.org/Graphics/SVG/1.1/DTD/svg11.dtd">
<svg xmlns:xlink="http://www.w3.org/1999/xlink" width="493.909453pt" height="253.802359pt" viewBox="0 0 493.909453 253.802359" xmlns="http://www.w3.org/2000/svg" version="1.1">
 <metadata>
  <rdf:RDF xmlns:dc="http://purl.org/dc/elements/1.1/" xmlns:cc="http://creativecommons.org/ns#" xmlns:rdf="http://www.w3.org/1999/02/22-rdf-syntax-ns#">
   <cc:Work>
    <dc:type rdf:resource="http://purl.org/dc/dcmitype/StillImage"/>
    <dc:date>2026-07-13T09:20:41.599008</dc:date>
    <dc:format>image/svg+xml</dc:format>
    <dc:creator>
     <cc:Agent>
      <dc:title>Matplotlib v3.10.3, https://matplotlib.org/</dc:title>
     </cc:Agent>
    </dc:creator>
   </cc:Work>
  </rdf:RDF>
 </metadata>
 <defs>
  <style type="text/css">*{stroke-linejoin: round; stroke-linecap: butt}</style>
 </defs>
 <g id="figure_1">
  <g id="patch_1">
   <path d="M 0 253.802359 
L 493.909453 253.802359 
L 493.909453 0 
L 0 0 
z
" style="fill: #ffffff"/>
  </g>
  <g id="axes_1">
   <g id="patch_2">
    <path d="M 51.654727 218.642203 
L 442.254727 218.642203 
L 442.254727 19.058203 
L 51.654727 19.058203 
z
" style="fill: #ffffff"/>
   </g>
   <g id="matplotlib.axis_1">
    <g id="xtick_1">
     <g id="line2d_1">
      <defs>
       <path id="m810236e10e" d="M 0 0 
L 0 3.5 
" style="stroke: #1a1a1a; stroke-width: 0.8"/>
      </defs>
      <g>
       <use xlink:href="#m810236e10e" x="69.409272" y="218.642203" style="fill: #1a1a1a; stroke: #1a1a1a; stroke-width: 0.8"/>
      </g>
     </g>
     <g id="text_1">
      <text style="font-size: 9.5px; font-family: 'DejaVu Serif', serif; text-anchor: middle; fill: #1a1a1a" x="69.409272" y="232.860719" transform="rotate(-0 69.409272 232.860719)">0.0</text>
     </g>
    </g>
    <g id="xtick_2">
     <g id="line2d_2">
      <g>
       <use xlink:href="#m810236e10e" x="128.59109" y="218.642203" style="fill: #1a1a1a; stroke: #1a1a1a; stroke-width: 0.8"/>
      </g>
     </g>
     <g id="text_2">
      <text style="font-size: 9.5px; font-family: 'DejaVu Serif', serif; text-anchor: middle; fill: #1a1a1a" x="128.59109" y="232.860719" transform="rotate(-0 128.59109 232.860719)">0.5</text>
     </g>
    </g>
    <g id="xtick_3">
     <g id="line2d_3">
      <g>
       <use xlink:href="#m810236e10e" x="187.772908" y="218.642203" style="fill: #1a1a1a; stroke: #1a1a1a; stroke-width: 0.8"/>
      </g>
     </g>
     <g id="text_3">
      <text style="font-size: 9.5px; font-family: 'DejaVu Serif', serif; text-anchor: middle; fill: #1a1a1a" x="187.772908" y="232.860719" transform="rotate(-0 187.772908 232.860719)">1.0</text>
     </g>
    </g>
    <g id="xtick_4">
     <g id="line2d_4">
      <g>
       <use xlink:href="#m810236e10e" x="246.954727" y="218.642203" style="fill: #1a1a1a; stroke: #1a1a1a; stroke-width: 0.8"/>
      </g>
     </g>
     <g id="text_4">
      <text style="font-size: 9.5px; font-family: 'DejaVu Serif', serif; text-anchor: middle; fill: #1a1a1a" x="246.954727" y="232.860719" transform="rotate(-0 246.954727 232.860719)">1.5</text>
     </g>
    </g>
    <g id="xtick_5">
     <g id="line2d_5">
      <g>
       <use xlink:href="#m810236e10e" x="306.136545" y="218.642203" style="fill: #1a1a1a; stroke: #1a1a1a; stroke-width: 0.8"/>
      </g>
     </g>
     <g id="text_5">
      <text style="font-size: 9.5px; font-family: 'DejaVu Serif', serif; text-anchor: middle; fill: #1a1a1a" x="306.136545" y="232.860719" transform="rotate(-0 306.136545 232.860719)">2.0</text>
     </g>
    </g>
    <g id="xtick_6">
     <g id="line2d_6">
      <g>
       <use xlink:href="#m810236e10e" x="365.318363" y="218.642203" style="fill: #1a1a1a; stroke: #1a1a1a; stroke-width: 0.8"/>
      </g>
     </g>
     <g id="text_6">
      <text style="font-size: 9.5px; font-family: 'DejaVu Serif', serif; text-anchor: middle; fill: #1a1a1a" x="365.318363" y="232.860719" transform="rotate(-0 365.318363 232.860719)">2.5</text>
     </g>
    </g>
    <g id="xtick_7">
     <g id="line2d_7">
      <g>
       <use xlink:href="#m810236e10e" x="424.500181" y="218.642203" style="fill: #1a1a1a; stroke: #1a1a1a; stroke-width: 0.8"/>
      </g>
     </g>
     <g id="text_7">
      <text style="font-size: 9.5px; font-family: 'DejaVu Serif', serif; text-anchor: middle; fill: #1a1a1a" x="424.500181" y="232.860719" transform="rotate(-0 424.500181 232.860719)">3.0</text>
     </g>
    </g>
    <g id="text_8">
     <text style="font-size: 11px; font-family: 'DejaVu Serif', serif; text-anchor: middle; fill: #1a1a1a" x="246.954727" y="247.194703" transform="rotate(-0 246.954727 247.194703)">tiempo (s)</text>
    </g>
   </g>
   <g id="matplotlib.axis_2">
    <g id="ytick_1">
     <g id="line2d_8">
      <defs>
       <path id="m3ceada4e27" d="M 0 0 
L -3.5 0 
" style="stroke: #1a1a1a; stroke-width: 0.8"/>
      </defs>
      <g>
       <use xlink:href="#m3ceada4e27" x="51.654727" y="218.642203" style="fill: #1a1a1a; stroke: #1a1a1a; stroke-width: 0.8"/>
      </g>
     </g>
     <g id="text_9">
      <text style="font-size: 9.5px; font-family: 'DejaVu Serif', serif; text-anchor: end; fill: #1a1a1a" x="44.654727" y="222.251461" transform="rotate(-0 44.654727 222.251461)">0.0</text>
     </g>
    </g>
    <g id="ytick_2">
     <g id="line2d_9">
      <g>
       <use xlink:href="#m3ceada4e27" x="51.654727" y="180.626203" style="fill: #1a1a1a; stroke: #1a1a1a; stroke-width: 0.8"/>
      </g>
     </g>
     <g id="text_10">
      <text style="font-size: 9.5px; font-family: 'DejaVu Serif', serif; text-anchor: end; fill: #1a1a1a" x="44.654727" y="184.235461" transform="rotate(-0 44.654727 184.235461)">0.2</text>
     </g>
    </g>
    <g id="ytick_3">
     <g id="line2d_10">
      <g>
       <use xlink:href="#m3ceada4e27" x="51.654727" y="142.610203" style="fill: #1a1a1a; stroke: #1a1a1a; stroke-width: 0.8"/>
      </g>
     </g>
     <g id="text_11">
      <text style="font-size: 9.5px; font-family: 'DejaVu Serif', serif; text-anchor: end; fill: #1a1a1a" x="44.654727" y="146.219461" transform="rotate(-0 44.654727 146.219461)">0.4</text>
     </g>
    </g>
    <g id="ytick_4">
     <g id="line2d_11">
      <g>
       <use xlink:href="#m3ceada4e27" x="51.654727" y="104.594203" style="fill: #1a1a1a; stroke: #1a1a1a; stroke-width: 0.8"/>
      </g>
     </g>
     <g id="text_12">
      <text style="font-size: 9.5px; font-family: 'DejaVu Serif', serif; text-anchor: end; fill: #1a1a1a" x="44.654727" y="108.203461" transform="rotate(-0 44.654727 108.203461)">0.6</text>
     </g>
    </g>
    <g id="ytick_5">
     <g id="line2d_12">
      <g>
       <use xlink:href="#m3ceada4e27" x="51.654727" y="66.578203" style="fill: #1a1a1a; stroke: #1a1a1a; stroke-width: 0.8"/>
      </g>
     </g>
     <g id="text_13">
      <text style="font-size: 9.5px; font-family: 'DejaVu Serif', serif; text-anchor: end; fill: #1a1a1a" x="44.654727" y="70.187461" transform="rotate(-0 44.654727 70.187461)">0.8</text>
     </g>
    </g>
    <g id="ytick_6">
     <g id="line2d_13">
      <g>
       <use xlink:href="#m3ceada4e27" x="51.654727" y="28.562203" style="fill: #1a1a1a; stroke: #1a1a1a; stroke-width: 0.8"/>
      </g>
     </g>
     <g id="text_14">
      <text style="font-size: 9.5px; font-family: 'DejaVu Serif', serif; text-anchor: end; fill: #1a1a1a" x="44.654727" y="32.171461" transform="rotate(-0 44.654727 32.171461)">1.0</text>
     </g>
    </g>
    <g id="text_15">
     <text style="font-size: 11px; font-family: 'DejaVu Serif', serif; text-anchor: middle; fill: #1a1a1a" x="23.259102" y="118.850203" transform="rotate(-90 23.259102 118.850203)">amplitud del parcial (rel.)</text>
    </g>
   </g>
   <g id="line2d_14">
    <path d="M 69.409272 28.562203 
L 79.186494 35.566801 
L 89.408134 42.613954 
L 99.629775 49.389839 
L 109.851416 55.9049 
L 120.517475 62.435996 
L 131.183535 68.704982 
L 141.849595 74.722376 
L 152.960074 80.733841 
L 164.070553 86.49421 
L 175.625451 92.229901 
L 187.18035 97.716643 
L 199.179667 103.162495 
L 211.178984 108.363095 
L 223.622721 113.509069 
L 236.066457 118.414915 
L 248.954613 123.254774 
L 261.842768 127.860922 
L 275.175343 132.391971 
L 288.952337 136.836603 
L 303.17375 141.184503 
L 317.395163 145.301316 
L 332.060996 149.317739 
L 347.171247 153.225948 
L 362.725918 157.019089 
L 378.725008 160.691275 
L 395.168517 164.237562 
L 412.056445 167.653929 
L 424.500181 170.033204 
L 424.500181 170.033204 
" clip-path="url(#pe148de98b9)" style="fill: none; stroke: #7a2e2e; stroke-width: 1.8; stroke-linecap: square"/>
   </g>
   <g id="line2d_15">
    <path d="M 69.409272 28.562203 
L 75.186721 37.617406 
L 80.96417 46.241229 
L 86.741619 54.454222 
L 92.519068 62.275958 
L 98.296517 69.725075 
L 104.073967 76.819323 
L 109.851416 83.57561 
L 115.628865 90.010034 
L 121.850733 96.597034 
L 128.072601 102.846725 
L 134.294469 108.776383 
L 140.516338 114.402394 
L 146.738206 119.740309 
L 153.404493 125.156549 
L 160.070781 130.276176 
L 166.737068 135.115432 
L 173.403356 139.689673 
L 180.514062 144.293094 
L 187.624769 148.628107 
L 194.735475 152.710361 
L 202.290601 156.787278 
L 209.845727 160.612098 
L 217.845272 164.404437 
L 225.844816 167.948943 
L 234.28878 171.439376 
L 242.732745 174.689478 
L 251.621128 177.869176 
L 260.95393 180.960592 
L 270.286732 183.817617 
L 280.063954 186.578637 
L 290.285595 189.231389 
L 300.951655 191.76577 
L 312.062134 194.173804 
L 323.617032 196.449569 
L 335.616349 198.589104 
L 348.504505 200.657931 
L 361.83708 202.573768 
L 376.058493 204.39292 
L 391.168744 206.100654 
L 407.167834 207.686304 
L 424.500181 209.178677 
L 424.500181 209.178677 
" clip-path="url(#pe148de98b9)" style="fill: none; stroke: #2e4a7a; stroke-width: 1.8; stroke-linecap: square"/>
   </g>
   <g id="line2d_16">
    <path d="M 69.409272 28.562203 
L 72.964625 40.835872 
L 76.519979 52.317017 
L 80.075332 63.056811 
L 83.630685 73.103126 
L 87.186038 82.50074 
L 90.741392 91.29154 
L 94.296745 99.514708 
L 97.852098 107.206898 
L 101.407452 114.402394 
L 104.962805 121.13327 
L 108.518158 127.429526 
L 112.073511 133.319226 
L 116.073284 139.491797 
L 120.073056 145.217822 
L 124.072829 150.529606 
L 128.072601 155.457116 
L 132.072374 160.028152 
L 136.072146 164.268503 
L 140.071919 168.202092 
L 144.071691 171.851111 
L 148.515883 175.59681 
L 152.960074 179.04266 
L 157.404266 182.212664 
L 161.848457 185.128905 
L 166.737068 188.067868 
L 171.625679 190.749098 
L 176.958709 193.406636 
L 182.291739 195.810976 
L 188.069188 198.157871 
L 193.846637 200.263521 
L 200.068505 202.289737 
L 206.734793 204.21346 
L 213.845499 206.016659 
L 221.400625 207.686304 
L 229.40017 209.214143 
L 237.844134 210.596334 
L 247.176936 211.889521 
L 257.398577 213.068647 
L 268.509056 214.11801 
L 280.952792 215.060588 
L 294.729786 215.876881 
L 310.728876 216.594371 
L 329.394481 217.199752 
L 351.615439 217.691777 
L 379.613846 218.080343 
L 416.945055 218.363436 
L 424.500181 218.400301 
L 424.500181 218.400301 
" clip-path="url(#pe148de98b9)" style="fill: none; stroke: #8a8a8a; stroke-width: 1.8; stroke-linecap: square"/>
   </g>
   <g id="patch_3">
    <path d="M 51.654727 218.642203 
L 51.654727 19.058203 
" style="fill: none; stroke: #1a1a1a; stroke-width: 0.9; stroke-linejoin: miter; stroke-linecap: square"/>
   </g>
   <g id="patch_4">
    <path d="M 51.654727 218.642203 
L 442.254727 218.642203 
" style="fill: none; stroke: #1a1a1a; stroke-width: 0.9; stroke-linejoin: miter; stroke-linecap: square"/>
   </g>
   <g id="text_16">
    <text style="font-weight: 700; font-size: 11.5px; font-family: 'DejaVu Serif', serif; text-anchor: middle" x="246.954727" y="13.058203" transform="rotate(-0 246.954727 13.058203)">Cada modo decae a su ritmo: el timbre del golpe cambia mientras se apaga</text>
   </g>
   <g id="legend_1">
    <g id="line2d_17">
     <path d="M 255.919648 31.501719 
L 265.419648 31.501719 
L 274.919648 31.501719 
" style="fill: none; stroke: #7a2e2e; stroke-width: 1.8; stroke-linecap: square"/>
    </g>
    <g id="text_17">
     <text style="font-size: 9.5px; font-family: 'DejaVu Serif', serif; text-anchor: start" x="282.519648" y="34.826719" transform="rotate(-0 282.519648 34.826719)">parcial 1 (grave): decae lento</text>
    </g>
    <g id="line2d_18">
     <path d="M 255.919648 45.581016 
L 265.419648 45.581016 
L 274.919648 45.581016 
" style="fill: none; stroke: #2e4a7a; stroke-width: 1.8; stroke-linecap: square"/>
    </g>
    <g id="text_18">
     <text style="font-size: 9.5px; font-family: 'DejaVu Serif', serif; text-anchor: start" x="282.519648" y="48.906016" transform="rotate(-0 282.519648 48.906016)">parcial 3: intermedio</text>
    </g>
    <g id="line2d_19">
     <path d="M 255.919648 59.905234 
L 265.419648 59.905234 
L 274.919648 59.905234 
" style="fill: none; stroke: #8a8a8a; stroke-width: 1.8; stroke-linecap: square"/>
    </g>
    <g id="text_19">
     <text style="font-size: 9.5px; font-family: 'DejaVu Serif', serif; text-anchor: start" x="282.519648" y="63.230234" transform="rotate(-0 282.519648 63.230234)">parcial 6 (agudo): decae rápido</text>
    </g>
   </g>
  </g>
 </g>
 <defs>
  <clipPath id="pe148de98b9">
   <rect x="51.654727" y="19.058203" width="390.6" height="199.584"/>
  </clipPath>
 </defs>
</svg>
