<?xml version="1.0" encoding="utf-8" standalone="no"?>
<!DOCTYPE svg PUBLIC "-//W3C//DTD SVG 1.1//EN"
  "http://www.w3.org/Graphics/SVG/1.1/DTD/svg11.dtd">
<svg xmlns:xlink="http://www.w3.org/1999/xlink" width="474.443551pt" height="300.255149pt" viewBox="0 0 474.443551 300.255149" xmlns="http://www.w3.org/2000/svg" version="1.1">
 <metadata>
  <rdf:RDF xmlns:dc="http://purl.org/dc/elements/1.1/" xmlns:cc="http://creativecommons.org/ns#" xmlns:rdf="http://www.w3.org/1999/02/22-rdf-syntax-ns#">
   <cc:Work>
    <dc:type rdf:resource="http://purl.org/dc/dcmitype/StillImage"/>
    <dc:date>2026-07-13T09:23:58.863564</dc:date>
    <dc:format>image/svg+xml</dc:format>
    <dc:creator>
     <cc:Agent>
      <dc:title>Matplotlib v3.10.3, https://matplotlib.org/</dc:title>
     </cc:Agent>
    </dc:creator>
   </cc:Work>
  </rdf:RDF>
 </metadata>
 <defs>
  <style type="text/css">*{stroke-linejoin: round; stroke-linecap: butt}</style>
 </defs>
 <g id="figure_1">
  <g id="patch_1">
   <path d="M 0 300.255149 
L 474.443551 300.255149 
L 474.443551 0 
L 0 0 
z
" style="fill: #ffffff"/>
  </g>
  <g id="axes_1">
   <g id="patch_2">
    <path d="M 18.965938 90.969112 
L 470.123551 90.969112 
L 470.123551 19.518203 
L 18.965938 19.518203 
z
" style="fill: #ffffff"/>
   </g>
   <g id="matplotlib.axis_1">
    <g id="xtick_1">
     <g id="line2d_1">
      <defs>
       <path id="m22b28591de" d="M 0 0 
L 0 3.5 
" style="stroke: #1a1a1a; stroke-width: 0.8"/>
      </defs>
      <g>
       <use xlink:href="#m22b28591de" x="39.473102" y="90.969112" style="fill: #1a1a1a; stroke: #1a1a1a; stroke-width: 0.8"/>
      </g>
     </g>
    </g>
    <g id="xtick_2">
     <g id="line2d_2">
      <g>
       <use xlink:href="#m22b28591de" x="90.741012" y="90.969112" style="fill: #1a1a1a; stroke: #1a1a1a; stroke-width: 0.8"/>
      </g>
     </g>
    </g>
    <g id="xtick_3">
     <g id="line2d_3">
      <g>
       <use xlink:href="#m22b28591de" x="142.008923" y="90.969112" style="fill: #1a1a1a; stroke: #1a1a1a; stroke-width: 0.8"/>
      </g>
     </g>
    </g>
    <g id="xtick_4">
     <g id="line2d_4">
      <g>
       <use xlink:href="#m22b28591de" x="193.276834" y="90.969112" style="fill: #1a1a1a; stroke: #1a1a1a; stroke-width: 0.8"/>
      </g>
     </g>
    </g>
    <g id="xtick_5">
     <g id="line2d_5">
      <g>
       <use xlink:href="#m22b28591de" x="244.544744" y="90.969112" style="fill: #1a1a1a; stroke: #1a1a1a; stroke-width: 0.8"/>
      </g>
     </g>
    </g>
    <g id="xtick_6">
     <g id="line2d_6">
      <g>
       <use xlink:href="#m22b28591de" x="295.812655" y="90.969112" style="fill: #1a1a1a; stroke: #1a1a1a; stroke-width: 0.8"/>
      </g>
     </g>
    </g>
    <g id="xtick_7">
     <g id="line2d_7">
      <g>
       <use xlink:href="#m22b28591de" x="347.080566" y="90.969112" style="fill: #1a1a1a; stroke: #1a1a1a; stroke-width: 0.8"/>
      </g>
     </g>
    </g>
    <g id="xtick_8">
     <g id="line2d_8">
      <g>
       <use xlink:href="#m22b28591de" x="398.348476" y="90.969112" style="fill: #1a1a1a; stroke: #1a1a1a; stroke-width: 0.8"/>
      </g>
     </g>
    </g>
    <g id="xtick_9">
     <g id="line2d_9">
      <g>
       <use xlink:href="#m22b28591de" x="449.616387" y="90.969112" style="fill: #1a1a1a; stroke: #1a1a1a; stroke-width: 0.8"/>
      </g>
     </g>
    </g>
   </g>
   <g id="matplotlib.axis_2"/>
   <g id="line2d_10">
    <path d="M 39.473102 55.243658 
L 49.736948 46.403292 
L 55.074148 42.096566 
L 59.59024 38.722042 
L 63.695778 35.926762 
L 67.390763 33.670835 
L 71.085747 31.691104 
L 74.370178 30.183787 
L 77.654609 28.930029 
L 80.528486 28.051029 
L 83.402363 27.382723 
L 86.276239 26.930292 
L 89.150116 26.69724 
L 92.023993 26.685373 
L 94.89787 26.894783 
L 97.771747 27.323847 
L 100.645624 27.969241 
L 103.519501 28.825965 
L 106.803931 30.05526 
L 110.088362 31.539415 
L 113.372793 33.263414 
L 117.067777 35.467793 
L 120.762762 37.925361 
L 124.8683 40.914575 
L 129.794946 44.796103 
L 135.953254 49.971243 
L 156.070392 67.17951 
L 160.997038 70.948824 
L 165.102576 73.820492 
L 168.797561 76.155205 
L 172.492546 78.222188 
L 175.776976 79.81327 
L 179.061407 81.155752 
L 182.345838 82.236051 
L 185.219715 82.95758 
L 188.093591 83.464374 
L 190.967468 83.752507 
L 193.841345 83.819746 
L 196.715222 83.665571 
L 199.589099 83.291174 
L 202.462976 82.699458 
L 205.336853 81.895008 
L 208.621283 80.723214 
L 211.905714 79.293613 
L 215.190145 77.620671 
L 218.885129 75.468909 
L 222.580114 73.058203 
L 226.685652 70.113584 
L 231.201745 66.605011 
L 236.949498 61.834743 
L 245.981683 53.985776 
L 255.013867 46.232528 
L 260.351067 41.93722 
L 264.867159 38.575693 
L 268.972698 35.794663 
L 272.667682 33.553354 
L 275.952113 31.793396 
L 279.236544 30.270711 
L 282.520974 29.000707 
L 285.394851 28.106898 
L 288.268728 27.423352 
L 291.142605 26.955365 
L 294.016482 26.706563 
L 296.890359 26.678873 
L 299.764236 26.872511 
L 302.638113 27.285976 
L 305.511989 27.916065 
L 308.385866 28.757894 
L 311.670297 29.97082 
L 314.954728 31.439461 
L 318.239158 33.148956 
L 321.934143 35.33841 
L 325.629128 37.782709 
L 329.734666 40.759328 
L 334.661312 44.628995 
L 340.409066 49.442202 
L 352.725681 60.162323 
L 359.294542 65.691213 
L 364.221188 69.57274 
L 368.737281 72.846568 
L 372.842819 75.532312 
L 376.537804 77.676472 
L 379.822234 79.342054 
L 383.106665 80.763803 
L 386.391096 81.927336 
L 389.264973 82.724286 
L 392.138849 83.30831 
L 395.012726 83.674881 
L 397.886603 83.82116 
L 400.76048 83.746012 
L 403.634357 83.450021 
L 406.508234 82.93548 
L 409.382111 82.206376 
L 412.255988 81.268357 
L 415.540418 79.949917 
L 418.824849 78.381496 
L 422.10928 76.578962 
L 425.804264 74.294068 
L 429.909803 71.470619 
L 434.425895 68.070501 
L 439.763095 63.741453 
L 446.74251 57.756984 
L 449.616387 55.243658 
L 449.616387 55.243658 
" clip-path="url(#pdffd766251)" style="fill: none; stroke: #7a2e2e; stroke-width: 1.8; stroke-linecap: square"/>
   </g>
   <g id="line2d_11">
    <path d="M 18.965938 55.243658 
L 470.123551 55.243658 
" clip-path="url(#pdffd766251)" style="fill: none; stroke: #8a8a8a; stroke-width: 0.7; stroke-linecap: square"/>
   </g>
   <g id="patch_3">
    <path d="M 18.965938 90.969112 
L 18.965938 19.518203 
" style="fill: none; stroke: #1a1a1a; stroke-width: 0.9; stroke-linejoin: miter; stroke-linecap: square"/>
   </g>
   <g id="patch_4">
    <path d="M 18.965938 90.969112 
L 470.123551 90.969112 
" style="fill: none; stroke: #1a1a1a; stroke-width: 0.9; stroke-linejoin: miter; stroke-linecap: square"/>
   </g>
   <g id="text_1">
    <text style="font-style: italic; font-size: 9.5px; font-family: 'DejaVu Serif', serif; text-anchor: start" x="24.379829" y="35.310828" transform="rotate(-0 24.379829 35.310828)">parcial 1 (seno puro)</text>
   </g>
   <g id="text_2">
    <text style="font-weight: 700; font-size: 11.5px; font-family: 'DejaVu Serif', serif; text-anchor: middle" x="244.544744" y="13.518203" transform="rotate(-0 244.544744 13.518203)">Síntesis aditiva: sumar armónicos no agrega notas, tiñe una sola</text>
   </g>
  </g>
  <g id="axes_2">
   <g id="patch_5">
    <path d="M 18.965938 177.800021 
L 470.123551 177.800021 
L 470.123551 106.349112 
L 18.965938 106.349112 
z
" style="fill: #ffffff"/>
   </g>
   <g id="matplotlib.axis_3">
    <g id="xtick_10">
     <g id="line2d_12">
      <g>
       <use xlink:href="#m22b28591de" x="39.473102" y="177.800021" style="fill: #1a1a1a; stroke: #1a1a1a; stroke-width: 0.8"/>
      </g>
     </g>
    </g>
    <g id="xtick_11">
     <g id="line2d_13">
      <g>
       <use xlink:href="#m22b28591de" x="90.741012" y="177.800021" style="fill: #1a1a1a; stroke: #1a1a1a; stroke-width: 0.8"/>
      </g>
     </g>
    </g>
    <g id="xtick_12">
     <g id="line2d_14">
      <g>
       <use xlink:href="#m22b28591de" x="142.008923" y="177.800021" style="fill: #1a1a1a; stroke: #1a1a1a; stroke-width: 0.8"/>
      </g>
     </g>
    </g>
    <g id="xtick_13">
     <g id="line2d_15">
      <g>
       <use xlink:href="#m22b28591de" x="193.276834" y="177.800021" style="fill: #1a1a1a; stroke: #1a1a1a; stroke-width: 0.8"/>
      </g>
     </g>
    </g>
    <g id="xtick_14">
     <g id="line2d_16">
      <g>
       <use xlink:href="#m22b28591de" x="244.544744" y="177.800021" style="fill: #1a1a1a; stroke: #1a1a1a; stroke-width: 0.8"/>
      </g>
     </g>
    </g>
    <g id="xtick_15">
     <g id="line2d_17">
      <g>
       <use xlink:href="#m22b28591de" x="295.812655" y="177.800021" style="fill: #1a1a1a; stroke: #1a1a1a; stroke-width: 0.8"/>
      </g>
     </g>
    </g>
    <g id="xtick_16">
     <g id="line2d_18">
      <g>
       <use xlink:href="#m22b28591de" x="347.080566" y="177.800021" style="fill: #1a1a1a; stroke: #1a1a1a; stroke-width: 0.8"/>
      </g>
     </g>
    </g>
    <g id="xtick_17">
     <g id="line2d_19">
      <g>
       <use xlink:href="#m22b28591de" x="398.348476" y="177.800021" style="fill: #1a1a1a; stroke: #1a1a1a; stroke-width: 0.8"/>
      </g>
     </g>
    </g>
    <g id="xtick_18">
     <g id="line2d_20">
      <g>
       <use xlink:href="#m22b28591de" x="449.616387" y="177.800021" style="fill: #1a1a1a; stroke: #1a1a1a; stroke-width: 0.8"/>
      </g>
     </g>
    </g>
   </g>
   <g id="matplotlib.axis_4">
    <g id="text_3">
     <text style="font-size: 11px; font-family: 'DejaVu Serif', serif; text-anchor: middle; fill: #1a1a1a" x="12.678281" y="142.074567" transform="rotate(-90 12.678281 142.074567)">amplitud (u.a.)</text>
    </g>
   </g>
   <g id="line2d_21">
    <path d="M 39.473102 142.074567 
L 44.810302 132.933307 
L 47.684179 128.433181 
L 50.147502 124.974917 
L 52.200271 122.438824 
L 54.25304 120.257039 
L 55.895255 118.784391 
L 57.537471 117.562875 
L 59.179686 116.595172 
L 60.821901 115.878961 
L 62.464117 115.407027 
L 64.106332 115.167495 
L 65.748547 115.144147 
L 67.390763 115.316853 
L 69.443532 115.772304 
L 71.906855 116.600825 
L 74.780732 117.830706 
L 82.991809 121.506547 
L 85.455132 122.292482 
L 87.507901 122.743512 
L 89.56067 122.983665 
L 91.613439 123.000586 
L 93.666208 122.793408 
L 95.718978 122.372781 
L 98.182301 121.617677 
L 101.056178 120.465727 
L 105.982824 118.164456 
L 109.677808 116.561322 
L 112.141131 115.743914 
L 114.1939 115.300745 
L 115.836116 115.139636 
L 117.478331 115.175943 
L 119.120547 115.429569 
L 120.762762 115.916468 
L 122.404977 116.648237 
L 124.047193 117.631786 
L 125.689408 118.869128 
L 127.331623 120.357269 
L 129.384392 122.557477 
L 131.437162 125.110405 
L 133.900485 128.586025 
L 136.774362 133.101484 
L 140.469346 139.38323 
L 147.859315 152.049875 
L 150.733192 156.470274 
L 153.196515 159.839619 
L 155.249284 162.290176 
L 157.302054 164.378909 
L 158.944269 165.773669 
L 160.586484 166.91592 
L 162.2287 167.804549 
L 163.870915 168.443425 
L 165.51313 168.841245 
L 167.155346 169.011285 
L 168.797561 168.971032 
L 170.85033 168.657688 
L 172.903099 168.097649 
L 175.366422 167.176922 
L 179.061407 165.49925 
L 184.398607 163.077261 
L 186.86193 162.186558 
L 189.325253 161.540466 
L 191.378022 161.224522 
L 193.430791 161.128778 
L 195.483561 161.258148 
L 197.53633 161.605988 
L 199.999653 162.28574 
L 202.462976 163.202595 
L 205.747407 164.669877 
L 211.905714 167.468193 
L 214.369037 168.318422 
L 216.421806 168.798046 
L 218.064022 168.993667 
L 219.706237 168.996002 
L 221.348452 168.784465 
L 222.990668 168.342324 
L 224.632883 167.657139 
L 226.275098 166.721102 
L 227.917314 165.53127 
L 229.559529 164.089695 
L 231.612298 161.944947 
L 233.665068 159.442801 
L 236.128391 156.019682 
L 239.002267 151.550838 
L 242.697252 145.301537 
L 250.497775 131.933872 
L 253.371652 127.530021 
L 255.834975 124.178877 
L 257.887744 121.745691 
L 259.940513 119.675746 
L 261.582729 118.296639 
L 263.224944 117.170259 
L 264.867159 116.297404 
L 266.509375 115.673898 
L 268.15159 115.290749 
L 269.793805 115.134406 
L 271.436021 115.187133 
L 273.48879 115.51402 
L 275.541559 116.085006 
L 278.004882 117.015102 
L 281.699867 118.69874 
L 286.626513 120.946538 
L 289.50039 121.994787 
L 291.963713 122.629488 
L 294.016482 122.934716 
L 296.069251 123.019225 
L 298.12202 122.878678 
L 300.174789 122.520294 
L 302.638113 121.829498 
L 305.101436 120.904169 
L 308.79642 119.236377 
L 314.13362 116.803775 
L 316.596943 115.922284 
L 318.649712 115.407392 
L 320.702481 115.149426 
L 322.344697 115.159892 
L 323.986912 115.385395 
L 325.629128 115.842409 
L 327.271343 116.543092 
L 328.913558 117.494957 
L 330.555774 118.700635 
L 332.197989 120.157761 
L 334.250758 122.321059 
L 336.303527 124.840225 
L 338.76685 128.280987 
L 341.640727 132.765574 
L 345.335712 139.025993 
L 352.725681 151.717655 
L 355.599558 156.170552 
L 358.062881 159.575886 
L 360.11565 162.060924 
L 362.168419 164.18706 
L 363.810635 165.613056 
L 365.45285 166.787034 
L 367.095065 167.707256 
L 368.737281 168.376971 
L 370.379496 168.804289 
L 372.021711 169.001927 
L 373.663927 168.986871 
L 375.306142 168.779932 
L 377.358911 168.288419 
L 379.822234 167.427596 
L 383.106665 165.984678 
L 389.675526 162.995239 
L 392.138849 162.122567 
L 394.602172 161.49934 
L 396.654942 161.204868 
L 398.707711 161.131604 
L 400.76048 161.28331 
L 402.813249 161.652192 
L 405.276572 162.353941 
L 407.739895 163.287619 
L 411.43488 164.961517 
L 416.77208 167.386648 
L 419.235403 168.257893 
L 421.288172 168.761162 
L 423.340941 169.004986 
L 424.983157 168.981638 
L 426.625372 168.742106 
L 428.267587 168.270173 
L 429.909803 167.553961 
L 431.552018 166.586259 
L 433.194233 165.364743 
L 434.836449 163.892095 
L 436.889218 161.71031 
L 438.941987 159.174217 
L 441.40531 155.715953 
L 444.279187 151.215827 
L 447.974172 144.944593 
L 449.616387 142.074567 
L 449.616387 142.074567 
" clip-path="url(#pb980da7c16)" style="fill: none; stroke: #7a2e2e; stroke-width: 1.8; stroke-linecap: square"/>
   </g>
   <g id="line2d_22">
    <path d="M 18.965938 142.074567 
L 470.123551 142.074567 
" clip-path="url(#pb980da7c16)" style="fill: none; stroke: #8a8a8a; stroke-width: 0.7; stroke-linecap: square"/>
   </g>
   <g id="patch_6">
    <path d="M 18.965938 177.800021 
L 18.965938 106.349112 
" style="fill: none; stroke: #1a1a1a; stroke-width: 0.9; stroke-linejoin: miter; stroke-linecap: square"/>
   </g>
   <g id="patch_7">
    <path d="M 18.965938 177.800021 
L 470.123551 177.800021 
" style="fill: none; stroke: #1a1a1a; stroke-width: 0.9; stroke-linejoin: miter; stroke-linecap: square"/>
   </g>
   <g id="text_4">
    <text style="font-style: italic; font-size: 9.5px; font-family: 'DejaVu Serif', serif; text-anchor: start" x="24.379829" y="122.141737" transform="rotate(-0 24.379829 122.141737)">1 + 3</text>
   </g>
  </g>
  <g id="axes_3">
   <g id="patch_8">
    <path d="M 18.965938 264.63093 
L 470.123551 264.63093 
L 470.123551 193.180021 
L 18.965938 193.180021 
z
" style="fill: #ffffff"/>
   </g>
   <g id="matplotlib.axis_5">
    <g id="xtick_19">
     <g id="line2d_23">
      <g>
       <use xlink:href="#m22b28591de" x="39.473102" y="264.63093" style="fill: #1a1a1a; stroke: #1a1a1a; stroke-width: 0.8"/>
      </g>
     </g>
     <g id="text_5">
      <text style="font-size: 9.5px; font-family: 'DejaVu Serif', serif; text-anchor: middle; fill: #1a1a1a" x="39.473102" y="278.849446" transform="rotate(-0 39.473102 278.849446)">0.00</text>
     </g>
    </g>
    <g id="xtick_20">
     <g id="line2d_24">
      <g>
       <use xlink:href="#m22b28591de" x="90.741012" y="264.63093" style="fill: #1a1a1a; stroke: #1a1a1a; stroke-width: 0.8"/>
      </g>
     </g>
     <g id="text_6">
      <text style="font-size: 9.5px; font-family: 'DejaVu Serif', serif; text-anchor: middle; fill: #1a1a1a" x="90.741012" y="278.849446" transform="rotate(-0 90.741012 278.849446)">0.25</text>
     </g>
    </g>
    <g id="xtick_21">
     <g id="line2d_25">
      <g>
       <use xlink:href="#m22b28591de" x="142.008923" y="264.63093" style="fill: #1a1a1a; stroke: #1a1a1a; stroke-width: 0.8"/>
      </g>
     </g>
     <g id="text_7">
      <text style="font-size: 9.5px; font-family: 'DejaVu Serif', serif; text-anchor: middle; fill: #1a1a1a" x="142.008923" y="278.849446" transform="rotate(-0 142.008923 278.849446)">0.50</text>
     </g>
    </g>
    <g id="xtick_22">
     <g id="line2d_26">
      <g>
       <use xlink:href="#m22b28591de" x="193.276834" y="264.63093" style="fill: #1a1a1a; stroke: #1a1a1a; stroke-width: 0.8"/>
      </g>
     </g>
     <g id="text_8">
      <text style="font-size: 9.5px; font-family: 'DejaVu Serif', serif; text-anchor: middle; fill: #1a1a1a" x="193.276834" y="278.849446" transform="rotate(-0 193.276834 278.849446)">0.75</text>
     </g>
    </g>
    <g id="xtick_23">
     <g id="line2d_27">
      <g>
       <use xlink:href="#m22b28591de" x="244.544744" y="264.63093" style="fill: #1a1a1a; stroke: #1a1a1a; stroke-width: 0.8"/>
      </g>
     </g>
     <g id="text_9">
      <text style="font-size: 9.5px; font-family: 'DejaVu Serif', serif; text-anchor: middle; fill: #1a1a1a" x="244.544744" y="278.849446" transform="rotate(-0 244.544744 278.849446)">1.00</text>
     </g>
    </g>
    <g id="xtick_24">
     <g id="line2d_28">
      <g>
       <use xlink:href="#m22b28591de" x="295.812655" y="264.63093" style="fill: #1a1a1a; stroke: #1a1a1a; stroke-width: 0.8"/>
      </g>
     </g>
     <g id="text_10">
      <text style="font-size: 9.5px; font-family: 'DejaVu Serif', serif; text-anchor: middle; fill: #1a1a1a" x="295.812655" y="278.849446" transform="rotate(-0 295.812655 278.849446)">1.25</text>
     </g>
    </g>
    <g id="xtick_25">
     <g id="line2d_29">
      <g>
       <use xlink:href="#m22b28591de" x="347.080566" y="264.63093" style="fill: #1a1a1a; stroke: #1a1a1a; stroke-width: 0.8"/>
      </g>
     </g>
     <g id="text_11">
      <text style="font-size: 9.5px; font-family: 'DejaVu Serif', serif; text-anchor: middle; fill: #1a1a1a" x="347.080566" y="278.849446" transform="rotate(-0 347.080566 278.849446)">1.50</text>
     </g>
    </g>
    <g id="xtick_26">
     <g id="line2d_30">
      <g>
       <use xlink:href="#m22b28591de" x="398.348476" y="264.63093" style="fill: #1a1a1a; stroke: #1a1a1a; stroke-width: 0.8"/>
      </g>
     </g>
     <g id="text_12">
      <text style="font-size: 9.5px; font-family: 'DejaVu Serif', serif; text-anchor: middle; fill: #1a1a1a" x="398.348476" y="278.849446" transform="rotate(-0 398.348476 278.849446)">1.75</text>
     </g>
    </g>
    <g id="xtick_27">
     <g id="line2d_31">
      <g>
       <use xlink:href="#m22b28591de" x="449.616387" y="264.63093" style="fill: #1a1a1a; stroke: #1a1a1a; stroke-width: 0.8"/>
      </g>
     </g>
     <g id="text_13">
      <text style="font-size: 9.5px; font-family: 'DejaVu Serif', serif; text-anchor: middle; fill: #1a1a1a" x="449.616387" y="278.849446" transform="rotate(-0 449.616387 278.849446)">2.00</text>
     </g>
    </g>
    <g id="text_14">
     <!-- tiempo (en períodos de $f_1$) -->
     <g style="fill: #1a1a1a" transform="translate(171.724744 293.625149)">
      <text>
       <tspan x="0" y="-0.203125" style="font-size: 11px; font-family: 'DejaVu Serif'; fill: #1a1a1a">t</tspan>
       <tspan x="4.42041" y="-0.203125" style="font-size: 11px; font-family: 'DejaVu Serif'; fill: #1a1a1a">i</tspan>
       <tspan x="7.938477" y="-0.203125" style="font-size: 11px; font-family: 'DejaVu Serif'; fill: #1a1a1a">e</tspan>
       <tspan x="14.448242" y="-0.203125" style="font-size: 11px; font-family: 'DejaVu Serif'; fill: #1a1a1a">m</tspan>
       <tspan x="24.878906" y="-0.203125" style="font-size: 11px; font-family: 'DejaVu Serif'; fill: #1a1a1a">p</tspan>
       <tspan x="31.92041" y="-0.203125" style="font-size: 11px; font-family: 'DejaVu Serif'; fill: #1a1a1a">o</tspan>
       <tspan x="38.542969" y="-0.203125" style="font-size: 11px; font-family: 'DejaVu Serif'; fill: #1a1a1a"> </tspan>
       <tspan x="42.039551" y="-0.203125" style="font-size: 11px; font-family: 'DejaVu Serif'; fill: #1a1a1a">(</tspan>
       <tspan x="46.331055" y="-0.203125" style="font-size: 11px; font-family: 'DejaVu Serif'; fill: #1a1a1a">e</tspan>
       <tspan x="52.84082" y="-0.203125" style="font-size: 11px; font-family: 'DejaVu Serif'; fill: #1a1a1a">n</tspan>
       <tspan x="59.925293" y="-0.203125" style="font-size: 11px; font-family: 'DejaVu Serif'; fill: #1a1a1a"> </tspan>
       <tspan x="63.421875" y="-0.203125" style="font-size: 11px; font-family: 'DejaVu Serif'; fill: #1a1a1a">p</tspan>
       <tspan x="70.463379" y="-0.203125" style="font-size: 11px; font-family: 'DejaVu Serif'; fill: #1a1a1a">e</tspan>
       <tspan x="76.973145" y="-0.203125" style="font-size: 11px; font-family: 'DejaVu Serif'; fill: #1a1a1a">r</tspan>
       <tspan x="82.231445" y="-0.203125" style="font-size: 11px; font-family: 'DejaVu Serif'; fill: #1a1a1a">í</tspan>
       <tspan x="85.749512" y="-0.203125" style="font-size: 11px; font-family: 'DejaVu Serif'; fill: #1a1a1a">o</tspan>
       <tspan x="92.37207" y="-0.203125" style="font-size: 11px; font-family: 'DejaVu Serif'; fill: #1a1a1a">d</tspan>
       <tspan x="99.413574" y="-0.203125" style="font-size: 11px; font-family: 'DejaVu Serif'; fill: #1a1a1a">o</tspan>
       <tspan x="106.036133" y="-0.203125" style="font-size: 11px; font-family: 'DejaVu Serif'; fill: #1a1a1a">s</tspan>
       <tspan x="111.681152" y="-0.203125" style="font-size: 11px; font-family: 'DejaVu Serif'; fill: #1a1a1a"> </tspan>
       <tspan x="115.177734" y="-0.203125" style="font-size: 11px; font-family: 'DejaVu Serif'; fill: #1a1a1a">d</tspan>
       <tspan x="122.219238" y="-0.203125" style="font-size: 11px; font-family: 'DejaVu Serif'; fill: #1a1a1a">e</tspan>
       <tspan x="128.729004" y="-0.203125" style="font-size: 11px; font-family: 'DejaVu Serif'; fill: #1a1a1a"> </tspan>
       <tspan x="141.2979" y="-0.203125" style="font-size: 11px; font-family: 'DejaVu Serif'; fill: #1a1a1a">)</tspan>
       <tspan x="132.225586" y="-0.203125" style="font-style: oblique; font-size: 11px; font-family: 'DejaVu Sans'; fill: #1a1a1a">f</tspan>
       <tspan x="136.098145" y="1.601562" style="font-size: 7.7px; font-family: 'DejaVu Sans'; fill: #1a1a1a">1</tspan>
      </text>
     </g>
    </g>
   </g>
   <g id="matplotlib.axis_6"/>
   <g id="line2d_32">
    <path d="M 39.473102 228.905476 
L 42.757532 217.80132 
L 44.399748 212.96845 
L 45.631409 209.85195 
L 46.863071 207.247202 
L 48.094732 205.195122 
L 48.91584 204.142022 
L 49.736948 203.33858 
L 50.558055 202.776983 
L 51.379163 202.444585 
L 52.200271 202.324352 
L 53.021378 202.395422 
L 54.25304 202.807441 
L 55.484701 203.504526 
L 57.126917 204.709163 
L 60.411348 207.225847 
L 62.053563 208.166938 
L 63.285224 208.631068 
L 64.516886 208.861867 
L 65.748547 208.857813 
L 66.980209 208.636327 
L 68.622424 208.063066 
L 70.675194 207.064336 
L 73.959624 205.437116 
L 75.60184 204.873066 
L 77.244055 204.588688 
L 78.475716 204.579306 
L 80.117932 204.829975 
L 81.760147 205.333328 
L 84.22347 206.367673 
L 87.097347 207.550414 
L 88.739562 208.007867 
L 90.381778 208.211816 
L 92.023993 208.131103 
L 93.666208 207.778049 
L 95.718978 207.039479 
L 100.645624 205.023463 
L 102.287839 204.653732 
L 103.519501 204.561823 
L 104.751162 204.644701 
L 106.393378 205.022019 
L 108.035593 205.659828 
L 110.498916 206.902207 
L 112.962239 208.106423 
L 114.604454 208.66236 
L 115.836116 208.866812 
L 117.067777 208.851714 
L 118.299439 208.601137 
L 119.5311 208.118265 
L 120.762762 207.426657 
L 122.404977 206.258307 
L 126.510516 203.185589 
L 127.742177 202.595703 
L 128.563285 202.376871 
L 129.384392 202.328458 
L 130.2055 202.474143 
L 131.026608 202.834345 
L 131.847716 203.425576 
L 132.668823 204.259902 
L 133.489931 205.344503 
L 134.721592 207.443542 
L 135.953254 210.092867 
L 137.184915 213.249343 
L 138.827131 218.124892 
L 140.8799 224.967381 
L 145.395992 240.33096 
L 147.038208 245.12029 
L 148.269869 248.196351 
L 149.501531 250.756237 
L 150.733192 252.761262 
L 151.5543 253.782901 
L 152.375407 254.555583 
L 153.196515 255.087743 
L 154.017623 255.392605 
L 154.838731 255.487713 
L 155.659838 255.394363 
L 156.8915 254.954994 
L 158.123161 254.238496 
L 160.17593 252.693496 
L 163.049807 250.517065 
L 164.692023 249.596821 
L 165.923684 249.151586 
L 167.155346 248.940573 
L 168.387007 248.963658 
L 169.618669 249.201941 
L 171.260884 249.792077 
L 173.724207 251.017193 
L 176.598084 252.416052 
L 178.240299 252.964412 
L 179.882515 253.229791 
L 181.114176 253.224536 
L 182.756392 252.956187 
L 184.398607 252.439581 
L 187.272484 251.214683 
L 189.735807 250.225677 
L 191.378022 249.782376 
L 193.020238 249.595747 
L 194.662453 249.694298 
L 196.304668 250.062981 
L 198.357437 250.814375 
L 203.284084 252.817885 
L 204.926299 253.171327 
L 206.15796 253.248976 
L 207.389622 253.151397 
L 209.031837 252.755982 
L 210.674053 252.10443 
L 213.547929 250.63929 
L 215.600699 249.662037 
L 217.242914 249.123865 
L 218.474576 248.936674 
L 219.706237 248.971038 
L 220.937899 249.24137 
L 222.16956 249.742821 
L 223.811775 250.724326 
L 225.864545 252.281842 
L 228.327868 254.169318 
L 229.559529 254.904549 
L 230.791191 255.370628 
L 231.612298 255.485877 
L 232.433406 255.415561 
L 233.254514 255.137961 
L 234.075621 254.635029 
L 234.896729 253.892976 
L 235.717837 252.902745 
L 236.949498 250.944854 
L 238.18116 248.4301 
L 239.412821 245.39493 
L 241.055037 240.649985 
L 243.107806 233.904606 
L 248.034452 217.160967 
L 249.676667 212.416022 
L 250.908329 209.380852 
L 252.13999 206.866098 
L 253.371652 204.908206 
L 254.19276 203.917975 
L 255.013867 203.175922 
L 255.834975 202.672991 
L 256.656083 202.39539 
L 257.47719 202.325074 
L 258.298298 202.440323 
L 259.529959 202.906403 
L 260.761621 203.641633 
L 262.81439 205.199728 
L 265.277713 207.086625 
L 266.919929 208.068131 
L 268.15159 208.569581 
L 269.383252 208.839914 
L 270.614913 208.874278 
L 271.846575 208.687087 
L 273.48879 208.148915 
L 275.541559 207.171661 
L 279.236544 205.353514 
L 280.878759 204.821135 
L 282.110421 204.607426 
L 283.342082 204.568682 
L 284.984297 204.783409 
L 286.626513 205.259245 
L 289.089836 206.276047 
L 291.963713 207.478536 
L 293.605928 207.963454 
L 295.248143 208.201663 
L 296.890359 208.156759 
L 298.532574 207.835596 
L 300.174789 207.287309 
L 303.45922 205.869938 
L 305.511989 205.086831 
L 307.154205 204.685326 
L 308.385866 204.56518 
L 309.617528 204.618632 
L 310.849189 204.84654 
L 312.491405 205.3949 
L 314.544174 206.362908 
L 318.239158 208.19051 
L 319.881374 208.710484 
L 321.113035 208.880195 
L 322.344697 208.826464 
L 323.576358 208.536409 
L 324.80802 208.016555 
L 326.450235 207.015513 
L 328.913558 205.117456 
L 330.966327 203.572456 
L 332.197989 202.855958 
L 333.42965 202.416589 
L 334.250758 202.323239 
L 335.071866 202.418347 
L 335.892973 202.723209 
L 336.714081 203.255369 
L 337.535189 204.028051 
L 338.356297 205.04969 
L 339.587958 207.054715 
L 340.81962 209.614601 
L 342.051281 212.690661 
L 343.693496 217.479991 
L 345.746266 224.259088 
L 350.672912 240.966646 
L 352.315127 245.666376 
L 353.546789 248.66022 
L 354.77845 251.129589 
L 356.010112 253.040282 
L 356.831219 253.999167 
L 357.652327 254.710734 
L 358.473435 255.184652 
L 359.294542 255.435274 
L 360.11565 255.481138 
L 360.936758 255.344378 
L 362.168419 254.852232 
L 363.400081 254.098951 
L 365.45285 252.528871 
L 367.916173 250.654203 
L 369.558388 249.692687 
L 370.79005 249.209815 
L 372.021711 248.959238 
L 373.253373 248.944139 
L 374.485034 249.148592 
L 376.12725 249.704528 
L 378.180019 250.692854 
L 381.46445 252.330811 
L 383.106665 252.910253 
L 384.74888 253.213508 
L 385.980542 253.237559 
L 387.622757 253.004768 
L 389.264973 252.515007 
L 391.728296 251.489106 
L 394.602172 250.296125 
L 396.244388 249.824796 
L 397.886603 249.603651 
L 399.528819 249.666478 
L 401.171034 250.003688 
L 403.223803 250.728984 
L 408.561003 252.876001 
L 410.203218 253.196107 
L 411.43488 253.244991 
L 412.666541 253.11808 
L 414.308757 252.687057 
L 415.950972 252.009103 
L 421.698726 249.291342 
L 422.930387 249.004171 
L 424.162049 248.924832 
L 425.39371 249.076539 
L 426.625372 249.464303 
L 427.857033 250.073119 
L 429.499249 251.164551 
L 434.425895 254.798098 
L 435.657556 255.315663 
L 436.478664 255.473542 
L 437.299772 255.451783 
L 438.120879 255.227849 
L 438.941987 254.782719 
L 439.763095 254.101487 
L 440.584202 253.173876 
L 441.40531 251.994624 
L 442.636972 249.75544 
L 443.868633 246.974246 
L 445.100295 243.700771 
L 446.74251 238.702506 
L 449.205833 230.342724 
L 449.616387 228.905476 
L 449.616387 228.905476 
" clip-path="url(#p9d502ddb92)" style="fill: none; stroke: #7a2e2e; stroke-width: 1.8; stroke-linecap: square"/>
   </g>
   <g id="line2d_33">
    <path d="M 18.965938 228.905476 
L 470.123551 228.905476 
" clip-path="url(#p9d502ddb92)" style="fill: none; stroke: #8a8a8a; stroke-width: 0.7; stroke-linecap: square"/>
   </g>
   <g id="patch_9">
    <path d="M 18.965938 264.63093 
L 18.965938 193.180021 
" style="fill: none; stroke: #1a1a1a; stroke-width: 0.9; stroke-linejoin: miter; stroke-linecap: square"/>
   </g>
   <g id="patch_10">
    <path d="M 18.965938 264.63093 
L 470.123551 264.63093 
" style="fill: none; stroke: #1a1a1a; stroke-width: 0.9; stroke-linejoin: miter; stroke-linecap: square"/>
   </g>
   <g id="text_15">
    <text style="font-style: italic; font-size: 9.5px; font-family: 'DejaVu Serif', serif; text-anchor: start" x="24.379829" y="208.972646" transform="rotate(-0 24.379829 208.972646)">1 + 3 + 5 + 7  →  se acerca a una onda "hueca"</text>
   </g>
  </g>
 </g>
 <defs>
  <clipPath id="pdffd766251">
   <rect x="18.965938" y="19.518203" width="451.157614" height="71.450909"/>
  </clipPath>
  <clipPath id="pb980da7c16">
   <rect x="18.965938" y="106.349112" width="451.157614" height="71.450909"/>
  </clipPath>
  <clipPath id="p9d502ddb92">
   <rect x="18.965938" y="193.180021" width="451.157614" height="71.450909"/>
  </clipPath>
 </defs>
</svg>
