<?xml version="1.0" encoding="utf-8" standalone="no"?>
<!DOCTYPE svg PUBLIC "-//W3C//DTD SVG 1.1//EN"
  "http://www.w3.org/Graphics/SVG/1.1/DTD/svg11.dtd">
<svg xmlns:xlink="http://www.w3.org/1999/xlink" width="393.635824pt" height="236.261937pt" viewBox="0 0 393.635824 236.261937" xmlns="http://www.w3.org/2000/svg" version="1.1">
 <metadata>
  <rdf:RDF xmlns:dc="http://purl.org/dc/elements/1.1/" xmlns:cc="http://creativecommons.org/ns#" xmlns:rdf="http://www.w3.org/1999/02/22-rdf-syntax-ns#">
   <cc:Work>
    <dc:type rdf:resource="http://purl.org/dc/dcmitype/StillImage"/>
    <dc:date>2026-07-13T09:24:26.857531</dc:date>
    <dc:format>image/svg+xml</dc:format>
    <dc:creator>
     <cc:Agent>
      <dc:title>Matplotlib v3.10.3, https://matplotlib.org/</dc:title>
     </cc:Agent>
    </dc:creator>
   </cc:Work>
  </rdf:RDF>
 </metadata>
 <defs>
  <style type="text/css">*{stroke-linejoin: round; stroke-linecap: butt}</style>
 </defs>
 <g id="figure_1">
  <g id="patch_1">
   <path d="M 0 236.261937 
L 393.635824 236.261937 
L 393.635824 0 
L 0 0 
z
" style="fill: #ffffff"/>
  </g>
  <g id="axes_1">
   <g id="patch_2">
    <path d="M 9.875824 217.296 
L 182.348551 217.296 
L 182.348551 28.8 
L 9.875824 28.8 
z
" style="fill: #ffffff"/>
   </g>
   <g id="matplotlib.axis_1">
    <g id="text_1">
     <text style="font-size: 11px; font-family: 'DejaVu Serif', serif; text-anchor: middle; fill: #1a1a1a" x="96.112188" y="229.654281" transform="rotate(-0 96.112188 229.654281)">tiempo</text>
    </g>
   </g>
   <g id="matplotlib.axis_2"/>
   <g id="line2d_1">
    <path d="M 17.715493 71.55167 
L 21.380113 63.264773 
L 23.212423 59.624402 
L 24.782975 56.956895 
L 26.091768 55.12675 
L 27.400561 53.70239 
L 28.447595 52.879074 
L 29.494629 52.351219 
L 30.541664 52.127177 
L 31.326939 52.160838 
L 32.112215 52.367189 
L 33.159249 52.907554 
L 34.206284 53.74293 
L 35.253318 54.860097 
L 36.562111 56.625494 
L 37.870904 58.759647 
L 39.441455 61.732589 
L 41.535524 66.219279 
L 49.126523 83.07257 
L 50.697074 85.805007 
L 52.005867 87.698643 
L 53.31466 89.193361 
L 54.361694 90.076743 
L 55.408729 90.666999 
L 56.455763 90.954789 
L 57.241039 90.969216 
L 58.026314 90.810715 
L 59.073349 90.333045 
L 60.120383 89.558192 
L 61.167417 88.498418 
L 62.47621 86.798984 
L 63.785003 84.72286 
L 65.355555 81.807078 
L 67.449623 77.372204 
L 71.114243 68.909991 
L 73.993588 62.534788 
L 75.825898 58.991387 
L 77.396449 56.431565 
L 78.705242 54.705604 
L 79.752276 53.622783 
L 80.799311 52.823654 
L 81.846345 52.320864 
L 82.893379 52.122367 
L 83.678655 52.175259 
L 84.463931 52.400711 
L 85.510965 52.966053 
L 86.557999 53.825479 
L 87.605034 54.965391 
L 88.913827 56.756835 
L 90.222619 58.913792 
L 91.793171 61.909027 
L 93.88724 66.415581 
L 101.21648 82.741758 
L 102.787031 85.524789 
L 104.095824 87.468282 
L 105.404617 89.018548 
L 106.451651 89.949548 
L 107.498686 90.589434 
L 108.54572 90.928081 
L 109.330996 90.980973 
L 110.116271 90.860834 
L 111.163306 90.433557 
L 112.21034 89.707508 
L 113.257374 88.694175 
L 114.566167 87.048356 
L 115.87496 85.019685 
L 117.445512 82.151076 
L 119.277822 78.336149 
L 122.157166 71.755504 
L 125.821786 63.449599 
L 127.654096 59.785981 
L 129.224648 57.092279 
L 130.533441 55.236584 
L 131.842233 53.78396 
L 132.889268 52.936548 
L 133.936302 52.383687 
L 134.983336 52.134125 
L 135.768612 52.148552 
L 136.553888 52.335777 
L 137.600922 52.851107 
L 138.647956 53.66234 
L 139.694991 54.75664 
L 141.003784 56.495794 
L 142.312577 58.60691 
L 143.883128 61.557231 
L 145.977197 66.023563 
L 153.568195 82.907789 
L 155.138747 85.665674 
L 156.44754 87.584344 
L 157.756333 89.10692 
L 158.803367 90.014161 
L 159.850401 90.629266 
L 160.897436 90.942502 
L 161.682711 90.976163 
L 162.467987 90.836836 
L 163.515021 90.384337 
L 164.562056 89.633845 
L 165.60909 88.597234 
L 166.917883 86.924516 
L 168.226676 84.872005 
L 169.797227 81.979651 
L 171.891296 77.566359 
L 174.508882 71.55167 
L 174.508882 71.55167 
" clip-path="url(#p920cebe6b7)" style="fill: none; stroke: #2e4a7a; stroke-width: 1.4; stroke-linecap: square"/>
   </g>
   <g id="line2d_2">
    <path d="M 17.715493 71.55167 
L 21.380113 63.264773 
L 23.212423 59.624402 
L 24.782975 56.956895 
L 26.091768 55.12675 
L 27.400561 53.70239 
L 28.447595 52.879074 
L 29.494629 52.351219 
L 30.541664 52.127177 
L 31.326939 52.160838 
L 32.112215 52.367189 
L 33.159249 52.907554 
L 34.206284 53.74293 
L 35.253318 54.860097 
L 36.562111 56.625494 
L 37.870904 58.759647 
L 39.441455 61.732589 
L 41.535524 66.219279 
L 49.126523 83.07257 
L 50.697074 85.805007 
L 52.005867 87.698643 
L 53.31466 89.193361 
L 54.361694 90.076743 
L 55.408729 90.666999 
L 56.455763 90.954789 
L 57.241039 90.969216 
L 58.026314 90.810715 
L 59.073349 90.333045 
L 60.120383 89.558192 
L 61.167417 88.498418 
L 62.47621 86.798984 
L 63.785003 84.72286 
L 65.355555 81.807078 
L 67.449623 77.372204 
L 71.114243 68.909991 
L 73.993588 62.534788 
L 75.825898 58.991387 
L 77.396449 56.431565 
L 78.705242 54.705604 
L 79.752276 53.622783 
L 80.799311 52.823654 
L 81.846345 52.320864 
L 82.893379 52.122367 
L 83.678655 52.175259 
L 84.463931 52.400711 
L 85.510965 52.966053 
L 86.557999 53.825479 
L 87.605034 54.965391 
L 88.913827 56.756835 
L 90.222619 58.913792 
L 91.793171 61.909027 
L 93.88724 66.415581 
L 101.21648 82.741758 
L 102.787031 85.524789 
L 104.095824 87.468282 
L 105.404617 89.018548 
L 106.451651 89.949548 
L 107.498686 90.589434 
L 108.54572 90.928081 
L 109.330996 90.980973 
L 110.116271 90.860834 
L 111.163306 90.433557 
L 112.21034 89.707508 
L 113.257374 88.694175 
L 114.566167 87.048356 
L 115.87496 85.019685 
L 117.445512 82.151076 
L 119.277822 78.336149 
L 122.157166 71.755504 
L 125.821786 63.449599 
L 127.654096 59.785981 
L 129.224648 57.092279 
L 130.533441 55.236584 
L 131.842233 53.78396 
L 132.889268 52.936548 
L 133.936302 52.383687 
L 134.983336 52.134125 
L 135.768612 52.148552 
L 136.553888 52.335777 
L 137.600922 52.851107 
L 138.647956 53.66234 
L 139.694991 54.75664 
L 141.003784 56.495794 
L 142.312577 58.60691 
L 143.883128 61.557231 
L 145.977197 66.023563 
L 153.568195 82.907789 
L 155.138747 85.665674 
L 156.44754 87.584344 
L 157.756333 89.10692 
L 158.803367 90.014161 
L 159.850401 90.629266 
L 160.897436 90.942502 
L 161.682711 90.976163 
L 162.467987 90.836836 
L 163.515021 90.384337 
L 164.562056 89.633845 
L 165.60909 88.597234 
L 166.917883 86.924516 
L 168.226676 84.872005 
L 169.797227 81.979651 
L 171.891296 77.566359 
L 174.508882 71.55167 
L 174.508882 71.55167 
" clip-path="url(#p920cebe6b7)" style="fill: none; stroke-dasharray: 5.18,2.24; stroke-dashoffset: 0; stroke: #8a8a8a; stroke-width: 1.4"/>
   </g>
   <g id="line2d_3">
    <path d="M 17.715493 168.714557 
L 21.118355 153.255027 
L 22.950665 145.837223 
L 24.521216 140.346825 
L 25.830009 136.534467 
L 26.877044 134.05312 
L 27.924078 132.120228 
L 28.709354 131.049223 
L 29.494629 130.313654 
L 30.279905 129.920073 
L 30.803422 129.849536 
L 31.326939 129.932893 
L 32.112215 130.345594 
L 32.897491 131.099998 
L 33.682767 132.189386 
L 34.729801 134.145803 
L 35.776835 136.649208 
L 37.085628 140.486548 
L 38.394421 145.021273 
L 39.964972 151.224698 
L 42.059041 160.421489 
L 48.341247 188.703434 
L 49.911798 194.604076 
L 51.220591 198.826308 
L 52.529384 202.304617 
L 53.576419 204.493217 
L 54.623453 206.115683 
L 55.408729 206.945215 
L 56.194004 207.434275 
L 56.97928 207.578509 
L 57.502797 207.482333 
L 58.288073 207.050524 
L 59.073349 206.277306 
L 59.858624 205.169565 
L 60.905659 203.189677 
L 61.952693 200.664282 
L 63.261486 196.802066 
L 64.570279 192.245936 
L 66.14083 186.022145 
L 68.234899 176.808368 
L 74.255346 149.606508 
L 76.087656 142.673366 
L 77.396449 138.474346 
L 78.705242 135.022424 
L 79.752276 132.856782 
L 80.799311 131.258525 
L 81.584586 130.447743 
L 82.369862 129.977753 
L 83.155138 129.852743 
L 83.678655 129.961734 
L 84.463931 130.412639 
L 85.249206 131.204651 
L 86.034482 132.330714 
L 87.081517 134.334018 
L 88.128551 136.881334 
L 89.437344 140.76832 
L 90.746137 145.345729 
L 92.578447 152.695912 
L 94.934274 163.229328 
L 99.907687 185.839398 
L 101.739997 193.048896 
L 103.310548 198.304226 
L 104.619341 201.887114 
L 105.666376 204.166938 
L 106.71341 205.88579 
L 107.498686 206.790085 
L 108.283961 207.355289 
L 109.069237 207.576371 
L 109.592754 207.531479 
L 110.37803 207.176169 
L 111.163306 206.478331 
L 111.948581 205.444179 
L 112.733857 204.082925 
L 113.780892 201.78045 
L 114.827926 198.954767 
L 116.136719 194.755747 
L 117.70727 188.87797 
L 119.53958 181.130921 
L 122.680683 166.677119 
L 125.821786 152.510414 
L 127.654096 145.183178 
L 129.224648 139.795775 
L 130.533441 136.084385 
L 131.580475 133.691948 
L 132.627509 131.853681 
L 133.412785 130.856497 
L 134.198061 130.196466 
L 134.983336 129.879466 
L 135.506854 129.860226 
L 136.030371 129.994839 
L 136.815646 130.483899 
L 137.600922 131.31343 
L 138.386198 132.476045 
L 139.433232 134.526017 
L 140.480267 137.116962 
L 141.789059 141.053166 
L 143.359611 146.668904 
L 145.191921 154.195321 
L 147.809507 166.066726 
L 151.997644 185.103751 
L 153.829954 192.40784 
L 155.400505 197.769122 
L 156.709298 201.455013 
L 157.756333 203.825057 
L 158.803367 205.639539 
L 159.588643 206.618198 
L 160.373918 207.259298 
L 161.159194 207.557129 
L 161.682711 207.563543 
L 162.206229 207.416125 
L 162.991504 206.908007 
L 163.77678 206.059749 
L 164.562056 204.878906 
L 165.60909 202.805685 
L 166.656124 200.193032 
L 167.964917 196.232381 
L 169.535469 190.592035 
L 171.367779 183.044514 
L 173.985365 171.158989 
L 174.508882 168.714557 
L 174.508882 168.714557 
" clip-path="url(#p920cebe6b7)" style="fill: none; stroke: #7a2e2e; stroke-width: 1.8; stroke-linecap: square"/>
   </g>
   <g id="line2d_4">
    <path d="M 9.875824 168.714557 
L 182.348551 168.714557 
" clip-path="url(#p920cebe6b7)" style="fill: none; stroke-dasharray: 0.5,0.825; stroke-dashoffset: 0; stroke: #8a8a8a; stroke-width: 0.5"/>
   </g>
   <g id="text_2">
    <text style="font-size: 9px; font-family: 'DejaVu Serif', serif; text-anchor: start; fill: #1a1a1a" x="20.328716" y="39.487918" transform="rotate(-0 20.328716 39.487918)">onda 1 (—) y onda 2 (- -)</text>
   </g>
   <g id="text_3">
    <text style="font-size: 9px; font-family: 'DejaVu Serif', serif; text-anchor: start; fill: #7a2e2e" x="20.328716" y="119.161485" transform="rotate(-0 20.328716 119.161485)">suma</text>
   </g>
   <g id="text_4">
    <text style="font-weight: 700; font-size: 10px; font-family: 'DejaVu Serif', serif; text-anchor: middle" x="96.112188" y="22.8" transform="rotate(-0 96.112188 22.8)">en fase: los empujones se suman</text>
   </g>
  </g>
  <g id="axes_2">
   <g id="patch_3">
    <path d="M 216.843097 217.296 
L 389.315824 217.296 
L 389.315824 28.8 
L 216.843097 28.8 
z
" style="fill: #ffffff"/>
   </g>
   <g id="matplotlib.axis_3">
    <g id="text_5">
     <text style="font-size: 11px; font-family: 'DejaVu Serif', serif; text-anchor: middle; fill: #1a1a1a" x="303.07946" y="229.654281" transform="rotate(-0 303.07946 229.654281)">tiempo</text>
    </g>
   </g>
   <g id="matplotlib.axis_4"/>
   <g id="line2d_5">
    <path d="M 224.682766 71.55167 
L 228.347386 63.264773 
L 230.179696 59.624402 
L 231.750248 56.956895 
L 233.059041 55.12675 
L 234.367833 53.70239 
L 235.414868 52.879074 
L 236.461902 52.351219 
L 237.508936 52.127177 
L 238.294212 52.160838 
L 239.079488 52.367189 
L 240.126522 52.907554 
L 241.173556 53.74293 
L 242.220591 54.860097 
L 243.529384 56.625494 
L 244.838177 58.759647 
L 246.408728 61.732589 
L 248.502797 66.219279 
L 256.093795 83.07257 
L 257.664347 85.805007 
L 258.97314 87.698643 
L 260.281933 89.193361 
L 261.328967 90.076743 
L 262.376001 90.666999 
L 263.423036 90.954789 
L 264.208311 90.969216 
L 264.993587 90.810715 
L 266.040621 90.333045 
L 267.087656 89.558192 
L 268.13469 88.498418 
L 269.443483 86.798984 
L 270.752276 84.72286 
L 272.322827 81.807078 
L 274.416896 77.372204 
L 278.081516 68.909991 
L 280.96086 62.534788 
L 282.79317 58.991387 
L 284.363722 56.431565 
L 285.672515 54.705604 
L 286.719549 53.622783 
L 287.766583 52.823654 
L 288.813618 52.320864 
L 289.860652 52.122367 
L 290.645928 52.175259 
L 291.431203 52.400711 
L 292.478238 52.966053 
L 293.525272 53.825479 
L 294.572306 54.965391 
L 295.881099 56.756835 
L 297.189892 58.913792 
L 298.760444 61.909027 
L 300.854512 66.415581 
L 308.183753 82.741758 
L 309.754304 85.524789 
L 311.063097 87.468282 
L 312.37189 89.018548 
L 313.418924 89.949548 
L 314.465958 90.589434 
L 315.512993 90.928081 
L 316.298268 90.980973 
L 317.083544 90.860834 
L 318.130578 90.433557 
L 319.177613 89.707508 
L 320.224647 88.694175 
L 321.53344 87.048356 
L 322.842233 85.019685 
L 324.412784 82.151076 
L 326.245094 78.336149 
L 329.124439 71.755504 
L 332.789059 63.449599 
L 334.621369 59.785981 
L 336.19192 57.092279 
L 337.500713 55.236584 
L 338.809506 53.78396 
L 339.85654 52.936548 
L 340.903575 52.383687 
L 341.950609 52.134125 
L 342.735885 52.148552 
L 343.521161 52.335777 
L 344.568195 52.851107 
L 345.615229 53.66234 
L 346.662264 54.75664 
L 347.971056 56.495794 
L 349.279849 58.60691 
L 350.850401 61.557231 
L 352.944469 66.023563 
L 360.535468 82.907789 
L 362.10602 85.665674 
L 363.414813 87.584344 
L 364.723605 89.10692 
L 365.77064 90.014161 
L 366.817674 90.629266 
L 367.864708 90.942502 
L 368.649984 90.976163 
L 369.43526 90.836836 
L 370.482294 90.384337 
L 371.529328 89.633845 
L 372.576363 88.597234 
L 373.885156 86.924516 
L 375.193949 84.872005 
L 376.7645 81.979651 
L 378.858569 77.566359 
L 381.476154 71.55167 
L 381.476154 71.55167 
" clip-path="url(#p7e5e055cf5)" style="fill: none; stroke: #2e4a7a; stroke-width: 1.4; stroke-linecap: square"/>
   </g>
   <g id="line2d_6">
    <path d="M 224.682766 71.55167 
L 228.347386 79.838567 
L 230.179696 83.478938 
L 231.750248 86.146445 
L 233.059041 87.97659 
L 234.367833 89.400951 
L 235.414868 90.224266 
L 236.461902 90.752121 
L 237.508936 90.976163 
L 238.294212 90.942502 
L 239.079488 90.736151 
L 240.126522 90.195786 
L 241.173556 89.36041 
L 242.220591 88.243243 
L 243.529384 86.477847 
L 244.838177 84.343693 
L 246.408728 81.370751 
L 248.502797 76.884062 
L 256.093795 60.03077 
L 257.664347 57.298333 
L 258.97314 55.404697 
L 260.281933 53.909979 
L 261.328967 53.026597 
L 262.376001 52.436341 
L 263.423036 52.148552 
L 264.208311 52.134125 
L 264.993587 52.292625 
L 266.040621 52.770296 
L 267.087656 53.545148 
L 268.13469 54.604923 
L 269.443483 56.304356 
L 270.752276 58.38048 
L 272.322827 61.296262 
L 274.416896 65.731136 
L 278.081516 74.193349 
L 280.96086 80.568552 
L 282.79317 84.111953 
L 284.363722 86.671775 
L 285.672515 88.397736 
L 286.719549 89.480558 
L 287.766583 90.279686 
L 288.813618 90.782476 
L 289.860652 90.980973 
L 290.645928 90.928081 
L 291.431203 90.702629 
L 292.478238 90.137287 
L 293.525272 89.277861 
L 294.572306 88.137949 
L 295.881099 86.346505 
L 297.189892 84.189548 
L 298.760444 81.194313 
L 300.854512 76.687759 
L 308.183753 60.361582 
L 309.754304 57.578552 
L 311.063097 55.635059 
L 312.37189 54.084793 
L 313.418924 53.153792 
L 314.465958 52.513906 
L 315.512993 52.175259 
L 316.298268 52.122367 
L 317.083544 52.242506 
L 318.130578 52.669783 
L 319.177613 53.395832 
L 320.224647 54.409165 
L 321.53344 56.054984 
L 322.842233 58.083656 
L 324.412784 60.952264 
L 326.245094 64.767192 
L 329.124439 71.347837 
L 332.789059 79.653741 
L 334.621369 83.31736 
L 336.19192 86.011061 
L 337.500713 87.866756 
L 338.809506 89.31938 
L 339.85654 90.166792 
L 340.903575 90.719654 
L 341.950609 90.969216 
L 342.735885 90.954789 
L 343.521161 90.767563 
L 344.568195 90.252233 
L 345.615229 89.441 
L 346.662264 88.3467 
L 347.971056 86.607546 
L 349.279849 84.49643 
L 350.850401 81.546109 
L 352.944469 77.079777 
L 360.535468 60.195551 
L 362.10602 57.437666 
L 363.414813 55.518996 
L 364.723605 53.99642 
L 365.77064 53.089179 
L 366.817674 52.474074 
L 367.864708 52.160838 
L 368.649984 52.127177 
L 369.43526 52.266505 
L 370.482294 52.719003 
L 371.529328 53.469495 
L 372.576363 54.506106 
L 373.885156 56.178824 
L 375.193949 58.231335 
L 376.7645 61.12369 
L 378.858569 65.536981 
L 381.476154 71.55167 
L 381.476154 71.55167 
" clip-path="url(#p7e5e055cf5)" style="fill: none; stroke-dasharray: 5.18,2.24; stroke-dashoffset: 0; stroke: #8a8a8a; stroke-width: 1.4"/>
   </g>
   <g id="line2d_7">
    <path d="M 224.682766 168.714557 
L 381.476154 168.714557 
L 381.476154 168.714557 
" clip-path="url(#p7e5e055cf5)" style="fill: none; stroke: #7a2e2e; stroke-width: 1.8; stroke-linecap: square"/>
   </g>
   <g id="line2d_8">
    <path d="M 216.843097 168.714557 
L 389.315824 168.714557 
" clip-path="url(#p7e5e055cf5)" style="fill: none; stroke-dasharray: 0.5,0.825; stroke-dashoffset: 0; stroke: #8a8a8a; stroke-width: 0.5"/>
   </g>
   <g id="text_6">
    <text style="font-size: 9px; font-family: 'DejaVu Serif', serif; text-anchor: start; fill: #7a2e2e" x="227.295989" y="119.161485" transform="rotate(-0 227.295989 119.161485)">suma (casi silencio)</text>
   </g>
   <g id="text_7">
    <text style="font-weight: 700; font-size: 10px; font-family: 'DejaVu Serif', serif; text-anchor: middle" x="303.07946" y="22.8" transform="rotate(-0 303.07946 22.8)">en contrafase: se cancelan</text>
   </g>
  </g>
  <g id="text_8">
   <text style="font-weight: 700; font-size: 11.5px; font-family: 'DejaVu Serif', serif; text-anchor: middle" x="193.475824" y="13.518203" transform="rotate(-0 193.475824 13.518203)">Por qué late: las dos ondas entran y salen de paso</text>
  </g>
 </g>
 <defs>
  <clipPath id="p920cebe6b7">
   <rect x="9.875824" y="28.8" width="172.472727" height="188.496"/>
  </clipPath>
  <clipPath id="p7e5e055cf5">
   <rect x="216.843097" y="28.8" width="172.472727" height="188.496"/>
  </clipPath>
 </defs>
</svg>
