<?xml version="1.0" encoding="utf-8" standalone="no"?>
<!DOCTYPE svg PUBLIC "-//W3C//DTD SVG 1.1//EN"
  "http://www.w3.org/Graphics/SVG/1.1/DTD/svg11.dtd">
<svg xmlns:xlink="http://www.w3.org/1999/xlink" width="442.885pt" height="253.802359pt" viewBox="0 0 442.885 253.802359" xmlns="http://www.w3.org/2000/svg" version="1.1">
 <metadata>
  <rdf:RDF xmlns:dc="http://purl.org/dc/elements/1.1/" xmlns:cc="http://creativecommons.org/ns#" xmlns:rdf="http://www.w3.org/1999/02/22-rdf-syntax-ns#">
   <cc:Work>
    <dc:type rdf:resource="http://purl.org/dc/dcmitype/StillImage"/>
    <dc:date>2026-07-13T09:24:26.791564</dc:date>
    <dc:format>image/svg+xml</dc:format>
    <dc:creator>
     <cc:Agent>
      <dc:title>Matplotlib v3.10.3, https://matplotlib.org/</dc:title>
     </cc:Agent>
    </dc:creator>
   </cc:Work>
  </rdf:RDF>
 </metadata>
 <defs>
  <style type="text/css">*{stroke-linejoin: round; stroke-linecap: butt}</style>
 </defs>
 <g id="figure_1">
  <g id="patch_1">
   <path d="M 0 253.802359 
L 442.885 253.802359 
L 442.885 0 
L 0 0 
z
" style="fill: #ffffff"/>
  </g>
  <g id="axes_1">
   <g id="patch_2">
    <path d="M 40.411016 218.642203 
L 431.011016 218.642203 
L 431.011016 19.058203 
L 40.411016 19.058203 
z
" style="fill: #ffffff"/>
   </g>
   <g id="matplotlib.axis_1">
    <g id="xtick_1">
     <g id="line2d_1">
      <defs>
       <path id="me54a7bb6fd" d="M 0 0 
L 0 3.5 
" style="stroke: #1a1a1a; stroke-width: 0.8"/>
      </defs>
      <g>
       <use xlink:href="#me54a7bb6fd" x="40.411016" y="218.642203" style="fill: #1a1a1a; stroke: #1a1a1a; stroke-width: 0.8"/>
      </g>
     </g>
     <g id="text_1">
      <text style="font-size: 9.5px; font-family: 'DejaVu Serif', serif; text-anchor: middle; fill: #1a1a1a" x="40.411016" y="232.860719" transform="rotate(-0 40.411016 232.860719)">0.0</text>
     </g>
    </g>
    <g id="xtick_2">
     <g id="line2d_2">
      <g>
       <use xlink:href="#me54a7bb6fd" x="118.531016" y="218.642203" style="fill: #1a1a1a; stroke: #1a1a1a; stroke-width: 0.8"/>
      </g>
     </g>
     <g id="text_2">
      <text style="font-size: 9.5px; font-family: 'DejaVu Serif', serif; text-anchor: middle; fill: #1a1a1a" x="118.531016" y="232.860719" transform="rotate(-0 118.531016 232.860719)">0.2</text>
     </g>
    </g>
    <g id="xtick_3">
     <g id="line2d_3">
      <g>
       <use xlink:href="#me54a7bb6fd" x="196.651016" y="218.642203" style="fill: #1a1a1a; stroke: #1a1a1a; stroke-width: 0.8"/>
      </g>
     </g>
     <g id="text_3">
      <text style="font-size: 9.5px; font-family: 'DejaVu Serif', serif; text-anchor: middle; fill: #1a1a1a" x="196.651016" y="232.860719" transform="rotate(-0 196.651016 232.860719)">0.4</text>
     </g>
    </g>
    <g id="xtick_4">
     <g id="line2d_4">
      <g>
       <use xlink:href="#me54a7bb6fd" x="274.771016" y="218.642203" style="fill: #1a1a1a; stroke: #1a1a1a; stroke-width: 0.8"/>
      </g>
     </g>
     <g id="text_4">
      <text style="font-size: 9.5px; font-family: 'DejaVu Serif', serif; text-anchor: middle; fill: #1a1a1a" x="274.771016" y="232.860719" transform="rotate(-0 274.771016 232.860719)">0.6</text>
     </g>
    </g>
    <g id="xtick_5">
     <g id="line2d_5">
      <g>
       <use xlink:href="#me54a7bb6fd" x="352.891016" y="218.642203" style="fill: #1a1a1a; stroke: #1a1a1a; stroke-width: 0.8"/>
      </g>
     </g>
     <g id="text_5">
      <text style="font-size: 9.5px; font-family: 'DejaVu Serif', serif; text-anchor: middle; fill: #1a1a1a" x="352.891016" y="232.860719" transform="rotate(-0 352.891016 232.860719)">0.8</text>
     </g>
    </g>
    <g id="xtick_6">
     <g id="line2d_6">
      <g>
       <use xlink:href="#me54a7bb6fd" x="431.011016" y="218.642203" style="fill: #1a1a1a; stroke: #1a1a1a; stroke-width: 0.8"/>
      </g>
     </g>
     <g id="text_6">
      <text style="font-size: 9.5px; font-family: 'DejaVu Serif', serif; text-anchor: middle; fill: #1a1a1a" x="431.011016" y="232.860719" transform="rotate(-0 431.011016 232.860719)">1.0</text>
     </g>
    </g>
    <g id="text_7">
     <text style="font-size: 11px; font-family: 'DejaVu Serif', serif; text-anchor: middle; fill: #1a1a1a" x="235.711016" y="247.194703" transform="rotate(-0 235.711016 247.194703)">tiempo (s)</text>
    </g>
   </g>
   <g id="matplotlib.axis_2">
    <g id="ytick_1">
     <g id="line2d_7">
      <defs>
       <path id="ma31cb09882" d="M 0 0 
L -3.5 0 
" style="stroke: #1a1a1a; stroke-width: 0.8"/>
      </defs>
      <g>
       <use xlink:href="#ma31cb09882" x="40.411016" y="183.232139" style="fill: #1a1a1a; stroke: #1a1a1a; stroke-width: 0.8"/>
      </g>
     </g>
     <g id="text_8">
      <text style="font-size: 9.5px; font-family: 'DejaVu Serif', serif; text-anchor: end; fill: #1a1a1a" x="33.411016" y="186.841396" transform="rotate(-0 33.411016 186.841396)">−2</text>
     </g>
    </g>
    <g id="ytick_2">
     <g id="line2d_8">
      <g>
       <use xlink:href="#ma31cb09882" x="40.411016" y="118.850203" style="fill: #1a1a1a; stroke: #1a1a1a; stroke-width: 0.8"/>
      </g>
     </g>
     <g id="text_9">
      <text style="font-size: 9.5px; font-family: 'DejaVu Serif', serif; text-anchor: end; fill: #1a1a1a" x="33.411016" y="122.459461" transform="rotate(-0 33.411016 122.459461)">0</text>
     </g>
    </g>
    <g id="ytick_3">
     <g id="line2d_9">
      <g>
       <use xlink:href="#ma31cb09882" x="40.411016" y="54.468268" style="fill: #1a1a1a; stroke: #1a1a1a; stroke-width: 0.8"/>
      </g>
     </g>
     <g id="text_10">
      <text style="font-size: 9.5px; font-family: 'DejaVu Serif', serif; text-anchor: end; fill: #1a1a1a" x="33.411016" y="58.077525" transform="rotate(-0 33.411016 58.077525)">2</text>
     </g>
    </g>
    <g id="text_11">
     <text style="font-size: 11px; font-family: 'DejaVu Serif', serif; text-anchor: middle; fill: #1a1a1a" x="13.118281" y="118.850203" transform="rotate(-90 13.118281 118.850203)">presión (unid. arb.)</text>
    </g>
   </g>
   <g id="line2d_10">
    <path d="M 40.411016 118.850203 
L 41.5179 75.50503 
L 42.103898 60.667824 
L 42.494563 55.587162 
L 42.755006 54.572379 
L 42.885228 54.793209 
L 43.080561 56.030826 
L 43.341004 59.334309 
L 43.731669 67.604991 
L 44.252556 83.874368 
L 45.164108 120.859538 
L 46.205881 161.216935 
L 46.791879 176.061307 
L 47.182544 181.208215 
L 47.442988 182.297246 
L 47.573209 182.122802 
L 47.768542 180.966331 
L 48.028985 177.792198 
L 48.41965 169.757908 
L 48.940537 153.869175 
L 49.852089 117.635019 
L 50.958974 76.001868 
L 51.47986 63.338129 
L 51.870526 58.197814 
L 52.130969 57.053511 
L 52.19608 57.059294 
L 52.326302 57.421046 
L 52.521634 58.830731 
L 52.847188 63.415131 
L 53.302964 74.098665 
L 53.954073 96.014855 
L 55.907398 166.537624 
L 56.363174 174.976692 
L 56.688729 177.834851 
L 56.884061 178.21289 
L 57.014283 177.903683 
L 57.209615 176.606833 
L 57.53517 172.298696 
L 57.990946 162.171499 
L 58.642054 141.314984 
L 60.59538 73.997944 
L 61.051156 65.884101 
L 61.37671 63.09219 
L 61.572042 62.683136 
L 61.702264 62.941729 
L 61.897597 64.117938 
L 62.223151 68.108836 
L 62.678927 77.567706 
L 63.330035 97.115145 
L 65.283361 160.337956 
L 65.739137 168.000628 
L 66.064691 170.672798 
L 66.260024 171.096566 
L 66.390245 170.884461 
L 66.585578 169.832852 
L 66.911132 166.1924 
L 67.301797 158.973577 
L 67.887795 143.485678 
L 70.101564 78.772712 
L 70.55734 72.848917 
L 70.817783 71.386938 
L 70.948005 71.197541 
L 71.078227 71.369327 
L 71.273559 72.296142 
L 71.534003 74.742168 
L 71.924668 80.806914 
L 72.510666 94.311648 
L 73.747772 130.476755 
L 74.529102 149.788276 
L 75.049989 157.946933 
L 75.375543 160.608706 
L 75.635986 161.297312 
L 75.766208 161.157822 
L 75.961541 160.352396 
L 76.221984 158.202049 
L 76.612649 152.851515 
L 77.198647 140.934213 
L 79.542638 87.281967 
L 79.933303 83.478853 
L 80.193746 82.313539 
L 80.389079 82.174825 
L 80.5193 82.430132 
L 80.779744 83.754292 
L 81.105298 86.85004 
L 81.561074 93.52716 
L 82.277293 107.895909 
L 83.774843 138.971071 
L 84.29573 145.751065 
L 84.686395 148.576818 
L 84.946838 149.30076 
L 85.07706 149.311634 
L 85.272393 148.895727 
L 85.532836 147.561732 
L 85.923501 144.024881 
L 86.444388 136.946716 
L 87.421051 119.762279 
L 88.397713 103.870743 
L 88.983711 97.684218 
L 89.374376 95.504971 
L 89.63482 94.978001 
L 89.765041 94.992218 
L 89.960374 95.352951 
L 90.220817 96.441321 
L 90.611482 99.255992 
L 91.19748 105.588669 
L 93.47636 132.906672 
L 93.932136 135.207804 
L 94.25769 135.832741 
L 94.453023 135.802785 
L 94.648355 135.480685 
L 94.973909 134.338581 
L 95.429685 131.64517 
L 96.145905 125.667754 
L 97.578344 113.368999 
L 98.164341 110.282102 
L 98.555006 109.188302 
L 98.81545 108.900091 
L 99.010782 108.907402 
L 99.271226 109.196078 
L 99.59678 109.957589 
L 100.117667 111.90027 
L 102.266325 121.049218 
L 102.722101 121.820763 
L 103.047655 122.012599 
L 103.373209 121.933029 
L 103.763874 121.544297 
L 104.414983 120.468617 
L 105.326535 119.022898 
L 105.782311 118.708667 
L 106.107865 118.734462 
L 106.433419 118.982076 
L 106.889195 119.676736 
L 107.540304 121.177873 
L 108.582077 123.611975 
L 108.972743 124.096196 
L 109.298297 124.18107 
L 109.55874 124.004099 
L 109.884295 123.451269 
L 110.27496 122.292417 
L 110.795846 119.970067 
L 111.642288 114.912624 
L 112.684061 108.854366 
L 113.204948 107.025533 
L 113.530502 106.555232 
L 113.725835 106.559902 
L 113.921167 106.792513 
L 114.181611 107.466293 
L 114.572276 109.252307 
L 115.093163 112.968771 
L 115.874493 120.623668 
L 117.241821 134.212637 
L 117.762708 137.237635 
L 118.088262 138.086726 
L 118.283594 138.163063 
L 118.478927 137.89989 
L 118.73937 137.013 
L 119.064925 135.053952 
L 119.520701 130.834782 
L 120.171809 122.432004 
L 121.994913 97.147922 
L 122.450689 93.827907 
L 122.776243 92.798835 
L 122.971576 92.767574 
L 123.166908 93.189589 
L 123.427352 94.459623 
L 123.818017 97.834601 
L 124.338904 104.785775 
L 125.120234 118.865567 
L 126.487562 143.556084 
L 127.008449 149.249178 
L 127.334003 151.068371 
L 127.529335 151.44496 
L 127.659557 151.387271 
L 127.85489 150.832172 
L 128.115333 149.221176 
L 128.505998 145.009626 
L 129.026885 136.435636 
L 129.808215 119.260571 
L 131.110432 90.646242 
L 131.631319 83.409852 
L 132.021984 80.627557 
L 132.217317 80.187975 
L 132.347538 80.260497 
L 132.542871 80.922334 
L 132.803314 82.829131 
L 133.193979 87.790382 
L 133.714866 97.843932 
L 134.561307 119.676458 
L 135.798414 151.014167 
L 136.3193 159.35726 
L 136.709965 162.568624 
L 136.905298 163.083791 
L 137.03552 163.009469 
L 137.230852 162.267234 
L 137.491296 160.111864 
L 137.881961 154.495146 
L 138.402848 143.122129 
L 139.249289 118.482491 
L 140.486395 83.228428 
L 141.007282 73.847507 
L 141.397947 70.215954 
L 141.593279 69.615245 
L 141.723501 69.679408 
L 141.918834 70.476282 
L 142.179277 72.831846 
L 142.569942 79.004082 
L 143.090829 91.522166 
L 143.93727 118.63444 
L 145.174376 157.39116 
L 145.695263 167.723311 
L 146.085928 171.757102 
L 146.281261 172.450339 
L 146.411482 172.406918 
L 146.606815 171.580039 
L 146.867258 169.072905 
L 147.257923 162.449129 
L 147.77881 148.97199 
L 148.625251 119.751703 
L 149.862358 77.956899 
L 150.383244 66.777094 
L 150.773909 62.368204 
L 150.969242 61.578705 
L 151.099464 61.592434 
L 151.229685 62.04019 
L 151.490129 64.226381 
L 151.815683 69.294855 
L 152.271459 80.323796 
L 152.922568 102.14353 
L 154.745671 166.651855 
L 155.201447 175.427798 
L 155.527002 178.573132 
L 155.722334 179.119545 
L 155.852556 178.914496 
L 156.047888 177.754159 
L 156.308332 174.645047 
L 156.698997 166.829615 
L 157.219884 151.378252 
L 158.131436 115.985541 
L 159.23832 75.022885 
L 159.759207 62.521009 
L 160.149872 57.47962 
L 160.410316 56.408868 
L 160.540537 56.580235 
L 160.73587 57.720395 
L 160.996313 60.857937 
L 161.386978 68.827152 
L 161.907865 84.661238 
L 162.819417 121.035808 
L 163.926302 163.245684 
L 164.447188 176.194247 
L 164.837853 181.475653 
L 165.098297 182.656305 
L 165.163408 182.650754 
L 165.293629 182.277715 
L 165.488962 180.819597 
L 165.814516 176.062713 
L 166.270292 164.930378 
L 166.921401 141.960264 
L 168.874726 67.082428 
L 169.330502 57.996961 
L 169.656056 54.902429 
L 169.851389 54.48784 
L 169.981611 54.819704 
L 170.176943 56.223724 
L 170.502498 60.910273 
L 170.958274 71.982725 
L 171.609382 94.933539 
L 173.627818 171.698121 
L 174.083594 180.144428 
L 174.409149 182.744008 
L 174.53937 182.942497 
L 174.669592 182.65632 
L 174.864925 181.324696 
L 175.190479 176.768835 
L 175.581144 167.742407 
L 176.167142 148.296487 
L 178.446021 64.264686 
L 178.836687 57.99188 
L 179.09713 56.094644 
L 179.227352 55.856495 
L 179.357573 56.094775 
L 179.552906 57.339173 
L 179.813349 60.613064 
L 180.204014 68.751943 
L 180.724901 84.682153 
L 181.701564 123.39835 
L 182.678227 159.761194 
L 183.264224 174.026444 
L 183.65489 178.927044 
L 183.915333 179.931356 
L 184.045555 179.740873 
L 184.240887 178.594888 
L 184.501331 175.501066 
L 184.891996 167.730409 
L 185.412883 152.445402 
L 186.324435 117.785331 
L 187.366208 80.120905 
L 187.952206 66.304193 
L 188.342871 61.504806 
L 188.603314 60.470042 
L 188.733536 60.6151 
L 188.928869 61.655214 
L 189.189312 64.538778 
L 189.579977 71.854819 
L 190.100864 86.31293 
L 191.012416 119.17704 
L 192.054189 154.949277 
L 192.640187 168.118765 
L 193.030852 172.737748 
L 193.291296 173.777096 
L 193.421517 173.672912 
L 193.61685 172.742385 
L 193.877293 170.09348 
L 194.267958 163.308349 
L 194.788845 149.843636 
L 195.700397 119.18289 
L 196.742171 85.781805 
L 197.328168 73.455078 
L 197.718834 69.097588 
L 197.979277 68.082569 
L 198.109499 68.15247 
L 198.304831 68.973364 
L 198.565275 71.369168 
L 198.95594 77.558004 
L 199.476827 89.879998 
L 200.388379 117.961911 
L 201.430152 148.540145 
L 202.01615 159.834673 
L 202.406815 163.849041 
L 202.667258 164.808352 
L 202.79748 164.764293 
L 202.992813 164.049556 
L 203.253256 161.919281 
L 203.643921 156.380614 
L 204.164808 145.331764 
L 205.07636 120.167406 
L 206.118133 92.830122 
L 206.704131 82.7482 
L 207.094796 79.157706 
L 207.35524 78.287297 
L 207.485461 78.315576 
L 207.680794 78.930937 
L 207.941237 80.789207 
L 208.331902 85.635751 
L 208.852789 95.301327 
L 209.764341 117.250427 
L 210.806115 140.968191 
L 211.392112 149.668988 
L 211.782778 152.75718 
L 212.043221 153.504382 
L 212.173443 153.480464 
L 212.368775 152.954686 
L 212.629219 151.369119 
L 213.019884 147.244536 
L 213.540771 139.05098 
L 214.517433 119.196694 
L 215.494096 100.80552 
L 216.080094 93.639732 
L 216.470759 91.128495 
L 216.731202 90.539167 
L 216.861424 90.571198 
L 217.056757 91.019847 
L 217.3172 92.337513 
L 217.707865 95.722414 
L 218.293863 103.341592 
L 220.637853 137.253447 
L 221.028519 139.618104 
L 221.354073 140.432534 
L 221.549405 140.415101 
L 221.744738 140.028872 
L 222.005181 138.969179 
L 222.395846 136.329767 
L 222.981844 130.530868 
L 225.130502 107.292129 
L 225.586278 105.007179 
L 225.911832 104.269757 
L 226.107165 104.185116 
L 226.302498 104.359611 
L 226.562941 104.972367 
L 226.953606 106.615908 
L 227.539604 110.322049 
L 229.55804 124.265628 
L 230.013816 125.810891 
L 230.33937 126.363474 
L 230.599814 126.482233 
L 230.860257 126.333452 
L 231.185811 125.814962 
L 231.641587 124.600373 
L 232.683361 120.895754 
L 233.39958 118.750605 
L 233.920467 117.83046 
L 234.311132 117.558242 
L 234.636687 117.592537 
L 235.027352 117.896898 
L 235.613349 118.698804 
L 236.524901 119.932408 
L 236.915566 120.14818 
L 237.241121 120.09101 
L 237.566675 119.78951 
L 237.95734 119.098405 
L 238.478227 117.677524 
L 240.496663 111.44283 
L 240.822217 111.218173 
L 241.082661 111.336932 
L 241.343104 111.742195 
L 241.668659 112.663512 
L 242.124435 114.704493 
L 242.775543 118.890239 
L 244.663758 132.006475 
L 245.054423 133.227158 
L 245.314866 133.51529 
L 245.510199 133.430649 
L 245.770642 132.900945 
L 246.096196 131.563039 
L 246.551972 128.48224 
L 247.13797 122.772778 
L 249.351739 99.087949 
L 249.742404 97.502692 
L 250.002848 97.231959 
L 250.19818 97.46631 
L 250.458624 98.372414 
L 250.784178 100.446959 
L 251.239954 104.988123 
L 251.891062 114.119748 
L 253.779277 142.64987 
L 254.235053 146.121692 
L 254.560607 147.129208 
L 254.690829 147.161239 
L 254.821051 146.975906 
L 255.016383 146.287977 
L 255.341937 144.060674 
L 255.797713 138.807623 
L 256.383711 129.026321 
L 258.662591 87.48448 
L 259.053256 84.74572 
L 259.313699 84.175011 
L 259.443921 84.283263 
L 259.639254 84.943226 
L 259.899697 86.744935 
L 260.290362 91.338167 
L 260.811249 100.554666 
L 261.65769 120.449979 
L 262.829685 147.628608 
L 263.350572 155.557754 
L 263.741237 158.769469 
L 264.001681 159.437478 
L 264.131902 159.311474 
L 264.327235 158.542701 
L 264.587678 156.44683 
L 264.978344 151.11578 
L 265.49923 140.452027 
L 266.345671 117.533 
L 267.517667 86.388819 
L 268.038554 77.328643 
L 268.429219 73.65085 
L 268.689662 72.870524 
L 268.819884 73.000929 
L 269.015216 73.851365 
L 269.27566 76.19251 
L 269.666325 82.163528 
L 270.187212 94.107951 
L 271.033653 119.738495 
L 272.205648 154.488365 
L 272.726535 164.599433 
L 273.1172 168.727043 
L 273.377643 169.630944 
L 273.507865 169.508404 
L 273.703198 168.602818 
L 273.963641 166.066311 
L 274.354306 159.558583 
L 274.875193 146.513785 
L 275.721634 118.517516 
L 276.893629 80.573513 
L 277.414516 69.509637 
L 277.805181 64.958021 
L 278.065625 63.923456 
L 278.195846 64.027256 
L 278.391179 64.962658 
L 278.651622 67.64451 
L 279.042288 74.581996 
L 279.563174 88.535921 
L 280.409615 118.523366 
L 281.581611 159.203351 
L 282.167608 172.182964 
L 282.558274 176.500683 
L 282.753606 177.213009 
L 282.883828 177.13718 
L 283.07916 176.195601 
L 283.339604 173.417643 
L 283.730269 166.159317 
L 284.251156 151.495606 
L 285.097597 119.915075 
L 286.269592 76.998074 
L 286.85559 63.242534 
L 287.246255 58.609733 
L 287.441587 57.806594 
L 287.571809 57.847093 
L 287.767142 58.773362 
L 288.027585 61.599814 
L 288.41825 69.069801 
L 288.939137 84.23879 
L 289.785578 116.996277 
L 290.957573 161.61692 
L 291.543571 175.990686 
L 291.934236 180.893364 
L 292.19468 181.843911 
L 292.324901 181.605762 
L 292.520234 180.358812 
L 292.780677 177.069986 
L 293.171342 168.865929 
L 293.692229 152.732888 
L 294.603781 115.984064 
L 295.710666 73.734722 
L 296.231552 60.931571 
L 296.622217 55.812466 
L 296.882661 54.757909 
L 297.012883 54.956398 
L 297.208215 56.159203 
L 297.468659 59.417143 
L 297.859324 67.631187 
L 298.38021 83.868641 
L 299.291762 120.972494 
L 300.398647 163.754863 
L 300.919534 176.790133 
L 301.310199 182.064571 
L 301.570642 183.212566 
L 301.635753 183.195982 
L 301.765975 182.797977 
L 301.961307 181.296384 
L 302.286862 176.456608 
L 302.742638 165.204063 
L 303.393746 142.10125 
L 305.347072 67.406743 
L 305.802848 58.44173 
L 306.128402 55.422691 
L 306.323734 55.044101 
L 306.453956 55.394737 
L 306.649289 56.817573 
L 306.974843 61.506159 
L 307.430619 72.509262 
L 308.081727 95.201372 
L 310.035053 168.873254 
L 310.490829 177.796586 
L 310.816383 180.857459 
L 311.011716 181.291538 
L 311.141937 180.990734 
L 311.33727 179.661804 
L 311.662824 175.179397 
L 312.1186 164.560175 
L 312.769709 142.56279 
L 314.723034 70.870791 
L 315.17881 62.114141 
L 315.504365 59.059374 
L 315.699697 58.580861 
L 315.829919 58.831696 
L 316.025251 60.055277 
L 316.350806 64.283158 
L 316.741471 72.678608 
L 317.327468 90.751603 
L 319.606348 168.405552 
L 319.997013 174.180116 
L 320.257457 175.938299 
L 320.387678 176.169088 
L 320.5179 175.966079 
L 320.713233 174.8555 
L 320.973676 171.911019 
L 321.364341 164.579215 
L 321.885228 150.244648 
L 322.861891 115.539892 
L 323.838554 83.126945 
L 324.424551 70.466105 
L 324.815216 66.120368 
L 325.07566 65.220979 
L 325.205881 65.38049 
L 325.401214 66.374208 
L 325.661657 69.068348 
L 326.052323 75.834042 
L 326.573209 89.110696 
L 327.549872 121.300698 
L 328.526535 151.378486 
L 329.112533 163.151745 
L 329.503198 167.224125 
L 329.763641 168.099785 
L 329.893863 167.977402 
L 330.089195 167.100688 
L 330.349639 164.675018 
L 330.740304 158.539409 
L 331.261191 146.466478 
L 332.237853 117.186049 
L 333.214516 89.85431 
L 333.800514 79.152842 
L 334.191179 75.433172 
L 334.451622 74.611756 
L 334.581844 74.70523 
L 334.777177 75.468356 
L 335.03762 77.61356 
L 335.428285 83.066942 
L 335.949172 93.809883 
L 336.925835 119.826814 
L 337.902498 144.034229 
L 338.488495 153.489355 
L 338.87916 156.778072 
L 339.139604 157.512978 
L 339.269825 157.438574 
L 339.465158 156.782286 
L 339.725601 154.923489 
L 340.116267 150.192277 
L 340.637153 140.884713 
L 341.613816 118.439835 
L 342.590479 97.696987 
L 343.176477 89.650293 
L 343.567142 86.868234 
L 343.827585 86.253155 
L 343.957807 86.319677 
L 344.153139 86.878913 
L 344.413583 88.451228 
L 344.804248 92.432693 
L 345.390245 101.349131 
L 347.734236 141.180086 
L 348.124901 143.976345 
L 348.450456 144.932832 
L 348.580677 144.961905 
L 348.77601 144.633478 
L 349.036453 143.526368 
L 349.427118 140.552485 
L 349.948005 134.581405 
L 350.924668 120.125819 
L 351.901331 106.865625 
L 352.487328 101.751677 
L 352.877993 99.964742 
L 353.138437 99.537343 
L 353.333769 99.61368 
L 353.529102 100.018467 
L 353.854656 101.37529 
L 354.310432 104.513709 
L 355.026652 111.440581 
L 356.524201 126.288973 
L 357.045088 129.455583 
L 357.435753 130.778605 
L 357.696196 131.140505 
L 357.891529 131.145174 
L 358.086862 130.931726 
L 358.412416 130.130092 
L 358.868192 128.220218 
L 359.584411 124.036021 
L 360.821517 116.764839 
L 361.407515 114.57588 
L 361.79818 113.776885 
L 362.123734 113.519336 
L 362.384178 113.561912 
L 362.709732 113.886573 
L 363.165508 114.73324 
L 365.053723 118.785372 
L 365.444388 119.002794 
L 365.769942 118.941447 
L 366.160607 118.603333 
L 366.746605 117.704581 
L 367.853489 115.927162 
L 368.244154 115.689232 
L 368.569709 115.768167 
L 368.895263 116.137049 
L 369.285928 116.980803 
L 369.806815 118.745774 
L 370.588145 122.353604 
L 371.69503 127.330143 
L 372.150806 128.504328 
L 372.47636 128.816089 
L 372.671692 128.760754 
L 372.932136 128.385263 
L 373.25769 127.418304 
L 373.713466 125.157695 
L 374.299464 120.908641 
L 376.513233 103.076341 
L 376.903898 101.973188 
L 377.09923 101.844443 
L 377.294563 102.015323 
L 377.555006 102.720156 
L 377.880561 104.365385 
L 378.336337 108.013152 
L 378.987445 115.435372 
L 380.940771 139.528319 
L 381.396547 142.138946 
L 381.65699 142.708188 
L 381.787212 142.722405 
L 381.982544 142.397013 
L 382.242988 141.311966 
L 382.568542 138.929761 
L 383.024318 133.829663 
L 383.675426 123.741255 
L 385.49853 93.675525 
L 385.954306 89.724249 
L 386.27986 88.470269 
L 386.475193 88.399646 
L 386.670526 88.854653 
L 386.930969 90.279571 
L 387.321634 94.112374 
L 387.842521 102.039934 
L 388.623851 118.112472 
L 389.991179 146.32814 
L 390.512066 152.892266 
L 390.83762 155.039756 
L 391.032953 155.525582 
L 391.163174 155.503095 
L 391.358507 154.943997 
L 391.61895 153.22262 
L 392.009615 148.630098 
L 392.530502 139.193669 
L 393.311832 120.195607 
L 394.614049 88.368385 
L 395.134936 80.219979 
L 395.525601 77.000955 
L 395.720934 76.432713 
L 395.851156 76.454073 
L 396.046488 77.091701 
L 396.306932 79.063952 
L 396.697597 84.3256 
L 397.218484 95.11741 
L 397.999814 116.776427 
L 399.302031 152.906397 
L 399.822918 162.139476 
L 400.213583 165.801466 
L 400.474026 166.502865 
L 400.604248 166.313469 
L 400.79958 165.351597 
L 401.060024 162.82257 
L 401.450689 156.498952 
L 401.971576 143.994261 
L 402.883128 115.231658 
L 403.990012 81.742266 
L 404.510899 71.508006 
L 404.901564 67.420224 
L 405.162007 66.60384 
L 405.292229 66.787302 
L 405.487562 67.804189 
L 405.748005 70.52273 
L 406.13867 77.36245 
L 406.659557 90.920133 
L 407.505998 119.76015 
L 408.677993 158.457087 
L 409.19888 169.59157 
L 409.589545 174.078605 
L 409.849989 175.017271 
L 409.98021 174.850932 
L 410.175543 173.805076 
L 410.435986 170.948428 
L 410.826652 163.702462 
L 411.347538 149.288085 
L 412.193979 118.577504 
L 413.365975 77.318965 
L 413.886862 65.40171 
L 414.277527 60.551299 
L 414.53797 59.487516 
L 414.668192 59.627205 
L 414.863524 60.677736 
L 415.123968 63.622019 
L 415.514633 71.162782 
L 416.03552 86.230197 
L 416.881961 118.40535 
L 418.053956 161.717935 
L 418.574843 174.285275 
L 418.965508 179.454064 
L 419.225951 180.641112 
L 419.291062 180.646896 
L 419.421284 180.307688 
L 419.616617 178.926848 
L 419.942171 174.362277 
L 420.397947 163.605323 
L 421.049055 141.293416 
L 423.067492 66.348342 
L 423.523268 58.0923 
L 423.848822 55.577604 
L 423.979044 55.40316 
L 424.109265 55.708625 
L 424.304598 57.061701 
L 424.630152 61.639099 
L 425.020817 70.681085 
L 425.606815 90.163338 
L 427.950806 176.033405 
L 428.341471 181.66958 
L 428.601914 183.078345 
L 428.732136 183.056128 
L 428.862358 182.548275 
L 429.122801 180.094082 
L 429.448355 174.437364 
L 429.904131 162.195376 
L 430.620351 135.450308 
L 431.011016 118.850203 
L 431.011016 118.850203 
" clip-path="url(#p955712f59c)" style="fill: none; stroke: #2e4a7a; stroke-width: 0.8; stroke-linecap: square"/>
   </g>
   <g id="line2d_11">
    <path d="M 40.411016 54.468268 
L 42.820117 54.57701 
L 45.29433 54.914682 
L 47.768542 55.48016 
L 50.242754 56.27143 
L 52.782077 57.315341 
L 55.386512 58.625877 
L 58.056056 60.215872 
L 60.855823 62.144578 
L 63.785811 64.439851 
L 66.846021 67.127166 
L 70.036453 70.228726 
L 73.422217 73.834724 
L 77.068425 78.053178 
L 80.975076 82.922233 
L 85.272393 88.644894 
L 90.090596 95.443963 
L 95.820351 103.932849 
L 103.828985 116.237936 
L 105.521867 118.833345 
L 116.590712 101.842521 
L 122.450689 93.261561 
L 127.334003 86.493917 
L 131.631319 80.906598 
L 135.53797 76.179412 
L 139.184178 72.108409 
L 142.569942 68.65131 
L 145.760374 65.699708 
L 148.820584 63.164186 
L 151.750572 61.020773 
L 154.550339 59.242434 
L 157.284995 57.767917 
L 159.889429 56.610697 
L 162.428752 55.718952 
L 164.968075 55.064138 
L 167.442288 54.65636 
L 169.9165 54.477308 
L 172.325601 54.523357 
L 174.734703 54.786706 
L 177.208915 55.28242 
L 179.683128 56.00463 
L 182.222451 56.978656 
L 184.826885 58.218829 
L 187.49643 59.738373 
L 190.296196 61.595323 
L 193.161074 63.765763 
L 196.156173 66.316003 
L 199.281494 69.269299 
L 202.602147 72.715558 
L 206.118133 76.686685 
L 209.894563 81.288951 
L 214.061657 86.72739 
L 218.684528 93.137863 
L 224.023618 100.933872 
L 230.925368 111.432353 
L 235.743571 118.799629 
L 246.747305 101.907567 
L 252.607282 93.323452 
L 257.490596 86.552232 
L 261.787912 80.961095 
L 265.694563 76.22993 
L 269.340771 72.154806 
L 272.726535 68.69356 
L 275.982077 65.680688 
L 279.042288 63.147272 
L 281.972276 61.005962 
L 284.772042 59.229701 
L 287.506698 57.75727 
L 290.111132 56.60208 
L 292.650456 55.712347 
L 295.189779 55.05957 
L 297.663991 54.653793 
L 300.138203 54.476751 
L 302.547305 54.52476 
L 304.956407 54.790064 
L 307.430619 55.287774 
L 309.904831 56.011961 
L 312.444154 56.987987 
L 315.048589 58.230177 
L 317.718133 59.751741 
L 320.5179 61.61075 
L 323.382778 63.783224 
L 326.377877 66.3355 
L 329.503198 69.290814 
L 332.823851 72.739082 
L 336.339837 76.712171 
L 340.181377 81.398566 
L 344.348472 86.844338 
L 348.971342 93.261561 
L 354.375543 101.160681 
L 361.342404 111.767367 
L 365.900164 118.833345 
L 365.965275 118.765913 
L 376.969009 101.875042 
L 382.828985 93.292503 
L 387.712299 86.52307 
L 392.009615 80.933842 
L 395.916267 76.204665 
L 399.562474 72.131601 
L 402.948238 68.672428 
L 406.203781 65.661683 
L 409.263991 63.130373 
L 412.193979 60.991166 
L 414.993746 59.216984 
L 417.728402 57.74664 
L 420.332836 56.59348 
L 422.872159 55.70576 
L 425.411482 55.05502 
L 427.885695 54.651244 
L 430.359907 54.476213 
L 431.011016 54.468268 
L 431.011016 54.468268 
" clip-path="url(#p955712f59c)" style="fill: none; stroke: #7a2e2e; stroke-width: 1.8; stroke-linecap: square"/>
   </g>
   <g id="line2d_12">
    <path d="M 40.411016 183.232139 
L 42.820117 183.123396 
L 45.29433 182.785724 
L 47.768542 182.220246 
L 50.242754 181.428977 
L 52.782077 180.385065 
L 55.386512 179.07453 
L 58.056056 177.484534 
L 60.855823 175.555828 
L 63.785811 173.260556 
L 66.846021 170.57324 
L 70.036453 167.471681 
L 73.422217 163.865682 
L 77.068425 159.647229 
L 80.975076 154.778173 
L 85.272393 149.055512 
L 90.090596 142.256443 
L 95.820351 133.767557 
L 103.828985 121.46247 
L 105.521867 118.867061 
L 116.590712 135.857885 
L 122.450689 144.438846 
L 127.334003 151.206489 
L 131.631319 156.793808 
L 135.53797 161.520994 
L 139.184178 165.591998 
L 142.569942 169.049096 
L 145.760374 172.000698 
L 148.820584 174.536221 
L 151.750572 176.679633 
L 154.550339 178.457972 
L 157.284995 179.93249 
L 159.889429 181.089709 
L 162.428752 181.981455 
L 164.968075 182.636268 
L 167.442288 183.044047 
L 169.9165 183.223099 
L 172.325601 183.177049 
L 174.734703 182.913701 
L 177.208915 182.417986 
L 179.683128 181.695776 
L 182.222451 180.72175 
L 184.826885 179.481577 
L 187.49643 177.962034 
L 190.296196 176.105083 
L 193.161074 173.934643 
L 196.156173 171.384404 
L 199.281494 168.431107 
L 202.602147 164.984848 
L 206.118133 161.013721 
L 209.894563 156.411456 
L 214.061657 150.973016 
L 218.684528 144.562544 
L 224.023618 136.766534 
L 230.925368 126.268053 
L 235.743571 118.900777 
L 246.747305 135.792839 
L 252.607282 144.376955 
L 257.490596 151.148174 
L 261.787912 156.739311 
L 265.694563 161.470476 
L 269.340771 165.5456 
L 272.726535 169.006846 
L 275.982077 172.019718 
L 279.042288 174.553135 
L 281.972276 176.694444 
L 284.772042 178.470705 
L 287.506698 179.943136 
L 290.111132 181.098326 
L 292.650456 181.988059 
L 295.189779 182.640836 
L 297.663991 183.046613 
L 300.138203 183.223655 
L 302.547305 183.175646 
L 304.956407 182.910343 
L 307.430619 182.412632 
L 309.904831 181.688446 
L 312.444154 180.712419 
L 315.048589 179.47023 
L 317.718133 177.948666 
L 320.5179 176.089656 
L 323.382778 173.917182 
L 326.377877 171.364906 
L 329.503198 168.409593 
L 332.823851 164.961325 
L 336.339837 160.988236 
L 340.181377 156.30184 
L 344.348472 150.856068 
L 348.971342 144.438846 
L 354.375543 136.539725 
L 361.342404 125.933039 
L 365.900164 118.867061 
L 365.965275 118.934493 
L 376.969009 135.825364 
L 382.828985 144.407904 
L 387.712299 151.177336 
L 392.009615 156.766565 
L 395.916267 161.495741 
L 399.562474 165.568805 
L 402.948238 169.027978 
L 406.203781 172.038723 
L 409.263991 174.570033 
L 412.193979 176.70924 
L 414.993746 178.483422 
L 417.728402 179.953767 
L 420.332836 181.106926 
L 422.872159 181.994647 
L 425.411482 182.645386 
L 427.885695 183.049162 
L 430.359907 183.224193 
L 431.011016 183.232139 
L 431.011016 183.232139 
" clip-path="url(#p955712f59c)" style="fill: none; stroke: #7a2e2e; stroke-width: 1.8; stroke-linecap: square"/>
   </g>
   <g id="patch_3">
    <path d="M 40.411016 218.642203 
L 40.411016 19.058203 
" style="fill: none; stroke: #1a1a1a; stroke-width: 0.9; stroke-linejoin: miter; stroke-linecap: square"/>
   </g>
   <g id="patch_4">
    <path d="M 40.411016 218.642203 
L 431.011016 218.642203 
" style="fill: none; stroke: #1a1a1a; stroke-width: 0.9; stroke-linejoin: miter; stroke-linecap: square"/>
   </g>
   <g id="patch_5">
    <path d="M 173.839468 39.982332 
Q 235.710706 39.982332 297.581944 39.982332 
" style="fill: none; stroke: #1a1a1a; stroke-width: 1.1; stroke-linecap: round"/>
    <path d="M 178.239468 42.182332 
L 173.839468 39.982332 
L 178.239468 37.782332 
" style="fill: none; stroke: #1a1a1a; stroke-width: 1.1; stroke-linecap: round"/>
    <path d="M 293.181944 37.782332 
L 297.581944 39.982332 
L 293.181944 42.182332 
" style="fill: none; stroke: #1a1a1a; stroke-width: 1.1; stroke-linecap: round"/>
   </g>
   <g id="text_12">
    <!-- 1 batido: $T_b = 1/f_b \approx 0{,}33$ s -->
    <g style="fill: #1a1a1a" transform="translate(172.963516 35.153687)">
     <text>
      <tspan x="0" y="-0.78125" style="font-size: 9.5px; font-family: 'DejaVu Serif'; fill: #1a1a1a">1</tspan>
      <tspan x="6.044189" y="-0.78125" style="font-size: 9.5px; font-family: 'DejaVu Serif'; fill: #1a1a1a"> </tspan>
      <tspan x="9.063965" y="-0.78125" style="font-size: 9.5px; font-family: 'DejaVu Serif'; fill: #1a1a1a">b</tspan>
      <tspan x="15.145264" y="-0.78125" style="font-size: 9.5px; font-family: 'DejaVu Serif'; fill: #1a1a1a">a</tspan>
      <tspan x="20.809082" y="-0.78125" style="font-size: 9.5px; font-family: 'DejaVu Serif'; fill: #1a1a1a">t</tspan>
      <tspan x="24.626709" y="-0.78125" style="font-size: 9.5px; font-family: 'DejaVu Serif'; fill: #1a1a1a">i</tspan>
      <tspan x="27.665039" y="-0.78125" style="font-size: 9.5px; font-family: 'DejaVu Serif'; fill: #1a1a1a">d</tspan>
      <tspan x="33.746338" y="-0.78125" style="font-size: 9.5px; font-family: 'DejaVu Serif'; fill: #1a1a1a">o</tspan>
      <tspan x="39.46582" y="-0.78125" style="font-size: 9.5px; font-family: 'DejaVu Serif'; fill: #1a1a1a">:</tspan>
      <tspan x="42.666504" y="-0.78125" style="font-size: 9.5px; font-family: 'DejaVu Serif'; fill: #1a1a1a"> </tspan>
      <tspan x="117.516895" y="-0.78125" style="font-size: 9.5px; font-family: 'DejaVu Serif'; fill: #1a1a1a"> </tspan>
      <tspan x="120.53667" y="-0.78125" style="font-size: 9.5px; font-family: 'DejaVu Serif'; fill: #1a1a1a">s</tspan>
      <tspan x="45.686279" y="-0.78125" style="font-style: oblique; font-size: 9.5px; font-family: 'DejaVu Sans'; fill: #1a1a1a">T</tspan>
      <tspan x="76.8771" y="-0.78125" style="font-style: oblique; font-size: 9.5px; font-family: 'DejaVu Sans'; fill: #1a1a1a">f</tspan>
      <tspan x="51.489258" y="0.779687" style="font-style: oblique; font-size: 6.65px; font-family: 'DejaVu Sans'; fill: #1a1a1a">b</tspan>
      <tspan x="80.221582" y="0.779687" style="font-style: oblique; font-size: 6.65px; font-family: 'DejaVu Sans'; fill: #1a1a1a">b</tspan>
      <tspan x="57.821436" y="-0.78125" style="font-size: 9.5px; font-family: 'DejaVu Sans'; fill: #1a1a1a">=</tspan>
      <tspan x="67.632227" y="-0.78125" style="font-size: 9.5px; font-family: 'DejaVu Sans'; fill: #1a1a1a">1</tspan>
      <tspan x="73.676416" y="-0.78125" style="font-size: 9.5px; font-family: 'DejaVu Sans'; fill: #1a1a1a">/</tspan>
      <tspan x="86.55376" y="-0.78125" style="font-size: 9.5px; font-family: 'DejaVu Sans'; fill: #1a1a1a">≈</tspan>
      <tspan x="96.364551" y="-0.78125" style="font-size: 9.5px; font-family: 'DejaVu Sans'; fill: #1a1a1a">0</tspan>
      <tspan x="102.40874" y="-0.78125" style="font-size: 9.5px; font-family: 'DejaVu Sans'; fill: #1a1a1a">,</tspan>
      <tspan x="105.428516" y="-0.78125" style="font-size: 9.5px; font-family: 'DejaVu Sans'; fill: #1a1a1a">3</tspan>
      <tspan x="111.472705" y="-0.78125" style="font-size: 9.5px; font-family: 'DejaVu Sans'; fill: #1a1a1a">3</tspan>
     </text>
    </g>
   </g>
   <g id="text_13">
    <!-- $f_1 = 40$ Hz, $f_2 = 43$ Hz $\rightarrow$ $f_b = |f_2 - f_1| = 3$ batidos/s -->
    <g style="fill: #7a2e2e" transform="translate(192.223016 207.375364)">
     <text>
      <tspan x="0" y="-0.734375" style="font-style: oblique; font-size: 9.5px; font-family: 'DejaVu Sans'; fill: #7a2e2e">f</tspan>
      <tspan x="53.934692" y="-0.734375" style="font-style: oblique; font-size: 9.5px; font-family: 'DejaVu Sans'; fill: #7a2e2e">f</tspan>
      <tspan x="119.531006" y="-0.734375" style="font-style: oblique; font-size: 9.5px; font-family: 'DejaVu Sans'; fill: #7a2e2e">f</tspan>
      <tspan x="142.219141" y="-0.734375" style="font-style: oblique; font-size: 9.5px; font-family: 'DejaVu Sans'; fill: #7a2e2e">f</tspan>
      <tspan x="161.716333" y="-0.734375" style="font-style: oblique; font-size: 9.5px; font-family: 'DejaVu Sans'; fill: #7a2e2e">f</tspan>
      <tspan x="3.344482" y="0.826562" style="font-size: 6.65px; font-family: 'DejaVu Sans'; fill: #7a2e2e">1</tspan>
      <tspan x="57.279175" y="0.826562" style="font-size: 6.65px; font-family: 'DejaVu Sans'; fill: #7a2e2e">2</tspan>
      <tspan x="145.563623" y="0.826562" style="font-size: 6.65px; font-family: 'DejaVu Sans'; fill: #7a2e2e">2</tspan>
      <tspan x="165.060815" y="0.826562" style="font-size: 6.65px; font-family: 'DejaVu Sans'; fill: #7a2e2e">1</tspan>
      <tspan x="9.686401" y="-0.734375" style="font-size: 9.5px; font-family: 'DejaVu Sans'; fill: #7a2e2e">=</tspan>
      <tspan x="19.497192" y="-0.734375" style="font-size: 9.5px; font-family: 'DejaVu Sans'; fill: #7a2e2e">4</tspan>
      <tspan x="25.541382" y="-0.734375" style="font-size: 9.5px; font-family: 'DejaVu Sans'; fill: #7a2e2e">0</tspan>
      <tspan x="63.621094" y="-0.734375" style="font-size: 9.5px; font-family: 'DejaVu Sans'; fill: #7a2e2e">=</tspan>
      <tspan x="73.431885" y="-0.734375" style="font-size: 9.5px; font-family: 'DejaVu Sans'; fill: #7a2e2e">4</tspan>
      <tspan x="79.476074" y="-0.734375" style="font-size: 9.5px; font-family: 'DejaVu Sans'; fill: #7a2e2e">3</tspan>
      <tspan x="106.700439" y="-0.734375" style="font-size: 9.5px; font-family: 'DejaVu Sans'; fill: #7a2e2e">→</tspan>
      <tspan x="129.207666" y="-0.734375" style="font-size: 9.5px; font-family: 'DejaVu Sans'; fill: #7a2e2e">=</tspan>
      <tspan x="139.018457" y="-0.734375" style="font-size: 9.5px; font-family: 'DejaVu Sans'; fill: #7a2e2e">|</tspan>
      <tspan x="151.905542" y="-0.734375" style="font-size: 9.5px; font-family: 'DejaVu Sans'; fill: #7a2e2e">−</tspan>
      <tspan x="169.551904" y="-0.734375" style="font-size: 9.5px; font-family: 'DejaVu Sans'; fill: #7a2e2e">|</tspan>
      <tspan x="174.603418" y="-0.734375" style="font-size: 9.5px; font-family: 'DejaVu Sans'; fill: #7a2e2e">=</tspan>
      <tspan x="184.414209" y="-0.734375" style="font-size: 9.5px; font-family: 'DejaVu Sans'; fill: #7a2e2e">3</tspan>
      <tspan x="31.585571" y="-0.734375" style="font-size: 9.5px; font-family: 'DejaVu Serif'; fill: #7a2e2e"> </tspan>
      <tspan x="34.605347" y="-0.734375" style="font-size: 9.5px; font-family: 'DejaVu Serif'; fill: #7a2e2e">H</tspan>
      <tspan x="42.890015" y="-0.734375" style="font-size: 9.5px; font-family: 'DejaVu Serif'; fill: #7a2e2e">z</tspan>
      <tspan x="47.895142" y="-0.734375" style="font-size: 9.5px; font-family: 'DejaVu Serif'; fill: #7a2e2e">,</tspan>
      <tspan x="50.914917" y="-0.734375" style="font-size: 9.5px; font-family: 'DejaVu Serif'; fill: #7a2e2e"> </tspan>
      <tspan x="85.520264" y="-0.734375" style="font-size: 9.5px; font-family: 'DejaVu Serif'; fill: #7a2e2e"> </tspan>
      <tspan x="88.540039" y="-0.734375" style="font-size: 9.5px; font-family: 'DejaVu Serif'; fill: #7a2e2e">H</tspan>
      <tspan x="96.824707" y="-0.734375" style="font-size: 9.5px; font-family: 'DejaVu Serif'; fill: #7a2e2e">z</tspan>
      <tspan x="101.829834" y="-0.734375" style="font-size: 9.5px; font-family: 'DejaVu Serif'; fill: #7a2e2e"> </tspan>
      <tspan x="116.51123" y="-0.734375" style="font-size: 9.5px; font-family: 'DejaVu Serif'; fill: #7a2e2e"> </tspan>
      <tspan x="190.458398" y="-0.734375" style="font-size: 9.5px; font-family: 'DejaVu Serif'; fill: #7a2e2e"> </tspan>
      <tspan x="193.478174" y="-0.734375" style="font-size: 9.5px; font-family: 'DejaVu Serif'; fill: #7a2e2e">b</tspan>
      <tspan x="199.559473" y="-0.734375" style="font-size: 9.5px; font-family: 'DejaVu Serif'; fill: #7a2e2e">a</tspan>
      <tspan x="205.223291" y="-0.734375" style="font-size: 9.5px; font-family: 'DejaVu Serif'; fill: #7a2e2e">t</tspan>
      <tspan x="209.040918" y="-0.734375" style="font-size: 9.5px; font-family: 'DejaVu Serif'; fill: #7a2e2e">i</tspan>
      <tspan x="212.079248" y="-0.734375" style="font-size: 9.5px; font-family: 'DejaVu Serif'; fill: #7a2e2e">d</tspan>
      <tspan x="218.160547" y="-0.734375" style="font-size: 9.5px; font-family: 'DejaVu Serif'; fill: #7a2e2e">o</tspan>
      <tspan x="223.880029" y="-0.734375" style="font-size: 9.5px; font-family: 'DejaVu Serif'; fill: #7a2e2e">s</tspan>
      <tspan x="228.755273" y="-0.734375" style="font-size: 9.5px; font-family: 'DejaVu Serif'; fill: #7a2e2e">/</tspan>
      <tspan x="231.955957" y="-0.734375" style="font-size: 9.5px; font-family: 'DejaVu Serif'; fill: #7a2e2e">s</tspan>
      <tspan x="122.875488" y="0.826562" style="font-style: oblique; font-size: 6.65px; font-family: 'DejaVu Sans'; fill: #7a2e2e">b</tspan>
     </text>
    </g>
   </g>
   <g id="text_14">
    <text style="font-weight: 700; font-size: 11.5px; font-family: 'DejaVu Serif', serif; text-anchor: middle" x="235.711016" y="13.058203" transform="rotate(-0 235.711016 13.058203)">Dos tonos cercanos: una sola onda cuya amplitud ondula</text>
   </g>
  </g>
 </g>
 <defs>
  <clipPath id="p955712f59c">
   <rect x="40.411016" y="19.058203" width="390.6" height="199.584"/>
  </clipPath>
 </defs>
</svg>
