<?xml version="1.0" encoding="utf-8" standalone="no"?>
<!DOCTYPE svg PUBLIC "-//W3C//DTD SVG 1.1//EN"
  "http://www.w3.org/Graphics/SVG/1.1/DTD/svg11.dtd">
<svg xmlns:xlink="http://www.w3.org/1999/xlink" width="473.708041pt" height="261.83952pt" viewBox="0 0 473.708041 261.83952" xmlns="http://www.w3.org/2000/svg" version="1.1">
 <metadata>
  <rdf:RDF xmlns:dc="http://purl.org/dc/elements/1.1/" xmlns:cc="http://creativecommons.org/ns#" xmlns:rdf="http://www.w3.org/1999/02/22-rdf-syntax-ns#">
   <cc:Work>
    <dc:type rdf:resource="http://purl.org/dc/dcmitype/StillImage"/>
    <dc:date>2026-07-13T09:27:59.313945</dc:date>
    <dc:format>image/svg+xml</dc:format>
    <dc:creator>
     <cc:Agent>
      <dc:title>Matplotlib v3.10.3, https://matplotlib.org/</dc:title>
     </cc:Agent>
    </dc:creator>
   </cc:Work>
  </rdf:RDF>
 </metadata>
 <defs>
  <style type="text/css">*{stroke-linejoin: round; stroke-linecap: butt}</style>
 </defs>
 <g id="figure_1">
  <g id="patch_1">
   <path d="M 0 261.83952 
L 473.708041 261.83952 
L 473.708041 0 
L 0 0 
z
" style="fill: #ffffff"/>
  </g>
  <g id="axes_1">
   <g id="FillBetweenPolyCollection_1">
    <defs>
     <path id="m588241e41f" d="M 21.544742 -198.466288 
L 21.544742 -198.466288 
L 22.984938 -198.680003 
L 24.425134 -198.893693 
L 25.86533 -199.107337 
L 27.305526 -199.320909 
L 28.745721 -199.534388 
L 30.185917 -199.747748 
L 31.626113 -199.960967 
L 33.066309 -200.174021 
L 34.506505 -200.386887 
L 35.946701 -200.59954 
L 37.386897 -200.811958 
L 38.827092 -201.024117 
L 40.267288 -201.235994 
L 41.707484 -201.447565 
L 43.14768 -201.658806 
L 44.587876 -201.869696 
L 46.028072 -202.080209 
L 47.468267 -202.290324 
L 48.908463 -202.500016 
L 50.348659 -202.709263 
L 51.788855 -202.918042 
L 53.229051 -203.12633 
L 54.669247 -203.334102 
L 56.109442 -203.541338 
L 57.549638 -203.748013 
L 58.989834 -203.954105 
L 60.43003 -204.159591 
L 61.870226 -204.364449 
L 63.310422 -204.568656 
L 64.750618 -204.772189 
L 66.190813 -204.975025 
L 67.631009 -205.177144 
L 69.071205 -205.378521 
L 70.511401 -205.579135 
L 71.951597 -205.778964 
L 73.391793 -205.977986 
L 74.831988 -206.176179 
L 76.272184 -206.37352 
L 77.71238 -206.569989 
L 79.152576 -206.765562 
L 80.592772 -206.96022 
L 82.032968 -207.15394 
L 83.473163 -207.346701 
L 84.913359 -207.538481 
L 86.353555 -207.72926 
L 87.793751 -207.919017 
L 89.233947 -208.10773 
L 90.674143 -208.295378 
L 92.114339 -208.481941 
L 93.554534 -208.667399 
L 94.99473 -208.851731 
L 96.434926 -209.034916 
L 97.875122 -209.216934 
L 99.315318 -209.397765 
L 100.755514 -209.57739 
L 102.195709 -209.755788 
L 103.635905 -209.93294 
L 105.076101 -210.108825 
L 106.516297 -210.283426 
L 107.956493 -210.456722 
L 109.396689 -210.628694 
L 110.836884 -210.799324 
L 112.27708 -210.968592 
L 113.717276 -211.13648 
L 115.157472 -211.302969 
L 116.597668 -211.468041 
L 118.037864 -211.631678 
L 119.47806 -211.793861 
L 120.918255 -211.954573 
L 122.358451 -212.113796 
L 123.798647 -212.271512 
L 125.238843 -212.427704 
L 126.679039 -212.582355 
L 128.119235 -212.735448 
L 129.55943 -212.886965 
L 130.999626 -213.036891 
L 132.439822 -213.185207 
L 133.880018 -213.331899 
L 135.320214 -213.47695 
L 136.76041 -213.620344 
L 138.200605 -213.762065 
L 139.640801 -213.902097 
L 141.080997 -214.040425 
L 142.521193 -214.177034 
L 143.961389 -214.311908 
L 145.401585 -214.445033 
L 146.841781 -214.576394 
L 148.281976 -214.705977 
L 149.722172 -214.833766 
L 151.162368 -214.959749 
L 152.602564 -215.083911 
L 154.04276 -215.206239 
L 155.482956 -215.326719 
L 156.923151 -215.445337 
L 158.363347 -215.562081 
L 159.803543 -215.676937 
L 161.243739 -215.789894 
L 162.683935 -215.900938 
L 164.124131 -216.010057 
L 165.564326 -216.117239 
L 167.004522 -216.222473 
L 168.444718 -216.325747 
L 169.884914 -216.427049 
L 171.32511 -216.526369 
L 172.765306 -216.623694 
L 174.205502 -216.719015 
L 175.645697 -216.812321 
L 177.085893 -216.903602 
L 178.526089 -216.992847 
L 179.966285 -217.080048 
L 181.406481 -217.165193 
L 182.846677 -217.248274 
L 184.286872 -217.329281 
L 185.727068 -217.408206 
L 187.167264 -217.48504 
L 188.60746 -217.559774 
L 190.047656 -217.632401 
L 191.487852 -217.702911 
L 192.928048 -217.771298 
L 194.368243 -217.837554 
L 195.808439 -217.901671 
L 197.248635 -217.963643 
L 198.688831 -218.023462 
L 200.129027 -218.081123 
L 201.569223 -218.136617 
L 203.009418 -218.189941 
L 204.449614 -218.241087 
L 205.88981 -218.290049 
L 207.330006 -218.336824 
L 208.770202 -218.381405 
L 210.210398 -218.423787 
L 211.650593 -218.463966 
L 213.090789 -218.501937 
L 214.530985 -218.537696 
L 215.971181 -218.57124 
L 217.411377 -218.602564 
L 218.851573 -218.631665 
L 220.291769 -218.65854 
L 221.731964 -218.683186 
L 223.17216 -218.7056 
L 224.612356 -218.72578 
L 226.052552 -218.743723 
L 227.492748 -218.759427 
L 228.932944 -218.772892 
L 230.373139 -218.784114 
L 231.813335 -218.793094 
L 233.253531 -218.799829 
L 234.693727 -218.80432 
L 236.133923 -218.806565 
L 237.574119 -218.806565 
L 239.014314 -218.80432 
L 240.45451 -218.799829 
L 241.894706 -218.793094 
L 243.334902 -218.784114 
L 244.775098 -218.772892 
L 246.215294 -218.759427 
L 247.65549 -218.743723 
L 249.095685 -218.72578 
L 250.535881 -218.7056 
L 251.976077 -218.683186 
L 253.416273 -218.65854 
L 254.856469 -218.631665 
L 256.296665 -218.602564 
L 257.73686 -218.57124 
L 259.177056 -218.537696 
L 260.617252 -218.501937 
L 262.057448 -218.463966 
L 263.497644 -218.423787 
L 264.93784 -218.381405 
L 266.378035 -218.336824 
L 267.818231 -218.290049 
L 269.258427 -218.241087 
L 270.698623 -218.189941 
L 272.138819 -218.136617 
L 273.579015 -218.081123 
L 275.019211 -218.023462 
L 276.459406 -217.963643 
L 277.899602 -217.901671 
L 279.339798 -217.837554 
L 280.779994 -217.771298 
L 282.22019 -217.702911 
L 283.660386 -217.632401 
L 285.100581 -217.559774 
L 286.540777 -217.48504 
L 287.980973 -217.408206 
L 289.421169 -217.329281 
L 290.861365 -217.248274 
L 292.301561 -217.165193 
L 293.741756 -217.080048 
L 295.181952 -216.992847 
L 296.622148 -216.903602 
L 298.062344 -216.812321 
L 299.50254 -216.719015 
L 300.942736 -216.623694 
L 302.382932 -216.526369 
L 303.823127 -216.427049 
L 305.263323 -216.325747 
L 306.703519 -216.222473 
L 308.143715 -216.117239 
L 309.583911 -216.010057 
L 311.024107 -215.900938 
L 312.464302 -215.789894 
L 313.904498 -215.676937 
L 315.344694 -215.562081 
L 316.78489 -215.445337 
L 318.225086 -215.326719 
L 319.665282 -215.206239 
L 321.105477 -215.083911 
L 322.545673 -214.959749 
L 323.985869 -214.833766 
L 325.426065 -214.705977 
L 326.866261 -214.576394 
L 328.306457 -214.445033 
L 329.746653 -214.311908 
L 331.186848 -214.177034 
L 332.627044 -214.040425 
L 334.06724 -213.902097 
L 335.507436 -213.762065 
L 336.947632 -213.620344 
L 338.387828 -213.47695 
L 339.828023 -213.331899 
L 341.268219 -213.185207 
L 342.708415 -213.036891 
L 344.148611 -212.886965 
L 345.588807 -212.735448 
L 347.029003 -212.582355 
L 348.469198 -212.427704 
L 349.909394 -212.271512 
L 351.34959 -212.113796 
L 352.789786 -211.954573 
L 354.229982 -211.793861 
L 355.670178 -211.631678 
L 357.110374 -211.468041 
L 358.550569 -211.302969 
L 359.990765 -211.13648 
L 361.430961 -210.968592 
L 362.871157 -210.799324 
L 364.311353 -210.628694 
L 365.751549 -210.456722 
L 367.191744 -210.283426 
L 368.63194 -210.108825 
L 370.072136 -209.93294 
L 371.512332 -209.755788 
L 372.952528 -209.57739 
L 374.392724 -209.397765 
L 375.832919 -209.216934 
L 377.273115 -209.034916 
L 378.713311 -208.851731 
L 380.153507 -208.667399 
L 381.593703 -208.481941 
L 383.033899 -208.295378 
L 384.474095 -208.10773 
L 385.91429 -207.919017 
L 387.354486 -207.72926 
L 388.794682 -207.538481 
L 390.234878 -207.346701 
L 391.675074 -207.15394 
L 393.11527 -206.96022 
L 394.555465 -206.765562 
L 395.995661 -206.569989 
L 397.435857 -206.37352 
L 398.876053 -206.176179 
L 400.316249 -205.977986 
L 401.756445 -205.778964 
L 403.19664 -205.579135 
L 404.636836 -205.378521 
L 406.077032 -205.177144 
L 407.517228 -204.975025 
L 408.957424 -204.772189 
L 410.39762 -204.568656 
L 411.837816 -204.364449 
L 413.278011 -204.159591 
L 414.718207 -203.954105 
L 416.158403 -203.748013 
L 417.598599 -203.541338 
L 419.038795 -203.334102 
L 420.478991 -203.12633 
L 421.919186 -202.918042 
L 423.359382 -202.709263 
L 424.799578 -202.500016 
L 426.239774 -202.290324 
L 427.67997 -202.080209 
L 429.120166 -201.869696 
L 430.560361 -201.658806 
L 432.000557 -201.447565 
L 433.440753 -201.235994 
L 434.880949 -201.024117 
L 436.321145 -200.811958 
L 437.761341 -200.59954 
L 439.201537 -200.386887 
L 440.641732 -200.174021 
L 442.081928 -199.960967 
L 443.522124 -199.747748 
L 444.96232 -199.534388 
L 446.402516 -199.320909 
L 447.842712 -199.107337 
L 449.282907 -198.893693 
L 450.723103 -198.680003 
L 452.163299 -198.466288 
L 452.163299 -198.466288 
L 452.163299 -198.466288 
L 450.723103 -198.252574 
L 449.282907 -198.038883 
L 447.842712 -197.82524 
L 446.402516 -197.611667 
L 444.96232 -197.398189 
L 443.522124 -197.184828 
L 442.081928 -196.971609 
L 440.641732 -196.758555 
L 439.201537 -196.54569 
L 437.761341 -196.333036 
L 436.321145 -196.120618 
L 434.880949 -195.908459 
L 433.440753 -195.696583 
L 432.000557 -195.485012 
L 430.560361 -195.27377 
L 429.120166 -195.062881 
L 427.67997 -194.852367 
L 426.239774 -194.642253 
L 424.799578 -194.43256 
L 423.359382 -194.223313 
L 421.919186 -194.014534 
L 420.478991 -193.806247 
L 419.038795 -193.598474 
L 417.598599 -193.391239 
L 416.158403 -193.184564 
L 414.718207 -192.978472 
L 413.278011 -192.772985 
L 411.837816 -192.568128 
L 410.39762 -192.363921 
L 408.957424 -192.160388 
L 407.517228 -191.957551 
L 406.077032 -191.755433 
L 404.636836 -191.554056 
L 403.19664 -191.353441 
L 401.756445 -191.153612 
L 400.316249 -190.95459 
L 398.876053 -190.756398 
L 397.435857 -190.559056 
L 395.995661 -190.362588 
L 394.555465 -190.167014 
L 393.11527 -189.972356 
L 391.675074 -189.778637 
L 390.234878 -189.585876 
L 388.794682 -189.394095 
L 387.354486 -189.203316 
L 385.91429 -189.01356 
L 384.474095 -188.824847 
L 383.033899 -188.637199 
L 381.593703 -188.450635 
L 380.153507 -188.265178 
L 378.713311 -188.080846 
L 377.273115 -187.897661 
L 375.832919 -187.715643 
L 374.392724 -187.534811 
L 372.952528 -187.355187 
L 371.512332 -187.176789 
L 370.072136 -186.999637 
L 368.63194 -186.823751 
L 367.191744 -186.649151 
L 365.751549 -186.475855 
L 364.311353 -186.303882 
L 362.871157 -186.133253 
L 361.430961 -185.963985 
L 359.990765 -185.796097 
L 358.550569 -185.629608 
L 357.110374 -185.464536 
L 355.670178 -185.300899 
L 354.229982 -185.138716 
L 352.789786 -184.978004 
L 351.34959 -184.818781 
L 349.909394 -184.661064 
L 348.469198 -184.504872 
L 347.029003 -184.350221 
L 345.588807 -184.197129 
L 344.148611 -184.045611 
L 342.708415 -183.895686 
L 341.268219 -183.747369 
L 339.828023 -183.600677 
L 338.387828 -183.455626 
L 336.947632 -183.312233 
L 335.507436 -183.170512 
L 334.06724 -183.03048 
L 332.627044 -182.892152 
L 331.186848 -182.755543 
L 329.746653 -182.620669 
L 328.306457 -182.487544 
L 326.866261 -182.356182 
L 325.426065 -182.2266 
L 323.985869 -182.09881 
L 322.545673 -181.972827 
L 321.105477 -181.848665 
L 319.665282 -181.726338 
L 318.225086 -181.605858 
L 316.78489 -181.48724 
L 315.344694 -181.370496 
L 313.904498 -181.25564 
L 312.464302 -181.142683 
L 311.024107 -181.031639 
L 309.583911 -180.92252 
L 308.143715 -180.815337 
L 306.703519 -180.710103 
L 305.263323 -180.606829 
L 303.823127 -180.505527 
L 302.382932 -180.406208 
L 300.942736 -180.308882 
L 299.50254 -180.213561 
L 298.062344 -180.120255 
L 296.622148 -180.028974 
L 295.181952 -179.939729 
L 293.741756 -179.852529 
L 292.301561 -179.767384 
L 290.861365 -179.684303 
L 289.421169 -179.603296 
L 287.980973 -179.52437 
L 286.540777 -179.447537 
L 285.100581 -179.372802 
L 283.660386 -179.300176 
L 282.22019 -179.229665 
L 280.779994 -179.161278 
L 279.339798 -179.095022 
L 277.899602 -179.030905 
L 276.459406 -178.968933 
L 275.019211 -178.909114 
L 273.579015 -178.851454 
L 272.138819 -178.795959 
L 270.698623 -178.742636 
L 269.258427 -178.69149 
L 267.818231 -178.642527 
L 266.378035 -178.595753 
L 264.93784 -178.551172 
L 263.497644 -178.50879 
L 262.057448 -178.468611 
L 260.617252 -178.43064 
L 259.177056 -178.39488 
L 257.73686 -178.361337 
L 256.296665 -178.330012 
L 254.856469 -178.300911 
L 253.416273 -178.274036 
L 251.976077 -178.24939 
L 250.535881 -178.226976 
L 249.095685 -178.206797 
L 247.65549 -178.188854 
L 246.215294 -178.173149 
L 244.775098 -178.159685 
L 243.334902 -178.148463 
L 241.894706 -178.139483 
L 240.45451 -178.132748 
L 239.014314 -178.128257 
L 237.574119 -178.126011 
L 236.133923 -178.126011 
L 234.693727 -178.128257 
L 233.253531 -178.132748 
L 231.813335 -178.139483 
L 230.373139 -178.148463 
L 228.932944 -178.159685 
L 227.492748 -178.173149 
L 226.052552 -178.188854 
L 224.612356 -178.206797 
L 223.17216 -178.226976 
L 221.731964 -178.24939 
L 220.291769 -178.274036 
L 218.851573 -178.300911 
L 217.411377 -178.330012 
L 215.971181 -178.361337 
L 214.530985 -178.39488 
L 213.090789 -178.43064 
L 211.650593 -178.468611 
L 210.210398 -178.50879 
L 208.770202 -178.551172 
L 207.330006 -178.595753 
L 205.88981 -178.642527 
L 204.449614 -178.69149 
L 203.009418 -178.742636 
L 201.569223 -178.795959 
L 200.129027 -178.851454 
L 198.688831 -178.909114 
L 197.248635 -178.968933 
L 195.808439 -179.030905 
L 194.368243 -179.095022 
L 192.928048 -179.161278 
L 191.487852 -179.229665 
L 190.047656 -179.300176 
L 188.60746 -179.372802 
L 187.167264 -179.447537 
L 185.727068 -179.52437 
L 184.286872 -179.603296 
L 182.846677 -179.684303 
L 181.406481 -179.767384 
L 179.966285 -179.852529 
L 178.526089 -179.939729 
L 177.085893 -180.028974 
L 175.645697 -180.120255 
L 174.205502 -180.213561 
L 172.765306 -180.308882 
L 171.32511 -180.406208 
L 169.884914 -180.505527 
L 168.444718 -180.606829 
L 167.004522 -180.710103 
L 165.564326 -180.815337 
L 164.124131 -180.92252 
L 162.683935 -181.031639 
L 161.243739 -181.142683 
L 159.803543 -181.25564 
L 158.363347 -181.370496 
L 156.923151 -181.48724 
L 155.482956 -181.605858 
L 154.04276 -181.726338 
L 152.602564 -181.848665 
L 151.162368 -181.972827 
L 149.722172 -182.09881 
L 148.281976 -182.2266 
L 146.841781 -182.356182 
L 145.401585 -182.487544 
L 143.961389 -182.620669 
L 142.521193 -182.755543 
L 141.080997 -182.892152 
L 139.640801 -183.03048 
L 138.200605 -183.170512 
L 136.76041 -183.312233 
L 135.320214 -183.455626 
L 133.880018 -183.600677 
L 132.439822 -183.747369 
L 130.999626 -183.895686 
L 129.55943 -184.045611 
L 128.119235 -184.197129 
L 126.679039 -184.350221 
L 125.238843 -184.504872 
L 123.798647 -184.661064 
L 122.358451 -184.818781 
L 120.918255 -184.978004 
L 119.47806 -185.138716 
L 118.037864 -185.300899 
L 116.597668 -185.464536 
L 115.157472 -185.629608 
L 113.717276 -185.796097 
L 112.27708 -185.963985 
L 110.836884 -186.133253 
L 109.396689 -186.303882 
L 107.956493 -186.475855 
L 106.516297 -186.649151 
L 105.076101 -186.823751 
L 103.635905 -186.999637 
L 102.195709 -187.176789 
L 100.755514 -187.355187 
L 99.315318 -187.534811 
L 97.875122 -187.715643 
L 96.434926 -187.897661 
L 94.99473 -188.080846 
L 93.554534 -188.265178 
L 92.114339 -188.450635 
L 90.674143 -188.637199 
L 89.233947 -188.824847 
L 87.793751 -189.01356 
L 86.353555 -189.203316 
L 84.913359 -189.394095 
L 83.473163 -189.585876 
L 82.032968 -189.778637 
L 80.592772 -189.972356 
L 79.152576 -190.167014 
L 77.71238 -190.362588 
L 76.272184 -190.559056 
L 74.831988 -190.756398 
L 73.391793 -190.95459 
L 71.951597 -191.153612 
L 70.511401 -191.353441 
L 69.071205 -191.554056 
L 67.631009 -191.755433 
L 66.190813 -191.957551 
L 64.750618 -192.160388 
L 63.310422 -192.363921 
L 61.870226 -192.568128 
L 60.43003 -192.772985 
L 58.989834 -192.978472 
L 57.549638 -193.184564 
L 56.109442 -193.391239 
L 54.669247 -193.598474 
L 53.229051 -193.806247 
L 51.788855 -194.014534 
L 50.348659 -194.223313 
L 48.908463 -194.43256 
L 47.468267 -194.642253 
L 46.028072 -194.852367 
L 44.587876 -195.062881 
L 43.14768 -195.27377 
L 41.707484 -195.485012 
L 40.267288 -195.696583 
L 38.827092 -195.908459 
L 37.386897 -196.120618 
L 35.946701 -196.333036 
L 34.506505 -196.54569 
L 33.066309 -196.758555 
L 31.626113 -196.971609 
L 30.185917 -197.184828 
L 28.745721 -197.398189 
L 27.305526 -197.611667 
L 25.86533 -197.82524 
L 24.425134 -198.038883 
L 22.984938 -198.252574 
L 21.544742 -198.466288 
z
" style="stroke: #f0ece4"/>
    </defs>
    <g clip-path="url(#p097c6c25cb)">
     <use xlink:href="#m588241e41f" x="0" y="261.83952" style="fill: #f0ece4; stroke: #f0ece4"/>
    </g>
   </g>
   <g id="line2d_1">
    <path d="M 21.544742 37.127351 
L 452.163299 37.127351 
" clip-path="url(#p097c6c25cb)" style="fill: none; stroke: #1a1a1a; stroke-width: 2.2; stroke-linecap: square"/>
   </g>
   <g id="line2d_2">
    <path d="M 21.544742 89.619112 
L 452.163299 89.619112 
" clip-path="url(#p097c6c25cb)" style="fill: none; stroke: #1a1a1a; stroke-width: 2.2; stroke-linecap: square"/>
   </g>
   <g id="line2d_3">
    <path d="M 21.544742 63.373232 
L 64.750618 57.067331 
L 87.793751 53.920503 
L 107.956493 51.382798 
L 126.679039 49.257165 
L 143.961389 47.527612 
L 159.803543 46.162583 
L 175.645697 45.027199 
L 190.047656 44.207119 
L 204.449614 43.598433 
L 218.851573 43.207855 
L 233.253531 43.039691 
L 247.65549 43.095797 
L 262.057448 43.375554 
L 276.459406 43.875877 
L 290.861365 44.591246 
L 305.263323 45.513773 
L 321.105477 46.755609 
L 336.947632 48.219176 
L 354.229982 50.045659 
L 372.952528 52.26213 
L 393.11527 54.8793 
L 417.598599 58.298182 
L 452.163299 63.373232 
L 452.163299 63.373232 
" clip-path="url(#p097c6c25cb)" style="fill: none; stroke: #7a2e2e; stroke-width: 1.8; stroke-linecap: square"/>
   </g>
   <g id="line2d_4">
    <path d="M 21.544742 63.373232 
L 64.750618 69.679132 
L 87.793751 72.82596 
L 107.956493 75.363665 
L 126.679039 77.489299 
L 143.961389 79.218851 
L 159.803543 80.58388 
L 175.645697 81.719265 
L 190.047656 82.539344 
L 204.449614 83.14803 
L 218.851573 83.538609 
L 233.253531 83.706772 
L 247.65549 83.650666 
L 262.057448 83.370909 
L 276.459406 82.870587 
L 290.861365 82.155217 
L 305.263323 81.232691 
L 321.105477 79.990855 
L 336.947632 78.527287 
L 354.229982 76.700804 
L 372.952528 74.484333 
L 393.11527 71.867164 
L 417.598599 68.448281 
L 452.163299 63.373232 
L 452.163299 63.373232 
" clip-path="url(#p097c6c25cb)" style="fill: none; stroke: #7a2e2e; stroke-opacity: 0.55; stroke-linecap: square"/>
   </g>
   <g id="text_1">
    <!-- todos los agujeros tapados: vibra el tubo entero,  $f_1 = v/2L$ -->
    <g style="fill: #1a1a1a" transform="translate(97.536521 19.083308)">
     <text>
      <tspan x="0" y="-0.78125" style="font-size: 9.5px; font-family: 'DejaVu Serif'; fill: #1a1a1a">t</tspan>
      <tspan x="3.817627" y="-0.78125" style="font-size: 9.5px; font-family: 'DejaVu Serif'; fill: #1a1a1a">o</tspan>
      <tspan x="9.537109" y="-0.78125" style="font-size: 9.5px; font-family: 'DejaVu Serif'; fill: #1a1a1a">d</tspan>
      <tspan x="15.618408" y="-0.78125" style="font-size: 9.5px; font-family: 'DejaVu Serif'; fill: #1a1a1a">o</tspan>
      <tspan x="21.337891" y="-0.78125" style="font-size: 9.5px; font-family: 'DejaVu Serif'; fill: #1a1a1a">s</tspan>
      <tspan x="26.213135" y="-0.78125" style="font-size: 9.5px; font-family: 'DejaVu Serif'; fill: #1a1a1a"> </tspan>
      <tspan x="29.23291" y="-0.78125" style="font-size: 9.5px; font-family: 'DejaVu Serif'; fill: #1a1a1a">l</tspan>
      <tspan x="32.27124" y="-0.78125" style="font-size: 9.5px; font-family: 'DejaVu Serif'; fill: #1a1a1a">o</tspan>
      <tspan x="37.990723" y="-0.78125" style="font-size: 9.5px; font-family: 'DejaVu Serif'; fill: #1a1a1a">s</tspan>
      <tspan x="42.865967" y="-0.78125" style="font-size: 9.5px; font-family: 'DejaVu Serif'; fill: #1a1a1a"> </tspan>
      <tspan x="45.885742" y="-0.78125" style="font-size: 9.5px; font-family: 'DejaVu Serif'; fill: #1a1a1a">a</tspan>
      <tspan x="51.549561" y="-0.78125" style="font-size: 9.5px; font-family: 'DejaVu Serif'; fill: #1a1a1a">g</tspan>
      <tspan x="57.630859" y="-0.78125" style="font-size: 9.5px; font-family: 'DejaVu Serif'; fill: #1a1a1a">u</tspan>
      <tspan x="63.749268" y="-0.78125" style="font-size: 9.5px; font-family: 'DejaVu Serif'; fill: #1a1a1a">j</tspan>
      <tspan x="66.694824" y="-0.78125" style="font-size: 9.5px; font-family: 'DejaVu Serif'; fill: #1a1a1a">e</tspan>
      <tspan x="72.316895" y="-0.78125" style="font-size: 9.5px; font-family: 'DejaVu Serif'; fill: #1a1a1a">r</tspan>
      <tspan x="76.858154" y="-0.78125" style="font-size: 9.5px; font-family: 'DejaVu Serif'; fill: #1a1a1a">o</tspan>
      <tspan x="82.577637" y="-0.78125" style="font-size: 9.5px; font-family: 'DejaVu Serif'; fill: #1a1a1a">s</tspan>
      <tspan x="87.452881" y="-0.78125" style="font-size: 9.5px; font-family: 'DejaVu Serif'; fill: #1a1a1a"> </tspan>
      <tspan x="90.472656" y="-0.78125" style="font-size: 9.5px; font-family: 'DejaVu Serif'; fill: #1a1a1a">t</tspan>
      <tspan x="94.290283" y="-0.78125" style="font-size: 9.5px; font-family: 'DejaVu Serif'; fill: #1a1a1a">a</tspan>
      <tspan x="99.954102" y="-0.78125" style="font-size: 9.5px; font-family: 'DejaVu Serif'; fill: #1a1a1a">p</tspan>
      <tspan x="106.0354" y="-0.78125" style="font-size: 9.5px; font-family: 'DejaVu Serif'; fill: #1a1a1a">a</tspan>
      <tspan x="111.699219" y="-0.78125" style="font-size: 9.5px; font-family: 'DejaVu Serif'; fill: #1a1a1a">d</tspan>
      <tspan x="117.780518" y="-0.78125" style="font-size: 9.5px; font-family: 'DejaVu Serif'; fill: #1a1a1a">o</tspan>
      <tspan x="123.5" y="-0.78125" style="font-size: 9.5px; font-family: 'DejaVu Serif'; fill: #1a1a1a">s</tspan>
      <tspan x="128.375244" y="-0.78125" style="font-size: 9.5px; font-family: 'DejaVu Serif'; fill: #1a1a1a">:</tspan>
      <tspan x="131.575928" y="-0.78125" style="font-size: 9.5px; font-family: 'DejaVu Serif'; fill: #1a1a1a"> </tspan>
      <tspan x="134.595703" y="-0.78125" style="font-size: 9.5px; font-family: 'DejaVu Serif'; fill: #1a1a1a">v</tspan>
      <tspan x="139.962646" y="-0.78125" style="font-size: 9.5px; font-family: 'DejaVu Serif'; fill: #1a1a1a">i</tspan>
      <tspan x="143.000977" y="-0.78125" style="font-size: 9.5px; font-family: 'DejaVu Serif'; fill: #1a1a1a">b</tspan>
      <tspan x="149.082275" y="-0.78125" style="font-size: 9.5px; font-family: 'DejaVu Serif'; fill: #1a1a1a">r</tspan>
      <tspan x="153.623535" y="-0.78125" style="font-size: 9.5px; font-family: 'DejaVu Serif'; fill: #1a1a1a">a</tspan>
      <tspan x="159.287354" y="-0.78125" style="font-size: 9.5px; font-family: 'DejaVu Serif'; fill: #1a1a1a"> </tspan>
      <tspan x="162.307129" y="-0.78125" style="font-size: 9.5px; font-family: 'DejaVu Serif'; fill: #1a1a1a">e</tspan>
      <tspan x="167.929199" y="-0.78125" style="font-size: 9.5px; font-family: 'DejaVu Serif'; fill: #1a1a1a">l</tspan>
      <tspan x="170.967529" y="-0.78125" style="font-size: 9.5px; font-family: 'DejaVu Serif'; fill: #1a1a1a"> </tspan>
      <tspan x="173.987305" y="-0.78125" style="font-size: 9.5px; font-family: 'DejaVu Serif'; fill: #1a1a1a">t</tspan>
      <tspan x="177.804932" y="-0.78125" style="font-size: 9.5px; font-family: 'DejaVu Serif'; fill: #1a1a1a">u</tspan>
      <tspan x="183.92334" y="-0.78125" style="font-size: 9.5px; font-family: 'DejaVu Serif'; fill: #1a1a1a">b</tspan>
      <tspan x="190.004639" y="-0.78125" style="font-size: 9.5px; font-family: 'DejaVu Serif'; fill: #1a1a1a">o</tspan>
      <tspan x="195.724121" y="-0.78125" style="font-size: 9.5px; font-family: 'DejaVu Serif'; fill: #1a1a1a"> </tspan>
      <tspan x="198.743896" y="-0.78125" style="font-size: 9.5px; font-family: 'DejaVu Serif'; fill: #1a1a1a">e</tspan>
      <tspan x="204.365967" y="-0.78125" style="font-size: 9.5px; font-family: 'DejaVu Serif'; fill: #1a1a1a">n</tspan>
      <tspan x="210.484375" y="-0.78125" style="font-size: 9.5px; font-family: 'DejaVu Serif'; fill: #1a1a1a">t</tspan>
      <tspan x="214.302002" y="-0.78125" style="font-size: 9.5px; font-family: 'DejaVu Serif'; fill: #1a1a1a">e</tspan>
      <tspan x="219.924072" y="-0.78125" style="font-size: 9.5px; font-family: 'DejaVu Serif'; fill: #1a1a1a">r</tspan>
      <tspan x="224.465332" y="-0.78125" style="font-size: 9.5px; font-family: 'DejaVu Serif'; fill: #1a1a1a">o</tspan>
      <tspan x="230.184814" y="-0.78125" style="font-size: 9.5px; font-family: 'DejaVu Serif'; fill: #1a1a1a">,</tspan>
      <tspan x="233.20459" y="-0.78125" style="font-size: 9.5px; font-family: 'DejaVu Serif'; fill: #1a1a1a"> </tspan>
      <tspan x="236.224365" y="-0.78125" style="font-size: 9.5px; font-family: 'DejaVu Serif'; fill: #1a1a1a"> </tspan>
      <tspan x="239.244141" y="-0.78125" style="font-style: oblique; font-size: 9.5px; font-family: 'DejaVu Sans'; fill: #1a1a1a">f</tspan>
      <tspan x="258.741333" y="-0.78125" style="font-style: oblique; font-size: 9.5px; font-family: 'DejaVu Sans'; fill: #1a1a1a">v</tspan>
      <tspan x="273.233276" y="-0.78125" style="font-style: oblique; font-size: 9.5px; font-family: 'DejaVu Sans'; fill: #1a1a1a">L</tspan>
      <tspan x="242.588623" y="0.779687" style="font-size: 6.65px; font-family: 'DejaVu Sans'; fill: #1a1a1a">1</tspan>
      <tspan x="248.930542" y="-0.78125" style="font-size: 9.5px; font-family: 'DejaVu Sans'; fill: #1a1a1a">=</tspan>
      <tspan x="264.363403" y="-0.78125" style="font-size: 9.5px; font-family: 'DejaVu Sans'; fill: #1a1a1a">/</tspan>
      <tspan x="267.189087" y="-0.78125" style="font-size: 9.5px; font-family: 'DejaVu Sans'; fill: #1a1a1a">2</tspan>
     </text>
    </g>
   </g>
   <g id="patch_2">
    <path d="M 24.551756 107.663156 
Q 236.855399 107.663156 449.159041 107.663156 
" style="fill: none; stroke: #8a8a8a; stroke-width: 0.9; stroke-linecap: round"/>
    <path d="M 28.951756 109.863156 
L 24.551756 107.663156 
L 28.951756 105.463156 
" style="fill: none; stroke: #8a8a8a; stroke-width: 0.9; stroke-linecap: round"/>
    <path d="M 444.759041 105.463156 
L 449.159041 107.663156 
L 444.759041 109.863156 
" style="fill: none; stroke: #8a8a8a; stroke-width: 0.9; stroke-linecap: round"/>
   </g>
   <g id="text_2">
    <!-- $L$ -->
    <g style="fill: #8a8a8a" transform="translate(234.054021 120.838843)">
     <text>
      <tspan x="0" y="-0.703125" style="font-style: oblique; font-size: 10px; font-family: 'DejaVu Sans'; fill: #8a8a8a">L</tspan>
     </text>
    </g>
   </g>
   <g id="patch_3">
    <path d="M 301.446804 44.344968 
C 303.959234 44.344968 306.3691 43.584474 308.145657 42.230977 
C 309.922213 40.87748 310.920412 39.041485 310.920412 37.127351 
C 310.920412 35.213216 309.922213 33.377222 308.145657 32.023725 
C 306.3691 30.670227 303.959234 29.909734 301.446804 29.909734 
C 298.934374 29.909734 296.524508 30.670227 294.747952 32.023725 
C 292.971395 33.377222 291.973196 35.213216 291.973196 37.127351 
C 291.973196 39.041485 292.971395 40.87748 294.747952 42.230977 
C 296.524508 43.584474 298.934374 44.344968 301.446804 44.344968 
z
" clip-path="url(#p097c6c25cb)" style="fill: #1a1a1a; stroke: #1a1a1a; stroke-width: 1.4; stroke-linejoin: miter"/>
   </g>
   <g id="patch_4">
    <path d="M 353.121031 44.344968 
C 355.633461 44.344968 358.043327 43.584474 359.819884 42.230977 
C 361.59644 40.87748 362.594639 39.041485 362.594639 37.127351 
C 362.594639 35.213216 361.59644 33.377222 359.819884 32.023725 
C 358.043327 30.670227 355.633461 29.909734 353.121031 29.909734 
C 350.608601 29.909734 348.198735 30.670227 346.422178 32.023725 
C 344.645622 33.377222 343.647423 35.213216 343.647423 37.127351 
C 343.647423 39.041485 344.645622 40.87748 346.422178 42.230977 
C 348.198735 43.584474 350.608601 44.344968 353.121031 44.344968 
z
" clip-path="url(#p097c6c25cb)" style="fill: #1a1a1a; stroke: #1a1a1a; stroke-width: 1.4; stroke-linejoin: miter"/>
   </g>
   <g id="patch_5">
    <path d="M 404.795258 44.344968 
C 407.307688 44.344968 409.717554 43.584474 411.49411 42.230977 
C 413.270667 40.87748 414.268866 39.041485 414.268866 37.127351 
C 414.268866 35.213216 413.270667 33.377222 411.49411 32.023725 
C 409.717554 30.670227 407.307688 29.909734 404.795258 29.909734 
C 402.282828 29.909734 399.872962 30.670227 398.096405 32.023725 
C 396.319849 33.377222 395.32165 35.213216 395.32165 37.127351 
C 395.32165 39.041485 396.319849 40.87748 398.096405 42.230977 
C 399.872962 43.584474 402.282828 44.344968 404.795258 44.344968 
z
" clip-path="url(#p097c6c25cb)" style="fill: #1a1a1a; stroke: #1a1a1a; stroke-width: 1.4; stroke-linejoin: miter"/>
   </g>
  </g>
  <g id="axes_2">
   <g id="FillBetweenPolyCollection_2">
    <defs>
     <path id="m5f9169a631" d="M 21.544742 -66.653967 
L 21.544742 -66.653967 
L 22.48087 -66.867681 
L 23.416997 -67.081372 
L 24.353124 -67.295015 
L 25.289251 -67.508588 
L 26.225379 -67.722066 
L 27.161506 -67.935427 
L 28.097633 -68.148646 
L 29.033761 -68.3617 
L 29.969888 -68.574565 
L 30.906015 -68.787219 
L 31.842143 -68.999637 
L 32.77827 -69.211796 
L 33.714397 -69.423672 
L 34.650524 -69.635243 
L 35.586652 -69.846485 
L 36.522779 -70.057374 
L 37.458906 -70.267888 
L 38.395034 -70.478002 
L 39.331161 -70.687695 
L 40.267288 -70.896942 
L 41.203416 -71.105721 
L 42.139543 -71.314008 
L 43.07567 -71.521781 
L 44.011797 -71.729016 
L 44.947925 -71.935691 
L 45.884052 -72.141784 
L 46.820179 -72.34727 
L 47.756307 -72.552128 
L 48.692434 -72.756334 
L 49.628561 -72.959867 
L 50.564688 -73.162704 
L 51.500816 -73.364822 
L 52.436943 -73.5662 
L 53.37307 -73.766814 
L 54.309198 -73.966643 
L 55.245325 -74.165665 
L 56.181452 -74.363857 
L 57.11758 -74.561199 
L 58.053707 -74.757667 
L 58.989834 -74.953241 
L 59.925961 -75.147899 
L 60.862089 -75.341619 
L 61.798216 -75.534379 
L 62.734343 -75.72616 
L 63.670471 -75.916939 
L 64.606598 -76.106695 
L 65.542725 -76.295408 
L 66.478853 -76.483057 
L 67.41498 -76.66962 
L 68.351107 -76.855078 
L 69.287234 -77.039409 
L 70.223362 -77.222594 
L 71.159489 -77.404612 
L 72.095616 -77.585444 
L 73.031744 -77.765068 
L 73.967871 -77.943466 
L 74.903998 -78.120618 
L 75.840126 -78.296504 
L 76.776253 -78.471105 
L 77.71238 -78.644401 
L 78.648507 -78.816373 
L 79.584635 -78.987002 
L 80.520762 -79.15627 
L 81.456889 -79.324158 
L 82.393017 -79.490647 
L 83.329144 -79.65572 
L 84.265271 -79.819356 
L 85.201399 -79.981539 
L 86.137526 -80.142251 
L 87.073653 -80.301474 
L 88.00978 -80.459191 
L 88.945908 -80.615383 
L 89.882035 -80.770034 
L 90.818162 -80.923126 
L 91.75429 -81.074644 
L 92.690417 -81.224569 
L 93.626544 -81.372886 
L 94.562671 -81.519578 
L 95.498799 -81.664629 
L 96.434926 -81.808022 
L 97.371053 -81.949743 
L 98.307181 -82.089775 
L 99.243308 -82.228103 
L 100.179435 -82.364712 
L 101.115563 -82.499586 
L 102.05169 -82.632712 
L 102.987817 -82.764073 
L 103.923944 -82.893655 
L 104.860072 -83.021445 
L 105.796199 -83.147428 
L 106.732326 -83.27159 
L 107.668454 -83.393918 
L 108.604581 -83.514397 
L 109.540708 -83.633015 
L 110.476836 -83.749759 
L 111.412963 -83.864616 
L 112.34909 -83.977572 
L 113.285217 -84.088616 
L 114.221345 -84.197735 
L 115.157472 -84.304918 
L 116.093599 -84.410152 
L 117.029727 -84.513426 
L 117.965854 -84.614728 
L 118.901981 -84.714047 
L 119.838109 -84.811373 
L 120.774236 -84.906694 
L 121.710363 -85 
L 122.64649 -85.091281 
L 123.582618 -85.180526 
L 124.518745 -85.267726 
L 125.454872 -85.352871 
L 126.391 -85.435952 
L 127.327127 -85.51696 
L 128.263254 -85.595885 
L 129.199381 -85.672719 
L 130.135509 -85.747453 
L 131.071636 -85.820079 
L 132.007763 -85.89059 
L 132.943891 -85.958977 
L 133.880018 -86.025233 
L 134.816145 -86.08935 
L 135.752273 -86.151322 
L 136.6884 -86.211141 
L 137.624527 -86.268801 
L 138.560654 -86.324296 
L 139.496782 -86.377619 
L 140.432909 -86.428765 
L 141.369036 -86.477728 
L 142.305164 -86.524502 
L 143.241291 -86.569083 
L 144.177418 -86.611465 
L 145.113546 -86.651644 
L 146.049673 -86.689616 
L 146.9858 -86.725375 
L 147.921927 -86.758919 
L 148.858055 -86.790243 
L 149.794182 -86.819344 
L 150.730309 -86.846219 
L 151.666437 -86.870865 
L 152.602564 -86.893279 
L 153.538691 -86.913458 
L 154.474819 -86.931401 
L 155.410946 -86.947106 
L 156.347073 -86.96057 
L 157.2832 -86.971793 
L 158.219328 -86.980772 
L 159.155455 -86.987508 
L 160.091582 -86.991998 
L 161.02771 -86.994244 
L 161.963837 -86.994244 
L 162.899964 -86.991998 
L 163.836091 -86.987508 
L 164.772219 -86.980772 
L 165.708346 -86.971793 
L 166.644473 -86.96057 
L 167.580601 -86.947106 
L 168.516728 -86.931401 
L 169.452855 -86.913458 
L 170.388983 -86.893279 
L 171.32511 -86.870865 
L 172.261237 -86.846219 
L 173.197364 -86.819344 
L 174.133492 -86.790243 
L 175.069619 -86.758919 
L 176.005746 -86.725375 
L 176.941874 -86.689616 
L 177.878001 -86.651644 
L 178.814128 -86.611465 
L 179.750256 -86.569083 
L 180.686383 -86.524502 
L 181.62251 -86.477728 
L 182.558637 -86.428765 
L 183.494765 -86.377619 
L 184.430892 -86.324296 
L 185.367019 -86.268801 
L 186.303147 -86.211141 
L 187.239274 -86.151322 
L 188.175401 -86.08935 
L 189.111529 -86.025233 
L 190.047656 -85.958977 
L 190.983783 -85.89059 
L 191.91991 -85.820079 
L 192.856038 -85.747453 
L 193.792165 -85.672719 
L 194.728292 -85.595885 
L 195.66442 -85.51696 
L 196.600547 -85.435952 
L 197.536674 -85.352871 
L 198.472801 -85.267726 
L 199.408929 -85.180526 
L 200.345056 -85.091281 
L 201.281183 -85 
L 202.217311 -84.906694 
L 203.153438 -84.811373 
L 204.089565 -84.714047 
L 205.025693 -84.614728 
L 205.96182 -84.513426 
L 206.897947 -84.410152 
L 207.834074 -84.304918 
L 208.770202 -84.197735 
L 209.706329 -84.088616 
L 210.642456 -83.977572 
L 211.578584 -83.864616 
L 212.514711 -83.749759 
L 213.450838 -83.633015 
L 214.386966 -83.514397 
L 215.323093 -83.393918 
L 216.25922 -83.27159 
L 217.195347 -83.147428 
L 218.131475 -83.021445 
L 219.067602 -82.893655 
L 220.003729 -82.764073 
L 220.939857 -82.632712 
L 221.875984 -82.499586 
L 222.812111 -82.364712 
L 223.748239 -82.228103 
L 224.684366 -82.089775 
L 225.620493 -81.949743 
L 226.55662 -81.808022 
L 227.492748 -81.664629 
L 228.428875 -81.519578 
L 229.365002 -81.372886 
L 230.30113 -81.224569 
L 231.237257 -81.074644 
L 232.173384 -80.923126 
L 233.109512 -80.770034 
L 234.045639 -80.615383 
L 234.981766 -80.459191 
L 235.917893 -80.301474 
L 236.854021 -80.142251 
L 237.790148 -79.981539 
L 238.726275 -79.819356 
L 239.662403 -79.65572 
L 240.59853 -79.490647 
L 241.534657 -79.324158 
L 242.470784 -79.15627 
L 243.406912 -78.987002 
L 244.343039 -78.816373 
L 245.279166 -78.644401 
L 246.215294 -78.471105 
L 247.151421 -78.296504 
L 248.087548 -78.120618 
L 249.023676 -77.943466 
L 249.959803 -77.765068 
L 250.89593 -77.585444 
L 251.832057 -77.404612 
L 252.768185 -77.222594 
L 253.704312 -77.039409 
L 254.640439 -76.855078 
L 255.576567 -76.66962 
L 256.512694 -76.483057 
L 257.448821 -76.295408 
L 258.384949 -76.106695 
L 259.321076 -75.916939 
L 260.257203 -75.72616 
L 261.19333 -75.534379 
L 262.129458 -75.341619 
L 263.065585 -75.147899 
L 264.001712 -74.953241 
L 264.93784 -74.757667 
L 265.873967 -74.561199 
L 266.810094 -74.363857 
L 267.746222 -74.165665 
L 268.682349 -73.966643 
L 269.618476 -73.766814 
L 270.554603 -73.5662 
L 271.490731 -73.364822 
L 272.426858 -73.162704 
L 273.362985 -72.959867 
L 274.299113 -72.756334 
L 275.23524 -72.552128 
L 276.171367 -72.34727 
L 277.107494 -72.141784 
L 278.043622 -71.935691 
L 278.979749 -71.729016 
L 279.915876 -71.521781 
L 280.852004 -71.314008 
L 281.788131 -71.105721 
L 282.724258 -70.896942 
L 283.660386 -70.687695 
L 284.596513 -70.478002 
L 285.53264 -70.267888 
L 286.468767 -70.057374 
L 287.404895 -69.846485 
L 288.341022 -69.635243 
L 289.277149 -69.423672 
L 290.213277 -69.211796 
L 291.149404 -68.999637 
L 292.085531 -68.787219 
L 293.021659 -68.574565 
L 293.957786 -68.3617 
L 294.893913 -68.148646 
L 295.83004 -67.935427 
L 296.766168 -67.722066 
L 297.702295 -67.508588 
L 298.638422 -67.295015 
L 299.57455 -67.081372 
L 300.510677 -66.867681 
L 301.446804 -66.653967 
L 301.446804 -66.653967 
L 301.446804 -66.653967 
L 300.510677 -66.440253 
L 299.57455 -66.226562 
L 298.638422 -66.012918 
L 297.702295 -65.799346 
L 296.766168 -65.585867 
L 295.83004 -65.372507 
L 294.893913 -65.159288 
L 293.957786 -64.946234 
L 293.021659 -64.733368 
L 292.085531 -64.520715 
L 291.149404 -64.308297 
L 290.213277 -64.096138 
L 289.277149 -63.884261 
L 288.341022 -63.67269 
L 287.404895 -63.461449 
L 286.468767 -63.250559 
L 285.53264 -63.040046 
L 284.596513 -62.829931 
L 283.660386 -62.620239 
L 282.724258 -62.410992 
L 281.788131 -62.202213 
L 280.852004 -61.993926 
L 279.915876 -61.786153 
L 278.979749 -61.578917 
L 278.043622 -61.372242 
L 277.107494 -61.16615 
L 276.171367 -60.960664 
L 275.23524 -60.755806 
L 274.299113 -60.551599 
L 273.362985 -60.348067 
L 272.426858 -60.14523 
L 271.490731 -59.943111 
L 270.554603 -59.741734 
L 269.618476 -59.54112 
L 268.682349 -59.341291 
L 267.746222 -59.142269 
L 266.810094 -58.944076 
L 265.873967 -58.746735 
L 264.93784 -58.550267 
L 264.001712 -58.354693 
L 263.065585 -58.160035 
L 262.129458 -57.966315 
L 261.19333 -57.773554 
L 260.257203 -57.581774 
L 259.321076 -57.390995 
L 258.384949 -57.201238 
L 257.448821 -57.012526 
L 256.512694 -56.824877 
L 255.576567 -56.638314 
L 254.640439 -56.452856 
L 253.704312 -56.268525 
L 252.768185 -56.08534 
L 251.832057 -55.903321 
L 250.89593 -55.72249 
L 249.959803 -55.542865 
L 249.023676 -55.364467 
L 248.087548 -55.187315 
L 247.151421 -55.01143 
L 246.215294 -54.836829 
L 245.279166 -54.663533 
L 244.343039 -54.491561 
L 243.406912 -54.320931 
L 242.470784 -54.151663 
L 241.534657 -53.983775 
L 240.59853 -53.817286 
L 239.662403 -53.652214 
L 238.726275 -53.488577 
L 237.790148 -53.326394 
L 236.854021 -53.165682 
L 235.917893 -53.006459 
L 234.981766 -52.848743 
L 234.045639 -52.692551 
L 233.109512 -52.5379 
L 232.173384 -52.384807 
L 231.237257 -52.23329 
L 230.30113 -52.083365 
L 229.365002 -51.935048 
L 228.428875 -51.788356 
L 227.492748 -51.643305 
L 226.55662 -51.499911 
L 225.620493 -51.358191 
L 224.684366 -51.218158 
L 223.748239 -51.07983 
L 222.812111 -50.943222 
L 221.875984 -50.808347 
L 220.939857 -50.675222 
L 220.003729 -50.543861 
L 219.067602 -50.414278 
L 218.131475 -50.286489 
L 217.195347 -50.160506 
L 216.25922 -50.036344 
L 215.323093 -49.914016 
L 214.386966 -49.793537 
L 213.450838 -49.674918 
L 212.514711 -49.558175 
L 211.578584 -49.443318 
L 210.642456 -49.330362 
L 209.706329 -49.219318 
L 208.770202 -49.110198 
L 207.834074 -49.003016 
L 206.897947 -48.897782 
L 205.96182 -48.794508 
L 205.025693 -48.693206 
L 204.089565 -48.593886 
L 203.153438 -48.496561 
L 202.217311 -48.40124 
L 201.281183 -48.307934 
L 200.345056 -48.216653 
L 199.408929 -48.127408 
L 198.472801 -48.040208 
L 197.536674 -47.955062 
L 196.600547 -47.871981 
L 195.66442 -47.790974 
L 194.728292 -47.712049 
L 193.792165 -47.635215 
L 192.856038 -47.560481 
L 191.91991 -47.487854 
L 190.983783 -47.417344 
L 190.047656 -47.348957 
L 189.111529 -47.282701 
L 188.175401 -47.218584 
L 187.239274 -47.156612 
L 186.303147 -47.096793 
L 185.367019 -47.039132 
L 184.430892 -46.983638 
L 183.494765 -46.930314 
L 182.558637 -46.879168 
L 181.62251 -46.830206 
L 180.686383 -46.783431 
L 179.750256 -46.738851 
L 178.814128 -46.696468 
L 177.878001 -46.656289 
L 176.941874 -46.618318 
L 176.005746 -46.582559 
L 175.069619 -46.549015 
L 174.133492 -46.517691 
L 173.197364 -46.48859 
L 172.261237 -46.461715 
L 171.32511 -46.437069 
L 170.388983 -46.414655 
L 169.452855 -46.394475 
L 168.516728 -46.376532 
L 167.580601 -46.360828 
L 166.644473 -46.347364 
L 165.708346 -46.336141 
L 164.772219 -46.327162 
L 163.836091 -46.320426 
L 162.899964 -46.315935 
L 161.963837 -46.31369 
L 161.02771 -46.31369 
L 160.091582 -46.315935 
L 159.155455 -46.320426 
L 158.219328 -46.327162 
L 157.2832 -46.336141 
L 156.347073 -46.347364 
L 155.410946 -46.360828 
L 154.474819 -46.376532 
L 153.538691 -46.394475 
L 152.602564 -46.414655 
L 151.666437 -46.437069 
L 150.730309 -46.461715 
L 149.794182 -46.48859 
L 148.858055 -46.517691 
L 147.921927 -46.549015 
L 146.9858 -46.582559 
L 146.049673 -46.618318 
L 145.113546 -46.656289 
L 144.177418 -46.696468 
L 143.241291 -46.738851 
L 142.305164 -46.783431 
L 141.369036 -46.830206 
L 140.432909 -46.879168 
L 139.496782 -46.930314 
L 138.560654 -46.983638 
L 137.624527 -47.039132 
L 136.6884 -47.096793 
L 135.752273 -47.156612 
L 134.816145 -47.218584 
L 133.880018 -47.282701 
L 132.943891 -47.348957 
L 132.007763 -47.417344 
L 131.071636 -47.487854 
L 130.135509 -47.560481 
L 129.199381 -47.635215 
L 128.263254 -47.712049 
L 127.327127 -47.790974 
L 126.391 -47.871981 
L 125.454872 -47.955062 
L 124.518745 -48.040208 
L 123.582618 -48.127408 
L 122.64649 -48.216653 
L 121.710363 -48.307934 
L 120.774236 -48.40124 
L 119.838109 -48.496561 
L 118.901981 -48.593886 
L 117.965854 -48.693206 
L 117.029727 -48.794508 
L 116.093599 -48.897782 
L 115.157472 -49.003016 
L 114.221345 -49.110198 
L 113.285217 -49.219318 
L 112.34909 -49.330362 
L 111.412963 -49.443318 
L 110.476836 -49.558175 
L 109.540708 -49.674918 
L 108.604581 -49.793537 
L 107.668454 -49.914016 
L 106.732326 -50.036344 
L 105.796199 -50.160506 
L 104.860072 -50.286489 
L 103.923944 -50.414278 
L 102.987817 -50.543861 
L 102.05169 -50.675222 
L 101.115563 -50.808347 
L 100.179435 -50.943222 
L 99.243308 -51.07983 
L 98.307181 -51.218158 
L 97.371053 -51.358191 
L 96.434926 -51.499911 
L 95.498799 -51.643305 
L 94.562671 -51.788356 
L 93.626544 -51.935048 
L 92.690417 -52.083365 
L 91.75429 -52.23329 
L 90.818162 -52.384807 
L 89.882035 -52.5379 
L 88.945908 -52.692551 
L 88.00978 -52.848743 
L 87.073653 -53.006459 
L 86.137526 -53.165682 
L 85.201399 -53.326394 
L 84.265271 -53.488577 
L 83.329144 -53.652214 
L 82.393017 -53.817286 
L 81.456889 -53.983775 
L 80.520762 -54.151663 
L 79.584635 -54.320931 
L 78.648507 -54.491561 
L 77.71238 -54.663533 
L 76.776253 -54.836829 
L 75.840126 -55.01143 
L 74.903998 -55.187315 
L 73.967871 -55.364467 
L 73.031744 -55.542865 
L 72.095616 -55.72249 
L 71.159489 -55.903321 
L 70.223362 -56.08534 
L 69.287234 -56.268525 
L 68.351107 -56.452856 
L 67.41498 -56.638314 
L 66.478853 -56.824877 
L 65.542725 -57.012526 
L 64.606598 -57.201238 
L 63.670471 -57.390995 
L 62.734343 -57.581774 
L 61.798216 -57.773554 
L 60.862089 -57.966315 
L 59.925961 -58.160035 
L 58.989834 -58.354693 
L 58.053707 -58.550267 
L 57.11758 -58.746735 
L 56.181452 -58.944076 
L 55.245325 -59.142269 
L 54.309198 -59.341291 
L 53.37307 -59.54112 
L 52.436943 -59.741734 
L 51.500816 -59.943111 
L 50.564688 -60.14523 
L 49.628561 -60.348067 
L 48.692434 -60.551599 
L 47.756307 -60.755806 
L 46.820179 -60.960664 
L 45.884052 -61.16615 
L 44.947925 -61.372242 
L 44.011797 -61.578917 
L 43.07567 -61.786153 
L 42.139543 -61.993926 
L 41.203416 -62.202213 
L 40.267288 -62.410992 
L 39.331161 -62.620239 
L 38.395034 -62.829931 
L 37.458906 -63.040046 
L 36.522779 -63.250559 
L 35.586652 -63.461449 
L 34.650524 -63.67269 
L 33.714397 -63.884261 
L 32.77827 -64.096138 
L 31.842143 -64.308297 
L 30.906015 -64.520715 
L 29.969888 -64.733368 
L 29.033761 -64.946234 
L 28.097633 -65.159288 
L 27.161506 -65.372507 
L 26.225379 -65.585867 
L 25.289251 -65.799346 
L 24.353124 -66.012918 
L 23.416997 -66.226562 
L 22.48087 -66.440253 
L 21.544742 -66.653967 
z
" style="stroke: #f0ece4"/>
    </defs>
    <g clip-path="url(#p3f9977624f)">
     <use xlink:href="#m5f9169a631" x="0" y="261.83952" style="fill: #f0ece4; stroke: #f0ece4"/>
    </g>
   </g>
   <g id="line2d_5">
    <path d="M 21.544742 168.939672 
L 452.163299 168.939672 
" clip-path="url(#p3f9977624f)" style="fill: none; stroke: #1a1a1a; stroke-width: 2.2; stroke-linecap: square"/>
   </g>
   <g id="line2d_6">
    <path d="M 21.544742 221.431434 
L 452.163299 221.431434 
" clip-path="url(#p3f9977624f)" style="fill: none; stroke: #1a1a1a; stroke-width: 2.2; stroke-linecap: square"/>
   </g>
   <g id="line2d_7">
    <path d="M 21.544742 195.185553 
L 49.628561 188.879653 
L 65.542725 185.544112 
L 78.648507 183.023147 
L 90.818162 180.916394 
L 102.05169 179.206808 
L 112.34909 177.861948 
L 122.64649 176.748239 
L 132.007763 175.94893 
L 141.369036 175.361792 
L 150.730309 174.993301 
L 160.091582 174.847522 
L 169.452855 174.926062 
L 178.814128 175.228055 
L 188.175401 175.75017 
L 197.536674 176.486649 
L 207.834074 177.534602 
L 218.131475 178.818075 
L 228.428875 180.319942 
L 239.662403 182.1838 
L 251.832057 184.434908 
L 265.873967 187.278321 
L 282.724258 190.942578 
L 301.446804 195.185553 
L 301.446804 195.185553 
" clip-path="url(#p3f9977624f)" style="fill: none; stroke: #7a2e2e; stroke-width: 1.8; stroke-linecap: square"/>
   </g>
   <g id="line2d_8">
    <path d="M 21.544742 195.185553 
L 49.628561 201.491453 
L 65.542725 204.826994 
L 78.648507 207.347959 
L 90.818162 209.454713 
L 102.05169 211.164298 
L 112.34909 212.509158 
L 122.64649 213.622867 
L 132.007763 214.422176 
L 141.369036 215.009314 
L 150.730309 215.377805 
L 160.091582 215.523585 
L 169.452855 215.445045 
L 178.814128 215.143052 
L 188.175401 214.620936 
L 197.536674 213.884458 
L 207.834074 212.836504 
L 218.131475 211.553031 
L 228.428875 210.051164 
L 239.662403 208.187306 
L 251.832057 205.936199 
L 265.873967 203.092785 
L 282.724258 199.428528 
L 301.446804 195.185553 
L 301.446804 195.185553 
" clip-path="url(#p3f9977624f)" style="fill: none; stroke: #7a2e2e; stroke-opacity: 0.55; stroke-linecap: square"/>
   </g>
   <g id="patch_6">
    <path d="M 345.608806 152.850363 
Q 324.496814 158.189412 304.360341 163.28176 
" style="fill: none; stroke: #8a8a8a; stroke-width: 0.9; stroke-linecap: round"/>
    <path d="M 308.073366 164.096286 
L 304.360341 163.28176 
L 307.239776 160.800056 
" style="fill: none; stroke: #8a8a8a; stroke-width: 0.9; stroke-linecap: round"/>
   </g>
   <g id="text_3">
    <text style="font-size: 8.5px; font-family: 'DejaVu Serif', serif; fill: #1a1a1a" transform="translate(318.671546 138.545393)">la presión se fuga:</text>
    <text style="font-size: 8.5px; font-family: 'DejaVu Serif', serif; fill: #1a1a1a" transform="translate(318.671546 148.592393)">para la onda, el tubo termina aquí</text>
   </g>
   <g id="patch_7">
    <path d="M 24.554056 239.475477 
Q 161.4987 239.475477 298.443344 239.475477 
" style="fill: none; stroke: #8a8a8a; stroke-width: 0.9; stroke-linecap: round"/>
    <path d="M 28.954056 241.675477 
L 24.554056 239.475477 
L 28.954056 237.275477 
" style="fill: none; stroke: #8a8a8a; stroke-width: 0.9; stroke-linecap: round"/>
    <path d="M 294.043344 237.275477 
L 298.443344 239.475477 
L 294.043344 241.675477 
" style="fill: none; stroke: #8a8a8a; stroke-width: 0.9; stroke-linecap: round"/>
   </g>
   <g id="text_4">
    <!-- $L_{ef} &lt; L$   →   la nota sube -->
    <g style="fill: #1a1a1a" transform="translate(101.595773 252.651164)">
     <text>
      <tspan x="0" y="-0.40625" style="font-style: oblique; font-size: 10px; font-family: 'DejaVu Sans'; fill: #1a1a1a">L</tspan>
      <tspan x="24.891113" y="-0.40625" style="font-style: oblique; font-size: 10px; font-family: 'DejaVu Sans'; fill: #1a1a1a">L</tspan>
      <tspan x="5.571289" y="1.234375" style="font-style: oblique; font-size: 7px; font-family: 'DejaVu Sans'; fill: #1a1a1a">e</tspan>
      <tspan x="9.87793" y="1.234375" style="font-style: oblique; font-size: 7px; font-family: 'DejaVu Sans'; fill: #1a1a1a">f</tspan>
      <tspan x="14.563965" y="-0.40625" style="font-size: 10px; font-family: 'DejaVu Sans'; fill: #1a1a1a">&lt;</tspan>
      <tspan x="30.462402" y="-0.40625" style="font-size: 10px; font-family: 'DejaVu Serif'; fill: #1a1a1a"> </tspan>
      <tspan x="33.641113" y="-0.40625" style="font-size: 10px; font-family: 'DejaVu Serif'; fill: #1a1a1a"> </tspan>
      <tspan x="36.819824" y="-0.40625" style="font-size: 10px; font-family: 'DejaVu Serif'; fill: #1a1a1a"> </tspan>
      <tspan x="39.998535" y="-0.40625" style="font-size: 10px; font-family: 'DejaVu Serif'; fill: #1a1a1a">→</tspan>
      <tspan x="48.377441" y="-0.40625" style="font-size: 10px; font-family: 'DejaVu Serif'; fill: #1a1a1a"> </tspan>
      <tspan x="51.556152" y="-0.40625" style="font-size: 10px; font-family: 'DejaVu Serif'; fill: #1a1a1a"> </tspan>
      <tspan x="54.734863" y="-0.40625" style="font-size: 10px; font-family: 'DejaVu Serif'; fill: #1a1a1a"> </tspan>
      <tspan x="57.913574" y="-0.40625" style="font-size: 10px; font-family: 'DejaVu Serif'; fill: #1a1a1a">l</tspan>
      <tspan x="61.111816" y="-0.40625" style="font-size: 10px; font-family: 'DejaVu Serif'; fill: #1a1a1a">a</tspan>
      <tspan x="67.07373" y="-0.40625" style="font-size: 10px; font-family: 'DejaVu Serif'; fill: #1a1a1a"> </tspan>
      <tspan x="70.252441" y="-0.40625" style="font-size: 10px; font-family: 'DejaVu Serif'; fill: #1a1a1a">n</tspan>
      <tspan x="76.692871" y="-0.40625" style="font-size: 10px; font-family: 'DejaVu Serif'; fill: #1a1a1a">o</tspan>
      <tspan x="82.713379" y="-0.40625" style="font-size: 10px; font-family: 'DejaVu Serif'; fill: #1a1a1a">t</tspan>
      <tspan x="86.731934" y="-0.40625" style="font-size: 10px; font-family: 'DejaVu Serif'; fill: #1a1a1a">a</tspan>
      <tspan x="92.693848" y="-0.40625" style="font-size: 10px; font-family: 'DejaVu Serif'; fill: #1a1a1a"> </tspan>
      <tspan x="95.872559" y="-0.40625" style="font-size: 10px; font-family: 'DejaVu Serif'; fill: #1a1a1a">s</tspan>
      <tspan x="101.004395" y="-0.40625" style="font-size: 10px; font-family: 'DejaVu Serif'; fill: #1a1a1a">u</tspan>
      <tspan x="107.444824" y="-0.40625" style="font-size: 10px; font-family: 'DejaVu Serif'; fill: #1a1a1a">b</tspan>
      <tspan x="113.846191" y="-0.40625" style="font-size: 10px; font-family: 'DejaVu Serif'; fill: #1a1a1a">e</tspan>
     </text>
    </g>
   </g>
   <g id="patch_8">
    <path d="M 301.446804 176.15729 
C 303.959234 176.15729 306.3691 175.396796 308.145657 174.043298 
C 309.922213 172.689801 310.920412 170.853807 310.920412 168.939672 
C 310.920412 167.025538 309.922213 165.189544 308.145657 163.836046 
C 306.3691 162.482549 303.959234 161.722055 301.446804 161.722055 
C 298.934374 161.722055 296.524508 162.482549 294.747952 163.836046 
C 292.971395 165.189544 291.973196 167.025538 291.973196 168.939672 
C 291.973196 170.853807 292.971395 172.689801 294.747952 174.043298 
C 296.524508 175.396796 298.934374 176.15729 301.446804 176.15729 
z
" clip-path="url(#p3f9977624f)" style="fill: #ffffff; stroke: #1a1a1a; stroke-width: 1.4; stroke-linejoin: miter"/>
   </g>
   <g id="patch_9">
    <path d="M 353.121031 176.15729 
C 355.633461 176.15729 358.043327 175.396796 359.819884 174.043298 
C 361.59644 172.689801 362.594639 170.853807 362.594639 168.939672 
C 362.594639 167.025538 361.59644 165.189544 359.819884 163.836046 
C 358.043327 162.482549 355.633461 161.722055 353.121031 161.722055 
C 350.608601 161.722055 348.198735 162.482549 346.422178 163.836046 
C 344.645622 165.189544 343.647423 167.025538 343.647423 168.939672 
C 343.647423 170.853807 344.645622 172.689801 346.422178 174.043298 
C 348.198735 175.396796 350.608601 176.15729 353.121031 176.15729 
z
" clip-path="url(#p3f9977624f)" style="fill: #1a1a1a; stroke: #1a1a1a; stroke-width: 1.4; stroke-linejoin: miter"/>
   </g>
   <g id="patch_10">
    <path d="M 404.795258 176.15729 
C 407.307688 176.15729 409.717554 175.396796 411.49411 174.043298 
C 413.270667 172.689801 414.268866 170.853807 414.268866 168.939672 
C 414.268866 167.025538 413.270667 165.189544 411.49411 163.836046 
C 409.717554 162.482549 407.307688 161.722055 404.795258 161.722055 
C 402.282828 161.722055 399.872962 162.482549 398.096405 163.836046 
C 396.319849 165.189544 395.32165 167.025538 395.32165 168.939672 
C 395.32165 170.853807 396.319849 172.689801 398.096405 174.043298 
C 399.872962 175.396796 402.282828 176.15729 404.795258 176.15729 
z
" clip-path="url(#p3f9977624f)" style="fill: #1a1a1a; stroke: #1a1a1a; stroke-width: 1.4; stroke-linejoin: miter"/>
   </g>
  </g>
 </g>
 <defs>
  <clipPath id="p097c6c25cb">
   <rect x="4.32" y="4.32" width="465.068041" height="121.387199"/>
  </clipPath>
  <clipPath id="p3f9977624f">
   <rect x="4.32" y="136.132321" width="465.068041" height="121.387199"/>
  </clipPath>
 </defs>
</svg>
