<?xml version="1.0" encoding="utf-8" standalone="no"?>
<!DOCTYPE svg PUBLIC "-//W3C//DTD SVG 1.1//EN"
  "http://www.w3.org/Graphics/SVG/1.1/DTD/svg11.dtd">
<svg xmlns:xlink="http://www.w3.org/1999/xlink" width="477.83952pt" height="276.23952pt" viewBox="0 0 477.83952 276.23952" xmlns="http://www.w3.org/2000/svg" version="1.1">
 <metadata>
  <rdf:RDF xmlns:dc="http://purl.org/dc/elements/1.1/" xmlns:cc="http://creativecommons.org/ns#" xmlns:rdf="http://www.w3.org/1999/02/22-rdf-syntax-ns#">
   <cc:Work>
    <dc:type rdf:resource="http://purl.org/dc/dcmitype/StillImage"/>
    <dc:date>2026-07-13T09:28:43.805287</dc:date>
    <dc:format>image/svg+xml</dc:format>
    <dc:creator>
     <cc:Agent>
      <dc:title>Matplotlib v3.10.3, https://matplotlib.org/</dc:title>
     </cc:Agent>
    </dc:creator>
   </cc:Work>
  </rdf:RDF>
 </metadata>
 <defs>
  <style type="text/css">*{stroke-linejoin: round; stroke-linecap: butt}</style>
 </defs>
 <g id="figure_1">
  <g id="patch_1">
   <path d="M 0 276.23952 
L 477.83952 276.23952 
L 477.83952 0 
L 0 0 
z
" style="fill: #ffffff"/>
  </g>
  <g id="axes_1">
   <g id="patch_2">
    <path d="M 4.32 86.226135 
L 473.51952 86.226135 
L 473.51952 18.3 
L 4.32 18.3 
z
" style="fill: #ffffff"/>
   </g>
   <g id="FillBetweenPolyCollection_1">
    <defs>
     <path id="m33ec5e4d5e" d="M 17.583591 -199.717119 
L 17.583591 -248.235786 
L 18.692587 -248.234447 
L 19.801582 -248.23043 
L 20.910578 -248.223736 
L 22.019574 -248.214364 
L 23.12857 -248.202317 
L 24.237566 -248.187596 
L 25.346562 -248.170201 
L 26.455558 -248.150136 
L 27.564554 -248.127402 
L 28.673549 -248.102002 
L 29.782545 -248.073938 
L 30.891541 -248.043214 
L 32.000537 -248.009834 
L 33.109533 -247.9738 
L 34.218529 -247.935117 
L 35.327525 -247.893789 
L 36.436521 -247.84982 
L 37.545516 -247.803217 
L 38.654512 -247.753982 
L 39.763508 -247.702123 
L 40.872504 -247.647645 
L 41.9815 -247.590553 
L 43.090496 -247.530854 
L 44.199492 -247.468555 
L 45.308488 -247.403663 
L 46.417483 -247.336185 
L 47.526479 -247.266127 
L 48.635475 -247.193499 
L 49.744471 -247.118307 
L 50.853467 -247.040561 
L 51.962463 -246.960268 
L 53.071459 -246.877438 
L 54.180455 -246.79208 
L 55.28945 -246.704204 
L 56.398446 -246.613818 
L 57.507442 -246.520933 
L 58.616438 -246.425559 
L 59.725434 -246.327707 
L 60.83443 -246.227388 
L 61.943426 -246.124612 
L 63.052422 -246.019391 
L 64.161417 -245.911737 
L 65.270413 -245.801661 
L 66.379409 -245.689175 
L 67.488405 -245.574293 
L 68.597401 -245.457026 
L 69.706397 -245.337388 
L 70.815393 -245.215392 
L 71.924389 -245.091051 
L 73.033384 -244.964379 
L 74.14238 -244.83539 
L 75.251376 -244.704098 
L 76.360372 -244.570518 
L 77.469368 -244.434665 
L 78.578364 -244.296553 
L 79.68736 -244.156198 
L 80.796356 -244.013615 
L 81.905351 -243.86882 
L 83.014347 -243.721829 
L 84.123343 -243.572658 
L 85.232339 -243.421324 
L 86.341335 -243.267843 
L 87.450331 -243.112233 
L 88.559327 -242.95451 
L 89.668323 -242.794692 
L 90.777318 -242.632796 
L 91.886314 -242.468841 
L 92.99531 -242.302845 
L 94.104306 -242.134825 
L 95.213302 -241.9648 
L 96.322298 -241.79279 
L 97.431294 -241.618813 
L 98.54029 -241.442888 
L 99.649285 -241.265035 
L 100.758281 -241.085274 
L 101.867277 -240.903624 
L 102.976273 -240.720105 
L 104.085269 -240.534737 
L 105.194265 -240.347542 
L 106.303261 -240.158539 
L 107.412257 -239.96775 
L 108.521252 -239.775196 
L 109.630248 -239.580897 
L 110.739244 -239.384876 
L 111.84824 -239.187153 
L 112.957236 -238.987752 
L 114.066232 -238.786693 
L 115.175228 -238.583999 
L 116.284224 -238.379693 
L 117.393219 -238.173797 
L 118.502215 -237.966333 
L 119.611211 -237.757325 
L 120.720207 -237.546796 
L 121.829203 -237.334768 
L 122.938199 -237.121266 
L 124.047195 -236.906312 
L 125.156191 -236.689931 
L 126.265186 -236.472147 
L 127.374182 -236.252983 
L 128.483178 -236.032464 
L 129.592174 -235.810614 
L 130.70117 -235.587458 
L 131.810166 -235.363019 
L 132.919162 -235.137324 
L 134.028158 -234.910397 
L 135.137153 -234.682262 
L 136.246149 -234.452946 
L 137.355145 -234.222473 
L 138.464141 -233.990869 
L 139.573137 -233.758159 
L 140.682133 -233.52437 
L 141.791129 -233.289526 
L 142.900125 -233.053654 
L 144.00912 -232.816781 
L 145.118116 -232.578931 
L 146.227112 -232.340132 
L 147.336108 -232.100409 
L 148.445104 -231.859789 
L 149.5541 -231.6183 
L 150.663096 -231.375966 
L 151.772092 -231.132816 
L 152.881087 -230.888876 
L 153.990083 -230.644172 
L 155.099079 -230.398733 
L 156.208075 -230.152584 
L 157.317071 -229.905754 
L 158.426067 -229.658269 
L 159.535063 -229.410157 
L 160.644059 -229.161444 
L 161.753054 -228.91216 
L 162.86205 -228.662331 
L 163.971046 -228.411984 
L 165.080042 -228.161148 
L 166.189038 -227.90985 
L 167.298034 -227.658117 
L 168.40703 -227.405978 
L 169.516026 -227.153461 
L 170.625021 -226.900592 
L 171.734017 -226.647401 
L 172.843013 -226.393915 
L 173.952009 -226.140162 
L 175.061005 -225.886171 
L 176.170001 -225.631968 
L 177.278997 -225.377583 
L 178.387993 -225.123043 
L 179.496988 -224.868376 
L 180.605984 -224.613611 
L 181.71498 -224.358776 
L 182.823976 -224.103899 
L 183.932972 -223.849007 
L 185.041968 -223.594129 
L 186.150964 -223.339294 
L 187.25996 -223.084529 
L 188.368956 -222.829862 
L 189.477951 -222.575323 
L 190.586947 -222.320937 
L 191.695943 -222.066735 
L 192.804939 -221.812743 
L 193.913935 -221.55899 
L 195.022931 -221.305504 
L 196.131927 -221.052313 
L 197.240923 -220.799445 
L 198.349918 -220.546927 
L 199.458914 -220.294788 
L 200.56791 -220.043056 
L 201.676906 -219.791758 
L 202.785902 -219.540921 
L 203.894898 -219.290575 
L 205.003894 -219.040745 
L 206.11289 -218.791461 
L 207.221885 -218.542749 
L 208.330881 -218.294637 
L 209.439877 -218.047152 
L 210.548873 -217.800321 
L 211.657869 -217.554173 
L 212.766865 -217.308733 
L 213.875861 -217.06403 
L 214.984857 -216.82009 
L 216.093852 -216.576939 
L 217.202848 -216.334606 
L 218.311844 -216.093116 
L 219.42084 -215.852496 
L 220.529836 -215.612774 
L 221.638832 -215.373974 
L 222.747828 -215.136125 
L 223.856824 -214.899251 
L 224.965819 -214.663379 
L 226.074815 -214.428536 
L 227.183811 -214.194746 
L 228.292807 -213.962037 
L 229.401803 -213.730433 
L 230.510799 -213.49996 
L 231.619795 -213.270643 
L 232.728791 -213.042509 
L 233.837786 -212.815581 
L 234.946782 -212.589886 
L 236.055778 -212.365448 
L 237.164774 -212.142291 
L 238.27377 -211.920441 
L 239.382766 -211.699922 
L 240.491762 -211.480758 
L 241.600758 -211.262974 
L 242.709753 -211.046593 
L 243.818749 -210.83164 
L 244.927745 -210.618137 
L 246.036741 -210.40611 
L 247.145737 -210.19558 
L 248.254733 -209.986572 
L 249.363729 -209.779109 
L 250.472725 -209.573212 
L 251.58172 -209.368906 
L 252.690716 -209.166212 
L 253.799712 -208.965154 
L 254.908708 -208.765752 
L 256.017704 -208.56803 
L 257.1267 -208.372008 
L 258.235696 -208.17771 
L 259.344692 -207.985155 
L 260.453687 -207.794366 
L 261.562683 -207.605364 
L 262.671679 -207.418168 
L 263.780675 -207.232801 
L 264.889671 -207.049282 
L 265.998667 -206.867632 
L 267.107663 -206.68787 
L 268.216659 -206.510017 
L 269.325654 -206.334092 
L 270.43465 -206.160115 
L 271.543646 -205.988105 
L 272.652642 -205.818081 
L 273.761638 -205.650061 
L 274.870634 -205.484064 
L 275.97963 -205.320109 
L 277.088626 -205.158214 
L 278.197621 -204.998396 
L 279.306617 -204.840673 
L 280.415613 -204.685062 
L 281.524609 -204.531581 
L 282.633605 -204.380247 
L 283.742601 -204.231076 
L 284.851597 -204.084085 
L 285.960593 -203.93929 
L 287.069588 -203.796708 
L 288.178584 -203.656352 
L 289.28758 -203.51824 
L 290.396576 -203.382387 
L 291.505572 -203.248807 
L 292.614568 -203.117516 
L 293.723564 -202.988527 
L 294.83256 -202.861855 
L 295.941555 -202.737514 
L 297.050551 -202.615518 
L 298.159547 -202.495879 
L 299.268543 -202.378613 
L 300.377539 -202.26373 
L 301.486535 -202.151245 
L 302.595531 -202.041169 
L 303.704527 -201.933514 
L 304.813522 -201.828294 
L 305.922518 -201.725518 
L 307.031514 -201.625198 
L 308.14051 -201.527346 
L 309.249506 -201.431972 
L 310.358502 -201.339088 
L 311.467498 -201.248702 
L 312.576494 -201.160825 
L 313.685489 -201.075467 
L 314.794485 -200.992637 
L 315.903481 -200.912345 
L 317.012477 -200.834598 
L 318.121473 -200.759407 
L 319.230469 -200.686778 
L 320.339465 -200.616721 
L 321.448461 -200.549242 
L 322.557456 -200.48435 
L 323.666452 -200.422051 
L 324.775448 -200.362353 
L 325.884444 -200.305261 
L 326.99344 -200.250782 
L 328.102436 -200.198923 
L 329.211432 -200.149689 
L 330.320428 -200.103085 
L 331.429423 -200.059117 
L 332.538419 -200.017789 
L 333.647415 -199.979106 
L 334.756411 -199.943072 
L 335.865407 -199.909691 
L 336.974403 -199.878967 
L 338.083399 -199.850904 
L 339.192395 -199.825504 
L 340.30139 -199.80277 
L 341.410386 -199.782704 
L 342.519382 -199.76531 
L 343.628378 -199.750588 
L 344.737374 -199.738541 
L 345.84637 -199.72917 
L 346.955366 -199.722475 
L 348.064362 -199.718458 
L 349.173357 -199.717119 
L 349.173357 -248.235786 
L 349.173357 -248.235786 
L 348.064362 -248.234447 
L 346.955366 -248.23043 
L 345.84637 -248.223736 
L 344.737374 -248.214364 
L 343.628378 -248.202317 
L 342.519382 -248.187596 
L 341.410386 -248.170201 
L 340.30139 -248.150136 
L 339.192395 -248.127402 
L 338.083399 -248.102002 
L 336.974403 -248.073938 
L 335.865407 -248.043214 
L 334.756411 -248.009834 
L 333.647415 -247.9738 
L 332.538419 -247.935117 
L 331.429423 -247.893789 
L 330.320428 -247.84982 
L 329.211432 -247.803217 
L 328.102436 -247.753982 
L 326.99344 -247.702123 
L 325.884444 -247.647645 
L 324.775448 -247.590553 
L 323.666452 -247.530854 
L 322.557456 -247.468555 
L 321.448461 -247.403663 
L 320.339465 -247.336185 
L 319.230469 -247.266127 
L 318.121473 -247.193499 
L 317.012477 -247.118307 
L 315.903481 -247.040561 
L 314.794485 -246.960268 
L 313.685489 -246.877438 
L 312.576494 -246.79208 
L 311.467498 -246.704204 
L 310.358502 -246.613818 
L 309.249506 -246.520933 
L 308.14051 -246.425559 
L 307.031514 -246.327707 
L 305.922518 -246.227388 
L 304.813522 -246.124612 
L 303.704527 -246.019391 
L 302.595531 -245.911737 
L 301.486535 -245.801661 
L 300.377539 -245.689175 
L 299.268543 -245.574293 
L 298.159547 -245.457026 
L 297.050551 -245.337388 
L 295.941555 -245.215392 
L 294.83256 -245.091051 
L 293.723564 -244.964379 
L 292.614568 -244.83539 
L 291.505572 -244.704098 
L 290.396576 -244.570518 
L 289.28758 -244.434665 
L 288.178584 -244.296553 
L 287.069588 -244.156198 
L 285.960593 -244.013615 
L 284.851597 -243.86882 
L 283.742601 -243.721829 
L 282.633605 -243.572658 
L 281.524609 -243.421324 
L 280.415613 -243.267843 
L 279.306617 -243.112233 
L 278.197621 -242.95451 
L 277.088626 -242.794692 
L 275.97963 -242.632796 
L 274.870634 -242.468841 
L 273.761638 -242.302845 
L 272.652642 -242.134825 
L 271.543646 -241.9648 
L 270.43465 -241.79279 
L 269.325654 -241.618813 
L 268.216659 -241.442888 
L 267.107663 -241.265035 
L 265.998667 -241.085274 
L 264.889671 -240.903624 
L 263.780675 -240.720105 
L 262.671679 -240.534737 
L 261.562683 -240.347542 
L 260.453687 -240.158539 
L 259.344692 -239.96775 
L 258.235696 -239.775196 
L 257.1267 -239.580897 
L 256.017704 -239.384876 
L 254.908708 -239.187153 
L 253.799712 -238.987752 
L 252.690716 -238.786693 
L 251.58172 -238.583999 
L 250.472725 -238.379693 
L 249.363729 -238.173797 
L 248.254733 -237.966333 
L 247.145737 -237.757325 
L 246.036741 -237.546796 
L 244.927745 -237.334768 
L 243.818749 -237.121266 
L 242.709753 -236.906312 
L 241.600758 -236.689931 
L 240.491762 -236.472147 
L 239.382766 -236.252983 
L 238.27377 -236.032464 
L 237.164774 -235.810614 
L 236.055778 -235.587458 
L 234.946782 -235.363019 
L 233.837786 -235.137324 
L 232.728791 -234.910397 
L 231.619795 -234.682262 
L 230.510799 -234.452946 
L 229.401803 -234.222473 
L 228.292807 -233.990869 
L 227.183811 -233.758159 
L 226.074815 -233.52437 
L 224.965819 -233.289526 
L 223.856824 -233.053654 
L 222.747828 -232.816781 
L 221.638832 -232.578931 
L 220.529836 -232.340132 
L 219.42084 -232.100409 
L 218.311844 -231.859789 
L 217.202848 -231.6183 
L 216.093852 -231.375966 
L 214.984857 -231.132816 
L 213.875861 -230.888876 
L 212.766865 -230.644172 
L 211.657869 -230.398733 
L 210.548873 -230.152584 
L 209.439877 -229.905754 
L 208.330881 -229.658269 
L 207.221885 -229.410157 
L 206.11289 -229.161444 
L 205.003894 -228.91216 
L 203.894898 -228.662331 
L 202.785902 -228.411984 
L 201.676906 -228.161148 
L 200.56791 -227.90985 
L 199.458914 -227.658117 
L 198.349918 -227.405978 
L 197.240923 -227.153461 
L 196.131927 -226.900592 
L 195.022931 -226.647401 
L 193.913935 -226.393915 
L 192.804939 -226.140162 
L 191.695943 -225.886171 
L 190.586947 -225.631968 
L 189.477951 -225.377583 
L 188.368956 -225.123043 
L 187.25996 -224.868376 
L 186.150964 -224.613611 
L 185.041968 -224.358776 
L 183.932972 -224.103899 
L 182.823976 -223.849007 
L 181.71498 -223.594129 
L 180.605984 -223.339294 
L 179.496988 -223.084529 
L 178.387993 -222.829862 
L 177.278997 -222.575323 
L 176.170001 -222.320937 
L 175.061005 -222.066735 
L 173.952009 -221.812743 
L 172.843013 -221.55899 
L 171.734017 -221.305504 
L 170.625021 -221.052313 
L 169.516026 -220.799445 
L 168.40703 -220.546927 
L 167.298034 -220.294788 
L 166.189038 -220.043056 
L 165.080042 -219.791758 
L 163.971046 -219.540921 
L 162.86205 -219.290575 
L 161.753054 -219.040745 
L 160.644059 -218.791461 
L 159.535063 -218.542749 
L 158.426067 -218.294637 
L 157.317071 -218.047152 
L 156.208075 -217.800321 
L 155.099079 -217.554173 
L 153.990083 -217.308733 
L 152.881087 -217.06403 
L 151.772092 -216.82009 
L 150.663096 -216.576939 
L 149.5541 -216.334606 
L 148.445104 -216.093116 
L 147.336108 -215.852496 
L 146.227112 -215.612774 
L 145.118116 -215.373974 
L 144.00912 -215.136125 
L 142.900125 -214.899251 
L 141.791129 -214.663379 
L 140.682133 -214.428536 
L 139.573137 -214.194746 
L 138.464141 -213.962037 
L 137.355145 -213.730433 
L 136.246149 -213.49996 
L 135.137153 -213.270643 
L 134.028158 -213.042509 
L 132.919162 -212.815581 
L 131.810166 -212.589886 
L 130.70117 -212.365448 
L 129.592174 -212.142291 
L 128.483178 -211.920441 
L 127.374182 -211.699922 
L 126.265186 -211.480758 
L 125.156191 -211.262974 
L 124.047195 -211.046593 
L 122.938199 -210.83164 
L 121.829203 -210.618137 
L 120.720207 -210.40611 
L 119.611211 -210.19558 
L 118.502215 -209.986572 
L 117.393219 -209.779109 
L 116.284224 -209.573212 
L 115.175228 -209.368906 
L 114.066232 -209.166212 
L 112.957236 -208.965154 
L 111.84824 -208.765752 
L 110.739244 -208.56803 
L 109.630248 -208.372008 
L 108.521252 -208.17771 
L 107.412257 -207.985155 
L 106.303261 -207.794366 
L 105.194265 -207.605364 
L 104.085269 -207.418168 
L 102.976273 -207.232801 
L 101.867277 -207.049282 
L 100.758281 -206.867632 
L 99.649285 -206.68787 
L 98.54029 -206.510017 
L 97.431294 -206.334092 
L 96.322298 -206.160115 
L 95.213302 -205.988105 
L 94.104306 -205.818081 
L 92.99531 -205.650061 
L 91.886314 -205.484064 
L 90.777318 -205.320109 
L 89.668323 -205.158214 
L 88.559327 -204.998396 
L 87.450331 -204.840673 
L 86.341335 -204.685062 
L 85.232339 -204.531581 
L 84.123343 -204.380247 
L 83.014347 -204.231076 
L 81.905351 -204.084085 
L 80.796356 -203.93929 
L 79.68736 -203.796708 
L 78.578364 -203.656352 
L 77.469368 -203.51824 
L 76.360372 -203.382387 
L 75.251376 -203.248807 
L 74.14238 -203.117516 
L 73.033384 -202.988527 
L 71.924389 -202.861855 
L 70.815393 -202.737514 
L 69.706397 -202.615518 
L 68.597401 -202.495879 
L 67.488405 -202.378613 
L 66.379409 -202.26373 
L 65.270413 -202.151245 
L 64.161417 -202.041169 
L 63.052422 -201.933514 
L 61.943426 -201.828294 
L 60.83443 -201.725518 
L 59.725434 -201.625198 
L 58.616438 -201.527346 
L 57.507442 -201.431972 
L 56.398446 -201.339088 
L 55.28945 -201.248702 
L 54.180455 -201.160825 
L 53.071459 -201.075467 
L 51.962463 -200.992637 
L 50.853467 -200.912345 
L 49.744471 -200.834598 
L 48.635475 -200.759407 
L 47.526479 -200.686778 
L 46.417483 -200.616721 
L 45.308488 -200.549242 
L 44.199492 -200.48435 
L 43.090496 -200.422051 
L 41.9815 -200.362353 
L 40.872504 -200.305261 
L 39.763508 -200.250782 
L 38.654512 -200.198923 
L 37.545516 -200.149689 
L 36.436521 -200.103085 
L 35.327525 -200.059117 
L 34.218529 -200.017789 
L 33.109533 -199.979106 
L 32.000537 -199.943072 
L 30.891541 -199.909691 
L 29.782545 -199.878967 
L 28.673549 -199.850904 
L 27.564554 -199.825504 
L 26.455558 -199.80277 
L 25.346562 -199.782704 
L 24.237566 -199.76531 
L 23.12857 -199.750588 
L 22.019574 -199.738541 
L 20.910578 -199.72917 
L 19.801582 -199.722475 
L 18.692587 -199.718458 
L 17.583591 -199.717119 
z
" style="stroke: #f0ece4"/>
    </defs>
    <g clip-path="url(#pfe26737a60)">
     <use xlink:href="#m33ec5e4d5e" x="0" y="276.23952" style="fill: #f0ece4; stroke: #f0ece4"/>
    </g>
   </g>
   <g id="matplotlib.axis_1">
    <g id="xtick_1">
     <g id="line2d_1">
      <defs>
       <path id="m46c3b40793" d="M 0 0 
L 0 3.5 
" style="stroke: #1a1a1a; stroke-width: 0.8"/>
      </defs>
      <g>
       <use xlink:href="#m46c3b40793" x="17.583591" y="86.226135" style="fill: #1a1a1a; stroke: #1a1a1a; stroke-width: 0.8"/>
      </g>
     </g>
    </g>
    <g id="xtick_2">
     <g id="line2d_2">
      <g>
       <use xlink:href="#m46c3b40793" x="100.481032" y="86.226135" style="fill: #1a1a1a; stroke: #1a1a1a; stroke-width: 0.8"/>
      </g>
     </g>
    </g>
    <g id="xtick_3">
     <g id="line2d_3">
      <g>
       <use xlink:href="#m46c3b40793" x="183.378474" y="86.226135" style="fill: #1a1a1a; stroke: #1a1a1a; stroke-width: 0.8"/>
      </g>
     </g>
    </g>
    <g id="xtick_4">
     <g id="line2d_4">
      <g>
       <use xlink:href="#m46c3b40793" x="266.275916" y="86.226135" style="fill: #1a1a1a; stroke: #1a1a1a; stroke-width: 0.8"/>
      </g>
     </g>
    </g>
    <g id="xtick_5">
     <g id="line2d_5">
      <g>
       <use xlink:href="#m46c3b40793" x="349.173357" y="86.226135" style="fill: #1a1a1a; stroke: #1a1a1a; stroke-width: 0.8"/>
      </g>
     </g>
    </g>
   </g>
   <g id="matplotlib.axis_2"/>
   <g id="line2d_6">
    <path d="M 17.583591 28.003734 
L 27.564554 28.112118 
L 37.545516 28.436303 
L 47.526479 28.973393 
L 57.507442 29.718587 
L 68.597401 30.782494 
L 79.68736 32.083322 
L 90.777318 33.606724 
L 102.976273 35.519415 
L 115.175228 37.655521 
L 128.483178 40.207056 
L 144.00912 43.422739 
L 162.86205 47.577189 
L 230.510799 62.73956 
L 244.927745 65.621383 
L 258.235696 68.06181 
L 270.43465 70.079405 
L 282.633605 71.859273 
L 293.723564 73.250993 
L 304.813522 74.411226 
L 314.794485 75.246883 
L 324.775448 75.877167 
L 334.756411 76.296448 
L 344.737374 76.500979 
L 349.173357 76.522401 
L 349.173357 76.522401 
" clip-path="url(#pfe26737a60)" style="fill: none; stroke: #7a2e2e; stroke-width: 1.8; stroke-linecap: square"/>
   </g>
   <g id="line2d_7">
    <path d="M 17.583591 76.522401 
L 27.564554 76.414016 
L 37.545516 76.089831 
L 47.526479 75.552742 
L 57.507442 74.807548 
L 68.597401 73.743641 
L 79.68736 72.442812 
L 90.777318 70.919411 
L 102.976273 69.006719 
L 115.175228 66.870614 
L 128.483178 64.319079 
L 144.00912 61.103395 
L 162.86205 56.948945 
L 230.510799 41.786574 
L 244.927745 38.904752 
L 258.235696 36.464324 
L 270.43465 34.44673 
L 282.633605 32.666862 
L 293.723564 31.275141 
L 304.813522 30.114908 
L 314.794485 29.279252 
L 324.775448 28.648967 
L 334.756411 28.229686 
L 344.737374 28.025156 
L 349.173357 28.003734 
L 349.173357 28.003734 
" clip-path="url(#pfe26737a60)" style="fill: none; stroke: #7a2e2e; stroke-opacity: 0.55; stroke-linecap: square"/>
   </g>
   <g id="line2d_8">
    <path d="M 17.583591 86.226135 
L 17.583591 18.3 
" clip-path="url(#pfe26737a60)" style="fill: none; stroke: #1a1a1a; stroke-width: 4; stroke-linecap: square"/>
   </g>
   <g id="line2d_9">
    <path d="M 349.173357 86.226135 
L 349.173357 18.3 
" clip-path="url(#pfe26737a60)" style="fill: none; stroke: #1a1a1a; stroke-width: 4; stroke-linecap: square"/>
   </g>
   <g id="patch_3">
    <path d="M 17.583591 86.226135 
L 349.173357 86.226135 
" style="fill: none; stroke: #1a1a1a; stroke-width: 0.9; stroke-linejoin: miter; stroke-linecap: square"/>
   </g>
   <g id="text_1">
    <!-- $n = 1$ · $f \approx 86$ Hz -->
    <g style="fill: #1a1a1a" transform="translate(359.12105 54.884474)">
     <text>
      <tspan x="0" y="-0.78125" style="font-style: oblique; font-size: 9.5px; font-family: 'DejaVu Sans'; fill: #1a1a1a">n</tspan>
      <tspan x="32.786133" y="-0.78125" style="font-style: oblique; font-size: 9.5px; font-family: 'DejaVu Sans'; fill: #1a1a1a">f</tspan>
      <tspan x="7.871826" y="-0.78125" style="font-size: 9.5px; font-family: 'DejaVu Sans'; fill: #1a1a1a">=</tspan>
      <tspan x="17.682617" y="-0.78125" style="font-size: 9.5px; font-family: 'DejaVu Sans'; fill: #1a1a1a">1</tspan>
      <tspan x="37.981445" y="-0.78125" style="font-size: 9.5px; font-family: 'DejaVu Sans'; fill: #1a1a1a">≈</tspan>
      <tspan x="47.792236" y="-0.78125" style="font-size: 9.5px; font-family: 'DejaVu Sans'; fill: #1a1a1a">8</tspan>
      <tspan x="53.836426" y="-0.78125" style="font-size: 9.5px; font-family: 'DejaVu Sans'; fill: #1a1a1a">6</tspan>
      <tspan x="23.726807" y="-0.78125" style="font-size: 9.5px; font-family: 'DejaVu Serif'; fill: #1a1a1a"> </tspan>
      <tspan x="26.746582" y="-0.78125" style="font-size: 9.5px; font-family: 'DejaVu Serif'; fill: #1a1a1a">·</tspan>
      <tspan x="29.766357" y="-0.78125" style="font-size: 9.5px; font-family: 'DejaVu Serif'; fill: #1a1a1a"> </tspan>
      <tspan x="59.880615" y="-0.78125" style="font-size: 9.5px; font-family: 'DejaVu Serif'; fill: #1a1a1a"> </tspan>
      <tspan x="62.900391" y="-0.78125" style="font-size: 9.5px; font-family: 'DejaVu Serif'; fill: #1a1a1a">H</tspan>
      <tspan x="71.185059" y="-0.78125" style="font-size: 9.5px; font-family: 'DejaVu Serif'; fill: #1a1a1a">z</tspan>
     </text>
    </g>
   </g>
   <g id="patch_4">
    <path d="M 60.004667 28.146905 
Q 41.452143 28.654444 23.905473 29.134466 
" style="fill: none; stroke: #8a8a8a; stroke-width: 0.9; stroke-linecap: round"/>
    <path d="M 27.148031 30.646358 
L 23.905473 29.134466 
L 27.060522 27.447555 
" style="fill: none; stroke: #8a8a8a; stroke-width: 0.9; stroke-linecap: round"/>
   </g>
   <g id="text_2">
    <text style="font-size: 8px; font-family: 'DejaVu Serif', serif; fill: #1a1a1a" transform="translate(64.006158 20.200017)">en la pared, la presión</text>
    <text style="font-size: 8px; font-family: 'DejaVu Serif', serif; fill: #1a1a1a" transform="translate(64.006158 29.158267)">es máxima (el aire</text>
    <text style="font-size: 8px; font-family: 'DejaVu Serif', serif; fill: #1a1a1a" transform="translate(64.006158 38.116517)">no puede moverse)</text>
   </g>
   <g id="text_3">
    <!-- Dos paredes paralelas separadas $L$ = 2 m (una ducha): $f = v\,n/2L$ -->
    <g transform="translate(54.17226 12.3)">
     <text>
      <tspan x="0" y="-0.015625" style="font-weight: 700; font-size: 10.5px; font-family: 'DejaVu Serif'">D</tspan>
      <tspan x="9.105469" y="-0.015625" style="font-weight: 700; font-size: 10.5px; font-family: 'DejaVu Serif'">o</tspan>
      <tspan x="16.108887" y="-0.015625" style="font-weight: 700; font-size: 10.5px; font-family: 'DejaVu Serif'">s</tspan>
      <tspan x="22.020264" y="-0.015625" style="font-weight: 700; font-size: 10.5px; font-family: 'DejaVu Serif'"> </tspan>
      <tspan x="25.675781" y="-0.015625" style="font-weight: 700; font-size: 10.5px; font-family: 'DejaVu Serif'">p</tspan>
      <tspan x="33.017578" y="-0.015625" style="font-weight: 700; font-size: 10.5px; font-family: 'DejaVu Serif'">a</tspan>
      <tspan x="39.821045" y="-0.015625" style="font-weight: 700; font-size: 10.5px; font-family: 'DejaVu Serif'">r</tspan>
      <tspan x="45.353027" y="-0.015625" style="font-weight: 700; font-size: 10.5px; font-family: 'DejaVu Serif'">e</tspan>
      <tspan x="52.033447" y="-0.015625" style="font-weight: 700; font-size: 10.5px; font-family: 'DejaVu Serif'">d</tspan>
      <tspan x="59.375244" y="-0.015625" style="font-weight: 700; font-size: 10.5px; font-family: 'DejaVu Serif'">e</tspan>
      <tspan x="66.055664" y="-0.015625" style="font-weight: 700; font-size: 10.5px; font-family: 'DejaVu Serif'">s</tspan>
      <tspan x="71.967041" y="-0.015625" style="font-weight: 700; font-size: 10.5px; font-family: 'DejaVu Serif'"> </tspan>
      <tspan x="75.622559" y="-0.015625" style="font-weight: 700; font-size: 10.5px; font-family: 'DejaVu Serif'">p</tspan>
      <tspan x="82.964355" y="-0.015625" style="font-weight: 700; font-size: 10.5px; font-family: 'DejaVu Serif'">a</tspan>
      <tspan x="89.767822" y="-0.015625" style="font-weight: 700; font-size: 10.5px; font-family: 'DejaVu Serif'">r</tspan>
      <tspan x="95.299805" y="-0.015625" style="font-weight: 700; font-size: 10.5px; font-family: 'DejaVu Serif'">a</tspan>
      <tspan x="102.103271" y="-0.015625" style="font-weight: 700; font-size: 10.5px; font-family: 'DejaVu Serif'">l</tspan>
      <tspan x="106.092041" y="-0.015625" style="font-weight: 700; font-size: 10.5px; font-family: 'DejaVu Serif'">e</tspan>
      <tspan x="112.772461" y="-0.015625" style="font-weight: 700; font-size: 10.5px; font-family: 'DejaVu Serif'">l</tspan>
      <tspan x="116.76123" y="-0.015625" style="font-weight: 700; font-size: 10.5px; font-family: 'DejaVu Serif'">a</tspan>
      <tspan x="123.564697" y="-0.015625" style="font-weight: 700; font-size: 10.5px; font-family: 'DejaVu Serif'">s</tspan>
      <tspan x="129.476074" y="-0.015625" style="font-weight: 700; font-size: 10.5px; font-family: 'DejaVu Serif'"> </tspan>
      <tspan x="133.131592" y="-0.015625" style="font-weight: 700; font-size: 10.5px; font-family: 'DejaVu Serif'">s</tspan>
      <tspan x="139.042969" y="-0.015625" style="font-weight: 700; font-size: 10.5px; font-family: 'DejaVu Serif'">e</tspan>
      <tspan x="145.723389" y="-0.015625" style="font-weight: 700; font-size: 10.5px; font-family: 'DejaVu Serif'">p</tspan>
      <tspan x="153.065186" y="-0.015625" style="font-weight: 700; font-size: 10.5px; font-family: 'DejaVu Serif'">a</tspan>
      <tspan x="159.868652" y="-0.015625" style="font-weight: 700; font-size: 10.5px; font-family: 'DejaVu Serif'">r</tspan>
      <tspan x="165.400635" y="-0.015625" style="font-weight: 700; font-size: 10.5px; font-family: 'DejaVu Serif'">a</tspan>
      <tspan x="172.204102" y="-0.015625" style="font-weight: 700; font-size: 10.5px; font-family: 'DejaVu Serif'">d</tspan>
      <tspan x="179.545898" y="-0.015625" style="font-weight: 700; font-size: 10.5px; font-family: 'DejaVu Serif'">a</tspan>
      <tspan x="186.349365" y="-0.015625" style="font-weight: 700; font-size: 10.5px; font-family: 'DejaVu Serif'">s</tspan>
      <tspan x="192.260742" y="-0.015625" style="font-weight: 700; font-size: 10.5px; font-family: 'DejaVu Serif'"> </tspan>
      <tspan x="201.766113" y="-0.015625" style="font-weight: 700; font-size: 10.5px; font-family: 'DejaVu Serif'"> </tspan>
      <tspan x="205.421631" y="-0.015625" style="font-weight: 700; font-size: 10.5px; font-family: 'DejaVu Serif'">=</tspan>
      <tspan x="214.219482" y="-0.015625" style="font-weight: 700; font-size: 10.5px; font-family: 'DejaVu Serif'"> </tspan>
      <tspan x="217.875" y="-0.015625" style="font-weight: 700; font-size: 10.5px; font-family: 'DejaVu Serif'">2</tspan>
      <tspan x="225.180908" y="-0.015625" style="font-weight: 700; font-size: 10.5px; font-family: 'DejaVu Serif'"> </tspan>
      <tspan x="228.836426" y="-0.015625" style="font-weight: 700; font-size: 10.5px; font-family: 'DejaVu Serif'">m</tspan>
      <tspan x="239.946533" y="-0.015625" style="font-weight: 700; font-size: 10.5px; font-family: 'DejaVu Serif'"> </tspan>
      <tspan x="243.602051" y="-0.015625" style="font-weight: 700; font-size: 10.5px; font-family: 'DejaVu Serif'">(</tspan>
      <tspan x="248.570068" y="-0.015625" style="font-weight: 700; font-size: 10.5px; font-family: 'DejaVu Serif'">u</tspan>
      <tspan x="256.204102" y="-0.015625" style="font-weight: 700; font-size: 10.5px; font-family: 'DejaVu Serif'">n</tspan>
      <tspan x="263.838135" y="-0.015625" style="font-weight: 700; font-size: 10.5px; font-family: 'DejaVu Serif'">a</tspan>
      <tspan x="270.641602" y="-0.015625" style="font-weight: 700; font-size: 10.5px; font-family: 'DejaVu Serif'"> </tspan>
      <tspan x="274.297119" y="-0.015625" style="font-weight: 700; font-size: 10.5px; font-family: 'DejaVu Serif'">d</tspan>
      <tspan x="281.638916" y="-0.015625" style="font-weight: 700; font-size: 10.5px; font-family: 'DejaVu Serif'">u</tspan>
      <tspan x="289.272949" y="-0.015625" style="font-weight: 700; font-size: 10.5px; font-family: 'DejaVu Serif'">c</tspan>
      <tspan x="295.66626" y="-0.015625" style="font-weight: 700; font-size: 10.5px; font-family: 'DejaVu Serif'">h</tspan>
      <tspan x="303.300293" y="-0.015625" style="font-weight: 700; font-size: 10.5px; font-family: 'DejaVu Serif'">a</tspan>
      <tspan x="310.10376" y="-0.015625" style="font-weight: 700; font-size: 10.5px; font-family: 'DejaVu Serif'">)</tspan>
      <tspan x="315.071777" y="-0.015625" style="font-weight: 700; font-size: 10.5px; font-family: 'DejaVu Serif'">:</tspan>
      <tspan x="318.947754" y="-0.015625" style="font-weight: 700; font-size: 10.5px; font-family: 'DejaVu Serif'"> </tspan>
      <tspan x="195.91626" y="-0.015625" style="font-style: oblique; font-size: 10.5px; font-family: 'DejaVu Sans'">L</tspan>
      <tspan x="322.603271" y="-0.015625" style="font-style: oblique; font-size: 10.5px; font-family: 'DejaVu Sans'">f</tspan>
      <tspan x="339.188965" y="-0.015625" style="font-style: oblique; font-size: 10.5px; font-family: 'DejaVu Sans'">v</tspan>
      <tspan x="347.107578" y="-0.015625" style="font-style: oblique; font-size: 10.5px; font-family: 'DejaVu Sans'">n</tspan>
      <tspan x="363.605381" y="-0.015625" style="font-style: oblique; font-size: 10.5px; font-family: 'DejaVu Sans'">L</tspan>
      <tspan x="328.345459" y="-0.015625" style="font-size: 10.5px; font-family: 'DejaVu Sans'">=</tspan>
      <tspan x="353.762363" y="-0.015625" style="font-size: 10.5px; font-family: 'DejaVu Sans'">/</tspan>
      <tspan x="356.924961" y="-0.015625" style="font-size: 10.5px; font-family: 'DejaVu Sans'">2</tspan>
     </text>
    </g>
   </g>
  </g>
  <g id="axes_2">
   <g id="patch_5">
    <path d="M 4.32 163.652749 
L 473.51952 163.652749 
L 473.51952 95.726615 
L 4.32 95.726615 
z
" style="fill: #ffffff"/>
   </g>
   <g id="FillBetweenPolyCollection_2">
    <defs>
     <path id="mca491026fb" d="M 17.583591 -122.290504 
L 17.583591 -170.809172 
L 18.692587 -170.803816 
L 19.801582 -170.78775 
L 20.910578 -170.760981 
L 22.019574 -170.723521 
L 23.12857 -170.675387 
L 24.237566 -170.6166 
L 25.346562 -170.547185 
L 26.455558 -170.467174 
L 27.564554 -170.376602 
L 28.673549 -170.275508 
L 29.782545 -170.163938 
L 30.891541 -170.041941 
L 32.000537 -169.90957 
L 33.109533 -169.766884 
L 34.218529 -169.613946 
L 35.327525 -169.450824 
L 36.436521 -169.277589 
L 37.545516 -169.094318 
L 38.654512 -168.901093 
L 39.763508 -168.697997 
L 40.872504 -168.485122 
L 41.9815 -168.262561 
L 43.090496 -168.030411 
L 44.199492 -167.788777 
L 45.308488 -167.537764 
L 46.417483 -167.277484 
L 47.526479 -167.00805 
L 48.635475 -166.729583 
L 49.744471 -166.442205 
L 50.853467 -166.146044 
L 51.962463 -165.841229 
L 53.071459 -165.527895 
L 54.180455 -165.206182 
L 55.28945 -164.87623 
L 56.398446 -164.538186 
L 57.507442 -164.192199 
L 58.616438 -163.838421 
L 59.725434 -163.477009 
L 60.83443 -163.108123 
L 61.943426 -162.731925 
L 63.052422 -162.348581 
L 64.161417 -161.958261 
L 65.270413 -161.561137 
L 66.379409 -161.157385 
L 67.488405 -160.747182 
L 68.597401 -160.33071 
L 69.706397 -159.908153 
L 70.815393 -159.479698 
L 71.924389 -159.045532 
L 73.033384 -158.60585 
L 74.14238 -158.160843 
L 75.251376 -157.710709 
L 76.360372 -157.255648 
L 77.469368 -156.795858 
L 78.578364 -156.331545 
L 79.68736 -155.862912 
L 80.796356 -155.390166 
L 81.905351 -154.913517 
L 83.014347 -154.433175 
L 84.123343 -153.949352 
L 85.232339 -153.462261 
L 86.341335 -152.972118 
L 87.450331 -152.479139 
L 88.559327 -151.983542 
L 89.668323 -151.485545 
L 90.777318 -150.98537 
L 91.886314 -150.483235 
L 92.99531 -149.979364 
L 94.104306 -149.473978 
L 95.213302 -148.967301 
L 96.322298 -148.459556 
L 97.431294 -147.950968 
L 98.54029 -147.441762 
L 99.649285 -146.932161 
L 100.758281 -146.422392 
L 101.867277 -145.912679 
L 102.976273 -145.403248 
L 104.085269 -144.894323 
L 105.194265 -144.386128 
L 106.303261 -143.87889 
L 107.412257 -143.37283 
L 108.521252 -142.868174 
L 109.630248 -142.365143 
L 110.739244 -141.86396 
L 111.84824 -141.364846 
L 112.957236 -140.868022 
L 114.066232 -140.373707 
L 115.175228 -139.882119 
L 116.284224 -139.393475 
L 117.393219 -138.907991 
L 118.502215 -138.425882 
L 119.611211 -137.94736 
L 120.720207 -137.472636 
L 121.829203 -137.001921 
L 122.938199 -136.535422 
L 124.047195 -136.073345 
L 125.156191 -135.615894 
L 126.265186 -135.163271 
L 127.374182 -134.715677 
L 128.483178 -134.273308 
L 129.592174 -133.836359 
L 130.70117 -133.405025 
L 131.810166 -132.979495 
L 132.919162 -132.559958 
L 134.028158 -132.146598 
L 135.137153 -131.739598 
L 136.246149 -131.339137 
L 137.355145 -130.945394 
L 138.464141 -130.558541 
L 139.573137 -130.178749 
L 140.682133 -129.806186 
L 141.791129 -129.441017 
L 142.900125 -129.083402 
L 144.00912 -128.733501 
L 145.118116 -128.391466 
L 146.227112 -128.05745 
L 147.336108 -127.731599 
L 148.445104 -127.414058 
L 149.5541 -127.104967 
L 150.663096 -126.804462 
L 151.772092 -126.512676 
L 152.881087 -126.229738 
L 153.990083 -125.955772 
L 155.099079 -125.690901 
L 156.208075 -125.43524 
L 157.317071 -125.188903 
L 158.426067 -124.951998 
L 159.535063 -124.72463 
L 160.644059 -124.5069 
L 161.753054 -124.298903 
L 162.86205 -124.100732 
L 163.971046 -123.912473 
L 165.080042 -123.73421 
L 166.189038 -123.566023 
L 167.298034 -123.407984 
L 168.40703 -123.260164 
L 169.516026 -123.122628 
L 170.625021 -122.995436 
L 171.734017 -122.878646 
L 172.843013 -122.772309 
L 173.952009 -122.67647 
L 175.061005 -122.591174 
L 176.170001 -122.516457 
L 177.278997 -122.452353 
L 178.387993 -122.398889 
L 179.496988 -122.35609 
L 180.605984 -122.323974 
L 181.71498 -122.302555 
L 182.823976 -122.291843 
L 183.932972 -122.291843 
L 185.041968 -122.302555 
L 186.150964 -122.323974 
L 187.25996 -122.35609 
L 188.368956 -122.398889 
L 189.477951 -122.452353 
L 190.586947 -122.516457 
L 191.695943 -122.591174 
L 192.804939 -122.67647 
L 193.913935 -122.772309 
L 195.022931 -122.878646 
L 196.131927 -122.995436 
L 197.240923 -123.122628 
L 198.349918 -123.260164 
L 199.458914 -123.407984 
L 200.56791 -123.566023 
L 201.676906 -123.73421 
L 202.785902 -123.912473 
L 203.894898 -124.100732 
L 205.003894 -124.298903 
L 206.11289 -124.5069 
L 207.221885 -124.72463 
L 208.330881 -124.951998 
L 209.439877 -125.188903 
L 210.548873 -125.43524 
L 211.657869 -125.690901 
L 212.766865 -125.955772 
L 213.875861 -126.229738 
L 214.984857 -126.512676 
L 216.093852 -126.804462 
L 217.202848 -127.104967 
L 218.311844 -127.414058 
L 219.42084 -127.731599 
L 220.529836 -128.05745 
L 221.638832 -128.391466 
L 222.747828 -128.733501 
L 223.856824 -129.083402 
L 224.965819 -129.441017 
L 226.074815 -129.806186 
L 227.183811 -130.178749 
L 228.292807 -130.558541 
L 229.401803 -130.945394 
L 230.510799 -131.339137 
L 231.619795 -131.739598 
L 232.728791 -132.146598 
L 233.837786 -132.559958 
L 234.946782 -132.979495 
L 236.055778 -133.405025 
L 237.164774 -133.836359 
L 238.27377 -134.273308 
L 239.382766 -134.715677 
L 240.491762 -135.163271 
L 241.600758 -135.615894 
L 242.709753 -136.073345 
L 243.818749 -136.535422 
L 244.927745 -137.001921 
L 246.036741 -137.472636 
L 247.145737 -137.94736 
L 248.254733 -138.425882 
L 249.363729 -138.907991 
L 250.472725 -139.393475 
L 251.58172 -139.882119 
L 252.690716 -140.373707 
L 253.799712 -140.868022 
L 254.908708 -141.364846 
L 256.017704 -141.86396 
L 257.1267 -142.365143 
L 258.235696 -142.868174 
L 259.344692 -143.37283 
L 260.453687 -143.87889 
L 261.562683 -144.386128 
L 262.671679 -144.894323 
L 263.780675 -145.403248 
L 264.889671 -145.912679 
L 265.998667 -146.422392 
L 267.107663 -146.932161 
L 268.216659 -147.441762 
L 269.325654 -147.950968 
L 270.43465 -148.459556 
L 271.543646 -148.967301 
L 272.652642 -149.473978 
L 273.761638 -149.979364 
L 274.870634 -150.483235 
L 275.97963 -150.98537 
L 277.088626 -151.485545 
L 278.197621 -151.983542 
L 279.306617 -152.479139 
L 280.415613 -152.972118 
L 281.524609 -153.462261 
L 282.633605 -153.949352 
L 283.742601 -154.433175 
L 284.851597 -154.913517 
L 285.960593 -155.390166 
L 287.069588 -155.862912 
L 288.178584 -156.331545 
L 289.28758 -156.795858 
L 290.396576 -157.255648 
L 291.505572 -157.710709 
L 292.614568 -158.160843 
L 293.723564 -158.60585 
L 294.83256 -159.045532 
L 295.941555 -159.479698 
L 297.050551 -159.908153 
L 298.159547 -160.33071 
L 299.268543 -160.747182 
L 300.377539 -161.157385 
L 301.486535 -161.561137 
L 302.595531 -161.958261 
L 303.704527 -162.348581 
L 304.813522 -162.731925 
L 305.922518 -163.108123 
L 307.031514 -163.477009 
L 308.14051 -163.838421 
L 309.249506 -164.192199 
L 310.358502 -164.538186 
L 311.467498 -164.87623 
L 312.576494 -165.206182 
L 313.685489 -165.527895 
L 314.794485 -165.841229 
L 315.903481 -166.146044 
L 317.012477 -166.442205 
L 318.121473 -166.729583 
L 319.230469 -167.00805 
L 320.339465 -167.277484 
L 321.448461 -167.537764 
L 322.557456 -167.788777 
L 323.666452 -168.030411 
L 324.775448 -168.262561 
L 325.884444 -168.485122 
L 326.99344 -168.697997 
L 328.102436 -168.901093 
L 329.211432 -169.094318 
L 330.320428 -169.277589 
L 331.429423 -169.450824 
L 332.538419 -169.613946 
L 333.647415 -169.766884 
L 334.756411 -169.90957 
L 335.865407 -170.041941 
L 336.974403 -170.163938 
L 338.083399 -170.275508 
L 339.192395 -170.376602 
L 340.30139 -170.467174 
L 341.410386 -170.547185 
L 342.519382 -170.6166 
L 343.628378 -170.675387 
L 344.737374 -170.723521 
L 345.84637 -170.760981 
L 346.955366 -170.78775 
L 348.064362 -170.803816 
L 349.173357 -170.809172 
L 349.173357 -122.290504 
L 349.173357 -122.290504 
L 348.064362 -122.29586 
L 346.955366 -122.311926 
L 345.84637 -122.338695 
L 344.737374 -122.376155 
L 343.628378 -122.424289 
L 342.519382 -122.483076 
L 341.410386 -122.552491 
L 340.30139 -122.632502 
L 339.192395 -122.723074 
L 338.083399 -122.824168 
L 336.974403 -122.935738 
L 335.865407 -123.057735 
L 334.756411 -123.190106 
L 333.647415 -123.332792 
L 332.538419 -123.48573 
L 331.429423 -123.648852 
L 330.320428 -123.822087 
L 329.211432 -124.005358 
L 328.102436 -124.198584 
L 326.99344 -124.401679 
L 325.884444 -124.614554 
L 324.775448 -124.837116 
L 323.666452 -125.069265 
L 322.557456 -125.310899 
L 321.448461 -125.561912 
L 320.339465 -125.822193 
L 319.230469 -126.091626 
L 318.121473 -126.370093 
L 317.012477 -126.657471 
L 315.903481 -126.953633 
L 314.794485 -127.258447 
L 313.685489 -127.571781 
L 312.576494 -127.893495 
L 311.467498 -128.223446 
L 310.358502 -128.56149 
L 309.249506 -128.907478 
L 308.14051 -129.261255 
L 307.031514 -129.622667 
L 305.922518 -129.991554 
L 304.813522 -130.367752 
L 303.704527 -130.751095 
L 302.595531 -131.141415 
L 301.486535 -131.538539 
L 300.377539 -131.942291 
L 299.268543 -132.352494 
L 298.159547 -132.768966 
L 297.050551 -133.191523 
L 295.941555 -133.619979 
L 294.83256 -134.054144 
L 293.723564 -134.493827 
L 292.614568 -134.938833 
L 291.505572 -135.388967 
L 290.396576 -135.844029 
L 289.28758 -136.303818 
L 288.178584 -136.768132 
L 287.069588 -137.236765 
L 285.960593 -137.70951 
L 284.851597 -138.186159 
L 283.742601 -138.666501 
L 282.633605 -139.150325 
L 281.524609 -139.637415 
L 280.415613 -140.127558 
L 279.306617 -140.620537 
L 278.197621 -141.116134 
L 277.088626 -141.614131 
L 275.97963 -142.114307 
L 274.870634 -142.616441 
L 273.761638 -143.120313 
L 272.652642 -143.625699 
L 271.543646 -144.132376 
L 270.43465 -144.64012 
L 269.325654 -145.148708 
L 268.216659 -145.657914 
L 267.107663 -146.167515 
L 265.998667 -146.677284 
L 264.889671 -147.186997 
L 263.780675 -147.696428 
L 262.671679 -148.205354 
L 261.562683 -148.713548 
L 260.453687 -149.220787 
L 259.344692 -149.726846 
L 258.235696 -150.231502 
L 257.1267 -150.734533 
L 256.017704 -151.235716 
L 254.908708 -151.73483 
L 253.799712 -152.231654 
L 252.690716 -152.725969 
L 251.58172 -153.217558 
L 250.472725 -153.706201 
L 249.363729 -154.191685 
L 248.254733 -154.673794 
L 247.145737 -155.152316 
L 246.036741 -155.62704 
L 244.927745 -156.097755 
L 243.818749 -156.564254 
L 242.709753 -157.026331 
L 241.600758 -157.483782 
L 240.491762 -157.936405 
L 239.382766 -158.384 
L 238.27377 -158.826369 
L 237.164774 -159.263317 
L 236.055778 -159.694651 
L 234.946782 -160.120181 
L 233.837786 -160.539719 
L 232.728791 -160.953079 
L 231.619795 -161.360079 
L 230.510799 -161.760539 
L 229.401803 -162.154282 
L 228.292807 -162.541135 
L 227.183811 -162.920927 
L 226.074815 -163.29349 
L 224.965819 -163.658659 
L 223.856824 -164.016274 
L 222.747828 -164.366176 
L 221.638832 -164.70821 
L 220.529836 -165.042227 
L 219.42084 -165.368077 
L 218.311844 -165.685618 
L 217.202848 -165.99471 
L 216.093852 -166.295214 
L 214.984857 -166.587 
L 213.875861 -166.869938 
L 212.766865 -167.143904 
L 211.657869 -167.408775 
L 210.548873 -167.664436 
L 209.439877 -167.910773 
L 208.330881 -168.147678 
L 207.221885 -168.375046 
L 206.11289 -168.592776 
L 205.003894 -168.800773 
L 203.894898 -168.998945 
L 202.785902 -169.187203 
L 201.676906 -169.365466 
L 200.56791 -169.533654 
L 199.458914 -169.691693 
L 198.349918 -169.839513 
L 197.240923 -169.977049 
L 196.131927 -170.10424 
L 195.022931 -170.22103 
L 193.913935 -170.327368 
L 192.804939 -170.423206 
L 191.695943 -170.508502 
L 190.586947 -170.583219 
L 189.477951 -170.647324 
L 188.368956 -170.700787 
L 187.25996 -170.743587 
L 186.150964 -170.775703 
L 185.041968 -170.797121 
L 183.932972 -170.807833 
L 182.823976 -170.807833 
L 181.71498 -170.797121 
L 180.605984 -170.775703 
L 179.496988 -170.743587 
L 178.387993 -170.700787 
L 177.278997 -170.647324 
L 176.170001 -170.583219 
L 175.061005 -170.508502 
L 173.952009 -170.423206 
L 172.843013 -170.327368 
L 171.734017 -170.22103 
L 170.625021 -170.10424 
L 169.516026 -169.977049 
L 168.40703 -169.839513 
L 167.298034 -169.691693 
L 166.189038 -169.533654 
L 165.080042 -169.365466 
L 163.971046 -169.187203 
L 162.86205 -168.998945 
L 161.753054 -168.800773 
L 160.644059 -168.592776 
L 159.535063 -168.375046 
L 158.426067 -168.147678 
L 157.317071 -167.910773 
L 156.208075 -167.664436 
L 155.099079 -167.408775 
L 153.990083 -167.143904 
L 152.881087 -166.869938 
L 151.772092 -166.587 
L 150.663096 -166.295214 
L 149.5541 -165.99471 
L 148.445104 -165.685618 
L 147.336108 -165.368077 
L 146.227112 -165.042227 
L 145.118116 -164.70821 
L 144.00912 -164.366176 
L 142.900125 -164.016274 
L 141.791129 -163.658659 
L 140.682133 -163.29349 
L 139.573137 -162.920927 
L 138.464141 -162.541135 
L 137.355145 -162.154282 
L 136.246149 -161.760539 
L 135.137153 -161.360079 
L 134.028158 -160.953079 
L 132.919162 -160.539719 
L 131.810166 -160.120181 
L 130.70117 -159.694651 
L 129.592174 -159.263317 
L 128.483178 -158.826369 
L 127.374182 -158.384 
L 126.265186 -157.936405 
L 125.156191 -157.483782 
L 124.047195 -157.026331 
L 122.938199 -156.564254 
L 121.829203 -156.097755 
L 120.720207 -155.62704 
L 119.611211 -155.152316 
L 118.502215 -154.673794 
L 117.393219 -154.191685 
L 116.284224 -153.706201 
L 115.175228 -153.217558 
L 114.066232 -152.725969 
L 112.957236 -152.231654 
L 111.84824 -151.73483 
L 110.739244 -151.235716 
L 109.630248 -150.734533 
L 108.521252 -150.231502 
L 107.412257 -149.726846 
L 106.303261 -149.220787 
L 105.194265 -148.713548 
L 104.085269 -148.205354 
L 102.976273 -147.696428 
L 101.867277 -147.186997 
L 100.758281 -146.677284 
L 99.649285 -146.167515 
L 98.54029 -145.657914 
L 97.431294 -145.148708 
L 96.322298 -144.64012 
L 95.213302 -144.132376 
L 94.104306 -143.625699 
L 92.99531 -143.120313 
L 91.886314 -142.616441 
L 90.777318 -142.114307 
L 89.668323 -141.614131 
L 88.559327 -141.116134 
L 87.450331 -140.620537 
L 86.341335 -140.127558 
L 85.232339 -139.637415 
L 84.123343 -139.150325 
L 83.014347 -138.666501 
L 81.905351 -138.186159 
L 80.796356 -137.70951 
L 79.68736 -137.236765 
L 78.578364 -136.768132 
L 77.469368 -136.303818 
L 76.360372 -135.844029 
L 75.251376 -135.388967 
L 74.14238 -134.938833 
L 73.033384 -134.493827 
L 71.924389 -134.054144 
L 70.815393 -133.619979 
L 69.706397 -133.191523 
L 68.597401 -132.768966 
L 67.488405 -132.352494 
L 66.379409 -131.942291 
L 65.270413 -131.538539 
L 64.161417 -131.141415 
L 63.052422 -130.751095 
L 61.943426 -130.367752 
L 60.83443 -129.991554 
L 59.725434 -129.622667 
L 58.616438 -129.261255 
L 57.507442 -128.907478 
L 56.398446 -128.56149 
L 55.28945 -128.223446 
L 54.180455 -127.893495 
L 53.071459 -127.571781 
L 51.962463 -127.258447 
L 50.853467 -126.953633 
L 49.744471 -126.657471 
L 48.635475 -126.370093 
L 47.526479 -126.091626 
L 46.417483 -125.822193 
L 45.308488 -125.561912 
L 44.199492 -125.310899 
L 43.090496 -125.069265 
L 41.9815 -124.837116 
L 40.872504 -124.614554 
L 39.763508 -124.401679 
L 38.654512 -124.198584 
L 37.545516 -124.005358 
L 36.436521 -123.822087 
L 35.327525 -123.648852 
L 34.218529 -123.48573 
L 33.109533 -123.332792 
L 32.000537 -123.190106 
L 30.891541 -123.057735 
L 29.782545 -122.935738 
L 28.673549 -122.824168 
L 27.564554 -122.723074 
L 26.455558 -122.632502 
L 25.346562 -122.552491 
L 24.237566 -122.483076 
L 23.12857 -122.424289 
L 22.019574 -122.376155 
L 20.910578 -122.338695 
L 19.801582 -122.311926 
L 18.692587 -122.29586 
L 17.583591 -122.290504 
z
" style="stroke: #f0ece4"/>
    </defs>
    <g clip-path="url(#pc5140ed8e1)">
     <use xlink:href="#mca491026fb" x="0" y="276.23952" style="fill: #f0ece4; stroke: #f0ece4"/>
    </g>
   </g>
   <g id="matplotlib.axis_3">
    <g id="xtick_6">
     <g id="line2d_10">
      <g>
       <use xlink:href="#m46c3b40793" x="17.583591" y="163.652749" style="fill: #1a1a1a; stroke: #1a1a1a; stroke-width: 0.8"/>
      </g>
     </g>
    </g>
    <g id="xtick_7">
     <g id="line2d_11">
      <g>
       <use xlink:href="#m46c3b40793" x="100.481032" y="163.652749" style="fill: #1a1a1a; stroke: #1a1a1a; stroke-width: 0.8"/>
      </g>
     </g>
    </g>
    <g id="xtick_8">
     <g id="line2d_12">
      <g>
       <use xlink:href="#m46c3b40793" x="183.378474" y="163.652749" style="fill: #1a1a1a; stroke: #1a1a1a; stroke-width: 0.8"/>
      </g>
     </g>
    </g>
    <g id="xtick_9">
     <g id="line2d_13">
      <g>
       <use xlink:href="#m46c3b40793" x="266.275916" y="163.652749" style="fill: #1a1a1a; stroke: #1a1a1a; stroke-width: 0.8"/>
      </g>
     </g>
    </g>
    <g id="xtick_10">
     <g id="line2d_14">
      <g>
       <use xlink:href="#m46c3b40793" x="349.173357" y="163.652749" style="fill: #1a1a1a; stroke: #1a1a1a; stroke-width: 0.8"/>
      </g>
     </g>
    </g>
   </g>
   <g id="matplotlib.axis_4"/>
   <g id="line2d_15">
    <path d="M 17.583591 105.430348 
L 23.12857 105.564133 
L 28.673549 105.964012 
L 34.218529 106.625574 
L 39.763508 107.541523 
L 45.308488 108.701756 
L 50.853467 110.093476 
L 56.398446 111.701334 
L 63.052422 113.890939 
L 69.706397 116.331367 
L 77.469368 119.443662 
L 86.341335 123.267402 
L 98.54029 128.797758 
L 116.284224 136.846045 
L 125.156191 140.623626 
L 132.919162 143.679562 
L 139.573137 146.060771 
L 146.227112 148.18207 
L 151.772092 149.726844 
L 157.317071 151.050617 
L 162.86205 152.138788 
L 168.40703 152.979356 
L 173.952009 153.56305 
L 179.496988 153.88343 
L 185.041968 153.936965 
L 190.586947 153.723063 
L 196.131927 153.244084 
L 201.676906 152.50531 
L 207.221885 151.51489 
L 212.766865 150.283748 
L 218.311844 148.825462 
L 223.856824 147.156118 
L 230.510799 144.900383 
L 237.164774 142.403161 
L 244.927745 139.237599 
L 253.799712 135.371498 
L 268.216659 128.797758 
L 282.633605 122.290168 
L 291.505572 118.528811 
L 299.268543 115.492338 
L 305.922518 113.131397 
L 312.576494 111.033338 
L 318.121473 109.509937 
L 323.666452 108.209109 
L 329.211432 107.145202 
L 334.756411 106.32995 
L 340.30139 105.772346 
L 345.84637 105.478539 
L 349.173357 105.430348 
L 349.173357 105.430348 
" clip-path="url(#pc5140ed8e1)" style="fill: none; stroke: #7a2e2e; stroke-width: 1.8; stroke-linecap: square"/>
   </g>
   <g id="line2d_16">
    <path d="M 17.583591 153.949016 
L 23.12857 153.815231 
L 28.673549 153.415352 
L 34.218529 152.75379 
L 39.763508 151.837841 
L 45.308488 150.677608 
L 50.853467 149.285887 
L 56.398446 147.67803 
L 63.052422 145.488425 
L 69.706397 143.047997 
L 77.469368 139.935702 
L 86.341335 136.111962 
L 98.54029 130.581606 
L 116.284224 122.533319 
L 125.156191 118.755738 
L 132.919162 115.699801 
L 139.573137 113.318593 
L 146.227112 111.197293 
L 151.772092 109.65252 
L 157.317071 108.328747 
L 162.86205 107.240575 
L 168.40703 106.400007 
L 173.952009 105.816314 
L 179.496988 105.495933 
L 185.041968 105.442399 
L 190.586947 105.656301 
L 196.131927 106.13528 
L 201.676906 106.874054 
L 207.221885 107.864474 
L 212.766865 109.095616 
L 218.311844 110.553902 
L 223.856824 112.223246 
L 230.510799 114.478981 
L 237.164774 116.976203 
L 244.927745 120.141765 
L 253.799712 124.007866 
L 268.216659 130.581606 
L 282.633605 137.089195 
L 291.505572 140.850553 
L 299.268543 143.887026 
L 305.922518 146.247966 
L 312.576494 148.346025 
L 318.121473 149.869427 
L 323.666452 151.170255 
L 329.211432 152.234162 
L 334.756411 153.049414 
L 340.30139 153.607018 
L 345.84637 153.900825 
L 349.173357 153.949016 
L 349.173357 153.949016 
" clip-path="url(#pc5140ed8e1)" style="fill: none; stroke: #7a2e2e; stroke-opacity: 0.55; stroke-linecap: square"/>
   </g>
   <g id="line2d_17">
    <path d="M 17.583591 163.652749 
L 17.583591 95.726615 
" clip-path="url(#pc5140ed8e1)" style="fill: none; stroke: #1a1a1a; stroke-width: 4; stroke-linecap: square"/>
   </g>
   <g id="line2d_18">
    <path d="M 349.173357 163.652749 
L 349.173357 95.726615 
" clip-path="url(#pc5140ed8e1)" style="fill: none; stroke: #1a1a1a; stroke-width: 4; stroke-linecap: square"/>
   </g>
   <g id="patch_6">
    <path d="M 17.583591 163.652749 
L 349.173357 163.652749 
" style="fill: none; stroke: #1a1a1a; stroke-width: 0.9; stroke-linejoin: miter; stroke-linecap: square"/>
   </g>
   <g id="text_4">
    <!-- $n = 2$ · $f \approx 171$ Hz -->
    <g style="fill: #1a1a1a" transform="translate(359.12105 132.311088)">
     <text>
      <tspan x="0" y="-0.78125" style="font-style: oblique; font-size: 9.5px; font-family: 'DejaVu Sans'; fill: #1a1a1a">n</tspan>
      <tspan x="32.786133" y="-0.78125" style="font-style: oblique; font-size: 9.5px; font-family: 'DejaVu Sans'; fill: #1a1a1a">f</tspan>
      <tspan x="7.871826" y="-0.78125" style="font-size: 9.5px; font-family: 'DejaVu Sans'; fill: #1a1a1a">=</tspan>
      <tspan x="17.682617" y="-0.78125" style="font-size: 9.5px; font-family: 'DejaVu Sans'; fill: #1a1a1a">2</tspan>
      <tspan x="37.981445" y="-0.78125" style="font-size: 9.5px; font-family: 'DejaVu Sans'; fill: #1a1a1a">≈</tspan>
      <tspan x="47.792236" y="-0.78125" style="font-size: 9.5px; font-family: 'DejaVu Sans'; fill: #1a1a1a">1</tspan>
      <tspan x="53.836426" y="-0.78125" style="font-size: 9.5px; font-family: 'DejaVu Sans'; fill: #1a1a1a">7</tspan>
      <tspan x="59.880615" y="-0.78125" style="font-size: 9.5px; font-family: 'DejaVu Sans'; fill: #1a1a1a">1</tspan>
      <tspan x="23.726807" y="-0.78125" style="font-size: 9.5px; font-family: 'DejaVu Serif'; fill: #1a1a1a"> </tspan>
      <tspan x="26.746582" y="-0.78125" style="font-size: 9.5px; font-family: 'DejaVu Serif'; fill: #1a1a1a">·</tspan>
      <tspan x="29.766357" y="-0.78125" style="font-size: 9.5px; font-family: 'DejaVu Serif'; fill: #1a1a1a"> </tspan>
      <tspan x="65.924805" y="-0.78125" style="font-size: 9.5px; font-family: 'DejaVu Serif'; fill: #1a1a1a"> </tspan>
      <tspan x="68.94458" y="-0.78125" style="font-size: 9.5px; font-family: 'DejaVu Serif'; fill: #1a1a1a">H</tspan>
      <tspan x="77.229248" y="-0.78125" style="font-size: 9.5px; font-family: 'DejaVu Serif'; fill: #1a1a1a">z</tspan>
     </text>
    </g>
   </g>
  </g>
  <g id="axes_3">
   <g id="patch_7">
    <path d="M 4.32 241.079364 
L 473.51952 241.079364 
L 473.51952 173.153229 
L 4.32 173.153229 
z
" style="fill: #ffffff"/>
   </g>
   <g id="FillBetweenPolyCollection_3">
    <defs>
     <path id="m6c3f51f18c" d="M 17.583591 -44.86389 
L 17.583591 -93.382557 
L 18.692587 -93.370507 
L 19.801582 -93.334366 
L 20.910578 -93.274173 
L 22.019574 -93.189985 
L 23.12857 -93.081888 
L 24.237566 -92.949987 
L 25.346562 -92.794415 
L 26.455558 -92.615326 
L 27.564554 -92.412898 
L 28.673549 -92.187332 
L 29.782545 -91.938851 
L 30.891541 -91.667704 
L 32.000537 -91.374159 
L 33.109533 -91.058507 
L 34.218529 -90.721064 
L 35.327525 -90.362162 
L 36.436521 -89.982161 
L 37.545516 -89.581436 
L 38.654512 -89.160386 
L 39.763508 -88.719429 
L 40.872504 -88.259004 
L 41.9815 -87.779567 
L 43.090496 -87.281596 
L 44.199492 -86.765584 
L 45.308488 -86.232045 
L 46.417483 -85.681508 
L 47.526479 -85.114521 
L 48.635475 -84.531647 
L 49.744471 -83.933464 
L 50.853467 -83.320568 
L 51.962463 -82.693566 
L 53.071459 -82.053083 
L 54.180455 -81.399754 
L 55.28945 -80.734228 
L 56.398446 -80.057167 
L 57.507442 -79.369244 
L 58.616438 -78.67114 
L 59.725434 -77.963552 
L 60.83443 -77.24718 
L 61.943426 -76.522737 
L 63.052422 -75.790943 
L 64.161417 -75.052524 
L 65.270413 -74.308215 
L 66.379409 -73.558755 
L 67.488405 -72.804888 
L 68.597401 -72.047363 
L 69.706397 -71.286933 
L 70.815393 -70.524354 
L 71.924389 -69.760382 
L 73.033384 -68.995778 
L 74.14238 -68.2313 
L 75.251376 -67.467708 
L 76.360372 -66.705761 
L 77.469368 -65.946216 
L 78.578364 -65.189827 
L 79.68736 -64.437346 
L 80.796356 -63.68952 
L 81.905351 -62.947092 
L 83.014347 -62.210801 
L 84.123343 -61.481377 
L 85.232339 -60.759545 
L 86.341335 -60.046022 
L 87.450331 -59.341517 
L 88.559327 -58.646731 
L 89.668323 -57.962352 
L 90.777318 -57.289062 
L 91.886314 -56.627529 
L 92.99531 -55.978411 
L 94.104306 -55.342351 
L 95.213302 -54.719983 
L 96.322298 -54.111924 
L 97.431294 -53.518779 
L 98.54029 -52.941137 
L 99.649285 -52.379572 
L 100.758281 -51.834641 
L 101.867277 -51.306886 
L 102.976273 -50.796832 
L 104.085269 -50.304984 
L 105.194265 -49.831833 
L 106.303261 -49.377847 
L 107.412257 -48.943478 
L 108.521252 -48.529158 
L 109.630248 -48.135297 
L 110.739244 -47.762288 
L 111.84824 -47.410501 
L 112.957236 -47.080285 
L 114.066232 -46.771969 
L 115.175228 -46.485858 
L 116.284224 -46.222238 
L 117.393219 -45.981369 
L 118.502215 -45.763492 
L 119.611211 -45.568822 
L 120.720207 -45.397553 
L 121.829203 -45.249856 
L 122.938199 -45.125876 
L 124.047195 -45.025738 
L 125.156191 -44.94954 
L 126.265186 -44.897359 
L 127.374182 -44.869246 
L 128.483178 -44.865229 
L 129.592174 -44.885312 
L 130.70117 -44.929475 
L 131.810166 -44.997675 
L 132.919162 -45.089843 
L 134.028158 -45.205887 
L 135.137153 -45.345694 
L 136.246149 -45.509123 
L 137.355145 -45.696013 
L 138.464141 -45.906178 
L 139.573137 -46.139408 
L 140.682133 -46.395473 
L 141.791129 -46.674117 
L 142.900125 -46.975064 
L 144.00912 -47.298016 
L 145.118116 -47.64265 
L 146.227112 -48.008626 
L 147.336108 -48.395578 
L 148.445104 -48.803123 
L 149.5541 -49.230856 
L 150.663096 -49.678352 
L 151.772092 -50.145166 
L 152.881087 -50.630835 
L 153.990083 -51.134876 
L 155.099079 -51.656788 
L 156.208075 -52.196053 
L 157.317071 -52.752134 
L 158.426067 -53.324481 
L 159.535063 -53.912523 
L 160.644059 -54.515677 
L 161.753054 -55.133343 
L 162.86205 -55.764908 
L 163.971046 -56.409745 
L 165.080042 -57.067212 
L 166.189038 -57.736657 
L 167.298034 -58.417414 
L 168.40703 -59.108808 
L 169.516026 -59.81015 
L 170.625021 -60.520745 
L 171.734017 -61.239887 
L 172.843013 -61.96686 
L 173.952009 -62.700944 
L 175.061005 -63.441408 
L 176.170001 -64.187516 
L 177.278997 -64.938528 
L 178.387993 -65.693698 
L 179.496988 -66.452275 
L 180.605984 -67.213506 
L 181.71498 -67.976633 
L 182.823976 -68.7409 
L 183.932972 -69.505547 
L 185.041968 -70.269814 
L 186.150964 -71.032942 
L 187.25996 -71.794172 
L 188.368956 -72.552749 
L 189.477951 -73.307919 
L 190.586947 -74.058931 
L 191.695943 -74.80504 
L 192.804939 -75.545503 
L 193.913935 -76.279587 
L 195.022931 -77.00656 
L 196.131927 -77.725702 
L 197.240923 -78.436297 
L 198.349918 -79.13764 
L 199.458914 -79.829033 
L 200.56791 -80.50979 
L 201.676906 -81.179235 
L 202.785902 -81.836702 
L 203.894898 -82.481539 
L 205.003894 -83.113104 
L 206.11289 -83.73077 
L 207.221885 -84.333924 
L 208.330881 -84.921966 
L 209.439877 -85.494313 
L 210.548873 -86.050394 
L 211.657869 -86.589659 
L 212.766865 -87.111571 
L 213.875861 -87.615612 
L 214.984857 -88.101281 
L 216.093852 -88.568095 
L 217.202848 -89.015591 
L 218.311844 -89.443324 
L 219.42084 -89.850869 
L 220.529836 -90.237822 
L 221.638832 -90.603797 
L 222.747828 -90.948431 
L 223.856824 -91.271383 
L 224.965819 -91.57233 
L 226.074815 -91.850975 
L 227.183811 -92.107039 
L 228.292807 -92.34027 
L 229.401803 -92.550434 
L 230.510799 -92.737324 
L 231.619795 -92.900753 
L 232.728791 -93.04056 
L 233.837786 -93.156605 
L 234.946782 -93.248773 
L 236.055778 -93.316972 
L 237.164774 -93.361135 
L 238.27377 -93.381218 
L 239.382766 -93.377201 
L 240.491762 -93.349088 
L 241.600758 -93.296907 
L 242.709753 -93.220709 
L 243.818749 -93.120571 
L 244.927745 -92.996591 
L 246.036741 -92.848894 
L 247.145737 -92.677625 
L 248.254733 -92.482955 
L 249.363729 -92.265078 
L 250.472725 -92.024209 
L 251.58172 -91.760589 
L 252.690716 -91.474478 
L 253.799712 -91.166162 
L 254.908708 -90.835946 
L 256.017704 -90.484159 
L 257.1267 -90.11115 
L 258.235696 -89.717289 
L 259.344692 -89.302969 
L 260.453687 -88.8686 
L 261.562683 -88.414614 
L 262.671679 -87.941463 
L 263.780675 -87.449615 
L 264.889671 -86.939561 
L 265.998667 -86.411806 
L 267.107663 -85.866875 
L 268.216659 -85.30531 
L 269.325654 -84.727668 
L 270.43465 -84.134523 
L 271.543646 -83.526464 
L 272.652642 -82.904096 
L 273.761638 -82.268036 
L 274.870634 -81.618918 
L 275.97963 -80.957385 
L 277.088626 -80.284095 
L 278.197621 -79.599717 
L 279.306617 -78.90493 
L 280.415613 -78.200425 
L 281.524609 -77.486903 
L 282.633605 -76.76507 
L 283.742601 -76.035646 
L 284.851597 -75.299355 
L 285.960593 -74.556927 
L 287.069588 -73.809102 
L 288.178584 -73.05662 
L 289.28758 -72.300231 
L 290.396576 -71.540686 
L 291.505572 -70.778739 
L 292.614568 -70.015147 
L 293.723564 -69.250669 
L 294.83256 -68.486065 
L 295.941555 -67.722093 
L 297.050551 -66.959514 
L 298.159547 -66.199084 
L 299.268543 -65.441559 
L 300.377539 -64.687692 
L 301.486535 -63.938232 
L 302.595531 -63.193923 
L 303.704527 -62.455504 
L 304.813522 -61.72371 
L 305.922518 -60.999267 
L 307.031514 -60.282896 
L 308.14051 -59.575307 
L 309.249506 -58.877203 
L 310.358502 -58.18928 
L 311.467498 -57.512219 
L 312.576494 -56.846693 
L 313.685489 -56.193364 
L 314.794485 -55.552881 
L 315.903481 -54.925879 
L 317.012477 -54.312983 
L 318.121473 -53.714801 
L 319.230469 -53.131926 
L 320.339465 -52.564939 
L 321.448461 -52.014402 
L 322.557456 -51.480863 
L 323.666452 -50.964851 
L 324.775448 -50.46688 
L 325.884444 -49.987443 
L 326.99344 -49.527018 
L 328.102436 -49.086061 
L 329.211432 -48.665011 
L 330.320428 -48.264286 
L 331.429423 -47.884285 
L 332.538419 -47.525384 
L 333.647415 -47.18794 
L 334.756411 -46.872288 
L 335.865407 -46.578743 
L 336.974403 -46.307596 
L 338.083399 -46.059115 
L 339.192395 -45.833549 
L 340.30139 -45.631121 
L 341.410386 -45.452032 
L 342.519382 -45.29646 
L 343.628378 -45.164559 
L 344.737374 -45.056462 
L 345.84637 -44.972274 
L 346.955366 -44.912081 
L 348.064362 -44.87594 
L 349.173357 -44.86389 
L 349.173357 -93.382557 
L 349.173357 -93.382557 
L 348.064362 -93.370507 
L 346.955366 -93.334366 
L 345.84637 -93.274173 
L 344.737374 -93.189985 
L 343.628378 -93.081888 
L 342.519382 -92.949987 
L 341.410386 -92.794415 
L 340.30139 -92.615326 
L 339.192395 -92.412898 
L 338.083399 -92.187332 
L 336.974403 -91.938851 
L 335.865407 -91.667704 
L 334.756411 -91.374159 
L 333.647415 -91.058507 
L 332.538419 -90.721064 
L 331.429423 -90.362162 
L 330.320428 -89.982161 
L 329.211432 -89.581436 
L 328.102436 -89.160386 
L 326.99344 -88.719429 
L 325.884444 -88.259004 
L 324.775448 -87.779567 
L 323.666452 -87.281596 
L 322.557456 -86.765584 
L 321.448461 -86.232045 
L 320.339465 -85.681508 
L 319.230469 -85.114521 
L 318.121473 -84.531647 
L 317.012477 -83.933464 
L 315.903481 -83.320568 
L 314.794485 -82.693566 
L 313.685489 -82.053083 
L 312.576494 -81.399754 
L 311.467498 -80.734228 
L 310.358502 -80.057167 
L 309.249506 -79.369244 
L 308.14051 -78.67114 
L 307.031514 -77.963552 
L 305.922518 -77.24718 
L 304.813522 -76.522737 
L 303.704527 -75.790943 
L 302.595531 -75.052524 
L 301.486535 -74.308215 
L 300.377539 -73.558755 
L 299.268543 -72.804888 
L 298.159547 -72.047363 
L 297.050551 -71.286933 
L 295.941555 -70.524354 
L 294.83256 -69.760382 
L 293.723564 -68.995778 
L 292.614568 -68.2313 
L 291.505572 -67.467708 
L 290.396576 -66.705761 
L 289.28758 -65.946216 
L 288.178584 -65.189827 
L 287.069588 -64.437346 
L 285.960593 -63.68952 
L 284.851597 -62.947092 
L 283.742601 -62.210801 
L 282.633605 -61.481377 
L 281.524609 -60.759545 
L 280.415613 -60.046022 
L 279.306617 -59.341517 
L 278.197621 -58.646731 
L 277.088626 -57.962352 
L 275.97963 -57.289062 
L 274.870634 -56.627529 
L 273.761638 -55.978411 
L 272.652642 -55.342351 
L 271.543646 -54.719983 
L 270.43465 -54.111924 
L 269.325654 -53.518779 
L 268.216659 -52.941137 
L 267.107663 -52.379572 
L 265.998667 -51.834641 
L 264.889671 -51.306886 
L 263.780675 -50.796832 
L 262.671679 -50.304984 
L 261.562683 -49.831833 
L 260.453687 -49.377847 
L 259.344692 -48.943478 
L 258.235696 -48.529158 
L 257.1267 -48.135297 
L 256.017704 -47.762288 
L 254.908708 -47.410501 
L 253.799712 -47.080285 
L 252.690716 -46.771969 
L 251.58172 -46.485858 
L 250.472725 -46.222238 
L 249.363729 -45.981369 
L 248.254733 -45.763492 
L 247.145737 -45.568822 
L 246.036741 -45.397553 
L 244.927745 -45.249856 
L 243.818749 -45.125876 
L 242.709753 -45.025738 
L 241.600758 -44.94954 
L 240.491762 -44.897359 
L 239.382766 -44.869246 
L 238.27377 -44.865229 
L 237.164774 -44.885312 
L 236.055778 -44.929475 
L 234.946782 -44.997675 
L 233.837786 -45.089843 
L 232.728791 -45.205887 
L 231.619795 -45.345694 
L 230.510799 -45.509123 
L 229.401803 -45.696013 
L 228.292807 -45.906178 
L 227.183811 -46.139408 
L 226.074815 -46.395473 
L 224.965819 -46.674117 
L 223.856824 -46.975064 
L 222.747828 -47.298016 
L 221.638832 -47.64265 
L 220.529836 -48.008626 
L 219.42084 -48.395578 
L 218.311844 -48.803123 
L 217.202848 -49.230856 
L 216.093852 -49.678352 
L 214.984857 -50.145166 
L 213.875861 -50.630835 
L 212.766865 -51.134876 
L 211.657869 -51.656788 
L 210.548873 -52.196053 
L 209.439877 -52.752134 
L 208.330881 -53.324481 
L 207.221885 -53.912523 
L 206.11289 -54.515677 
L 205.003894 -55.133343 
L 203.894898 -55.764908 
L 202.785902 -56.409745 
L 201.676906 -57.067212 
L 200.56791 -57.736657 
L 199.458914 -58.417414 
L 198.349918 -59.108808 
L 197.240923 -59.81015 
L 196.131927 -60.520745 
L 195.022931 -61.239887 
L 193.913935 -61.96686 
L 192.804939 -62.700944 
L 191.695943 -63.441408 
L 190.586947 -64.187516 
L 189.477951 -64.938528 
L 188.368956 -65.693698 
L 187.25996 -66.452275 
L 186.150964 -67.213506 
L 185.041968 -67.976633 
L 183.932972 -68.7409 
L 182.823976 -69.505547 
L 181.71498 -70.269814 
L 180.605984 -71.032942 
L 179.496988 -71.794172 
L 178.387993 -72.552749 
L 177.278997 -73.307919 
L 176.170001 -74.058931 
L 175.061005 -74.80504 
L 173.952009 -75.545503 
L 172.843013 -76.279587 
L 171.734017 -77.00656 
L 170.625021 -77.725702 
L 169.516026 -78.436297 
L 168.40703 -79.13764 
L 167.298034 -79.829033 
L 166.189038 -80.50979 
L 165.080042 -81.179235 
L 163.971046 -81.836702 
L 162.86205 -82.481539 
L 161.753054 -83.113104 
L 160.644059 -83.73077 
L 159.535063 -84.333924 
L 158.426067 -84.921966 
L 157.317071 -85.494313 
L 156.208075 -86.050394 
L 155.099079 -86.589659 
L 153.990083 -87.111571 
L 152.881087 -87.615612 
L 151.772092 -88.101281 
L 150.663096 -88.568095 
L 149.5541 -89.015591 
L 148.445104 -89.443324 
L 147.336108 -89.850869 
L 146.227112 -90.237822 
L 145.118116 -90.603797 
L 144.00912 -90.948431 
L 142.900125 -91.271383 
L 141.791129 -91.57233 
L 140.682133 -91.850975 
L 139.573137 -92.107039 
L 138.464141 -92.34027 
L 137.355145 -92.550434 
L 136.246149 -92.737324 
L 135.137153 -92.900753 
L 134.028158 -93.04056 
L 132.919162 -93.156605 
L 131.810166 -93.248773 
L 130.70117 -93.316972 
L 129.592174 -93.361135 
L 128.483178 -93.381218 
L 127.374182 -93.377201 
L 126.265186 -93.349088 
L 125.156191 -93.296907 
L 124.047195 -93.220709 
L 122.938199 -93.120571 
L 121.829203 -92.996591 
L 120.720207 -92.848894 
L 119.611211 -92.677625 
L 118.502215 -92.482955 
L 117.393219 -92.265078 
L 116.284224 -92.024209 
L 115.175228 -91.760589 
L 114.066232 -91.474478 
L 112.957236 -91.166162 
L 111.84824 -90.835946 
L 110.739244 -90.484159 
L 109.630248 -90.11115 
L 108.521252 -89.717289 
L 107.412257 -89.302969 
L 106.303261 -88.8686 
L 105.194265 -88.414614 
L 104.085269 -87.941463 
L 102.976273 -87.449615 
L 101.867277 -86.939561 
L 100.758281 -86.411806 
L 99.649285 -85.866875 
L 98.54029 -85.30531 
L 97.431294 -84.727668 
L 96.322298 -84.134523 
L 95.213302 -83.526464 
L 94.104306 -82.904096 
L 92.99531 -82.268036 
L 91.886314 -81.618918 
L 90.777318 -80.957385 
L 89.668323 -80.284095 
L 88.559327 -79.599717 
L 87.450331 -78.90493 
L 86.341335 -78.200425 
L 85.232339 -77.486903 
L 84.123343 -76.76507 
L 83.014347 -76.035646 
L 81.905351 -75.299355 
L 80.796356 -74.556927 
L 79.68736 -73.809102 
L 78.578364 -73.05662 
L 77.469368 -72.300231 
L 76.360372 -71.540686 
L 75.251376 -70.778739 
L 74.14238 -70.015147 
L 73.033384 -69.250669 
L 71.924389 -68.486065 
L 70.815393 -67.722093 
L 69.706397 -66.959514 
L 68.597401 -66.199084 
L 67.488405 -65.441559 
L 66.379409 -64.687692 
L 65.270413 -63.938232 
L 64.161417 -63.193923 
L 63.052422 -62.455504 
L 61.943426 -61.72371 
L 60.83443 -60.999267 
L 59.725434 -60.282896 
L 58.616438 -59.575307 
L 57.507442 -58.877203 
L 56.398446 -58.18928 
L 55.28945 -57.512219 
L 54.180455 -56.846693 
L 53.071459 -56.193364 
L 51.962463 -55.552881 
L 50.853467 -54.925879 
L 49.744471 -54.312983 
L 48.635475 -53.714801 
L 47.526479 -53.131926 
L 46.417483 -52.564939 
L 45.308488 -52.014402 
L 44.199492 -51.480863 
L 43.090496 -50.964851 
L 41.9815 -50.46688 
L 40.872504 -49.987443 
L 39.763508 -49.527018 
L 38.654512 -49.086061 
L 37.545516 -48.665011 
L 36.436521 -48.264286 
L 35.327525 -47.884285 
L 34.218529 -47.525384 
L 33.109533 -47.18794 
L 32.000537 -46.872288 
L 30.891541 -46.578743 
L 29.782545 -46.307596 
L 28.673549 -46.059115 
L 27.564554 -45.833549 
L 26.455558 -45.631121 
L 25.346562 -45.452032 
L 24.237566 -45.29646 
L 23.12857 -45.164559 
L 22.019574 -45.056462 
L 20.910578 -44.972274 
L 19.801582 -44.912081 
L 18.692587 -44.87594 
L 17.583591 -44.86389 
z
" style="stroke: #f0ece4"/>
    </defs>
    <g clip-path="url(#p8fa603939a)">
     <use xlink:href="#m6c3f51f18c" x="0" y="276.23952" style="fill: #f0ece4; stroke: #f0ece4"/>
    </g>
   </g>
   <g id="matplotlib.axis_5">
    <g id="xtick_11">
     <g id="line2d_19">
      <g>
       <use xlink:href="#m46c3b40793" x="17.583591" y="241.079364" style="fill: #1a1a1a; stroke: #1a1a1a; stroke-width: 0.8"/>
      </g>
     </g>
     <g id="text_5">
      <text style="font-size: 9.5px; font-family: 'DejaVu Serif', serif; text-anchor: middle; fill: #1a1a1a" x="17.583591" y="255.297879" transform="rotate(-0 17.583591 255.297879)">0.0</text>
     </g>
    </g>
    <g id="xtick_12">
     <g id="line2d_20">
      <g>
       <use xlink:href="#m46c3b40793" x="100.481032" y="241.079364" style="fill: #1a1a1a; stroke: #1a1a1a; stroke-width: 0.8"/>
      </g>
     </g>
     <g id="text_6">
      <text style="font-size: 9.5px; font-family: 'DejaVu Serif', serif; text-anchor: middle; fill: #1a1a1a" x="100.481032" y="255.297879" transform="rotate(-0 100.481032 255.297879)">0.5</text>
     </g>
    </g>
    <g id="xtick_13">
     <g id="line2d_21">
      <g>
       <use xlink:href="#m46c3b40793" x="183.378474" y="241.079364" style="fill: #1a1a1a; stroke: #1a1a1a; stroke-width: 0.8"/>
      </g>
     </g>
     <g id="text_7">
      <text style="font-size: 9.5px; font-family: 'DejaVu Serif', serif; text-anchor: middle; fill: #1a1a1a" x="183.378474" y="255.297879" transform="rotate(-0 183.378474 255.297879)">1.0</text>
     </g>
    </g>
    <g id="xtick_14">
     <g id="line2d_22">
      <g>
       <use xlink:href="#m46c3b40793" x="266.275916" y="241.079364" style="fill: #1a1a1a; stroke: #1a1a1a; stroke-width: 0.8"/>
      </g>
     </g>
     <g id="text_8">
      <text style="font-size: 9.5px; font-family: 'DejaVu Serif', serif; text-anchor: middle; fill: #1a1a1a" x="266.275916" y="255.297879" transform="rotate(-0 266.275916 255.297879)">1.5</text>
     </g>
    </g>
    <g id="xtick_15">
     <g id="line2d_23">
      <g>
       <use xlink:href="#m46c3b40793" x="349.173357" y="241.079364" style="fill: #1a1a1a; stroke: #1a1a1a; stroke-width: 0.8"/>
      </g>
     </g>
     <g id="text_9">
      <text style="font-size: 9.5px; font-family: 'DejaVu Serif', serif; text-anchor: middle; fill: #1a1a1a" x="349.173357" y="255.297879" transform="rotate(-0 349.173357 255.297879)">2.0</text>
     </g>
    </g>
    <g id="text_10">
     <text style="font-size: 11px; font-family: 'DejaVu Serif', serif; text-anchor: middle; fill: #1a1a1a" x="238.91976" y="269.631864" transform="rotate(-0 238.91976 269.631864)">distancia entre las paredes (m)</text>
    </g>
   </g>
   <g id="matplotlib.axis_6"/>
   <g id="line2d_24">
    <path d="M 17.583591 182.856963 
L 20.910578 182.965347 
L 24.237566 183.289533 
L 27.564554 183.826622 
L 30.891541 184.571816 
L 34.218529 185.518456 
L 37.545516 186.658084 
L 41.9815 188.459953 
L 46.417483 190.558012 
L 50.853467 192.918952 
L 55.28945 195.505292 
L 60.83443 198.99234 
L 68.597401 204.192157 
L 85.232339 215.479975 
L 90.777318 218.950458 
L 95.213302 221.519537 
L 99.649285 223.859948 
L 104.085269 225.934536 
L 108.521252 227.710362 
L 111.84824 228.829019 
L 115.175228 229.753662 
L 118.502215 230.476028 
L 121.829203 230.989664 
L 125.156191 231.28998 
L 128.483178 231.374291 
L 131.810166 231.241845 
L 135.137153 230.893826 
L 138.464141 230.333342 
L 141.791129 229.565403 
L 145.118116 228.59687 
L 148.445104 227.436397 
L 152.881087 225.608685 
L 157.317071 223.487386 
L 161.753054 221.106177 
L 167.298034 217.822106 
L 172.843013 214.27266 
L 180.605984 209.026014 
L 195.022931 199.23296 
L 200.56791 195.72973 
L 206.11289 192.50875 
L 210.548873 190.189126 
L 214.984857 188.138239 
L 219.42084 186.388651 
L 222.747828 185.291089 
L 226.074815 184.388545 
L 229.401803 183.689086 
L 232.728791 183.19896 
L 236.055778 182.922548 
L 239.382766 182.862319 
L 242.709753 183.018811 
L 246.036741 183.390626 
L 249.363729 183.974442 
L 252.690716 184.765042 
L 256.017704 185.755361 
L 259.344692 186.936551 
L 263.780675 188.789905 
L 268.216659 190.93421 
L 272.652642 193.335424 
L 278.197621 196.639803 
L 283.742601 200.203874 
L 292.614568 206.224373 
L 304.813522 214.51581 
L 310.358502 218.05024 
L 315.903481 221.313641 
L 320.339465 223.674581 
L 324.775448 225.77264 
L 329.211432 227.574509 
L 332.538419 228.714136 
L 335.865407 229.660777 
L 339.192395 230.405971 
L 342.519382 230.94306 
L 345.84637 231.267246 
L 349.173357 231.37563 
L 349.173357 231.37563 
" clip-path="url(#p8fa603939a)" style="fill: none; stroke: #7a2e2e; stroke-width: 1.8; stroke-linecap: square"/>
   </g>
   <g id="line2d_25">
    <path d="M 17.583591 231.37563 
L 20.910578 231.267246 
L 24.237566 230.94306 
L 27.564554 230.405971 
L 30.891541 229.660777 
L 34.218529 228.714136 
L 37.545516 227.574509 
L 41.9815 225.77264 
L 46.417483 223.674581 
L 50.853467 221.313641 
L 55.28945 218.727301 
L 60.83443 215.240253 
L 68.597401 210.040436 
L 85.232339 198.752617 
L 90.777318 195.282135 
L 95.213302 192.713056 
L 99.649285 190.372645 
L 104.085269 188.298057 
L 108.521252 186.522231 
L 111.84824 185.403574 
L 115.175228 184.478931 
L 118.502215 183.756565 
L 121.829203 183.242929 
L 125.156191 182.942613 
L 128.483178 182.858302 
L 131.810166 182.990747 
L 135.137153 183.338767 
L 138.464141 183.89925 
L 141.791129 184.66719 
L 145.118116 185.635723 
L 148.445104 186.796196 
L 152.881087 188.623908 
L 157.317071 190.745207 
L 161.753054 193.126416 
L 167.298034 196.410487 
L 172.843013 199.959933 
L 180.605984 205.206578 
L 195.022931 214.999633 
L 200.56791 218.502863 
L 206.11289 221.723843 
L 210.548873 224.043467 
L 214.984857 226.094354 
L 219.42084 227.843942 
L 222.747828 228.941504 
L 226.074815 229.844047 
L 229.401803 230.543507 
L 232.728791 231.033633 
L 236.055778 231.310045 
L 239.382766 231.370274 
L 242.709753 231.213782 
L 246.036741 230.841967 
L 249.363729 230.258151 
L 252.690716 229.467551 
L 256.017704 228.477232 
L 259.344692 227.296042 
L 263.780675 225.442688 
L 268.216659 223.298383 
L 272.652642 220.897169 
L 278.197621 217.592789 
L 283.742601 214.028719 
L 292.614568 208.00822 
L 304.813522 199.716783 
L 310.358502 196.182353 
L 315.903481 192.918952 
L 320.339465 190.558012 
L 324.775448 188.459953 
L 329.211432 186.658084 
L 332.538419 185.518456 
L 335.865407 184.571816 
L 339.192395 183.826622 
L 342.519382 183.289533 
L 345.84637 182.965347 
L 349.173357 182.856963 
L 349.173357 182.856963 
" clip-path="url(#p8fa603939a)" style="fill: none; stroke: #7a2e2e; stroke-opacity: 0.55; stroke-linecap: square"/>
   </g>
   <g id="line2d_26">
    <path d="M 17.583591 241.079364 
L 17.583591 173.153229 
" clip-path="url(#p8fa603939a)" style="fill: none; stroke: #1a1a1a; stroke-width: 4; stroke-linecap: square"/>
   </g>
   <g id="line2d_27">
    <path d="M 349.173357 241.079364 
L 349.173357 173.153229 
" clip-path="url(#p8fa603939a)" style="fill: none; stroke: #1a1a1a; stroke-width: 4; stroke-linecap: square"/>
   </g>
   <g id="patch_8">
    <path d="M 17.583591 241.079364 
L 349.173357 241.079364 
" style="fill: none; stroke: #1a1a1a; stroke-width: 0.9; stroke-linejoin: miter; stroke-linecap: square"/>
   </g>
   <g id="text_11">
    <!-- $n = 3$ · $f \approx 257$ Hz -->
    <g style="fill: #1a1a1a" transform="translate(359.12105 209.737703)">
     <text>
      <tspan x="0" y="-0.78125" style="font-style: oblique; font-size: 9.5px; font-family: 'DejaVu Sans'; fill: #1a1a1a">n</tspan>
      <tspan x="32.786133" y="-0.78125" style="font-style: oblique; font-size: 9.5px; font-family: 'DejaVu Sans'; fill: #1a1a1a">f</tspan>
      <tspan x="7.871826" y="-0.78125" style="font-size: 9.5px; font-family: 'DejaVu Sans'; fill: #1a1a1a">=</tspan>
      <tspan x="17.682617" y="-0.78125" style="font-size: 9.5px; font-family: 'DejaVu Sans'; fill: #1a1a1a">3</tspan>
      <tspan x="37.981445" y="-0.78125" style="font-size: 9.5px; font-family: 'DejaVu Sans'; fill: #1a1a1a">≈</tspan>
      <tspan x="47.792236" y="-0.78125" style="font-size: 9.5px; font-family: 'DejaVu Sans'; fill: #1a1a1a">2</tspan>
      <tspan x="53.836426" y="-0.78125" style="font-size: 9.5px; font-family: 'DejaVu Sans'; fill: #1a1a1a">5</tspan>
      <tspan x="59.130615" y="-0.78125" style="font-size: 9.5px; font-family: 'DejaVu Sans'; fill: #1a1a1a">7</tspan>
      <tspan x="23.726807" y="-0.78125" style="font-size: 9.5px; font-family: 'DejaVu Serif'; fill: #1a1a1a"> </tspan>
      <tspan x="26.746582" y="-0.78125" style="font-size: 9.5px; font-family: 'DejaVu Serif'; fill: #1a1a1a">·</tspan>
      <tspan x="29.766357" y="-0.78125" style="font-size: 9.5px; font-family: 'DejaVu Serif'; fill: #1a1a1a"> </tspan>
      <tspan x="65.174805" y="-0.78125" style="font-size: 9.5px; font-family: 'DejaVu Serif'; fill: #1a1a1a"> </tspan>
      <tspan x="68.19458" y="-0.78125" style="font-size: 9.5px; font-family: 'DejaVu Serif'; fill: #1a1a1a">H</tspan>
      <tspan x="76.479248" y="-0.78125" style="font-size: 9.5px; font-family: 'DejaVu Serif'; fill: #1a1a1a">z</tspan>
     </text>
    </g>
   </g>
  </g>
 </g>
 <defs>
  <clipPath id="pfe26737a60">
   <rect x="4.32" y="18.3" width="469.19952" height="67.926135"/>
  </clipPath>
  <clipPath id="pc5140ed8e1">
   <rect x="4.32" y="95.726615" width="469.19952" height="67.926135"/>
  </clipPath>
  <clipPath id="p8fa603939a">
   <rect x="4.32" y="173.153229" width="469.19952" height="67.926135"/>
  </clipPath>
 </defs>
</svg>
