<?xml version="1.0" encoding="utf-8" standalone="no"?>
<!DOCTYPE svg PUBLIC "-//W3C//DTD SVG 1.1//EN"
  "http://www.w3.org/Graphics/SVG/1.1/DTD/svg11.dtd">
<svg xmlns:xlink="http://www.w3.org/1999/xlink" width="621.83952pt" height="139.43952pt" viewBox="0 0 621.83952 139.43952" xmlns="http://www.w3.org/2000/svg" version="1.1">
 <metadata>
  <rdf:RDF xmlns:dc="http://purl.org/dc/elements/1.1/" xmlns:cc="http://creativecommons.org/ns#" xmlns:rdf="http://www.w3.org/1999/02/22-rdf-syntax-ns#">
   <cc:Work>
    <dc:type rdf:resource="http://purl.org/dc/dcmitype/StillImage"/>
    <dc:date>2026-07-13T09:24:07.871459</dc:date>
    <dc:format>image/svg+xml</dc:format>
    <dc:creator>
     <cc:Agent>
      <dc:title>Matplotlib v3.10.3, https://matplotlib.org/</dc:title>
     </cc:Agent>
    </dc:creator>
   </cc:Work>
  </rdf:RDF>
 </metadata>
 <defs>
  <style type="text/css">*{stroke-linejoin: round; stroke-linecap: butt}</style>
 </defs>
 <g id="figure_1">
  <g id="patch_1">
   <path d="M 0 139.43952 
L 621.83952 139.43952 
L 621.83952 0 
L 0 0 
z
" style="fill: #ffffff"/>
  </g>
  <g id="axes_1">
   <g id="patch_2">
    <path d="M 7.287094 106.444241 
L 95.310897 106.444241 
Q 99.267022 106.444241 99.267022 102.41964 
L 99.267022 37.01988 
Q 99.267022 32.995279 95.310897 32.995279 
L 7.287094 32.995279 
Q 3.330969 32.995279 3.330969 37.01988 
L 3.330969 102.41964 
Q 3.330969 106.444241 7.287094 106.444241 
z
" clip-path="url(#p1b3ed34c28)" style="fill: #f0ece4; stroke: #1a1a1a; stroke-width: 1.2; stroke-linejoin: miter"/>
   </g>
   <g id="patch_3">
    <path d="M 109.157337 106.444241 
L 197.181139 106.444241 
Q 201.137265 106.444241 201.137265 102.41964 
L 201.137265 37.01988 
Q 201.137265 32.995279 197.181139 32.995279 
L 109.157337 32.995279 
Q 105.201211 32.995279 105.201211 37.01988 
L 105.201211 102.41964 
Q 105.201211 106.444241 109.157337 106.444241 
z
" clip-path="url(#p1b3ed34c28)" style="fill: #f0ece4; stroke: #1a1a1a; stroke-width: 1.2; stroke-linejoin: miter"/>
   </g>
   <g id="patch_4">
    <path d="M 211.02758 106.444241 
L 299.051382 106.444241 
Q 303.007508 106.444241 303.007508 102.41964 
L 303.007508 37.01988 
Q 303.007508 32.995279 299.051382 32.995279 
L 211.02758 32.995279 
Q 207.071454 32.995279 207.071454 37.01988 
L 207.071454 102.41964 
Q 207.071454 106.444241 211.02758 106.444241 
z
" clip-path="url(#p1b3ed34c28)" style="fill: #f0ece4; stroke: #1a1a1a; stroke-width: 1.2; stroke-linejoin: miter"/>
   </g>
   <g id="patch_5">
    <path d="M 312.897823 106.444241 
L 400.921625 106.444241 
Q 404.877751 106.444241 404.877751 102.41964 
L 404.877751 37.01988 
Q 404.877751 32.995279 400.921625 32.995279 
L 312.897823 32.995279 
Q 308.941697 32.995279 308.941697 37.01988 
L 308.941697 102.41964 
Q 308.941697 106.444241 312.897823 106.444241 
z
" clip-path="url(#p1b3ed34c28)" style="fill: #f0ece4; stroke: #1a1a1a; stroke-width: 1.2; stroke-linejoin: miter"/>
   </g>
   <g id="patch_6">
    <path d="M 414.768066 106.444241 
L 502.791868 106.444241 
Q 506.747994 106.444241 506.747994 102.41964 
L 506.747994 37.01988 
Q 506.747994 32.995279 502.791868 32.995279 
L 414.768066 32.995279 
Q 410.81194 32.995279 410.81194 37.01988 
L 410.81194 102.41964 
Q 410.81194 106.444241 414.768066 106.444241 
z
" clip-path="url(#p1b3ed34c28)" style="fill: #f0ece4; stroke: #7a2e2e; stroke-width: 1.2; stroke-linejoin: miter"/>
   </g>
   <g id="patch_7">
    <path d="M 516.638309 106.444241 
L 604.662111 106.444241 
Q 608.618237 106.444241 608.618237 102.41964 
L 608.618237 37.01988 
Q 608.618237 32.995279 604.662111 32.995279 
L 516.638309 32.995279 
Q 512.682183 32.995279 512.682183 37.01988 
L 512.682183 102.41964 
Q 512.682183 106.444241 516.638309 106.444241 
z
" clip-path="url(#p1b3ed34c28)" style="fill: #f0ece4; stroke: #7a2e2e; stroke-width: 1.2; stroke-linejoin: miter"/>
   </g>
   <g id="text_1">
    <text style="font-weight: 700; font-size: 10px; font-family: 'DejaVu Serif', serif; text-anchor: middle; fill: #1a1a1a" x="51.298995" y="56.380733" transform="rotate(-0 51.298995 56.380733)">fenómeno</text>
   </g>
   <g id="text_2">
    <text style="font-size: 7.3px; font-family: 'DejaVu Serif', serif; fill: #8a8a8a" transform="translate(18.277902 78.392641)">qué se oye, con el</text>
    <text style="font-size: 7.3px; font-family: 'DejaVu Serif', serif; fill: #8a8a8a" transform="translate(11.484339 87.50287)">vocabulario del curso</text>
   </g>
   <g id="patch_8">
    <path d="M 102.253434 69.71976 
Q 103.232807 69.71976 102.646932 69.71976 
" style="fill: none; stroke: #1a1a1a; stroke-width: 1.4; stroke-linecap: round"/>
    <path d="M 98.246932 67.51976 
L 102.646932 69.71976 
L 98.246932 71.91976 
z
" style="fill: #1a1a1a; stroke: #1a1a1a; stroke-width: 1.4; stroke-linecap: round"/>
   </g>
   <g id="text_3">
    <text style="font-weight: 700; font-size: 10px; font-family: 'DejaVu Serif', serif; text-anchor: middle; fill: #1a1a1a" x="153.169238" y="56.380733" transform="rotate(-0 153.169238 56.380733)">modelo</text>
   </g>
   <g id="text_4">
    <text style="font-size: 7.3px; font-family: 'DejaVu Serif', serif; fill: #8a8a8a" transform="translate(128.524895 78.298539)">cuerda, tubo,</text>
    <text style="font-size: 7.3px; font-family: 'DejaVu Serif', serif; fill: #8a8a8a" transform="translate(112.20084 87.304971)">membrana, resonador</text>
   </g>
   <g id="patch_9">
    <path d="M 204.123677 69.71976 
Q 205.10305 69.71976 204.517175 69.71976 
" style="fill: none; stroke: #1a1a1a; stroke-width: 1.4; stroke-linecap: round"/>
    <path d="M 200.117175 67.51976 
L 204.517175 69.71976 
L 200.117175 71.91976 
z
" style="fill: #1a1a1a; stroke: #1a1a1a; stroke-width: 1.4; stroke-linecap: round"/>
   </g>
   <g id="text_5">
    <text style="font-weight: 700; font-size: 10px; font-family: 'DejaVu Serif', serif; text-anchor: middle; fill: #1a1a1a" x="255.039481" y="56.580733" transform="rotate(-0 255.039481 56.580733)">predicción</text>
   </g>
   <g id="text_6">
    <text style="font-size: 7.3px; font-family: 'DejaVu Serif', serif; fill: #8a8a8a" transform="translate(231.886505 78.298539)">la del hito 1,</text>
    <text style="font-size: 7.3px; font-family: 'DejaVu Serif', serif; fill: #8a8a8a" transform="translate(218.124864 87.304971)">tal como se escribió</text>
   </g>
   <g id="patch_10">
    <path d="M 305.99392 69.71976 
Q 306.973293 69.71976 306.387418 69.71976 
" style="fill: none; stroke: #1a1a1a; stroke-width: 1.4; stroke-linecap: round"/>
    <path d="M 301.987418 67.51976 
L 306.387418 69.71976 
L 301.987418 71.91976 
z
" style="fill: #1a1a1a; stroke: #1a1a1a; stroke-width: 1.4; stroke-linecap: round"/>
   </g>
   <g id="text_7">
    <text style="font-weight: 700; font-size: 10px; font-family: 'DejaVu Serif', serif; text-anchor: middle; fill: #1a1a1a" x="356.909724" y="56.380733" transform="rotate(-0 356.909724 56.380733)">medición</text>
   </g>
   <g id="text_8">
    <text style="font-size: 7.3px; font-family: 'DejaVu Serif', serif; fill: #8a8a8a" transform="translate(329.244435 78.246641)">el número, con</text>
    <text style="font-size: 7.3px; font-family: 'DejaVu Serif', serif; fill: #8a8a8a" transform="translate(313.88649 87.253073)">unidades y condiciones</text>
   </g>
   <g id="patch_11">
    <path d="M 407.864162 69.71976 
Q 408.843535 69.71976 408.257661 69.71976 
" style="fill: none; stroke: #1a1a1a; stroke-width: 1.4; stroke-linecap: round"/>
    <path d="M 403.857661 67.51976 
L 408.257661 69.71976 
L 403.857661 71.91976 
z
" style="fill: #1a1a1a; stroke: #1a1a1a; stroke-width: 1.4; stroke-linecap: round"/>
   </g>
   <g id="text_9">
    <text style="font-weight: 700; font-size: 10px; font-family: 'DejaVu Serif', serif; text-anchor: middle; fill: #1a1a1a" x="458.779967" y="56.380733" transform="rotate(-0 458.779967 56.380733)">desviación</text>
   </g>
   <g id="text_10">
    <text style="font-size: 7.3px; font-family: 'DejaVu Serif', serif; fill: #8a8a8a" transform="translate(437.300287 78.195541)">cuánto y en</text>
    <text style="font-size: 7.3px; font-family: 'DejaVu Serif', serif; fill: #8a8a8a" transform="translate(433.559607 87.69997)">qué dirección</text>
   </g>
   <g id="patch_12">
    <path d="M 509.734405 69.71976 
Q 510.713778 69.71976 510.127904 69.71976 
" style="fill: none; stroke: #1a1a1a; stroke-width: 1.4; stroke-linecap: round"/>
    <path d="M 505.727904 67.51976 
L 510.127904 69.71976 
L 505.727904 71.91976 
z
" style="fill: #1a1a1a; stroke: #1a1a1a; stroke-width: 1.4; stroke-linecap: round"/>
   </g>
   <g id="text_11">
    <text style="font-weight: 700; font-size: 10px; font-family: 'DejaVu Serif', serif; text-anchor: middle; fill: #1a1a1a" x="560.65021" y="56.580733" transform="rotate(-0 560.65021 56.580733)">explicación</text>
   </g>
   <g id="text_12">
    <text style="font-size: 7.3px; font-family: 'DejaVu Serif', serif; fill: #8a8a8a" transform="translate(534.110717 78.298539)">el mecanismo,</text>
    <text style="font-size: 7.3px; font-family: 'DejaVu Serif', serif; fill: #8a8a8a" transform="translate(530.62896 87.304971)">en proporciones</text>
   </g>
  </g>
 </g>
 <defs>
  <clipPath id="p1b3ed34c28">
   <rect x="4.32" y="4.32" width="613.19952" height="130.79952"/>
  </clipPath>
 </defs>
</svg>
