<?xml version="1.0" encoding="utf-8" standalone="no"?>
<!DOCTYPE svg PUBLIC "-//W3C//DTD SVG 1.1//EN"
  "http://www.w3.org/Graphics/SVG/1.1/DTD/svg11.dtd">
<svg xmlns:xlink="http://www.w3.org/1999/xlink" width="405.83952pt" height="319.43952pt" viewBox="0 0 405.83952 319.43952" xmlns="http://www.w3.org/2000/svg" version="1.1">
 <metadata>
  <rdf:RDF xmlns:dc="http://purl.org/dc/elements/1.1/" xmlns:cc="http://creativecommons.org/ns#" xmlns:rdf="http://www.w3.org/1999/02/22-rdf-syntax-ns#">
   <cc:Work>
    <dc:type rdf:resource="http://purl.org/dc/dcmitype/StillImage"/>
    <dc:date>2026-07-13T09:28:00.211734</dc:date>
    <dc:format>image/svg+xml</dc:format>
    <dc:creator>
     <cc:Agent>
      <dc:title>Matplotlib v3.10.3, https://matplotlib.org/</dc:title>
     </cc:Agent>
    </dc:creator>
   </cc:Work>
  </rdf:RDF>
 </metadata>
 <defs>
  <style type="text/css">*{stroke-linejoin: round; stroke-linecap: butt}</style>
 </defs>
 <g id="figure_1">
  <g id="patch_1">
   <path d="M 0 319.43952 
L 405.83952 319.43952 
L 405.83952 -0 
L 0 -0 
z
" style="fill: #ffffff"/>
  </g>
  <g id="axes_1">
   <g id="patch_2">
    <path d="M 50.143438 284.279364 
L 401.51952 284.279364 
L 401.51952 4.32 
L 50.143438 4.32 
z
" style="fill: #ffffff"/>
   </g>
   <g id="patch_3">
    <path d="M 300.498896 183.722531 
C 307.487848 183.722531 314.191492 182.277717 319.133427 179.706293 
C 324.075362 177.134868 326.852102 173.646779 326.852102 170.010236 
C 326.852102 166.373692 324.075362 162.885603 319.133427 160.314179 
C 314.191492 157.742754 307.487848 156.29794 300.498896 156.29794 
C 293.509944 156.29794 286.806301 157.742754 281.864365 160.314179 
C 276.92243 162.885603 274.14569 166.373692 274.14569 170.010236 
C 274.14569 173.646779 276.92243 177.134868 281.864365 179.706293 
C 286.806301 182.277717 293.509944 183.722531 300.498896 183.722531 
z
" clip-path="url(#pe052af0636)" style="fill: #f0ece4; stroke: #7a2e2e; stroke-width: 1.3; stroke-linejoin: miter"/>
   </g>
   <g id="patch_4">
    <path d="M 168.732865 115.161054 
C 175.721817 115.161054 182.425461 113.114234 187.367396 109.471383 
C 192.309331 105.828532 195.086072 100.887072 195.086072 95.735302 
C 195.086072 90.583533 192.309331 85.642073 187.367396 81.999222 
C 182.425461 78.35637 175.721817 76.309551 168.732865 76.309551 
C 161.743913 76.309551 155.04027 78.35637 150.098335 81.999222 
C 145.156399 85.642073 142.379659 90.583533 142.379659 95.735302 
C 142.379659 100.887072 145.156399 105.828532 150.098335 109.471383 
C 155.04027 113.114234 161.743913 115.161054 168.732865 115.161054 
z
" clip-path="url(#pe052af0636)" style="fill: #f0ece4; stroke: #7a2e2e; stroke-width: 1.3; stroke-linejoin: miter"/>
   </g>
   <g id="patch_5">
    <path d="M 96.261548 69.453403 
C 101.503262 69.453403 106.530995 67.406583 110.237446 63.763732 
C 113.943898 60.120881 116.026453 55.179421 116.026453 50.027651 
C 116.026453 44.875882 113.943898 39.934422 110.237446 36.29157 
C 106.530995 32.648719 101.503262 30.601899 96.261548 30.601899 
C 91.019834 30.601899 85.992102 32.648719 82.28565 36.29157 
C 78.579199 39.934422 76.496644 44.875882 76.496644 50.027651 
C 76.496644 55.179421 78.579199 60.120881 82.28565 63.763732 
C 85.992102 67.406583 91.019834 69.453403 96.261548 69.453403 
z
" clip-path="url(#pe052af0636)" style="fill: #f0ece4; stroke: #7a2e2e; stroke-width: 1.3; stroke-linejoin: miter"/>
   </g>
   <g id="patch_6">
    <path d="M 168.732865 229.430182 
C 175.721817 229.430182 182.425461 227.985368 187.367396 225.413944 
C 192.309331 222.84252 195.086072 219.35443 195.086072 215.717887 
C 195.086072 212.081344 192.309331 208.593254 187.367396 206.02183 
C 182.425461 203.450405 175.721817 202.005592 168.732865 202.005592 
C 161.743913 202.005592 155.04027 203.450405 150.098335 206.02183 
C 145.156399 208.593254 142.379659 212.081344 142.379659 215.717887 
C 142.379659 219.35443 145.156399 222.84252 150.098335 225.413944 
C 155.04027 227.985368 161.743913 229.430182 168.732865 229.430182 
z
" clip-path="url(#pe052af0636)" style="fill: #f0ece4; stroke: #7a2e2e; stroke-width: 1.3; stroke-linejoin: miter"/>
   </g>
   <g id="patch_7">
    <path d="M 118.222553 251.141317 
C 123.464267 251.141317 128.492 249.816904 132.198452 247.459765 
C 135.904903 245.102626 137.987458 241.90521 137.987458 238.571713 
C 137.987458 235.238215 135.904903 232.040799 132.198452 229.68366 
C 128.492 227.326521 123.464267 226.002108 118.222553 226.002108 
C 112.98084 226.002108 107.953107 227.326521 104.246655 229.68366 
C 100.540204 232.040799 98.457649 235.238215 98.457649 238.571713 
C 98.457649 241.90521 100.540204 245.102626 104.246655 247.459765 
C 107.953107 249.816904 112.98084 251.141317 118.222553 251.141317 
z
" clip-path="url(#pe052af0636)" style="fill: #f0ece4; stroke: #7a2e2e; stroke-width: 1.3; stroke-linejoin: miter"/>
   </g>
   <g id="matplotlib.axis_1">
    <g id="xtick_1">
     <g id="line2d_1">
      <defs>
       <path id="m482a74b601" d="M 0 0 
L 0 3.5 
" style="stroke: #1a1a1a; stroke-width: 0.8"/>
      </defs>
      <g>
       <use xlink:href="#m482a74b601" x="58.92784" y="284.279364" style="fill: #1a1a1a; stroke: #1a1a1a; stroke-width: 0.8"/>
      </g>
     </g>
     <g id="text_1">
      <text style="font-size: 9.5px; font-family: 'DejaVu Serif', serif; text-anchor: middle; fill: #1a1a1a" x="58.92784" y="298.497879" transform="rotate(-0 58.92784 298.497879)">200</text>
     </g>
    </g>
    <g id="xtick_2">
     <g id="line2d_2">
      <g>
       <use xlink:href="#m482a74b601" x="102.84985" y="284.279364" style="fill: #1a1a1a; stroke: #1a1a1a; stroke-width: 0.8"/>
      </g>
     </g>
     <g id="text_2">
      <text style="font-size: 9.5px; font-family: 'DejaVu Serif', serif; text-anchor: middle; fill: #1a1a1a" x="102.84985" y="298.497879" transform="rotate(-0 102.84985 298.497879)">300</text>
     </g>
    </g>
    <g id="xtick_3">
     <g id="line2d_3">
      <g>
       <use xlink:href="#m482a74b601" x="146.77186" y="284.279364" style="fill: #1a1a1a; stroke: #1a1a1a; stroke-width: 0.8"/>
      </g>
     </g>
     <g id="text_3">
      <text style="font-size: 9.5px; font-family: 'DejaVu Serif', serif; text-anchor: middle; fill: #1a1a1a" x="146.77186" y="298.497879" transform="rotate(-0 146.77186 298.497879)">400</text>
     </g>
    </g>
    <g id="xtick_4">
     <g id="line2d_4">
      <g>
       <use xlink:href="#m482a74b601" x="190.69387" y="284.279364" style="fill: #1a1a1a; stroke: #1a1a1a; stroke-width: 0.8"/>
      </g>
     </g>
     <g id="text_4">
      <text style="font-size: 9.5px; font-family: 'DejaVu Serif', serif; text-anchor: middle; fill: #1a1a1a" x="190.69387" y="298.497879" transform="rotate(-0 190.69387 298.497879)">500</text>
     </g>
    </g>
    <g id="xtick_5">
     <g id="line2d_5">
      <g>
       <use xlink:href="#m482a74b601" x="234.615881" y="284.279364" style="fill: #1a1a1a; stroke: #1a1a1a; stroke-width: 0.8"/>
      </g>
     </g>
     <g id="text_5">
      <text style="font-size: 9.5px; font-family: 'DejaVu Serif', serif; text-anchor: middle; fill: #1a1a1a" x="234.615881" y="298.497879" transform="rotate(-0 234.615881 298.497879)">600</text>
     </g>
    </g>
    <g id="xtick_6">
     <g id="line2d_6">
      <g>
       <use xlink:href="#m482a74b601" x="278.537891" y="284.279364" style="fill: #1a1a1a; stroke: #1a1a1a; stroke-width: 0.8"/>
      </g>
     </g>
     <g id="text_6">
      <text style="font-size: 9.5px; font-family: 'DejaVu Serif', serif; text-anchor: middle; fill: #1a1a1a" x="278.537891" y="298.497879" transform="rotate(-0 278.537891 298.497879)">700</text>
     </g>
    </g>
    <g id="xtick_7">
     <g id="line2d_7">
      <g>
       <use xlink:href="#m482a74b601" x="322.459901" y="284.279364" style="fill: #1a1a1a; stroke: #1a1a1a; stroke-width: 0.8"/>
      </g>
     </g>
     <g id="text_7">
      <text style="font-size: 9.5px; font-family: 'DejaVu Serif', serif; text-anchor: middle; fill: #1a1a1a" x="322.459901" y="298.497879" transform="rotate(-0 322.459901 298.497879)">800</text>
     </g>
    </g>
    <g id="xtick_8">
     <g id="line2d_8">
      <g>
       <use xlink:href="#m482a74b601" x="366.381912" y="284.279364" style="fill: #1a1a1a; stroke: #1a1a1a; stroke-width: 0.8"/>
      </g>
     </g>
     <g id="text_8">
      <text style="font-size: 9.5px; font-family: 'DejaVu Serif', serif; text-anchor: middle; fill: #1a1a1a" x="366.381912" y="298.497879" transform="rotate(-0 366.381912 298.497879)">900</text>
     </g>
    </g>
    <g id="text_9">
     <!-- $F_1$ (Hz) -->
     <g style="fill: #1a1a1a" transform="translate(206.306479 312.831864)">
      <text>
       <tspan x="0" y="-0.640625" style="font-style: oblique; font-size: 11px; font-family: 'DejaVu Sans'; fill: #1a1a1a">F</tspan>
       <tspan x="6.327148" y="1.164062" style="font-size: 7.7px; font-family: 'DejaVu Sans'; fill: #1a1a1a">1</tspan>
       <tspan x="11.526904" y="-0.640625" style="font-size: 11px; font-family: 'DejaVu Serif'; fill: #1a1a1a"> </tspan>
       <tspan x="15.023486" y="-0.640625" style="font-size: 11px; font-family: 'DejaVu Serif'; fill: #1a1a1a">(</tspan>
       <tspan x="19.31499" y="-0.640625" style="font-size: 11px; font-family: 'DejaVu Serif'; fill: #1a1a1a">H</tspan>
       <tspan x="28.907764" y="-0.640625" style="font-size: 11px; font-family: 'DejaVu Serif'; fill: #1a1a1a">z</tspan>
       <tspan x="34.703174" y="-0.640625" style="font-size: 11px; font-family: 'DejaVu Serif'; fill: #1a1a1a">)</tspan>
      </text>
     </g>
    </g>
   </g>
   <g id="matplotlib.axis_2">
    <g id="ytick_1">
     <g id="line2d_9">
      <defs>
       <path id="mae4a7100e2" d="M 0 0 
L -3.5 0 
" style="stroke: #1a1a1a; stroke-width: 0.8"/>
      </defs>
      <g>
       <use xlink:href="#mae4a7100e2" x="50.143438" y="261.425538" style="fill: #1a1a1a; stroke: #1a1a1a; stroke-width: 0.8"/>
      </g>
     </g>
     <g id="text_10">
      <text style="font-size: 9.5px; font-family: 'DejaVu Serif', serif; text-anchor: end; fill: #1a1a1a" x="43.143438" y="265.034796" transform="rotate(-0 43.143438 265.034796)">500</text>
     </g>
    </g>
    <g id="ytick_2">
     <g id="line2d_10">
      <g>
       <use xlink:href="#mae4a7100e2" x="50.143438" y="204.290974" style="fill: #1a1a1a; stroke: #1a1a1a; stroke-width: 0.8"/>
      </g>
     </g>
     <g id="text_11">
      <text style="font-size: 9.5px; font-family: 'DejaVu Serif', serif; text-anchor: end; fill: #1a1a1a" x="43.143438" y="207.900232" transform="rotate(-0 43.143438 207.900232)">1000</text>
     </g>
    </g>
    <g id="ytick_3">
     <g id="line2d_11">
      <g>
       <use xlink:href="#mae4a7100e2" x="50.143438" y="147.15641" style="fill: #1a1a1a; stroke: #1a1a1a; stroke-width: 0.8"/>
      </g>
     </g>
     <g id="text_12">
      <text style="font-size: 9.5px; font-family: 'DejaVu Serif', serif; text-anchor: end; fill: #1a1a1a" x="43.143438" y="150.765668" transform="rotate(-0 43.143438 150.765668)">1500</text>
     </g>
    </g>
    <g id="ytick_4">
     <g id="line2d_12">
      <g>
       <use xlink:href="#mae4a7100e2" x="50.143438" y="90.021846" style="fill: #1a1a1a; stroke: #1a1a1a; stroke-width: 0.8"/>
      </g>
     </g>
     <g id="text_13">
      <text style="font-size: 9.5px; font-family: 'DejaVu Serif', serif; text-anchor: end; fill: #1a1a1a" x="43.143438" y="93.631104" transform="rotate(-0 43.143438 93.631104)">2000</text>
     </g>
    </g>
    <g id="ytick_5">
     <g id="line2d_13">
      <g>
       <use xlink:href="#mae4a7100e2" x="50.143438" y="32.887282" style="fill: #1a1a1a; stroke: #1a1a1a; stroke-width: 0.8"/>
      </g>
     </g>
     <g id="text_14">
      <text style="font-size: 9.5px; font-family: 'DejaVu Serif', serif; text-anchor: end; fill: #1a1a1a" x="43.143438" y="36.49654" transform="rotate(-0 43.143438 36.49654)">2500</text>
     </g>
    </g>
    <g id="text_15">
     <!-- $F_2$ (Hz) -->
     <g style="fill: #1a1a1a" transform="translate(12.678281 163.824682) rotate(-90)">
      <text>
       <tspan x="0" y="-0.640625" style="font-style: oblique; font-size: 11px; font-family: 'DejaVu Sans'; fill: #1a1a1a">F</tspan>
       <tspan x="6.327148" y="1.164062" style="font-size: 7.7px; font-family: 'DejaVu Sans'; fill: #1a1a1a">2</tspan>
       <tspan x="11.526904" y="-0.640625" style="font-size: 11px; font-family: 'DejaVu Serif'; fill: #1a1a1a"> </tspan>
       <tspan x="15.023486" y="-0.640625" style="font-size: 11px; font-family: 'DejaVu Serif'; fill: #1a1a1a">(</tspan>
       <tspan x="19.31499" y="-0.640625" style="font-size: 11px; font-family: 'DejaVu Serif'; fill: #1a1a1a">H</tspan>
       <tspan x="28.907764" y="-0.640625" style="font-size: 11px; font-family: 'DejaVu Serif'; fill: #1a1a1a">z</tspan>
       <tspan x="34.703174" y="-0.640625" style="font-size: 11px; font-family: 'DejaVu Serif'; fill: #1a1a1a">)</tspan>
      </text>
     </g>
    </g>
   </g>
   <g id="patch_8">
    <path d="M 50.143438 284.279364 
L 50.143438 4.32 
" style="fill: none; stroke: #1a1a1a; stroke-width: 0.9; stroke-linejoin: miter; stroke-linecap: square"/>
   </g>
   <g id="patch_9">
    <path d="M 50.143438 284.279364 
L 401.51952 284.279364 
" style="fill: none; stroke: #1a1a1a; stroke-width: 0.9; stroke-linejoin: miter; stroke-linecap: square"/>
   </g>
   <g id="text_16">
    <text style="font-style: italic; font-size: 11px; font-family: 'DejaVu Serif', serif; text-anchor: middle; fill: #1a1a1a" x="300.498896" y="173.045548" transform="rotate(-0 300.498896 173.045548)">/a/</text>
   </g>
   <g id="text_17">
    <text style="font-style: italic; font-size: 11px; font-family: 'DejaVu Serif', serif; text-anchor: middle; fill: #1a1a1a" x="168.732865" y="98.770615" transform="rotate(-0 168.732865 98.770615)">/e/</text>
   </g>
   <g id="text_18">
    <text style="font-style: italic; font-size: 11px; font-family: 'DejaVu Serif', serif; text-anchor: middle; fill: #1a1a1a" x="96.261548" y="53.062964" transform="rotate(-0 96.261548 53.062964)">/i/</text>
   </g>
   <g id="text_19">
    <text style="font-style: italic; font-size: 11px; font-family: 'DejaVu Serif', serif; text-anchor: middle; fill: #1a1a1a" x="168.732865" y="218.753199" transform="rotate(-0 168.732865 218.753199)">/o/</text>
   </g>
   <g id="text_20">
    <text style="font-style: italic; font-size: 11px; font-family: 'DejaVu Serif', serif; text-anchor: middle; fill: #1a1a1a" x="118.222553" y="241.607025" transform="rotate(-0 118.222553 241.607025)">/u/</text>
   </g>
   <g id="patch_10">
    <path d="M 118.026387 263.710921 
Q 223.63491 263.710921 327.901793 263.710921 
" style="fill: none; stroke: #2e4a7a; stroke-width: 1.2; stroke-linecap: round"/>
    <path d="M 323.501793 261.510921 
L 327.901793 263.710921 
L 323.501793 265.910921 
z
" style="fill: #2e4a7a; stroke: #2e4a7a; stroke-width: 1.2; stroke-linecap: round"/>
   </g>
   <g id="text_21">
    <!-- la boca se abre → $F_1$ sube -->
    <g style="fill: #2e4a7a" transform="translate(165.540378 277.405662)">
     <text>
      <tspan x="0" y="-0.15625" style="font-size: 9px; font-family: 'DejaVu Serif'; fill: #2e4a7a">l</tspan>
      <tspan x="2.878418" y="-0.15625" style="font-size: 9px; font-family: 'DejaVu Serif'; fill: #2e4a7a">a</tspan>
      <tspan x="8.244141" y="-0.15625" style="font-size: 9px; font-family: 'DejaVu Serif'; fill: #2e4a7a"> </tspan>
      <tspan x="11.10498" y="-0.15625" style="font-size: 9px; font-family: 'DejaVu Serif'; fill: #2e4a7a">b</tspan>
      <tspan x="16.866211" y="-0.15625" style="font-size: 9px; font-family: 'DejaVu Serif'; fill: #2e4a7a">o</tspan>
      <tspan x="22.284668" y="-0.15625" style="font-size: 9px; font-family: 'DejaVu Serif'; fill: #2e4a7a">c</tspan>
      <tspan x="27.325195" y="-0.15625" style="font-size: 9px; font-family: 'DejaVu Serif'; fill: #2e4a7a">a</tspan>
      <tspan x="32.690918" y="-0.15625" style="font-size: 9px; font-family: 'DejaVu Serif'; fill: #2e4a7a"> </tspan>
      <tspan x="35.551758" y="-0.15625" style="font-size: 9px; font-family: 'DejaVu Serif'; fill: #2e4a7a">s</tspan>
      <tspan x="40.17041" y="-0.15625" style="font-size: 9px; font-family: 'DejaVu Serif'; fill: #2e4a7a">e</tspan>
      <tspan x="45.496582" y="-0.15625" style="font-size: 9px; font-family: 'DejaVu Serif'; fill: #2e4a7a"> </tspan>
      <tspan x="48.357422" y="-0.15625" style="font-size: 9px; font-family: 'DejaVu Serif'; fill: #2e4a7a">a</tspan>
      <tspan x="53.723145" y="-0.15625" style="font-size: 9px; font-family: 'DejaVu Serif'; fill: #2e4a7a">b</tspan>
      <tspan x="59.484375" y="-0.15625" style="font-size: 9px; font-family: 'DejaVu Serif'; fill: #2e4a7a">r</tspan>
      <tspan x="63.786621" y="-0.15625" style="font-size: 9px; font-family: 'DejaVu Serif'; fill: #2e4a7a">e</tspan>
      <tspan x="69.112793" y="-0.15625" style="font-size: 9px; font-family: 'DejaVu Serif'; fill: #2e4a7a"> </tspan>
      <tspan x="71.973633" y="-0.15625" style="font-size: 9px; font-family: 'DejaVu Serif'; fill: #2e4a7a">→</tspan>
      <tspan x="79.514648" y="-0.15625" style="font-size: 9px; font-family: 'DejaVu Serif'; fill: #2e4a7a"> </tspan>
      <tspan x="91.806592" y="-0.15625" style="font-size: 9px; font-family: 'DejaVu Serif'; fill: #2e4a7a"> </tspan>
      <tspan x="94.667432" y="-0.15625" style="font-size: 9px; font-family: 'DejaVu Serif'; fill: #2e4a7a">s</tspan>
      <tspan x="99.286084" y="-0.15625" style="font-size: 9px; font-family: 'DejaVu Serif'; fill: #2e4a7a">u</tspan>
      <tspan x="105.082471" y="-0.15625" style="font-size: 9px; font-family: 'DejaVu Serif'; fill: #2e4a7a">b</tspan>
      <tspan x="110.843701" y="-0.15625" style="font-size: 9px; font-family: 'DejaVu Serif'; fill: #2e4a7a">e</tspan>
      <tspan x="82.375488" y="-0.15625" style="font-style: oblique; font-size: 9px; font-family: 'DejaVu Sans'; fill: #2e4a7a">F</tspan>
      <tspan x="87.552246" y="1.320312" style="font-size: 6.3px; font-family: 'DejaVu Sans'; fill: #2e4a7a">1</tspan>
     </text>
    </g>
   </g>
   <g id="patch_11">
    <path d="M 357.59751 213.715265 
Q 357.59751 127.158679 357.59751 41.943734 
" style="fill: none; stroke: #2e4a7a; stroke-width: 1.2; stroke-linecap: round"/>
    <path d="M 355.39751 46.343734 
L 357.59751 41.943734 
L 359.79751 46.343734 
z
" style="fill: #2e4a7a; stroke: #2e4a7a; stroke-width: 1.2; stroke-linecap: round"/>
   </g>
   <g id="text_22">
    <!-- la lengua avanza → $F_2$ sube -->
    <g style="fill: #2e4a7a" transform="translate(375.418012 189.034313) rotate(-90)">
     <text>
      <tspan x="0" y="-0.15625" style="font-size: 9px; font-family: 'DejaVu Serif'; fill: #2e4a7a">l</tspan>
      <tspan x="2.878418" y="-0.15625" style="font-size: 9px; font-family: 'DejaVu Serif'; fill: #2e4a7a">a</tspan>
      <tspan x="8.244141" y="-0.15625" style="font-size: 9px; font-family: 'DejaVu Serif'; fill: #2e4a7a"> </tspan>
      <tspan x="11.10498" y="-0.15625" style="font-size: 9px; font-family: 'DejaVu Serif'; fill: #2e4a7a">l</tspan>
      <tspan x="13.983398" y="-0.15625" style="font-size: 9px; font-family: 'DejaVu Serif'; fill: #2e4a7a">e</tspan>
      <tspan x="19.30957" y="-0.15625" style="font-size: 9px; font-family: 'DejaVu Serif'; fill: #2e4a7a">n</tspan>
      <tspan x="25.105957" y="-0.15625" style="font-size: 9px; font-family: 'DejaVu Serif'; fill: #2e4a7a">g</tspan>
      <tspan x="30.867188" y="-0.15625" style="font-size: 9px; font-family: 'DejaVu Serif'; fill: #2e4a7a">u</tspan>
      <tspan x="36.663574" y="-0.15625" style="font-size: 9px; font-family: 'DejaVu Serif'; fill: #2e4a7a">a</tspan>
      <tspan x="42.029297" y="-0.15625" style="font-size: 9px; font-family: 'DejaVu Serif'; fill: #2e4a7a"> </tspan>
      <tspan x="44.890137" y="-0.15625" style="font-size: 9px; font-family: 'DejaVu Serif'; fill: #2e4a7a">a</tspan>
      <tspan x="50.255859" y="-0.15625" style="font-size: 9px; font-family: 'DejaVu Serif'; fill: #2e4a7a">v</tspan>
      <tspan x="55.340332" y="-0.15625" style="font-size: 9px; font-family: 'DejaVu Serif'; fill: #2e4a7a">a</tspan>
      <tspan x="60.706055" y="-0.15625" style="font-size: 9px; font-family: 'DejaVu Serif'; fill: #2e4a7a">n</tspan>
      <tspan x="66.502441" y="-0.15625" style="font-size: 9px; font-family: 'DejaVu Serif'; fill: #2e4a7a">z</tspan>
      <tspan x="71.244141" y="-0.15625" style="font-size: 9px; font-family: 'DejaVu Serif'; fill: #2e4a7a">a</tspan>
      <tspan x="76.609863" y="-0.15625" style="font-size: 9px; font-family: 'DejaVu Serif'; fill: #2e4a7a"> </tspan>
      <tspan x="79.470703" y="-0.15625" style="font-size: 9px; font-family: 'DejaVu Serif'; fill: #2e4a7a">→</tspan>
      <tspan x="87.011719" y="-0.15625" style="font-size: 9px; font-family: 'DejaVu Serif'; fill: #2e4a7a"> </tspan>
      <tspan x="99.303662" y="-0.15625" style="font-size: 9px; font-family: 'DejaVu Serif'; fill: #2e4a7a"> </tspan>
      <tspan x="102.164502" y="-0.15625" style="font-size: 9px; font-family: 'DejaVu Serif'; fill: #2e4a7a">s</tspan>
      <tspan x="106.783154" y="-0.15625" style="font-size: 9px; font-family: 'DejaVu Serif'; fill: #2e4a7a">u</tspan>
      <tspan x="112.579541" y="-0.15625" style="font-size: 9px; font-family: 'DejaVu Serif'; fill: #2e4a7a">b</tspan>
      <tspan x="118.340771" y="-0.15625" style="font-size: 9px; font-family: 'DejaVu Serif'; fill: #2e4a7a">e</tspan>
      <tspan x="89.872559" y="-0.15625" style="font-style: oblique; font-size: 9px; font-family: 'DejaVu Sans'; fill: #2e4a7a">F</tspan>
      <tspan x="95.049316" y="1.320312" style="font-size: 6.3px; font-family: 'DejaVu Sans'; fill: #2e4a7a">2</tspan>
     </text>
    </g>
   </g>
  </g>
 </g>
 <defs>
  <clipPath id="pe052af0636">
   <rect x="50.143438" y="4.32" width="351.376082" height="279.959364"/>
  </clipPath>
 </defs>
</svg>
